<?xml version="1.0" encoding="utf-8" standalone="no"?>
<!DOCTYPE svg PUBLIC "-//W3C//DTD SVG 1.1//EN"
  "http://www.w3.org/Graphics/SVG/1.1/DTD/svg11.dtd">
<svg xmlns:xlink="http://www.w3.org/1999/xlink" width="524.63622pt" height="167.470866pt" viewBox="0 0 524.63622 167.470866" xmlns="http://www.w3.org/2000/svg" version="1.1">
 <metadata>
  <rdf:RDF xmlns:dc="http://purl.org/dc/elements/1.1/" xmlns:cc="http://creativecommons.org/ns#" xmlns:rdf="http://www.w3.org/1999/02/22-rdf-syntax-ns#">
   <cc:Work>
    <dc:type rdf:resource="http://purl.org/dc/dcmitype/StillImage"/>
    <dc:date>2025-10-23T00:45:15.201064</dc:date>
    <dc:format>image/svg+xml</dc:format>
    <dc:creator>
     <cc:Agent>
      <dc:title>Matplotlib v3.10.6, https://matplotlib.org/</dc:title>
     </cc:Agent>
    </dc:creator>
   </cc:Work>
  </rdf:RDF>
 </metadata>
 <defs>
  <style type="text/css">*{stroke-linejoin: round; stroke-linecap: butt}</style>
 </defs>
 <g id="figure_1">
  <g id="patch_1">
   <path d="M -0 167.470866 
L 524.63622 167.470866 
L 524.63622 0 
L -0 0 
z
" style="fill: #ffffff"/>
  </g>
  <g id="patch_2">
   <path d="M 7.2 160.270866 
L 517.43622 160.270866 
L 517.43622 7.2 
L 7.2 7.2 
L 7.2 160.270866 
z
" style="fill: none; stroke: #ffffff; stroke-width: 0.7; stroke-linejoin: miter"/>
  </g>
  <g id="axes_1">
   <g id="patch_3">
    <path d="M 44.296131 130.322392 
L 196.907132 130.322392 
L 196.907132 61.602511 
L 44.296131 61.602511 
z
" style="fill: #ffffff"/>
   </g>
   <g id="matplotlib.axis_1">
    <g id="xtick_1">
     <g id="line2d_1">
      <defs>
       <path id="mbd6f70b2bd" d="M 0 1.5 
L 0 -1.5 
" style="stroke: #000000; stroke-width: 0.7"/>
      </defs>
      <g>
       <use xlink:href="#mbd6f70b2bd" x="76.501625" y="130.322392" style="stroke: #000000; stroke-width: 0.7"/>
      </g>
     </g>
     <g id="text_1">
      <!-- 0.2 -->
      <g transform="translate(71.644281 139.472392) scale(0.07 -0.07)">
       <defs>
        <path id="Roboto-Regular-30" d="M 3234 1944 
Q 3234 825 2848 381 
Q 2463 -63 1800 -63 
Q 1156 -63 764 368 
Q 372 800 359 1872 
L 359 2638 
Q 359 3753 750 4183 
Q 1141 4613 1794 4613 
Q 2447 4613 2834 4195 
Q 3222 3778 3234 2709 
L 3234 1944 
z
M 2653 2734 
Q 2653 3503 2434 3822 
Q 2216 4141 1794 4141 
Q 1388 4141 1167 3831 
Q 947 3522 941 2778 
L 941 1850 
Q 941 1088 1164 750 
Q 1388 413 1800 413 
Q 2222 413 2436 745 
Q 2650 1078 2653 1825 
L 2653 2734 
z
" transform="scale(0.015625)"/>
        <path id="Roboto-Regular-2e" d="M 450 306 
Q 450 453 542 554 
Q 634 656 809 656 
Q 984 656 1076 554 
Q 1169 453 1169 306 
Q 1169 163 1076 62 
Q 984 -38 809 -38 
Q 634 -38 542 62 
Q 450 163 450 306 
z
" transform="scale(0.015625)"/>
        <path id="Roboto-Regular-32" d="M 3359 475 
L 3359 0 
L 381 0 
L 381 416 
L 1925 2134 
Q 2306 2566 2439 2819 
Q 2572 3072 2572 3328 
Q 2572 3663 2364 3900 
Q 2156 4138 1778 4138 
Q 1322 4138 1097 3878 
Q 872 3619 872 3213 
L 294 3213 
Q 294 3788 672 4200 
Q 1050 4613 1778 4613 
Q 2422 4613 2786 4278 
Q 3150 3944 3150 3397 
Q 3150 2997 2903 2592 
Q 2656 2188 2297 1797 
L 1078 475 
L 3359 475 
z
" transform="scale(0.015625)"/>
       </defs>
       <use xlink:href="#Roboto-Regular-30"/>
       <use xlink:href="#Roboto-Regular-2e" transform="translate(56.201172 0)"/>
       <use xlink:href="#Roboto-Regular-32" transform="translate(82.568359 0)"/>
      </g>
     </g>
    </g>
    <g id="xtick_2">
     <g id="line2d_2">
      <g>
       <use xlink:href="#mbd6f70b2bd" x="114.933003" y="130.322392" style="stroke: #000000; stroke-width: 0.7"/>
      </g>
     </g>
     <g id="text_2">
      <!-- 0.3 -->
      <g transform="translate(110.075659 139.472392) scale(0.07 -0.07)">
       <defs>
        <path id="Roboto-Regular-33" d="M 1222 2084 
L 1222 2559 
L 1647 2559 
Q 2094 2563 2312 2784 
Q 2531 3006 2531 3338 
Q 2531 4138 1738 4138 
Q 1369 4138 1141 3927 
Q 913 3716 913 3359 
L 334 3359 
Q 334 3881 720 4247 
Q 1106 4613 1738 4613 
Q 2353 4613 2733 4286 
Q 3113 3959 3113 3325 
Q 3113 3072 2942 2784 
Q 2772 2497 2397 2338 
Q 2850 2191 3015 1884 
Q 3181 1578 3181 1269 
Q 3181 631 2768 284 
Q 2356 -63 1741 -63 
Q 1147 -63 722 267 
Q 297 597 297 1203 
L 875 1203 
Q 875 844 1108 628 
Q 1341 413 1741 413 
Q 2138 413 2369 622 
Q 2600 831 2600 1256 
Q 2600 1681 2337 1882 
Q 2075 2084 1634 2084 
L 1222 2084 
z
" transform="scale(0.015625)"/>
       </defs>
       <use xlink:href="#Roboto-Regular-30"/>
       <use xlink:href="#Roboto-Regular-2e" transform="translate(56.201172 0)"/>
       <use xlink:href="#Roboto-Regular-33" transform="translate(82.568359 0)"/>
      </g>
     </g>
    </g>
    <g id="xtick_3">
     <g id="line2d_3">
      <g>
       <use xlink:href="#mbd6f70b2bd" x="153.364381" y="130.322392" style="stroke: #000000; stroke-width: 0.7"/>
      </g>
     </g>
     <g id="text_3">
      <!-- 0.4 -->
      <g transform="translate(148.507037 139.472392) scale(0.07 -0.07)">
       <defs>
        <path id="Roboto-Regular-34" d="M 166 1397 
L 2203 4550 
L 2819 4550 
L 2819 1531 
L 3453 1531 
L 3453 1056 
L 2819 1056 
L 2819 0 
L 2241 0 
L 2241 1056 
L 166 1056 
L 166 1397 
z
M 822 1531 
L 2241 1531 
L 2241 3766 
L 2169 3638 
L 822 1531 
z
" transform="scale(0.015625)"/>
       </defs>
       <use xlink:href="#Roboto-Regular-30"/>
       <use xlink:href="#Roboto-Regular-2e" transform="translate(56.201172 0)"/>
       <use xlink:href="#Roboto-Regular-34" transform="translate(82.568359 0)"/>
      </g>
     </g>
    </g>
    <g id="xtick_4">
     <g id="line2d_4">
      <g>
       <use xlink:href="#mbd6f70b2bd" x="191.795758" y="130.322392" style="stroke: #000000; stroke-width: 0.7"/>
      </g>
     </g>
     <g id="text_4">
      <!-- 0.5 -->
      <g transform="translate(186.938415 139.472392) scale(0.07 -0.07)">
       <defs>
        <path id="Roboto-Regular-35" d="M 1109 2166 
L 647 2284 
L 875 4550 
L 3209 4550 
L 3209 4016 
L 1366 4016 
L 1228 2778 
Q 1572 2975 1988 2975 
Q 2616 2975 2980 2561 
Q 3344 2147 3344 1450 
Q 3344 797 2987 367 
Q 2631 -63 1903 -63 
Q 1350 -63 947 248 
Q 544 559 481 1197 
L 1031 1197 
Q 1141 413 1903 413 
Q 2313 413 2538 691 
Q 2763 969 2763 1444 
Q 2763 1872 2527 2164 
Q 2291 2456 1853 2456 
Q 1563 2456 1413 2378 
Q 1263 2300 1109 2166 
z
" transform="scale(0.015625)"/>
       </defs>
       <use xlink:href="#Roboto-Regular-30"/>
       <use xlink:href="#Roboto-Regular-2e" transform="translate(56.201172 0)"/>
       <use xlink:href="#Roboto-Regular-35" transform="translate(82.568359 0)"/>
      </g>
     </g>
    </g>
    <g id="xtick_5">
     <g id="line2d_5">
      <defs>
       <path id="m718a021546" d="M 0 2 
L 0 -2 
" style="stroke: #000000; stroke-width: 0.7"/>
      </defs>
      <g>
       <use xlink:href="#m718a021546" x="57.285936" y="130.322392" style="stroke: #000000; stroke-width: 0.7"/>
      </g>
     </g>
    </g>
    <g id="xtick_6">
     <g id="line2d_6">
      <g>
       <use xlink:href="#m718a021546" x="95.717314" y="130.322392" style="stroke: #000000; stroke-width: 0.7"/>
      </g>
     </g>
    </g>
    <g id="xtick_7">
     <g id="line2d_7">
      <g>
       <use xlink:href="#m718a021546" x="134.148692" y="130.322392" style="stroke: #000000; stroke-width: 0.7"/>
      </g>
     </g>
    </g>
    <g id="xtick_8">
     <g id="line2d_8">
      <g>
       <use xlink:href="#m718a021546" x="172.580069" y="130.322392" style="stroke: #000000; stroke-width: 0.7"/>
      </g>
     </g>
    </g>
   </g>
   <g id="matplotlib.axis_2">
    <g id="ytick_1">
     <g id="line2d_9">
      <defs>
       <path id="m7a9ee36618" d="M 1.5 0 
L -1.5 -0 
" style="stroke: #000000; stroke-width: 0.7"/>
      </defs>
      <g>
       <use xlink:href="#m7a9ee36618" x="44.296131" y="128.133447" style="stroke: #000000; stroke-width: 0.7"/>
      </g>
     </g>
     <g id="text_5">
      <!-- -200 -->
      <g transform="translate(26.658631 130.758447) scale(0.07 -0.07)">
       <defs>
        <path id="Roboto-Regular-2d" d="M 1644 2172 
L 1644 1697 
L 119 1697 
L 119 2172 
L 1644 2172 
z
" transform="scale(0.015625)"/>
       </defs>
       <use xlink:href="#Roboto-Regular-2d"/>
       <use xlink:href="#Roboto-Regular-32" transform="translate(27.636719 0)"/>
       <use xlink:href="#Roboto-Regular-30" transform="translate(83.837891 0)"/>
       <use xlink:href="#Roboto-Regular-30" transform="translate(140.039062 0)"/>
      </g>
     </g>
    </g>
    <g id="ytick_2">
     <g id="line2d_10">
      <g>
       <use xlink:href="#m7a9ee36618" x="44.296131" y="106.382166" style="stroke: #000000; stroke-width: 0.7"/>
      </g>
     </g>
     <g id="text_6">
      <!-- -100 -->
      <g transform="translate(26.658631 109.007166) scale(0.07 -0.07)">
       <defs>
        <path id="Roboto-Regular-31" d="M 2278 4575 
L 2278 0 
L 1700 0 
L 1700 3853 
L 534 3428 
L 534 3950 
L 2188 4575 
L 2278 4575 
z
" transform="scale(0.015625)"/>
       </defs>
       <use xlink:href="#Roboto-Regular-2d"/>
       <use xlink:href="#Roboto-Regular-31" transform="translate(27.636719 0)"/>
       <use xlink:href="#Roboto-Regular-30" transform="translate(83.837891 0)"/>
       <use xlink:href="#Roboto-Regular-30" transform="translate(140.039062 0)"/>
      </g>
     </g>
    </g>
    <g id="ytick_3">
     <g id="line2d_11">
      <g>
       <use xlink:href="#m7a9ee36618" x="44.296131" y="84.630884" style="stroke: #000000; stroke-width: 0.7"/>
      </g>
     </g>
     <g id="text_7">
      <!-- 0 -->
      <g transform="translate(36.461912 87.255884) scale(0.07 -0.07)">
       <use xlink:href="#Roboto-Regular-30"/>
      </g>
     </g>
    </g>
    <g id="ytick_4">
     <g id="line2d_12">
      <g>
       <use xlink:href="#m7a9ee36618" x="44.296131" y="62.879603" style="stroke: #000000; stroke-width: 0.7"/>
      </g>
     </g>
     <g id="text_8">
      <!-- 100 -->
      <g transform="translate(28.593474 65.504603) scale(0.07 -0.07)">
       <use xlink:href="#Roboto-Regular-31"/>
       <use xlink:href="#Roboto-Regular-30" transform="translate(56.201172 0)"/>
       <use xlink:href="#Roboto-Regular-30" transform="translate(112.402344 0)"/>
      </g>
     </g>
    </g>
    <g id="ytick_5">
     <g id="line2d_13">
      <defs>
       <path id="m83f3f1fc09" d="M 2 0 
L -2 -0 
" style="stroke: #000000; stroke-width: 0.7"/>
      </defs>
      <g>
       <use xlink:href="#m83f3f1fc09" x="44.296131" y="117.257807" style="stroke: #000000; stroke-width: 0.7"/>
      </g>
     </g>
    </g>
    <g id="ytick_6">
     <g id="line2d_14">
      <g>
       <use xlink:href="#m83f3f1fc09" x="44.296131" y="95.506525" style="stroke: #000000; stroke-width: 0.7"/>
      </g>
     </g>
    </g>
    <g id="ytick_7">
     <g id="line2d_15">
      <g>
       <use xlink:href="#m83f3f1fc09" x="44.296131" y="73.755243" style="stroke: #000000; stroke-width: 0.7"/>
      </g>
     </g>
    </g>
   </g>
   <g id="FillBetweenPolyCollection_1">
    <path d="M 51.232994 77.123825 
L 51.232994 92.398767 
L 54.883975 93.053517 
L 58.534956 92.567226 
L 62.185937 91.098151 
L 65.836918 88.86141 
L 69.487899 86.821277 
L 73.13888 84.707872 
L 76.789861 82.580003 
L 80.440841 81.153404 
L 84.091822 80.557412 
L 87.742803 80.630397 
L 91.393784 81.705188 
L 95.044765 82.976736 
L 98.695746 83.486564 
L 102.346727 84.828727 
L 105.997708 86.908919 
L 109.648688 89.330916 
L 113.299669 90.713114 
L 116.95065 92.471357 
L 120.601631 94.306593 
L 124.252612 96.205195 
L 127.903593 98.261481 
L 131.554574 99.276599 
L 135.205555 100.539417 
L 138.856536 101.794706 
L 142.507516 103.27424 
L 146.158497 104.188659 
L 149.809478 105.068473 
L 153.460459 106.019893 
L 157.11144 106.993394 
L 160.762421 107.970055 
L 164.413402 109.04956 
L 168.064383 109.934387 
L 171.715363 110.788912 
L 175.366344 111.698729 
L 179.017325 112.73968 
L 182.668306 113.648875 
L 186.319287 114.715536 
L 189.970268 115.717752 
L 189.970268 100.860196 
L 189.970268 100.860196 
L 186.319287 99.967488 
L 182.668306 98.903202 
L 179.017325 98.029641 
L 175.366344 96.76329 
L 171.715363 95.885904 
L 168.064383 94.911707 
L 164.413402 93.973764 
L 160.762421 92.924136 
L 157.11144 92.024049 
L 153.460459 91.056887 
L 149.809478 90.07062 
L 146.158497 89.147339 
L 142.507516 88.131233 
L 138.856536 86.627838 
L 135.205555 85.268277 
L 131.554574 84.010466 
L 127.903593 82.872989 
L 124.252612 80.666871 
L 120.601631 78.873306 
L 116.95065 77.145665 
L 113.299669 75.539068 
L 109.648688 73.864123 
L 105.997708 71.341953 
L 102.346727 69.255836 
L 98.695746 67.91694 
L 95.044765 67.459406 
L 91.393784 66.155145 
L 87.742803 64.893022 
L 84.091822 64.726142 
L 80.440841 65.350067 
L 76.789861 66.789582 
L 73.13888 68.965708 
L 69.487899 71.345684 
L 65.836918 73.552062 
L 62.185937 75.706396 
L 58.534956 77.233116 
L 54.883975 77.866076 
L 51.232994 77.123825 
z
" clip-path="url(#pc59b97d966)" style="fill-opacity: 0.4"/>
   </g>
   <g id="FillBetweenPolyCollection_2">
    <path d="M 51.232994 82.507348 
L 51.232994 85.173535 
L 54.883975 86.650398 
L 58.534956 86.601705 
L 62.185937 85.632999 
L 65.836918 84.351561 
L 69.487899 82.448531 
L 73.13888 80.758059 
L 76.789861 80.300033 
L 80.440841 80.36985 
L 84.091822 82.436937 
L 87.742803 84.968741 
L 91.393784 87.828706 
L 95.044765 90.90577 
L 98.695746 94.397607 
L 102.346727 97.972587 
L 105.997708 99.980525 
L 109.648688 102.174093 
L 113.299669 104.464914 
L 116.95065 106.698536 
L 120.601631 108.481333 
L 124.252612 109.876241 
L 127.903593 111.02046 
L 131.554574 112.183479 
L 135.205555 113.572526 
L 138.856536 114.330015 
L 142.507516 115.13203 
L 146.158497 115.864698 
L 149.809478 116.375883 
L 153.460459 116.675951 
L 157.11144 117.173613 
L 160.762421 117.520804 
L 164.413402 117.765506 
L 168.064383 118.040539 
L 171.715363 118.612924 
L 175.366344 119.271351 
L 179.017325 119.63186 
L 182.668306 120.148872 
L 186.319287 120.64643 
L 189.970268 121.041932 
L 189.970268 118.091545 
L 189.970268 118.091545 
L 186.319287 117.682546 
L 182.668306 117.182499 
L 179.017325 116.671015 
L 175.366344 116.262647 
L 171.715363 115.63211 
L 168.064383 115.051181 
L 164.413402 114.800986 
L 160.762421 114.361349 
L 157.11144 114.048371 
L 153.460459 113.517729 
L 149.809478 113.26132 
L 146.158497 112.704539 
L 142.507516 111.955915 
L 138.856536 111.225525 
L 135.205555 110.477073 
L 131.554574 109.014323 
L 127.903593 107.887367 
L 124.252612 106.685389 
L 120.601631 105.264396 
L 116.95065 103.511371 
L 113.299669 101.351982 
L 109.648688 99.119841 
L 105.997708 96.976605 
L 102.346727 94.941001 
L 98.695746 91.463224 
L 95.044765 87.967666 
L 91.393784 84.940593 
L 87.742803 82.140649 
L 84.091822 79.591266 
L 80.440841 77.484196 
L 76.789861 77.41102 
L 73.13888 77.875465 
L 69.487899 79.576366 
L 65.836918 81.455275 
L 62.185937 82.699769 
L 58.534956 83.778512 
L 54.883975 84.002807 
L 51.232994 82.507348 
z
" clip-path="url(#pc59b97d966)" style="fill: #006c66; fill-opacity: 0.4"/>
   </g>
   <g id="line2d_16">
    <path d="M 51.232994 84.761296 
L 54.883975 85.459797 
L 58.534956 84.900171 
L 62.185937 83.402273 
L 65.836918 81.206736 
L 69.487899 79.08348 
L 73.13888 76.83679 
L 76.789861 74.684793 
L 80.440841 73.251735 
L 84.091822 72.641777 
L 87.742803 72.76171 
L 91.393784 73.930167 
L 95.044765 75.218071 
L 98.695746 75.701752 
L 102.346727 77.042281 
L 105.997708 79.125436 
L 109.648688 81.597519 
L 113.299669 83.126091 
L 116.95065 84.808511 
L 120.601631 86.58995 
L 124.252612 88.436033 
L 127.903593 90.567235 
L 131.554574 91.643533 
L 135.205555 92.903847 
L 138.856536 94.211272 
L 142.507516 95.702736 
L 146.158497 96.667999 
L 149.809478 97.569547 
L 153.460459 98.53839 
L 157.11144 99.508721 
L 160.762421 100.447095 
L 164.413402 101.511662 
L 168.064383 102.423047 
L 171.715363 103.337408 
L 175.366344 104.231009 
L 179.017325 105.38466 
L 182.668306 106.276039 
L 186.319287 107.341512 
L 189.970268 108.288974 
" clip-path="url(#pc59b97d966)" style="fill: none; stroke: #000000; stroke-width: 0.886227"/>
   </g>
   <g id="line2d_17">
    <path d="M 51.232994 83.840442 
L 54.883975 85.326602 
L 58.534956 85.190109 
L 62.185937 84.166384 
L 65.836918 82.903418 
L 69.487899 81.012449 
L 73.13888 79.316762 
L 76.789861 78.855526 
L 80.440841 78.927023 
L 84.091822 81.014102 
L 87.742803 83.554695 
L 91.393784 86.38465 
L 95.044765 89.436718 
L 98.695746 92.930415 
L 102.346727 96.456794 
L 105.997708 98.478565 
L 109.648688 100.646967 
L 113.299669 102.908448 
L 116.95065 105.104953 
L 120.601631 106.872865 
L 124.252612 108.280815 
L 127.903593 109.453913 
L 131.554574 110.598901 
L 135.205555 112.0248 
L 138.856536 112.77777 
L 142.507516 113.543972 
L 146.158497 114.284619 
L 149.809478 114.818602 
L 153.460459 115.09684 
L 157.11144 115.610992 
L 160.762421 115.941077 
L 164.413402 116.283246 
L 168.064383 116.54586 
L 171.715363 117.122517 
L 175.366344 117.766999 
L 179.017325 118.151437 
L 182.668306 118.665686 
L 186.319287 119.164488 
L 189.970268 119.566739 
" clip-path="url(#pc59b97d966)" style="fill: none; stroke: #006c66; stroke-width: 0.886227"/>
   </g>
  </g>
  <g id="axes_2">
   <g id="patch_4">
    <path d="M 202.009494 130.322392 
L 354.620495 130.322392 
L 354.620495 61.602511 
L 202.009494 61.602511 
z
" style="fill: #ffffff"/>
   </g>
   <g id="matplotlib.axis_3">
    <g id="xtick_9">
     <g id="line2d_18">
      <g>
       <use xlink:href="#mbd6f70b2bd" x="234.214988" y="130.322392" style="stroke: #000000; stroke-width: 0.7"/>
      </g>
     </g>
     <g id="text_9">
      <!-- 0.2 -->
      <g transform="translate(229.357645 139.472392) scale(0.07 -0.07)">
       <use xlink:href="#Roboto-Regular-30"/>
       <use xlink:href="#Roboto-Regular-2e" transform="translate(56.201172 0)"/>
       <use xlink:href="#Roboto-Regular-32" transform="translate(82.568359 0)"/>
      </g>
     </g>
    </g>
    <g id="xtick_10">
     <g id="line2d_19">
      <g>
       <use xlink:href="#mbd6f70b2bd" x="272.646366" y="130.322392" style="stroke: #000000; stroke-width: 0.7"/>
      </g>
     </g>
     <g id="text_10">
      <!-- 0.3 -->
      <g transform="translate(267.789022 139.472392) scale(0.07 -0.07)">
       <use xlink:href="#Roboto-Regular-30"/>
       <use xlink:href="#Roboto-Regular-2e" transform="translate(56.201172 0)"/>
       <use xlink:href="#Roboto-Regular-33" transform="translate(82.568359 0)"/>
      </g>
     </g>
    </g>
    <g id="xtick_11">
     <g id="line2d_20">
      <g>
       <use xlink:href="#mbd6f70b2bd" x="311.077744" y="130.322392" style="stroke: #000000; stroke-width: 0.7"/>
      </g>
     </g>
     <g id="text_11">
      <!-- 0.4 -->
      <g transform="translate(306.2204 139.472392) scale(0.07 -0.07)">
       <use xlink:href="#Roboto-Regular-30"/>
       <use xlink:href="#Roboto-Regular-2e" transform="translate(56.201172 0)"/>
       <use xlink:href="#Roboto-Regular-34" transform="translate(82.568359 0)"/>
      </g>
     </g>
    </g>
    <g id="xtick_12">
     <g id="line2d_21">
      <g>
       <use xlink:href="#mbd6f70b2bd" x="349.509121" y="130.322392" style="stroke: #000000; stroke-width: 0.7"/>
      </g>
     </g>
     <g id="text_12">
      <!-- 0.5 -->
      <g transform="translate(344.651778 139.472392) scale(0.07 -0.07)">
       <use xlink:href="#Roboto-Regular-30"/>
       <use xlink:href="#Roboto-Regular-2e" transform="translate(56.201172 0)"/>
       <use xlink:href="#Roboto-Regular-35" transform="translate(82.568359 0)"/>
      </g>
     </g>
    </g>
    <g id="xtick_13">
     <g id="line2d_22">
      <g>
       <use xlink:href="#m718a021546" x="214.999299" y="130.322392" style="stroke: #000000; stroke-width: 0.7"/>
      </g>
     </g>
    </g>
    <g id="xtick_14">
     <g id="line2d_23">
      <g>
       <use xlink:href="#m718a021546" x="253.430677" y="130.322392" style="stroke: #000000; stroke-width: 0.7"/>
      </g>
     </g>
    </g>
    <g id="xtick_15">
     <g id="line2d_24">
      <g>
       <use xlink:href="#m718a021546" x="291.862055" y="130.322392" style="stroke: #000000; stroke-width: 0.7"/>
      </g>
     </g>
    </g>
    <g id="xtick_16">
     <g id="line2d_25">
      <g>
       <use xlink:href="#m718a021546" x="330.293433" y="130.322392" style="stroke: #000000; stroke-width: 0.7"/>
      </g>
     </g>
    </g>
   </g>
   <g id="matplotlib.axis_4">
    <g id="ytick_8"/>
    <g id="ytick_9"/>
    <g id="ytick_10"/>
    <g id="ytick_11"/>
    <g id="ytick_12"/>
    <g id="ytick_13"/>
    <g id="ytick_14"/>
   </g>
   <g id="FillBetweenPolyCollection_3">
    <path d="M 208.946357 80.210772 
L 208.946357 85.984576 
L 212.597338 87.781242 
L 216.248319 88.339204 
L 219.8993 87.988273 
L 223.550281 86.142085 
L 227.201262 84.294223 
L 230.852243 83.110494 
L 234.503224 83.782039 
L 238.154204 83.828408 
L 241.805185 84.937858 
L 245.456166 87.513062 
L 249.107147 88.790137 
L 252.758128 90.20432 
L 256.409109 91.771811 
L 260.06009 93.767421 
L 263.711071 95.978002 
L 267.362052 97.739382 
L 271.013032 99.752891 
L 274.664013 102.01835 
L 278.314994 103.843864 
L 281.965975 105.395533 
L 285.616956 106.927855 
L 289.267937 108.234747 
L 292.918918 109.513954 
L 296.569899 110.88839 
L 300.220879 112.146961 
L 303.87186 113.442434 
L 307.522841 114.975769 
L 311.173822 116.262884 
L 314.824803 117.139117 
L 318.475784 118.18272 
L 322.126765 119.34638 
L 325.777746 120.687678 
L 329.428727 121.510342 
L 333.079707 122.521208 
L 336.730688 123.762197 
L 340.381669 125.089556 
L 344.03265 126.113746 
L 347.683631 127.198761 
L 347.683631 120.517359 
L 347.683631 120.517359 
L 344.03265 119.414086 
L 340.381669 118.392476 
L 336.730688 117.046607 
L 333.079707 115.821409 
L 329.428727 114.808746 
L 325.777746 113.987791 
L 322.126765 112.645102 
L 318.475784 111.578682 
L 314.824803 110.530577 
L 311.173822 109.652278 
L 307.522841 108.324493 
L 303.87186 106.878781 
L 300.220879 105.543319 
L 296.569899 104.375465 
L 292.918918 103.306412 
L 289.267937 101.925031 
L 285.616956 100.580383 
L 281.965975 99.040944 
L 278.314994 97.55656 
L 274.664013 95.98575 
L 271.013032 93.723514 
L 267.362052 91.665867 
L 263.711071 89.832904 
L 260.06009 87.62184 
L 256.409109 85.653771 
L 252.758128 84.110176 
L 249.107147 82.681624 
L 245.456166 81.28986 
L 241.805185 78.700365 
L 238.154204 77.599233 
L 234.503224 77.716337 
L 230.852243 76.964435 
L 227.201262 78.379114 
L 223.550281 80.276343 
L 219.8993 82.166678 
L 216.248319 82.537872 
L 212.597338 82.038456 
L 208.946357 80.210772 
z
" clip-path="url(#pf943f41715)" style="fill-opacity: 0.4"/>
   </g>
   <g id="FillBetweenPolyCollection_4">
    <path d="M 208.946357 86.370188 
L 208.946357 87.440545 
L 212.597338 86.652259 
L 216.248319 84.302218 
L 219.8993 82.396623 
L 223.550281 80.280069 
L 227.201262 78.352231 
L 230.852243 77.005681 
L 234.503224 77.114053 
L 238.154204 77.869788 
L 241.805185 78.91964 
L 245.456166 80.213213 
L 249.107147 81.538222 
L 252.758128 83.979542 
L 256.409109 83.979542 
L 260.06009 83.979542 
L 263.711071 85.648562 
L 267.362052 88.116862 
L 271.013032 90.294672 
L 274.664013 92.534383 
L 278.314994 94.676397 
L 281.965975 96.00517 
L 285.616956 97.333651 
L 289.267937 98.35415 
L 292.918918 99.201379 
L 296.569899 100.00597 
L 300.220879 100.645972 
L 303.87186 101.344009 
L 307.522841 101.905146 
L 311.173822 102.441663 
L 314.824803 102.958784 
L 318.475784 103.671897 
L 322.126765 103.996909 
L 325.777746 104.213193 
L 329.428727 104.706011 
L 333.079707 105.243214 
L 336.730688 105.730369 
L 340.381669 104.844084 
L 344.03265 105.178288 
L 347.683631 105.446612 
L 347.683631 104.351267 
L 347.683631 104.351267 
L 344.03265 104.083514 
L 340.381669 103.75188 
L 336.730688 104.628027 
L 333.079707 104.123299 
L 329.428727 103.573176 
L 325.777746 103.037742 
L 322.126765 102.757522 
L 318.475784 102.437791 
L 314.824803 101.852166 
L 311.173822 101.304518 
L 307.522841 100.778202 
L 303.87186 100.245781 
L 300.220879 99.482284 
L 296.569899 98.849092 
L 292.918918 98.124798 
L 289.267937 97.290597 
L 285.616956 96.195466 
L 281.965975 94.835958 
L 278.314994 93.42946 
L 274.664013 91.474011 
L 271.013032 89.143891 
L 267.362052 86.871571 
L 263.711071 84.0407 
L 260.06009 82.89131 
L 256.409109 82.89131 
L 252.758128 82.89131 
L 249.107147 80.549452 
L 245.456166 79.096261 
L 241.805185 77.67065 
L 238.154204 76.556945 
L 234.503224 75.77781 
L 230.852243 75.727006 
L 227.201262 77.138789 
L 223.550281 79.085824 
L 219.8993 81.224391 
L 216.248319 83.132871 
L 212.597338 85.527979 
L 208.946357 86.370188 
z
" clip-path="url(#pf943f41715)" style="fill: #006c66; fill-opacity: 0.4"/>
   </g>
   <g id="line2d_26">
    <path d="M 208.946357 83.097674 
L 212.597338 84.909849 
L 216.248319 85.438538 
L 219.8993 85.077476 
L 223.550281 83.209214 
L 227.201262 81.336668 
L 230.852243 80.037464 
L 234.503224 80.749188 
L 238.154204 80.71382 
L 241.805185 81.819112 
L 245.456166 84.401461 
L 249.107147 85.73588 
L 252.758128 87.157248 
L 256.409109 88.712791 
L 260.06009 90.694631 
L 263.711071 92.905453 
L 267.362052 94.702624 
L 271.013032 96.738203 
L 274.664013 99.00205 
L 278.314994 100.700212 
L 281.965975 102.218238 
L 285.616956 103.754119 
L 289.267937 105.079889 
L 292.918918 106.410183 
L 296.569899 107.631928 
L 300.220879 108.84514 
L 303.87186 110.160608 
L 307.522841 111.650131 
L 311.173822 112.957581 
L 314.824803 113.834847 
L 318.475784 114.880701 
L 322.126765 115.995741 
L 325.777746 117.337734 
L 329.428727 118.159544 
L 333.079707 119.171309 
L 336.730688 120.404402 
L 340.381669 121.741016 
L 344.03265 122.763916 
L 347.683631 123.85806 
" clip-path="url(#pf943f41715)" style="fill: none; stroke: #000000; stroke-width: 0.886227"/>
   </g>
   <g id="line2d_27">
    <path d="M 208.946357 86.905367 
L 212.597338 86.090119 
L 216.248319 83.717544 
L 219.8993 81.810507 
L 223.550281 79.682946 
L 227.201262 77.74551 
L 230.852243 76.366344 
L 234.503224 76.445932 
L 238.154204 77.213367 
L 241.805185 78.295145 
L 245.456166 79.654737 
L 249.107147 81.043837 
L 252.758128 83.435426 
L 256.409109 83.435426 
L 260.06009 83.435426 
L 263.711071 84.844631 
L 267.362052 87.494217 
L 271.013032 89.719281 
L 274.664013 92.004197 
L 278.314994 94.052928 
L 281.965975 95.420564 
L 285.616956 96.764559 
L 289.267937 97.822373 
L 292.918918 98.663089 
L 296.569899 99.427531 
L 300.220879 100.064128 
L 303.87186 100.794895 
L 307.522841 101.341674 
L 311.173822 101.873091 
L 314.824803 102.405475 
L 318.475784 103.054844 
L 322.126765 103.377216 
L 325.777746 103.625467 
L 329.428727 104.139594 
L 333.079707 104.683256 
L 336.730688 105.179198 
L 340.381669 104.297982 
L 344.03265 104.630901 
L 347.683631 104.89894 
" clip-path="url(#pf943f41715)" style="fill: none; stroke: #006c66; stroke-width: 0.886227"/>
   </g>
  </g>
  <g id="axes_3">
   <g id="patch_5">
    <path d="M 359.722857 130.322392 
L 512.333858 130.322392 
L 512.333858 61.602511 
L 359.722857 61.602511 
z
" style="fill: #ffffff"/>
   </g>
   <g id="matplotlib.axis_5">
    <g id="xtick_17">
     <g id="line2d_28">
      <g>
       <use xlink:href="#mbd6f70b2bd" x="391.928351" y="130.322392" style="stroke: #000000; stroke-width: 0.7"/>
      </g>
     </g>
     <g id="text_13">
      <!-- 0.2 -->
      <g transform="translate(387.071008 139.472392) scale(0.07 -0.07)">
       <use xlink:href="#Roboto-Regular-30"/>
       <use xlink:href="#Roboto-Regular-2e" transform="translate(56.201172 0)"/>
       <use xlink:href="#Roboto-Regular-32" transform="translate(82.568359 0)"/>
      </g>
     </g>
    </g>
    <g id="xtick_18">
     <g id="line2d_29">
      <g>
       <use xlink:href="#mbd6f70b2bd" x="430.359729" y="130.322392" style="stroke: #000000; stroke-width: 0.7"/>
      </g>
     </g>
     <g id="text_14">
      <!-- 0.3 -->
      <g transform="translate(425.502385 139.472392) scale(0.07 -0.07)">
       <use xlink:href="#Roboto-Regular-30"/>
       <use xlink:href="#Roboto-Regular-2e" transform="translate(56.201172 0)"/>
       <use xlink:href="#Roboto-Regular-33" transform="translate(82.568359 0)"/>
      </g>
     </g>
    </g>
    <g id="xtick_19">
     <g id="line2d_30">
      <g>
       <use xlink:href="#mbd6f70b2bd" x="468.791107" y="130.322392" style="stroke: #000000; stroke-width: 0.7"/>
      </g>
     </g>
     <g id="text_15">
      <!-- 0.4 -->
      <g transform="translate(463.933763 139.472392) scale(0.07 -0.07)">
       <use xlink:href="#Roboto-Regular-30"/>
       <use xlink:href="#Roboto-Regular-2e" transform="translate(56.201172 0)"/>
       <use xlink:href="#Roboto-Regular-34" transform="translate(82.568359 0)"/>
      </g>
     </g>
    </g>
    <g id="xtick_20">
     <g id="line2d_31">
      <g>
       <use xlink:href="#mbd6f70b2bd" x="507.222485" y="130.322392" style="stroke: #000000; stroke-width: 0.7"/>
      </g>
     </g>
     <g id="text_16">
      <!-- 0.5 -->
      <g transform="translate(502.365141 139.472392) scale(0.07 -0.07)">
       <use xlink:href="#Roboto-Regular-30"/>
       <use xlink:href="#Roboto-Regular-2e" transform="translate(56.201172 0)"/>
       <use xlink:href="#Roboto-Regular-35" transform="translate(82.568359 0)"/>
      </g>
     </g>
    </g>
    <g id="xtick_21">
     <g id="line2d_32">
      <g>
       <use xlink:href="#m718a021546" x="372.712663" y="130.322392" style="stroke: #000000; stroke-width: 0.7"/>
      </g>
     </g>
    </g>
    <g id="xtick_22">
     <g id="line2d_33">
      <g>
       <use xlink:href="#m718a021546" x="411.14404" y="130.322392" style="stroke: #000000; stroke-width: 0.7"/>
      </g>
     </g>
    </g>
    <g id="xtick_23">
     <g id="line2d_34">
      <g>
       <use xlink:href="#m718a021546" x="449.575418" y="130.322392" style="stroke: #000000; stroke-width: 0.7"/>
      </g>
     </g>
    </g>
    <g id="xtick_24">
     <g id="line2d_35">
      <g>
       <use xlink:href="#m718a021546" x="488.006796" y="130.322392" style="stroke: #000000; stroke-width: 0.7"/>
      </g>
     </g>
    </g>
   </g>
   <g id="matplotlib.axis_6">
    <g id="ytick_15"/>
    <g id="ytick_16"/>
    <g id="ytick_17"/>
    <g id="ytick_18"/>
    <g id="ytick_19"/>
    <g id="ytick_20"/>
    <g id="ytick_21"/>
   </g>
   <g id="FillBetweenPolyCollection_5">
    <path d="M 366.659721 85.949549 
L 366.659721 86.236703 
L 370.310701 85.448237 
L 373.961682 85.045738 
L 377.612663 83.43434 
L 381.263644 81.575812 
L 384.914625 78.926641 
L 388.565606 76.689395 
L 392.216587 75.394774 
L 395.867568 74.402844 
L 399.518548 74.371751 
L 403.169529 75.392104 
L 406.82051 77.359095 
L 410.471491 79.719116 
L 414.122472 82.420255 
L 417.773453 84.635171 
L 421.424434 87.440308 
L 425.075415 89.774906 
L 428.726396 92.069533 
L 432.377376 94.256985 
L 436.028357 95.708995 
L 439.679338 97.012387 
L 443.330319 98.250753 
L 446.9813 99.416819 
L 450.632281 100.545609 
L 454.283262 101.110599 
L 457.934243 101.660437 
L 461.585223 102.454964 
L 465.236204 103.563846 
L 468.887185 104.603594 
L 472.538166 105.474033 
L 476.189147 106.412292 
L 479.840128 107.071351 
L 483.491109 107.804182 
L 487.14209 108.437574 
L 490.793071 109.192809 
L 494.444051 110.081344 
L 498.095032 110.641849 
L 501.746013 111.746231 
L 505.396994 112.639001 
L 505.396994 111.523295 
L 505.396994 111.523295 
L 501.746013 110.433783 
L 498.095032 109.250583 
L 494.444051 108.729092 
L 490.793071 107.90976 
L 487.14209 107.116783 
L 483.491109 106.48854 
L 479.840128 105.820588 
L 476.189147 105.251878 
L 472.538166 104.243636 
L 468.887185 103.32491 
L 465.236204 102.339049 
L 461.585223 101.322831 
L 457.934243 100.481309 
L 454.283262 99.938006 
L 450.632281 99.334647 
L 446.9813 98.213668 
L 443.330319 97.028629 
L 439.679338 95.837285 
L 436.028357 94.59114 
L 432.377376 93.070259 
L 428.726396 90.841169 
L 425.075415 88.561563 
L 421.424434 86.24762 
L 417.773453 83.185129 
L 414.122472 80.984486 
L 410.471491 78.342862 
L 406.82051 75.997036 
L 403.169529 74.152042 
L 399.518548 73.23543 
L 395.867568 73.250144 
L 392.216587 74.273597 
L 388.565606 75.649363 
L 384.914625 77.785865 
L 381.263644 80.494452 
L 377.612663 82.315472 
L 373.961682 83.829049 
L 370.310701 84.787986 
L 366.659721 85.949549 
z
" clip-path="url(#p6b08479bec)" style="fill-opacity: 0.4"/>
   </g>
   <g id="FillBetweenPolyCollection_6">
    <path d="M 373.961682 84.190723 
L 373.961682 85.660448 
L 377.612663 84.88575 
L 381.263644 83.505516 
L 384.914625 82.031029 
L 388.565606 80.586529 
L 392.216587 79.957168 
L 395.867568 82.054732 
L 399.518548 84.944505 
L 403.169529 87.968151 
L 406.82051 90.641266 
L 410.471491 93.198594 
L 414.122472 95.830579 
L 417.773453 97.698189 
L 421.424434 99.474165 
L 425.075415 101.478939 
L 428.726396 103.658595 
L 432.377376 105.012711 
L 436.028357 106.238548 
L 439.679338 107.617881 
L 443.330319 108.90686 
L 446.9813 109.83417 
L 450.632281 110.795007 
L 454.283262 111.756047 
L 457.934243 112.34507 
L 461.585223 113.186761 
L 465.236204 113.835242 
L 468.887185 114.453219 
L 472.538166 114.701893 
L 476.189147 115.135908 
L 479.840128 115.645931 
L 483.491109 116.170196 
L 487.14209 116.584019 
L 490.793071 116.974923 
L 494.444051 117.473756 
L 498.095032 118.178046 
L 501.746013 119.167365 
L 505.396994 119.629422 
L 505.396994 119.232441 
L 505.396994 119.232441 
L 501.746013 118.832147 
L 498.095032 117.825438 
L 494.444051 117.145041 
L 490.793071 116.526163 
L 487.14209 116.087082 
L 483.491109 115.727341 
L 479.840128 115.17196 
L 476.189147 114.663022 
L 472.538166 114.155251 
L 468.887185 113.969725 
L 465.236204 113.487697 
L 461.585223 112.767848 
L 457.934243 112.075769 
L 454.283262 111.398215 
L 450.632281 110.530794 
L 446.9813 109.517503 
L 443.330319 108.550672 
L 439.679338 107.299893 
L 436.028357 105.896489 
L 432.377376 104.708225 
L 428.726396 103.248708 
L 425.075415 101.081827 
L 421.424434 99.084874 
L 417.773453 97.274791 
L 414.122472 95.373752 
L 410.471491 92.713223 
L 406.82051 90.106454 
L 403.169529 87.456072 
L 399.518548 84.211491 
L 395.867568 81.35565 
L 392.216587 79.196658 
L 388.565606 79.680123 
L 384.914625 81.059832 
L 381.263644 82.433696 
L 377.612663 83.786615 
L 373.961682 84.190723 
z
" clip-path="url(#p6b08479bec)" style="fill: #006c66; fill-opacity: 0.4"/>
   </g>
   <g id="line2d_36">
    <path d="M 366.659721 86.093126 
L 370.310701 85.118112 
L 373.961682 84.437393 
L 377.612663 82.874906 
L 381.263644 81.035132 
L 384.914625 78.356253 
L 388.565606 76.169379 
L 392.216587 74.834186 
L 395.867568 73.826494 
L 399.518548 73.80359 
L 403.169529 74.772073 
L 406.82051 76.678066 
L 410.471491 79.030989 
L 414.122472 81.70237 
L 417.773453 83.91015 
L 421.424434 86.843964 
L 425.075415 89.168235 
L 428.726396 91.455351 
L 432.377376 93.663622 
L 436.028357 95.150068 
L 439.679338 96.424836 
L 443.330319 97.639691 
L 446.9813 98.815243 
L 450.632281 99.940128 
L 454.283262 100.524302 
L 457.934243 101.070873 
L 461.585223 101.888897 
L 465.236204 102.951448 
L 468.887185 103.964252 
L 472.538166 104.858835 
L 476.189147 105.832085 
L 479.840128 106.445969 
L 483.491109 107.146361 
L 487.14209 107.777178 
L 490.793071 108.551285 
L 494.444051 109.405218 
L 498.095032 109.946216 
L 501.746013 111.090007 
L 505.396994 112.081148 
" clip-path="url(#p6b08479bec)" style="fill: none; stroke: #000000; stroke-width: 0.886227"/>
   </g>
   <g id="line2d_37">
    <path d="M 373.961682 84.925586 
L 377.612663 84.336183 
L 381.263644 82.969606 
L 384.914625 81.54543 
L 388.565606 80.133326 
L 392.216587 79.576913 
L 395.867568 81.705191 
L 399.518548 84.577998 
L 403.169529 87.712112 
L 406.82051 90.37386 
L 410.471491 92.955909 
L 414.122472 95.602165 
L 417.773453 97.48649 
L 421.424434 99.27952 
L 425.075415 101.280383 
L 428.726396 103.453652 
L 432.377376 104.860468 
L 436.028357 106.067518 
L 439.679338 107.458887 
L 443.330319 108.728766 
L 446.9813 109.675836 
L 450.632281 110.662901 
L 454.283262 111.577131 
L 457.934243 112.21042 
L 461.585223 112.977305 
L 465.236204 113.661469 
L 468.887185 114.211472 
L 472.538166 114.428572 
L 476.189147 114.899465 
L 479.840128 115.408946 
L 483.491109 115.948769 
L 487.14209 116.33555 
L 490.793071 116.750543 
L 494.444051 117.309399 
L 498.095032 118.001742 
L 501.746013 118.999756 
L 505.396994 119.430932 
" clip-path="url(#p6b08479bec)" style="fill: none; stroke: #006c66; stroke-width: 0.886227"/>
   </g>
  </g>
  <g id="patch_6">
   <path d="M 44.296131 130.322392 
L 196.907132 130.322392 
L 196.907132 61.602511 
L 44.296131 61.602511 
L 44.296131 130.322392 
z
" style="fill: none; stroke: #000000; stroke-width: 0.7; stroke-linejoin: miter"/>
  </g>
  <g id="patch_7">
   <path d="M 202.009494 130.322392 
L 354.620495 130.322392 
L 354.620495 61.602511 
L 202.009494 61.602511 
L 202.009494 130.322392 
z
" style="fill: none; stroke: #000000; stroke-width: 0.7; stroke-linejoin: miter"/>
  </g>
  <g id="patch_8">
   <path d="M 359.722857 130.322392 
L 512.333858 130.322392 
L 512.333858 61.602511 
L 359.722857 61.602511 
L 359.722857 130.322392 
z
" style="fill: none; stroke: #000000; stroke-width: 0.7; stroke-linejoin: miter"/>
  </g>
  <g id="text_17">
   <!-- $\text{d}~[\text{nm}]$ -->
   <g transform="translate(266.589994 153.746629) scale(0.07 -0.07)">
    <defs>
     <path id="DejaVuSans-64" d="M 2906 2969 
L 2906 4863 
L 3481 4863 
L 3481 0 
L 2906 0 
L 2906 525 
Q 2725 213 2448 61 
Q 2172 -91 1784 -91 
Q 1150 -91 751 415 
Q 353 922 353 1747 
Q 353 2572 751 3078 
Q 1150 3584 1784 3584 
Q 2172 3584 2448 3432 
Q 2725 3281 2906 2969 
z
M 947 1747 
Q 947 1113 1208 752 
Q 1469 391 1925 391 
Q 2381 391 2643 752 
Q 2906 1113 2906 1747 
Q 2906 2381 2643 2742 
Q 2381 3103 1925 3103 
Q 1469 3103 1208 2742 
Q 947 2381 947 1747 
z
" transform="scale(0.015625)"/>
     <path id="DejaVuSans-5b" d="M 550 4863 
L 1875 4863 
L 1875 4416 
L 1125 4416 
L 1125 -397 
L 1875 -397 
L 1875 -844 
L 550 -844 
L 550 4863 
z
" transform="scale(0.015625)"/>
     <path id="DejaVuSans-6e" d="M 3513 2113 
L 3513 0 
L 2938 0 
L 2938 2094 
Q 2938 2591 2744 2837 
Q 2550 3084 2163 3084 
Q 1697 3084 1428 2787 
Q 1159 2491 1159 1978 
L 1159 0 
L 581 0 
L 581 3500 
L 1159 3500 
L 1159 2956 
Q 1366 3272 1645 3428 
Q 1925 3584 2291 3584 
Q 2894 3584 3203 3211 
Q 3513 2838 3513 2113 
z
" transform="scale(0.015625)"/>
     <path id="DejaVuSans-6d" d="M 3328 2828 
Q 3544 3216 3844 3400 
Q 4144 3584 4550 3584 
Q 5097 3584 5394 3201 
Q 5691 2819 5691 2113 
L 5691 0 
L 5113 0 
L 5113 2094 
Q 5113 2597 4934 2840 
Q 4756 3084 4391 3084 
Q 3944 3084 3684 2787 
Q 3425 2491 3425 1978 
L 3425 0 
L 2847 0 
L 2847 2094 
Q 2847 2600 2669 2842 
Q 2491 3084 2119 3084 
Q 1678 3084 1418 2786 
Q 1159 2488 1159 1978 
L 1159 0 
L 581 0 
L 581 3500 
L 1159 3500 
L 1159 2956 
Q 1356 3278 1631 3431 
Q 1906 3584 2284 3584 
Q 2666 3584 2933 3390 
Q 3200 3197 3328 2828 
z
" transform="scale(0.015625)"/>
     <path id="DejaVuSans-5d" d="M 1947 4863 
L 1947 -844 
L 622 -844 
L 622 -397 
L 1369 -397 
L 1369 4416 
L 622 4416 
L 622 4863 
L 1947 4863 
z
" transform="scale(0.015625)"/>
    </defs>
    <use xlink:href="#DejaVuSans-64" transform="translate(0 0.015625)"/>
    <use xlink:href="#DejaVuSans-5b" transform="translate(95.946941 0.015625)"/>
    <use xlink:href="#DejaVuSans-6e" transform="translate(134.960613 0.015625)"/>
    <use xlink:href="#DejaVuSans-6d" transform="translate(198.339519 0.015625)"/>
    <use xlink:href="#DejaVuSans-5d" transform="translate(295.751628 0.015625)"/>
   </g>
  </g>
  <g id="text_18">
   <!-- E [kJ/mol] -->
   <g transform="translate(17.634393 111.74253) rotate(-90) scale(0.07 -0.07)">
    <defs>
     <path id="Roboto-Regular-45" d="M 528 0 
L 528 4550 
L 3388 4550 
L 3388 4056 
L 1131 4056 
L 1131 2594 
L 3100 2594 
L 3100 2103 
L 1131 2103 
L 1131 491 
L 3419 491 
L 3419 0 
L 528 0 
z
" transform="scale(0.015625)"/>
     <path id="Roboto-Regular-20" transform="scale(0.015625)"/>
     <path id="Roboto-Regular-5b" d="M 1634 5200 
L 1634 4725 
L 1038 4725 
L 1038 -500 
L 1634 -500 
L 1634 -975 
L 459 -975 
L 459 5200 
L 1634 5200 
z
" transform="scale(0.015625)"/>
     <path id="Roboto-Regular-6b" d="M 2559 0 
L 1388 1569 
L 1022 1191 
L 1022 0 
L 441 0 
L 441 4800 
L 1022 4800 
L 1022 1900 
L 1331 2269 
L 2381 3381 
L 3088 3381 
L 1769 1972 
L 3241 0 
L 2559 0 
z
" transform="scale(0.015625)"/>
     <path id="Roboto-Regular-4a" d="M 2438 4550 
L 3038 4550 
L 3038 1328 
Q 3038 653 2633 295 
Q 2228 -63 1603 -63 
Q 975 -63 570 262 
Q 166 588 166 1259 
L 769 1259 
Q 769 828 1001 628 
Q 1234 428 1603 428 
Q 1959 428 2198 656 
Q 2438 884 2438 1328 
L 2438 4550 
z
" transform="scale(0.015625)"/>
     <path id="Roboto-Regular-2f" d="M 2453 4550 
L 556 -391 
L 59 -391 
L 1959 4550 
L 2453 4550 
z
" transform="scale(0.015625)"/>
     <path id="Roboto-Regular-6d" d="M 1794 2956 
Q 1225 2956 1016 2478 
L 1016 0 
L 434 0 
L 434 3381 
L 984 3381 
L 1000 3013 
Q 1366 3444 2000 3444 
Q 2325 3444 2579 3314 
Q 2834 3184 2969 2900 
Q 3138 3144 3408 3294 
Q 3678 3444 4044 3444 
Q 4588 3444 4883 3153 
Q 5178 2863 5178 2222 
L 5178 0 
L 4597 0 
L 4597 2228 
Q 4597 2653 4401 2804 
Q 4206 2956 3875 2956 
Q 3525 2956 3325 2748 
Q 3125 2541 3094 2244 
L 3094 0 
L 2516 0 
L 2516 2225 
Q 2516 2622 2319 2789 
Q 2122 2956 1794 2956 
z
" transform="scale(0.015625)"/>
     <path id="Roboto-Regular-6f" d="M 288 1725 
Q 288 2459 700 2951 
Q 1113 3444 1822 3444 
Q 2531 3444 2943 2961 
Q 3356 2478 3366 1756 
L 3366 1653 
Q 3366 919 2952 428 
Q 2538 -63 1828 -63 
Q 1116 -63 702 428 
Q 288 919 288 1653 
L 288 1725 
z
M 866 1653 
Q 866 1150 1105 781 
Q 1344 413 1828 413 
Q 2300 413 2540 777 
Q 2781 1141 2784 1644 
L 2784 1725 
Q 2784 2222 2543 2595 
Q 2303 2969 1822 2969 
Q 1344 2969 1105 2595 
Q 866 2222 866 1725 
L 866 1653 
z
" transform="scale(0.015625)"/>
     <path id="Roboto-Regular-6c" d="M 1069 4800 
L 1069 0 
L 488 0 
L 488 4800 
L 1069 4800 
z
" transform="scale(0.015625)"/>
     <path id="Roboto-Regular-5d" d="M 31 4725 
L 31 5200 
L 1213 5200 
L 1213 -975 
L 31 -975 
L 31 -500 
L 631 -500 
L 631 4725 
L 31 4725 
z
" transform="scale(0.015625)"/>
    </defs>
    <use xlink:href="#Roboto-Regular-45"/>
    <use xlink:href="#Roboto-Regular-20" transform="translate(56.835938 0)"/>
    <use xlink:href="#Roboto-Regular-5b" transform="translate(81.640625 0)"/>
    <use xlink:href="#Roboto-Regular-6b" transform="translate(108.154297 0)"/>
    <use xlink:href="#Roboto-Regular-4a" transform="translate(158.837891 0)"/>
    <use xlink:href="#Roboto-Regular-2f" transform="translate(214.013672 0)"/>
    <use xlink:href="#Roboto-Regular-6d" transform="translate(255.273438 0)"/>
    <use xlink:href="#Roboto-Regular-6f" transform="translate(342.96875 0)"/>
    <use xlink:href="#Roboto-Regular-6c" transform="translate(400 0)"/>
    <use xlink:href="#Roboto-Regular-5d" transform="translate(424.316406 0)"/>
   </g>
  </g>
  <g id="patch_9">
   <path d="M 44.296131 61.602511 
L 196.907132 61.602511 
L 196.907132 45.609449 
L 44.296131 45.609449 
z
" style="fill: #ffffff; stroke: #000000; stroke-linejoin: miter"/>
  </g>
  <g id="text_19">
   <!-- Ala845-Gly846 -->
   <g transform="translate(97.903037 56.23098) scale(0.07 -0.07)">
    <defs>
     <path id="Roboto-Regular-41" d="M 91 0 
L 1825 4550 
L 2353 4550 
L 4094 0 
L 3475 0 
L 3041 1191 
L 1138 1191 
L 706 0 
L 91 0 
z
M 1319 1684 
L 2863 1684 
L 2091 3806 
L 1319 1684 
z
" transform="scale(0.015625)"/>
     <path id="Roboto-Regular-61" d="M 2528 0 
Q 2472 122 2447 356 
Q 2284 184 2040 60 
Q 1797 -63 1484 -63 
Q 966 -63 653 228 
Q 341 519 341 941 
Q 341 1484 753 1767 
Q 1166 2050 1863 2050 
L 2434 2050 
L 2434 2319 
Q 2434 2619 2254 2798 
Q 2075 2978 1722 2978 
Q 1394 2978 1192 2817 
Q 991 2656 991 2444 
L 413 2444 
Q 413 2806 778 3125 
Q 1144 3444 1756 3444 
Q 2306 3444 2659 3162 
Q 3013 2881 3013 2313 
L 3013 794 
Q 3013 325 3131 50 
L 3131 0 
L 2528 0 
z
M 1569 444 
Q 1881 444 2111 600 
Q 2341 756 2434 947 
L 2434 1644 
L 1897 1644 
Q 922 1625 922 1019 
Q 922 778 1084 611 
Q 1247 444 1569 444 
z
" transform="scale(0.015625)"/>
     <path id="Roboto-Regular-38" d="M 3244 1231 
Q 3244 606 2826 271 
Q 2409 -63 1796 -63 
Q 1184 -63 767 271 
Q 350 606 350 1231 
Q 350 1613 554 1905 
Q 759 2197 1109 2347 
Q 806 2494 629 2762 
Q 453 3031 453 3366 
Q 453 3963 833 4288 
Q 1213 4613 1794 4613 
Q 2378 4613 2758 4288 
Q 3138 3963 3138 3366 
Q 3138 3028 2956 2761 
Q 2775 2494 2472 2347 
Q 2825 2197 3034 1903 
Q 3244 1609 3244 1231 
z
M 2559 3356 
Q 2559 3697 2346 3917 
Q 2134 4138 1793 4138 
Q 1453 4138 1243 3927 
Q 1034 3716 1034 3356 
Q 1034 3003 1243 2790 
Q 1453 2578 1797 2578 
Q 2138 2578 2348 2790 
Q 2559 3003 2559 3356 
z
M 2663 1244 
Q 2663 1625 2420 1865 
Q 2178 2106 1791 2106 
Q 1394 2106 1161 1865 
Q 928 1625 928 1244 
Q 928 850 1161 631 
Q 1394 413 1797 413 
Q 2200 413 2431 631 
Q 2663 850 2663 1244 
z
" transform="scale(0.015625)"/>
     <path id="Roboto-Regular-47" d="M 3891 2266 
L 3891 600 
Q 3763 413 3403 175 
Q 3044 -63 2281 -63 
Q 1450 -63 915 507 
Q 381 1078 381 2100 
L 381 2453 
Q 381 3469 856 4041 
Q 1331 4613 2213 4613 
Q 2994 4613 3398 4219 
Q 3803 3825 3891 3219 
L 3288 3219 
Q 3225 3588 2979 3853 
Q 2734 4119 2213 4119 
Q 1584 4119 1287 3676 
Q 991 3234 988 2475 
L 988 2100 
Q 988 1313 1344 870 
Q 1700 428 2284 428 
Q 2769 428 2984 542 
Q 3200 656 3291 759 
L 3291 1778 
L 2238 1778 
L 2238 2266 
L 3891 2266 
z
" transform="scale(0.015625)"/>
     <path id="Roboto-Regular-79" d="M 1594 -522 
Q 1294 -1316 688 -1363 
L 591 -1366 
Q 406 -1366 266 -1316 
L 263 -847 
L 419 -859 
Q 713 -859 878 -739 
Q 1044 -619 1150 -306 
L 1275 38 
L 69 3381 
L 700 3381 
L 1547 850 
L 2331 3381 
L 2950 3381 
L 1594 -522 
z
" transform="scale(0.015625)"/>
     <path id="Roboto-Regular-36" d="M 3291 1484 
Q 3291 838 2930 387 
Q 2569 -63 1878 -63 
Q 1388 -63 1063 198 
Q 738 459 577 861 
Q 416 1263 416 1684 
L 416 1956 
Q 416 2597 595 3194 
Q 775 3791 1247 4173 
Q 1719 4556 2597 4556 
L 2647 4556 
L 2647 4066 
Q 2041 4066 1705 3853 
Q 1369 3641 1205 3302 
Q 1041 2963 1006 2575 
Q 1369 2984 1984 2984 
Q 2438 2984 2727 2765 
Q 3016 2547 3153 2201 
Q 3291 1856 3291 1484 
z
M 997 1666 
Q 997 1059 1267 737 
Q 1538 416 1878 416 
Q 2278 416 2498 708 
Q 2719 1000 2719 1456 
Q 2719 1863 2516 2184 
Q 2313 2506 1891 2506 
Q 1588 2506 1341 2325 
Q 1094 2144 997 1884 
L 997 1666 
z
" transform="scale(0.015625)"/>
    </defs>
    <use xlink:href="#Roboto-Regular-41"/>
    <use xlink:href="#Roboto-Regular-6c" transform="translate(65.234375 0)"/>
    <use xlink:href="#Roboto-Regular-61" transform="translate(89.550781 0)"/>
    <use xlink:href="#Roboto-Regular-38" transform="translate(143.945312 0)"/>
    <use xlink:href="#Roboto-Regular-34" transform="translate(200.146484 0)"/>
    <use xlink:href="#Roboto-Regular-35" transform="translate(256.347656 0)"/>
    <use xlink:href="#Roboto-Regular-2d" transform="translate(312.548828 0)"/>
    <use xlink:href="#Roboto-Regular-47" transform="translate(340.185547 0)"/>
    <use xlink:href="#Roboto-Regular-6c" transform="translate(408.300781 0)"/>
    <use xlink:href="#Roboto-Regular-79" transform="translate(432.617188 0)"/>
    <use xlink:href="#Roboto-Regular-38" transform="translate(479.931641 0)"/>
    <use xlink:href="#Roboto-Regular-34" transform="translate(536.132812 0)"/>
    <use xlink:href="#Roboto-Regular-36" transform="translate(592.333984 0)"/>
   </g>
  </g>
  <g id="patch_10">
   <path d="M 202.009494 61.602511 
L 354.620495 61.602511 
L 354.620495 45.609449 
L 202.009494 45.609449 
z
" style="fill: #ffffff; stroke: #000000; stroke-linejoin: miter"/>
  </g>
  <g id="text_20">
   <!-- Gly840-Ala841 -->
   <g transform="translate(255.6164 56.23098) scale(0.07 -0.07)">
    <use xlink:href="#Roboto-Regular-47"/>
    <use xlink:href="#Roboto-Regular-6c" transform="translate(68.115234 0)"/>
    <use xlink:href="#Roboto-Regular-79" transform="translate(92.431641 0)"/>
    <use xlink:href="#Roboto-Regular-38" transform="translate(139.746094 0)"/>
    <use xlink:href="#Roboto-Regular-34" transform="translate(195.947266 0)"/>
    <use xlink:href="#Roboto-Regular-30" transform="translate(252.148438 0)"/>
    <use xlink:href="#Roboto-Regular-2d" transform="translate(308.349609 0)"/>
    <use xlink:href="#Roboto-Regular-41" transform="translate(335.986328 0)"/>
    <use xlink:href="#Roboto-Regular-6c" transform="translate(401.220703 0)"/>
    <use xlink:href="#Roboto-Regular-61" transform="translate(425.537109 0)"/>
    <use xlink:href="#Roboto-Regular-38" transform="translate(479.931641 0)"/>
    <use xlink:href="#Roboto-Regular-34" transform="translate(536.132812 0)"/>
    <use xlink:href="#Roboto-Regular-31" transform="translate(592.333984 0)"/>
   </g>
  </g>
  <g id="patch_11">
   <path d="M 359.722857 61.602511 
L 512.333858 61.602511 
L 512.333858 45.609449 
L 359.722857 45.609449 
z
" style="fill: #ffffff; stroke: #000000; stroke-linejoin: miter"/>
  </g>
  <g id="text_21">
   <!-- Hyp851-Gly852 -->
   <g transform="translate(412.249139 56.23098) scale(0.07 -0.07)">
    <defs>
     <path id="Roboto-Regular-48" d="M 3425 0 
L 3425 2103 
L 1131 2103 
L 1131 0 
L 528 0 
L 528 4550 
L 1131 4550 
L 1131 2594 
L 3425 2594 
L 3425 4550 
L 4025 4550 
L 4025 0 
L 3425 0 
z
" transform="scale(0.015625)"/>
     <path id="Roboto-Regular-70" d="M 1984 -63 
Q 1375 -63 1019 328 
L 1019 -1300 
L 438 -1300 
L 438 3381 
L 969 3381 
L 997 3009 
Q 1353 3444 1975 3444 
Q 2616 3444 2956 2969 
Q 3297 2494 3297 1719 
L 3297 1653 
Q 3297 913 2955 425 
Q 2613 -63 1984 -63 
z
M 1806 2956 
Q 1281 2956 1019 2491 
L 1019 872 
Q 1284 413 1813 413 
Q 2281 413 2498 781 
Q 2716 1150 2716 1653 
L 2716 1719 
Q 2716 2222 2498 2589 
Q 2281 2956 1806 2956 
z
" transform="scale(0.015625)"/>
    </defs>
    <use xlink:href="#Roboto-Regular-48"/>
    <use xlink:href="#Roboto-Regular-79" transform="translate(71.337891 0)"/>
    <use xlink:href="#Roboto-Regular-70" transform="translate(118.652344 0)"/>
    <use xlink:href="#Roboto-Regular-38" transform="translate(174.804688 0)"/>
    <use xlink:href="#Roboto-Regular-35" transform="translate(231.005859 0)"/>
    <use xlink:href="#Roboto-Regular-31" transform="translate(287.207031 0)"/>
    <use xlink:href="#Roboto-Regular-2d" transform="translate(343.408203 0)"/>
    <use xlink:href="#Roboto-Regular-47" transform="translate(371.044922 0)"/>
    <use xlink:href="#Roboto-Regular-6c" transform="translate(439.160156 0)"/>
    <use xlink:href="#Roboto-Regular-79" transform="translate(463.476562 0)"/>
    <use xlink:href="#Roboto-Regular-38" transform="translate(510.791016 0)"/>
    <use xlink:href="#Roboto-Regular-35" transform="translate(566.992188 0)"/>
    <use xlink:href="#Roboto-Regular-32" transform="translate(623.193359 0)"/>
   </g>
  </g>
  <g id="patch_12">
   <path d="M 221.933013 30.302362 
L 334.696975 30.302362 
L 334.696975 12.302362 
L 221.933013 12.302362 
z
" style="fill: #ffffff"/>
  </g>
  <g id="text_22">
   <!-- System -->
   <g transform="translate(222.933013 23.180331) scale(0.07 -0.07)">
    <defs>
     <path id="Roboto-Regular-53" d="M 2953 1150 
Q 2953 1463 2742 1650 
Q 2531 1838 1856 2036 
Q 1181 2234 789 2542 
Q 397 2850 397 3375 
Q 397 3906 820 4259 
Q 1244 4613 1944 4613 
Q 2713 4613 3130 4191 
Q 3547 3769 3547 3238 
L 2947 3238 
Q 2947 3619 2700 3869 
Q 2453 4119 1944 4119 
Q 1463 4119 1231 3908 
Q 1000 3697 1000 3381 
Q 1000 3097 1245 2908 
Q 1491 2719 2044 2563 
Q 2834 2341 3196 2014 
Q 3559 1688 3559 1156 
Q 3559 600 3125 268 
Q 2691 -63 1972 -63 
Q 1553 -63 1158 93 
Q 763 250 508 558 
Q 253 866 253 1319 
L 853 1319 
Q 853 853 1193 640 
Q 1534 428 1972 428 
Q 2444 428 2698 623 
Q 2953 819 2953 1150 
z
" transform="scale(0.015625)"/>
     <path id="Roboto-Regular-73" d="M 2409 897 
Q 2409 1081 2273 1229 
Q 2138 1378 1647 1478 
Q 1081 1594 747 1814 
Q 413 2034 413 2456 
Q 413 2856 755 3150 
Q 1097 3444 1666 3444 
Q 2272 3444 2612 3134 
Q 2953 2825 2953 2388 
L 2375 2388 
Q 2375 2597 2190 2783 
Q 2006 2969 1666 2969 
Q 1306 2969 1150 2812 
Q 994 2656 994 2472 
Q 994 2288 1139 2173 
Q 1284 2059 1756 1953 
Q 2378 1813 2683 1584 
Q 2988 1356 2988 941 
Q 2988 494 2630 215 
Q 2272 -63 1681 -63 
Q 1009 -63 653 281 
Q 297 625 297 1044 
L 878 1044 
Q 897 684 1155 548 
Q 1413 413 1681 413 
Q 2034 413 2221 550 
Q 2409 688 2409 897 
z
" transform="scale(0.015625)"/>
     <path id="Roboto-Regular-74" d="M 1872 0 
Q 1675 -63 1425 -63 
Q 1103 -63 875 134 
Q 647 331 647 841 
L 647 2938 
L 28 2938 
L 28 3381 
L 647 3381 
L 647 4203 
L 1225 4203 
L 1225 3381 
L 1856 3381 
L 1856 2938 
L 1225 2938 
L 1225 838 
Q 1225 578 1337 506 
Q 1450 434 1597 434 
Q 1706 434 1869 472 
L 1872 0 
z
" transform="scale(0.015625)"/>
     <path id="Roboto-Regular-65" d="M 3116 591 
Q 2950 341 2647 139 
Q 2344 -63 1844 -63 
Q 1138 -63 714 396 
Q 291 856 291 1572 
L 291 1703 
Q 291 2256 502 2645 
Q 713 3034 1050 3239 
Q 1388 3444 1769 3444 
Q 2494 3444 2826 2970 
Q 3159 2497 3159 1788 
L 3159 1528 
L 872 1528 
Q 884 1063 1148 736 
Q 1413 409 1875 409 
Q 2181 409 2393 534 
Q 2606 659 2766 869 
L 3116 591 
z
M 1769 2969 
Q 1425 2969 1187 2719 
Q 950 2469 891 2000 
L 2581 2000 
L 2581 2044 
Q 2559 2381 2386 2675 
Q 2213 2969 1769 2969 
z
" transform="scale(0.015625)"/>
    </defs>
    <use xlink:href="#Roboto-Regular-53"/>
    <use xlink:href="#Roboto-Regular-79" transform="translate(59.375 0)"/>
    <use xlink:href="#Roboto-Regular-73" transform="translate(106.689453 0)"/>
    <use xlink:href="#Roboto-Regular-74" transform="translate(158.300781 0)"/>
    <use xlink:href="#Roboto-Regular-65" transform="translate(191.015625 0)"/>
    <use xlink:href="#Roboto-Regular-6d" transform="translate(244.042969 0)"/>
   </g>
  </g>
  <g id="patch_13">
   <path d="M 257.060238 28.602362 
L 271.660238 28.602362 
L 271.660238 14.002362 
L 257.060238 14.002362 
L 257.060238 28.602362 
z
" clip-path="url(#pd28cb709d0)" style="fill: none"/>
  </g>
  <g id="line2d_38">
   <path d="M 256.360238 21.302362 
L 272.360238 21.302362 
" clip-path="url(#pd28cb709d0)" style="fill: none; stroke: #000000; stroke-width: 5.317362"/>
  </g>
  <g id="text_23">
   <!-- single -->
   <g transform="translate(274.911419 23.197831) scale(0.07 -0.07)">
    <defs>
     <path id="Roboto-Regular-69" d="M 444 4278 
Q 444 4419 530 4516 
Q 616 4613 784 4613 
Q 950 4613 1039 4516 
Q 1128 4419 1128 4278 
Q 1128 4144 1039 4048 
Q 950 3953 784 3953 
Q 616 3953 530 4048 
Q 444 4144 444 4278 
z
M 1069 3381 
L 1069 0 
L 488 0 
L 488 3381 
L 1069 3381 
z
" transform="scale(0.015625)"/>
     <path id="Roboto-Regular-6e" d="M 1844 2956 
Q 1566 2956 1353 2806 
Q 1141 2656 1019 2416 
L 1019 0 
L 441 0 
L 441 3381 
L 988 3381 
L 1006 2959 
Q 1391 3444 2016 3444 
Q 2513 3444 2805 3166 
Q 3097 2888 3100 2231 
L 3100 0 
L 2519 0 
L 2519 2222 
Q 2519 2619 2345 2787 
Q 2172 2956 1844 2956 
z
" transform="scale(0.015625)"/>
     <path id="Roboto-Regular-67" d="M 1725 -1334 
Q 1463 -1334 1081 -1206 
Q 700 -1078 472 -747 
L 775 -403 
Q 1150 -859 1681 -859 
Q 2091 -859 2334 -629 
Q 2578 -400 2578 44 
L 2578 341 
Q 2234 -63 1631 -63 
Q 1022 -63 662 425 
Q 303 913 303 1653 
L 303 1719 
Q 303 2494 661 2969 
Q 1019 3444 1638 3444 
Q 2259 3444 2603 3006 
L 2631 3381 
L 3156 3381 
L 3156 72 
Q 3156 -600 2756 -967 
Q 2356 -1334 1725 -1334 
z
M 881 1653 
Q 881 1150 1092 789 
Q 1303 428 1772 428 
Q 2322 428 2578 928 
L 2578 2469 
Q 2469 2678 2275 2817 
Q 2081 2956 1778 2956 
Q 1306 2956 1093 2589 
Q 881 2222 881 1719 
L 881 1653 
z
" transform="scale(0.015625)"/>
    </defs>
    <use xlink:href="#Roboto-Regular-73"/>
    <use xlink:href="#Roboto-Regular-69" transform="translate(51.611328 0)"/>
    <use xlink:href="#Roboto-Regular-6e" transform="translate(75.927734 0)"/>
    <use xlink:href="#Roboto-Regular-67" transform="translate(131.152344 0)"/>
    <use xlink:href="#Roboto-Regular-6c" transform="translate(187.304688 0)"/>
    <use xlink:href="#Roboto-Regular-65" transform="translate(211.621094 0)"/>
   </g>
  </g>
  <g id="patch_14">
   <path d="M 300.136263 28.602362 
L 314.736263 28.602362 
L 314.736263 14.002362 
L 300.136263 14.002362 
L 300.136263 28.602362 
z
" clip-path="url(#pef6ad57bdd)" style="fill: none"/>
  </g>
  <g id="line2d_39">
   <path d="M 299.436263 21.302362 
L 315.436263 21.302362 
" clip-path="url(#pef6ad57bdd)" style="fill: none; stroke: #006c66; stroke-width: 5.317362"/>
  </g>
  <g id="text_24">
   <!-- triple -->
   <g transform="translate(317.987444 23.216425) scale(0.07 -0.07)">
    <defs>
     <path id="Roboto-Regular-72" d="M 1791 2888 
Q 1225 2888 1019 2400 
L 1019 0 
L 441 0 
L 441 3381 
L 1003 3381 
L 1016 2994 
Q 1294 3444 1819 3444 
Q 1981 3444 2075 3400 
L 2072 2863 
Q 1944 2888 1791 2888 
z
" transform="scale(0.015625)"/>
    </defs>
    <use xlink:href="#Roboto-Regular-74"/>
    <use xlink:href="#Roboto-Regular-72" transform="translate(32.714844 0)"/>
    <use xlink:href="#Roboto-Regular-69" transform="translate(66.601562 0)"/>
    <use xlink:href="#Roboto-Regular-70" transform="translate(90.917969 0)"/>
    <use xlink:href="#Roboto-Regular-6c" transform="translate(147.070312 0)"/>
    <use xlink:href="#Roboto-Regular-65" transform="translate(171.386719 0)"/>
   </g>
  </g>
 </g>
 <defs>
  <clipPath id="pc59b97d966">
   <rect x="44.296131" y="61.602511" width="152.611001" height="68.71988"/>
  </clipPath>
  <clipPath id="pf943f41715">
   <rect x="202.009494" y="61.602511" width="152.611001" height="68.71988"/>
  </clipPath>
  <clipPath id="p6b08479bec">
   <rect x="359.722857" y="61.602511" width="152.611001" height="68.71988"/>
  </clipPath>
  <clipPath id="pd28cb709d0">
   <path d="M 256.360238 29.302362 
L 256.360238 13.302362 
L 272.360238 13.302362 
L 272.360238 29.302362 
"/>
  </clipPath>
  <clipPath id="pef6ad57bdd">
   <path d="M 299.436263 29.302362 
L 299.436263 13.302362 
L 315.436263 13.302362 
L 315.436263 29.302362 
"/>
  </clipPath>
 </defs>
</svg>
