<?xml version="1.0" encoding="utf-8" standalone="no"?>
<!DOCTYPE svg PUBLIC "-//W3C//DTD SVG 1.1//EN"
  "http://www.w3.org/Graphics/SVG/1.1/DTD/svg11.dtd">
<svg xmlns:xlink="http://www.w3.org/1999/xlink" width="240.4pt" height="184.4pt" viewBox="0 0 240.4 184.4" xmlns="http://www.w3.org/2000/svg" version="1.1">
 <metadata>
  <rdf:RDF xmlns:dc="http://purl.org/dc/elements/1.1/" xmlns:cc="http://creativecommons.org/ns#" xmlns:rdf="http://www.w3.org/1999/02/22-rdf-syntax-ns#">
   <cc:Work>
    <dc:type rdf:resource="http://purl.org/dc/dcmitype/StillImage"/>
    <dc:date>2026-01-28T17:36:55.045162</dc:date>
    <dc:format>image/svg+xml</dc:format>
    <dc:creator>
     <cc:Agent>
      <dc:title>Matplotlib v3.10.6, https://matplotlib.org/</dc:title>
     </cc:Agent>
    </dc:creator>
   </cc:Work>
  </rdf:RDF>
 </metadata>
 <defs>
  <style type="text/css">*{stroke-linejoin: round; stroke-linecap: butt}</style>
 </defs>
 <g id="figure_1">
  <g id="patch_1">
   <path d="M 0 184.4 
L 240.4 184.4 
L 240.4 0 
L 0 0 
z
" style="fill: #ffffff"/>
  </g>
  <g id="patch_2">
   <path d="M 7.2 177.2 
L 233.2 177.2 
L 233.2 7.2 
L 7.2 7.2 
L 7.2 177.2 
z
" style="fill: none; stroke: #ffffff; stroke-width: 0.7; stroke-linejoin: miter"/>
  </g>
  <g id="axes_1">
   <g id="patch_3">
    <path d="M 37.19449 153.85184 
L 230.94 153.85184 
L 230.94 9.466667 
L 37.19449 9.466667 
z
" style="fill: #ffffff"/>
   </g>
   <g id="matplotlib.axis_1">
    <g id="xtick_1">
     <g id="line2d_1">
      <defs>
       <path id="m3adaa8dd80" d="M 0 1.5 
L 0 -1.5 
" style="stroke: #000000; stroke-width: 0.7"/>
      </defs>
      <g>
       <use xlink:href="#m3adaa8dd80" x="90.034174" y="153.85184" style="stroke: #000000; stroke-width: 0.7"/>
      </g>
     </g>
     <g id="text_1">
      <!-- C -->
      <g transform="translate(87.755893 163.00184) scale(0.07 -0.07)">
       <defs>
        <path id="Roboto-Regular-43" d="M 3275 1447 
L 3875 1447 
Q 3806 800 3387 368 
Q 2969 -63 2150 -63 
Q 1356 -63 870 504 
Q 384 1072 375 2013 
L 375 2500 
Q 375 3456 867 4034 
Q 1359 4613 2203 4613 
Q 2975 4613 3390 4188 
Q 3806 3763 3875 3091 
L 3275 3091 
Q 3206 3566 2968 3842 
Q 2731 4119 2203 4119 
Q 1600 4119 1287 3675 
Q 975 3231 975 2506 
L 975 2047 
Q 975 1375 1259 901 
Q 1544 428 2150 428 
Q 2725 428 2961 697 
Q 3197 966 3275 1447 
z
" transform="scale(0.015625)"/>
       </defs>
       <use xlink:href="#Roboto-Regular-43"/>
      </g>
     </g>
    </g>
    <g id="xtick_2">
     <g id="line2d_2">
      <g>
       <use xlink:href="#m3adaa8dd80" x="178.100315" y="153.85184" style="stroke: #000000; stroke-width: 0.7"/>
      </g>
     </g>
     <g id="text_2">
      <!-- N -->
      <g transform="translate(175.603284 163.00184) scale(0.07 -0.07)">
       <defs>
        <path id="Roboto-Regular-4e" d="M 4028 4550 
L 4028 0 
L 3422 0 
L 1131 3509 
L 1131 0 
L 528 0 
L 528 4550 
L 1131 4550 
L 3431 1031 
L 3431 4550 
L 4028 4550 
z
" transform="scale(0.015625)"/>
       </defs>
       <use xlink:href="#Roboto-Regular-4e"/>
      </g>
     </g>
    </g>
   </g>
   <g id="matplotlib.axis_2">
    <g id="ytick_1">
     <g id="line2d_3">
      <defs>
       <path id="mc9c17e8052" d="M 1.5 0 
L -1.5 -0 
" style="stroke: #000000; stroke-width: 0.7"/>
      </defs>
      <g>
       <use xlink:href="#mc9c17e8052" x="37.19449" y="147.288878" style="stroke: #000000; stroke-width: 0.7"/>
      </g>
     </g>
     <g id="text_3">
      <!-- 0 -->
      <g transform="translate(29.360271 149.913878) scale(0.07 -0.07)">
       <defs>
        <path id="Roboto-Regular-30" d="M 3234 1944 
Q 3234 825 2848 381 
Q 2463 -63 1800 -63 
Q 1156 -63 764 368 
Q 372 800 359 1872 
L 359 2638 
Q 359 3753 750 4183 
Q 1141 4613 1794 4613 
Q 2447 4613 2834 4195 
Q 3222 3778 3234 2709 
L 3234 1944 
z
M 2653 2734 
Q 2653 3503 2434 3822 
Q 2216 4141 1794 4141 
Q 1388 4141 1167 3831 
Q 947 3522 941 2778 
L 941 1850 
Q 941 1088 1164 750 
Q 1388 413 1800 413 
Q 2222 413 2436 745 
Q 2650 1078 2653 1825 
L 2653 2734 
z
" transform="scale(0.015625)"/>
       </defs>
       <use xlink:href="#Roboto-Regular-30"/>
      </g>
     </g>
    </g>
    <g id="ytick_2">
     <g id="line2d_4">
      <g>
       <use xlink:href="#mc9c17e8052" x="37.19449" y="110.827975" style="stroke: #000000; stroke-width: 0.7"/>
      </g>
     </g>
     <g id="text_4">
      <!-- 50 -->
      <g transform="translate(25.426052 113.452975) scale(0.07 -0.07)">
       <defs>
        <path id="Roboto-Regular-35" d="M 1109 2166 
L 647 2284 
L 875 4550 
L 3209 4550 
L 3209 4016 
L 1366 4016 
L 1228 2778 
Q 1572 2975 1988 2975 
Q 2616 2975 2980 2561 
Q 3344 2147 3344 1450 
Q 3344 797 2987 367 
Q 2631 -63 1903 -63 
Q 1350 -63 947 248 
Q 544 559 481 1197 
L 1031 1197 
Q 1141 413 1903 413 
Q 2313 413 2538 691 
Q 2763 969 2763 1444 
Q 2763 1872 2527 2164 
Q 2291 2456 1853 2456 
Q 1563 2456 1413 2378 
Q 1263 2300 1109 2166 
z
" transform="scale(0.015625)"/>
       </defs>
       <use xlink:href="#Roboto-Regular-35"/>
       <use xlink:href="#Roboto-Regular-30" transform="translate(56.201172 0)"/>
      </g>
     </g>
    </g>
    <g id="ytick_3">
     <g id="line2d_5">
      <g>
       <use xlink:href="#mc9c17e8052" x="37.19449" y="74.367073" style="stroke: #000000; stroke-width: 0.7"/>
      </g>
     </g>
     <g id="text_5">
      <!-- 100 -->
      <g transform="translate(21.491833 76.992073) scale(0.07 -0.07)">
       <defs>
        <path id="Roboto-Regular-31" d="M 2278 4575 
L 2278 0 
L 1700 0 
L 1700 3853 
L 534 3428 
L 534 3950 
L 2188 4575 
L 2278 4575 
z
" transform="scale(0.015625)"/>
       </defs>
       <use xlink:href="#Roboto-Regular-31"/>
       <use xlink:href="#Roboto-Regular-30" transform="translate(56.201172 0)"/>
       <use xlink:href="#Roboto-Regular-30" transform="translate(112.402344 0)"/>
      </g>
     </g>
    </g>
    <g id="ytick_4">
     <g id="line2d_6">
      <g>
       <use xlink:href="#mc9c17e8052" x="37.19449" y="37.906171" style="stroke: #000000; stroke-width: 0.7"/>
      </g>
     </g>
     <g id="text_6">
      <!-- 150 -->
      <g transform="translate(21.491833 40.531171) scale(0.07 -0.07)">
       <use xlink:href="#Roboto-Regular-31"/>
       <use xlink:href="#Roboto-Regular-35" transform="translate(56.201172 0)"/>
       <use xlink:href="#Roboto-Regular-30" transform="translate(112.402344 0)"/>
      </g>
     </g>
    </g>
    <g id="ytick_5">
     <g id="line2d_7">
      <defs>
       <path id="ma16dc85c2f" d="M 2 0 
L -2 -0 
" style="stroke: #000000; stroke-width: 0.7"/>
      </defs>
      <g>
       <use xlink:href="#ma16dc85c2f" x="37.19449" y="129.058427" style="stroke: #000000; stroke-width: 0.7"/>
      </g>
     </g>
    </g>
    <g id="ytick_6">
     <g id="line2d_8">
      <g>
       <use xlink:href="#ma16dc85c2f" x="37.19449" y="92.597524" style="stroke: #000000; stroke-width: 0.7"/>
      </g>
     </g>
    </g>
    <g id="ytick_7">
     <g id="line2d_9">
      <g>
       <use xlink:href="#ma16dc85c2f" x="37.19449" y="56.136622" style="stroke: #000000; stroke-width: 0.7"/>
      </g>
     </g>
    </g>
    <g id="ytick_8">
     <g id="line2d_10">
      <g>
       <use xlink:href="#ma16dc85c2f" x="37.19449" y="19.675719" style="stroke: #000000; stroke-width: 0.7"/>
      </g>
     </g>
    </g>
   </g>
   <g id="PathCollection_1">
    <path d="M 176.04157 79.49616 
C 176.864175 79.49616 177.6532 79.169335 178.234869 78.587666 
C 178.816539 78.005996 179.143364 77.216971 179.143364 76.394366 
C 179.143364 75.57176 178.816539 74.782736 178.234869 74.201066 
C 177.6532 73.619396 176.864175 73.292572 176.04157 73.292572 
C 175.218964 73.292572 174.42994 73.619396 173.84827 74.201066 
C 173.2666 74.782736 172.939775 75.57176 172.939775 76.394366 
C 172.939775 77.216971 173.2666 78.005996 173.84827 78.587666 
C 174.42994 79.169335 175.218964 79.49616 176.04157 79.49616 
z
" clip-path="url(#p28774af40b)" style="fill: #55b4dc; stroke: #000000; stroke-width: 0.886227"/>
    <path d="M 172.046123 75.430229 
C 172.868729 75.430229 173.657753 75.103404 174.239423 74.521734 
C 174.821093 73.940064 175.147918 73.15104 175.147918 72.328434 
C 175.147918 71.505829 174.821093 70.716805 174.239423 70.135135 
C 173.657753 69.553465 172.868729 69.22664 172.046123 69.22664 
C 171.223518 69.22664 170.434493 69.553465 169.852824 70.135135 
C 169.271154 70.716805 168.944329 71.505829 168.944329 72.328434 
C 168.944329 73.15104 169.271154 73.940064 169.852824 74.521734 
C 170.434493 75.103404 171.223518 75.430229 172.046123 75.430229 
z
" clip-path="url(#p28774af40b)" style="fill: #55b4dc; stroke: #000000; stroke-width: 0.886227"/>
    <path d="M 91.458404 79.350165 
C 92.281009 79.350165 93.070034 79.02334 93.651704 78.44167 
C 94.233373 77.860001 94.560198 77.070976 94.560198 76.248371 
C 94.560198 75.425765 94.233373 74.636741 93.651704 74.055071 
C 93.070034 73.473401 92.281009 73.146576 91.458404 73.146576 
C 90.635798 73.146576 89.846774 73.473401 89.265104 74.055071 
C 88.683434 74.636741 88.35661 75.425765 88.35661 76.248371 
C 88.35661 77.070976 88.683434 77.860001 89.265104 78.44167 
C 89.846774 79.02334 90.635798 79.350165 91.458404 79.350165 
z
" clip-path="url(#p28774af40b)" style="fill: #55b4dc; stroke: #000000; stroke-width: 0.886227"/>
    <path d="M 93.28548 71.537818 
C 94.108086 71.537818 94.89711 71.210993 95.47878 70.629323 
C 96.06045 70.047653 96.387274 69.258629 96.387274 68.436023 
C 96.387274 67.613418 96.06045 66.824394 95.47878 66.242724 
C 94.89711 65.661054 94.108086 65.334229 93.28548 65.334229 
C 92.462875 65.334229 91.67385 65.661054 91.09218 66.242724 
C 90.510511 66.824394 90.183686 67.613418 90.183686 68.436023 
C 90.183686 69.258629 90.510511 70.047653 91.09218 70.629323 
C 91.67385 71.210993 92.462875 71.537818 93.28548 71.537818 
z
" clip-path="url(#p28774af40b)" style="fill: #55b4dc; stroke: #000000; stroke-width: 0.886227"/>
    <path d="M 92.500711 68.258943 
C 93.323317 68.258943 94.112341 67.932119 94.694011 67.350449 
C 95.275681 66.768779 95.602506 65.979754 95.602506 65.157149 
C 95.602506 64.334544 95.275681 63.545519 94.694011 62.963849 
C 94.112341 62.382179 93.323317 62.055355 92.500711 62.055355 
C 91.678106 62.055355 90.889081 62.382179 90.307412 62.963849 
C 89.725742 63.545519 89.398917 64.334544 89.398917 65.157149 
C 89.398917 65.979754 89.725742 66.768779 90.307412 67.350449 
C 90.889081 67.932119 91.678106 68.258943 92.500711 68.258943 
z
" clip-path="url(#p28774af40b)" style="fill: #55b4dc; stroke: #000000; stroke-width: 0.886227"/>
    <path d="M 81.413193 57.482975 
C 82.235798 57.482975 83.024823 57.15615 83.606493 56.574481 
C 84.188163 55.992811 84.514987 55.203786 84.514987 54.381181 
C 84.514987 53.558575 84.188163 52.769551 83.606493 52.187881 
C 83.024823 51.606211 82.235798 51.279387 81.413193 51.279387 
C 80.590588 51.279387 79.801563 51.606211 79.219893 52.187881 
C 78.638223 52.769551 78.311399 53.558575 78.311399 54.381181 
C 78.311399 55.203786 78.638223 55.992811 79.219893 56.574481 
C 79.801563 57.15615 80.590588 57.482975 81.413193 57.482975 
z
" clip-path="url(#p28774af40b)" style="fill: #55b4dc; stroke: #000000; stroke-width: 0.886227"/>
    <path d="M 92.188429 82.396982 
C 93.011035 82.396982 93.800059 82.070157 94.381729 81.488487 
C 94.963399 80.906817 95.290224 80.117793 95.290224 79.295187 
C 95.290224 78.472582 94.963399 77.683557 94.381729 77.101888 
C 93.800059 76.520218 93.011035 76.193393 92.188429 76.193393 
C 91.365824 76.193393 90.5768 76.520218 89.99513 77.101888 
C 89.41346 77.683557 89.086635 78.472582 89.086635 79.295187 
C 89.086635 80.117793 89.41346 80.906817 89.99513 81.488487 
C 90.5768 82.070157 91.365824 82.396982 92.188429 82.396982 
z
" clip-path="url(#p28774af40b)" style="fill: #55b4dc; stroke: #000000; stroke-width: 0.886227"/>
    <path d="M 83.216023 90.350543 
C 84.038629 90.350543 84.827653 90.023719 85.409323 89.442049 
C 85.990993 88.860379 86.317818 88.071355 86.317818 87.248749 
C 86.317818 86.426144 85.990993 85.637119 85.409323 85.055449 
C 84.827653 84.47378 84.038629 84.146955 83.216023 84.146955 
C 82.393418 84.146955 81.604394 84.47378 81.022724 85.055449 
C 80.441054 85.637119 80.114229 86.426144 80.114229 87.248749 
C 80.114229 88.071355 80.441054 88.860379 81.022724 89.442049 
C 81.604394 90.023719 82.393418 90.350543 83.216023 90.350543 
z
" clip-path="url(#p28774af40b)" style="fill: #55b4dc; stroke: #000000; stroke-width: 0.886227"/>
    <path d="M 92.06614 76.192249 
C 92.888746 76.192249 93.67777 75.865425 94.25944 75.283755 
C 94.84111 74.702085 95.167935 73.91306 95.167935 73.090455 
C 95.167935 72.26785 94.84111 71.478825 94.25944 70.897155 
C 93.67777 70.315485 92.888746 69.988661 92.06614 69.988661 
C 91.243535 69.988661 90.454511 70.315485 89.872841 70.897155 
C 89.291171 71.478825 88.964346 72.26785 88.964346 73.090455 
C 88.964346 73.91306 89.291171 74.702085 89.872841 75.283755 
C 90.454511 75.865425 91.243535 76.192249 92.06614 76.192249 
z
" clip-path="url(#p28774af40b)" style="fill: #55b4dc; stroke: #000000; stroke-width: 0.886227"/>
    <path d="M 82.322756 81.847502 
C 83.145361 81.847502 83.934385 81.520677 84.516055 80.939007 
C 85.097725 80.357337 85.42455 79.568313 85.42455 78.745708 
C 85.42455 77.923102 85.097725 77.134078 84.516055 76.552408 
C 83.934385 75.970738 83.145361 75.643913 82.322756 75.643913 
C 81.50015 75.643913 80.711126 75.970738 80.129456 76.552408 
C 79.547786 77.134078 79.220961 77.923102 79.220961 78.745708 
C 79.220961 79.568313 79.547786 80.357337 80.129456 80.939007 
C 80.711126 81.520677 81.50015 81.847502 82.322756 81.847502 
z
" clip-path="url(#p28774af40b)" style="fill: #55b4dc; stroke: #000000; stroke-width: 0.886227"/>
    <path d="M 85.436326 67.546172 
C 86.258931 67.546172 87.047956 67.219347 87.629625 66.637677 
C 88.211295 66.056007 88.53812 65.266983 88.53812 64.444377 
C 88.53812 63.621772 88.211295 62.832748 87.629625 62.251078 
C 87.047956 61.669408 86.258931 61.342583 85.436326 61.342583 
C 84.61372 61.342583 83.824696 61.669408 83.243026 62.251078 
C 82.661356 62.832748 82.334531 63.621772 82.334531 64.444377 
C 82.334531 65.266983 82.661356 66.056007 83.243026 66.637677 
C 83.824696 67.219347 84.61372 67.546172 85.436326 67.546172 
z
" clip-path="url(#p28774af40b)" style="fill: #55b4dc; stroke: #000000; stroke-width: 0.886227"/>
    <path d="M 88.160396 53.939464 
C 88.983001 53.939464 89.772025 53.61264 90.353695 53.03097 
C 90.935365 52.4493 91.26219 51.660276 91.26219 50.83767 
C 91.26219 50.015065 90.935365 49.22604 90.353695 48.64437 
C 89.772025 48.062701 88.983001 47.735876 88.160396 47.735876 
C 87.33779 47.735876 86.548766 48.062701 85.967096 48.64437 
C 85.385426 49.22604 85.058601 50.015065 85.058601 50.83767 
C 85.058601 51.660276 85.385426 52.4493 85.967096 53.03097 
C 86.548766 53.61264 87.33779 53.939464 88.160396 53.939464 
z
" clip-path="url(#p28774af40b)" style="fill: #55b4dc; stroke: #000000; stroke-width: 0.886227"/>
    <path d="M 85.034267 74.547801 
C 85.856872 74.547801 86.645897 74.220977 87.227567 73.639307 
C 87.809236 73.057637 88.136061 72.268613 88.136061 71.446007 
C 88.136061 70.623402 87.809236 69.834377 87.227567 69.252707 
C 86.645897 68.671037 85.856872 68.344213 85.034267 68.344213 
C 84.211661 68.344213 83.422637 68.671037 82.840967 69.252707 
C 82.259297 69.834377 81.932473 70.623402 81.932473 71.446007 
C 81.932473 72.268613 82.259297 73.057637 82.840967 73.639307 
C 83.422637 74.220977 84.211661 74.547801 85.034267 74.547801 
z
" clip-path="url(#p28774af40b)" style="fill: #55b4dc; stroke: #000000; stroke-width: 0.886227"/>
    <path d="M 97.629618 59.786583 
C 98.452224 59.786583 99.241248 59.459759 99.822918 58.878089 
C 100.404588 58.296419 100.731413 57.507395 100.731413 56.684789 
C 100.731413 55.862184 100.404588 55.073159 99.822918 54.491489 
C 99.241248 53.90982 98.452224 53.582995 97.629618 53.582995 
C 96.807013 53.582995 96.017989 53.90982 95.436319 54.491489 
C 94.854649 55.073159 94.527824 55.862184 94.527824 56.684789 
C 94.527824 57.507395 94.854649 58.296419 95.436319 58.878089 
C 96.017989 59.459759 96.807013 59.786583 97.629618 59.786583 
z
" clip-path="url(#p28774af40b)" style="fill: #55b4dc; stroke: #000000; stroke-width: 0.886227"/>
    <path d="M 173.190708 77.073391 
C 174.013313 77.073391 174.802338 76.746567 175.384008 76.164897 
C 175.965677 75.583227 176.292502 74.794203 176.292502 73.971597 
C 176.292502 73.148992 175.965677 72.359967 175.384008 71.778297 
C 174.802338 71.196627 174.013313 70.869803 173.190708 70.869803 
C 172.368102 70.869803 171.579078 71.196627 170.997408 71.778297 
C 170.415738 72.359967 170.088914 73.148992 170.088914 73.971597 
C 170.088914 74.794203 170.415738 75.583227 170.997408 76.164897 
C 171.579078 76.746567 172.368102 77.073391 173.190708 77.073391 
z
" clip-path="url(#p28774af40b)" style="fill: #55b4dc; stroke: #000000; stroke-width: 0.886227"/>
    <path d="M 174.710439 61.855558 
C 175.533044 61.855558 176.322069 61.528734 176.903738 60.947064 
C 177.485408 60.365394 177.812233 59.576369 177.812233 58.753764 
C 177.812233 57.931158 177.485408 57.142134 176.903738 56.560464 
C 176.322069 55.978794 175.533044 55.65197 174.710439 55.65197 
C 173.887833 55.65197 173.098809 55.978794 172.517139 56.560464 
C 171.935469 57.142134 171.608644 57.931158 171.608644 58.753764 
C 171.608644 59.576369 171.935469 60.365394 172.517139 60.947064 
C 173.098809 61.528734 173.887833 61.855558 174.710439 61.855558 
z
" clip-path="url(#p28774af40b)" style="fill: #55b4dc; stroke: #000000; stroke-width: 0.886227"/>
   </g>
  </g>
  <g id="patch_4">
   <path d="M 37.19449 153.85184 
L 230.94 153.85184 
L 230.94 9.466667 
L 37.19449 9.466667 
L 37.19449 153.85184 
z
" style="fill: none; stroke: #000000; stroke-width: 0.7; stroke-linejoin: miter"/>
  </g>
  <g id="text_7">
   <!-- Glycine position -->
   <g transform="translate(109.292714 173.439271) scale(0.07 -0.07)">
    <defs>
     <path id="Roboto-Regular-47" d="M 3891 2266 
L 3891 600 
Q 3763 413 3403 175 
Q 3044 -63 2281 -63 
Q 1450 -63 915 507 
Q 381 1078 381 2100 
L 381 2453 
Q 381 3469 856 4041 
Q 1331 4613 2213 4613 
Q 2994 4613 3398 4219 
Q 3803 3825 3891 3219 
L 3288 3219 
Q 3225 3588 2979 3853 
Q 2734 4119 2213 4119 
Q 1584 4119 1287 3676 
Q 991 3234 988 2475 
L 988 2100 
Q 988 1313 1344 870 
Q 1700 428 2284 428 
Q 2769 428 2984 542 
Q 3200 656 3291 759 
L 3291 1778 
L 2238 1778 
L 2238 2266 
L 3891 2266 
z
" transform="scale(0.015625)"/>
     <path id="Roboto-Regular-6c" d="M 1069 4800 
L 1069 0 
L 488 0 
L 488 4800 
L 1069 4800 
z
" transform="scale(0.015625)"/>
     <path id="Roboto-Regular-79" d="M 1594 -522 
Q 1294 -1316 688 -1363 
L 591 -1366 
Q 406 -1366 266 -1316 
L 263 -847 
L 419 -859 
Q 713 -859 878 -739 
Q 1044 -619 1150 -306 
L 1275 38 
L 69 3381 
L 700 3381 
L 1547 850 
L 2331 3381 
L 2950 3381 
L 1594 -522 
z
" transform="scale(0.015625)"/>
     <path id="Roboto-Regular-63" d="M 1794 413 
Q 2103 413 2336 597 
Q 2569 781 2591 1069 
L 3141 1069 
Q 3119 616 2725 276 
Q 2331 -63 1794 -63 
Q 1031 -63 661 440 
Q 291 944 291 1625 
L 291 1756 
Q 291 2438 661 2941 
Q 1031 3444 1794 3444 
Q 2388 3444 2753 3092 
Q 3119 2741 3141 2219 
L 2591 2219 
Q 2569 2531 2355 2750 
Q 2141 2969 1794 2969 
Q 1438 2969 1236 2787 
Q 1034 2606 951 2328 
Q 869 2050 869 1756 
L 869 1625 
Q 869 1328 950 1050 
Q 1031 772 1232 592 
Q 1434 413 1794 413 
z
" transform="scale(0.015625)"/>
     <path id="Roboto-Regular-69" d="M 444 4278 
Q 444 4419 530 4516 
Q 616 4613 784 4613 
Q 950 4613 1039 4516 
Q 1128 4419 1128 4278 
Q 1128 4144 1039 4048 
Q 950 3953 784 3953 
Q 616 3953 530 4048 
Q 444 4144 444 4278 
z
M 1069 3381 
L 1069 0 
L 488 0 
L 488 3381 
L 1069 3381 
z
" transform="scale(0.015625)"/>
     <path id="Roboto-Regular-6e" d="M 1844 2956 
Q 1566 2956 1353 2806 
Q 1141 2656 1019 2416 
L 1019 0 
L 441 0 
L 441 3381 
L 988 3381 
L 1006 2959 
Q 1391 3444 2016 3444 
Q 2513 3444 2805 3166 
Q 3097 2888 3100 2231 
L 3100 0 
L 2519 0 
L 2519 2222 
Q 2519 2619 2345 2787 
Q 2172 2956 1844 2956 
z
" transform="scale(0.015625)"/>
     <path id="Roboto-Regular-65" d="M 3116 591 
Q 2950 341 2647 139 
Q 2344 -63 1844 -63 
Q 1138 -63 714 396 
Q 291 856 291 1572 
L 291 1703 
Q 291 2256 502 2645 
Q 713 3034 1050 3239 
Q 1388 3444 1769 3444 
Q 2494 3444 2826 2970 
Q 3159 2497 3159 1788 
L 3159 1528 
L 872 1528 
Q 884 1063 1148 736 
Q 1413 409 1875 409 
Q 2181 409 2393 534 
Q 2606 659 2766 869 
L 3116 591 
z
M 1769 2969 
Q 1425 2969 1187 2719 
Q 950 2469 891 2000 
L 2581 2000 
L 2581 2044 
Q 2559 2381 2386 2675 
Q 2213 2969 1769 2969 
z
" transform="scale(0.015625)"/>
     <path id="Roboto-Regular-20" transform="scale(0.015625)"/>
     <path id="Roboto-Regular-70" d="M 1984 -63 
Q 1375 -63 1019 328 
L 1019 -1300 
L 438 -1300 
L 438 3381 
L 969 3381 
L 997 3009 
Q 1353 3444 1975 3444 
Q 2616 3444 2956 2969 
Q 3297 2494 3297 1719 
L 3297 1653 
Q 3297 913 2955 425 
Q 2613 -63 1984 -63 
z
M 1806 2956 
Q 1281 2956 1019 2491 
L 1019 872 
Q 1284 413 1813 413 
Q 2281 413 2498 781 
Q 2716 1150 2716 1653 
L 2716 1719 
Q 2716 2222 2498 2589 
Q 2281 2956 1806 2956 
z
" transform="scale(0.015625)"/>
     <path id="Roboto-Regular-6f" d="M 288 1725 
Q 288 2459 700 2951 
Q 1113 3444 1822 3444 
Q 2531 3444 2943 2961 
Q 3356 2478 3366 1756 
L 3366 1653 
Q 3366 919 2952 428 
Q 2538 -63 1828 -63 
Q 1116 -63 702 428 
Q 288 919 288 1653 
L 288 1725 
z
M 866 1653 
Q 866 1150 1105 781 
Q 1344 413 1828 413 
Q 2300 413 2540 777 
Q 2781 1141 2784 1644 
L 2784 1725 
Q 2784 2222 2543 2595 
Q 2303 2969 1822 2969 
Q 1344 2969 1105 2595 
Q 866 2222 866 1725 
L 866 1653 
z
" transform="scale(0.015625)"/>
     <path id="Roboto-Regular-73" d="M 2409 897 
Q 2409 1081 2273 1229 
Q 2138 1378 1647 1478 
Q 1081 1594 747 1814 
Q 413 2034 413 2456 
Q 413 2856 755 3150 
Q 1097 3444 1666 3444 
Q 2272 3444 2612 3134 
Q 2953 2825 2953 2388 
L 2375 2388 
Q 2375 2597 2190 2783 
Q 2006 2969 1666 2969 
Q 1306 2969 1150 2812 
Q 994 2656 994 2472 
Q 994 2288 1139 2173 
Q 1284 2059 1756 1953 
Q 2378 1813 2683 1584 
Q 2988 1356 2988 941 
Q 2988 494 2630 215 
Q 2272 -63 1681 -63 
Q 1009 -63 653 281 
Q 297 625 297 1044 
L 878 1044 
Q 897 684 1155 548 
Q 1413 413 1681 413 
Q 2034 413 2221 550 
Q 2409 688 2409 897 
z
" transform="scale(0.015625)"/>
     <path id="Roboto-Regular-74" d="M 1872 0 
Q 1675 -63 1425 -63 
Q 1103 -63 875 134 
Q 647 331 647 841 
L 647 2938 
L 28 2938 
L 28 3381 
L 647 3381 
L 647 4203 
L 1225 4203 
L 1225 3381 
L 1856 3381 
L 1856 2938 
L 1225 2938 
L 1225 838 
Q 1225 578 1337 506 
Q 1450 434 1597 434 
Q 1706 434 1869 472 
L 1872 0 
z
" transform="scale(0.015625)"/>
    </defs>
    <use xlink:href="#Roboto-Regular-47"/>
    <use xlink:href="#Roboto-Regular-6c" transform="translate(68.115234 0)"/>
    <use xlink:href="#Roboto-Regular-79" transform="translate(92.431641 0)"/>
    <use xlink:href="#Roboto-Regular-63" transform="translate(139.746094 0)"/>
    <use xlink:href="#Roboto-Regular-69" transform="translate(192.089844 0)"/>
    <use xlink:href="#Roboto-Regular-6e" transform="translate(216.40625 0)"/>
    <use xlink:href="#Roboto-Regular-65" transform="translate(271.630859 0)"/>
    <use xlink:href="#Roboto-Regular-20" transform="translate(324.658203 0)"/>
    <use xlink:href="#Roboto-Regular-70" transform="translate(349.462891 0)"/>
    <use xlink:href="#Roboto-Regular-6f" transform="translate(405.615234 0)"/>
    <use xlink:href="#Roboto-Regular-73" transform="translate(462.646484 0)"/>
    <use xlink:href="#Roboto-Regular-69" transform="translate(514.257812 0)"/>
    <use xlink:href="#Roboto-Regular-74" transform="translate(538.574219 0)"/>
    <use xlink:href="#Roboto-Regular-69" transform="translate(571.289062 0)"/>
    <use xlink:href="#Roboto-Regular-6f" transform="translate(595.605469 0)"/>
    <use xlink:href="#Roboto-Regular-6e" transform="translate(652.636719 0)"/>
   </g>
  </g>
  <g id="text_8">
   <!-- $\Delta$G (kJ/mol) -->
   <g transform="translate(15.13 100.804253) rotate(-90) scale(0.07 -0.07)">
    <defs>
     <path id="DejaVuSans-394" d="M 2188 4044 
L 906 525 
L 3472 525 
L 2188 4044 
z
M 50 0 
L 1831 4666 
L 2547 4666 
L 4325 0 
L 50 0 
z
" transform="scale(0.015625)"/>
     <path id="Roboto-Regular-28" d="M 419 1850 
Q 419 2756 678 3434 
Q 938 4113 1294 4541 
Q 1650 4969 1947 5134 
L 2069 4753 
Q 1700 4475 1348 3761 
Q 997 3047 997 1813 
Q 997 625 1348 -97 
Q 1700 -819 2069 -1119 
L 1947 -1469 
Q 1650 -1306 1294 -878 
Q 938 -450 678 226 
Q 419 903 419 1850 
z
" transform="scale(0.015625)"/>
     <path id="Roboto-Regular-6b" d="M 2559 0 
L 1388 1569 
L 1022 1191 
L 1022 0 
L 441 0 
L 441 4800 
L 1022 4800 
L 1022 1900 
L 1331 2269 
L 2381 3381 
L 3088 3381 
L 1769 1972 
L 3241 0 
L 2559 0 
z
" transform="scale(0.015625)"/>
     <path id="Roboto-Regular-4a" d="M 2438 4550 
L 3038 4550 
L 3038 1328 
Q 3038 653 2633 295 
Q 2228 -63 1603 -63 
Q 975 -63 570 262 
Q 166 588 166 1259 
L 769 1259 
Q 769 828 1001 628 
Q 1234 428 1603 428 
Q 1959 428 2198 656 
Q 2438 884 2438 1328 
L 2438 4550 
z
" transform="scale(0.015625)"/>
     <path id="Roboto-Regular-2f" d="M 2453 4550 
L 556 -391 
L 59 -391 
L 1959 4550 
L 2453 4550 
z
" transform="scale(0.015625)"/>
     <path id="Roboto-Regular-6d" d="M 1794 2956 
Q 1225 2956 1016 2478 
L 1016 0 
L 434 0 
L 434 3381 
L 984 3381 
L 1000 3013 
Q 1366 3444 2000 3444 
Q 2325 3444 2579 3314 
Q 2834 3184 2969 2900 
Q 3138 3144 3408 3294 
Q 3678 3444 4044 3444 
Q 4588 3444 4883 3153 
Q 5178 2863 5178 2222 
L 5178 0 
L 4597 0 
L 4597 2228 
Q 4597 2653 4401 2804 
Q 4206 2956 3875 2956 
Q 3525 2956 3325 2748 
Q 3125 2541 3094 2244 
L 3094 0 
L 2516 0 
L 2516 2225 
Q 2516 2622 2319 2789 
Q 2122 2956 1794 2956 
z
" transform="scale(0.015625)"/>
     <path id="Roboto-Regular-29" d="M 1772 1819 
Q 1772 906 1512 228 
Q 1253 -450 895 -878 
Q 538 -1306 244 -1469 
L 122 -1119 
Q 488 -841 841 -109 
Q 1194 622 1194 1856 
Q 1194 2647 1019 3236 
Q 844 3825 594 4212 
Q 344 4600 122 4781 
L 244 5134 
Q 538 4969 895 4541 
Q 1253 4113 1512 3436 
Q 1772 2759 1772 1819 
z
" transform="scale(0.015625)"/>
    </defs>
    <use xlink:href="#DejaVuSans-394" transform="translate(0 0.78125)"/>
    <use xlink:href="#Roboto-Regular-47" transform="translate(68.408203 0.78125)"/>
    <use xlink:href="#Roboto-Regular-20" transform="translate(136.523438 0.78125)"/>
    <use xlink:href="#Roboto-Regular-28" transform="translate(161.328125 0.78125)"/>
    <use xlink:href="#Roboto-Regular-6b" transform="translate(195.556641 0.78125)"/>
    <use xlink:href="#Roboto-Regular-4a" transform="translate(246.240234 0.78125)"/>
    <use xlink:href="#Roboto-Regular-2f" transform="translate(301.416016 0.78125)"/>
    <use xlink:href="#Roboto-Regular-6d" transform="translate(342.675781 0.78125)"/>
    <use xlink:href="#Roboto-Regular-6f" transform="translate(430.371094 0.78125)"/>
    <use xlink:href="#Roboto-Regular-6c" transform="translate(487.402344 0.78125)"/>
    <use xlink:href="#Roboto-Regular-29" transform="translate(511.71875 0.78125)"/>
   </g>
  </g>
 </g>
 <defs>
  <clipPath id="p28774af40b">
   <rect x="37.19449" y="9.466667" width="193.74551" height="144.385174"/>
  </clipPath>
 </defs>
</svg>
