<?xml version="1.0" encoding="utf-8" standalone="no"?>
<!DOCTYPE svg PUBLIC "-//W3C//DTD SVG 1.1//EN"
  "http://www.w3.org/Graphics/SVG/1.1/DTD/svg11.dtd">
<svg xmlns:xlink="http://www.w3.org/1999/xlink" width="240.4pt" height="184.4pt" viewBox="0 0 240.4 184.4" xmlns="http://www.w3.org/2000/svg" version="1.1">
 <metadata>
  <rdf:RDF xmlns:dc="http://purl.org/dc/elements/1.1/" xmlns:cc="http://creativecommons.org/ns#" xmlns:rdf="http://www.w3.org/1999/02/22-rdf-syntax-ns#">
   <cc:Work>
    <dc:type rdf:resource="http://purl.org/dc/dcmitype/StillImage"/>
    <dc:date>2026-01-28T17:36:55.779315</dc:date>
    <dc:format>image/svg+xml</dc:format>
    <dc:creator>
     <cc:Agent>
      <dc:title>Matplotlib v3.10.6, https://matplotlib.org/</dc:title>
     </cc:Agent>
    </dc:creator>
   </cc:Work>
  </rdf:RDF>
 </metadata>
 <defs>
  <style type="text/css">*{stroke-linejoin: round; stroke-linecap: butt}</style>
 </defs>
 <g id="figure_1">
  <g id="patch_1">
   <path d="M 0 184.4 
L 240.4 184.4 
L 240.4 0 
L 0 0 
z
" style="fill: #ffffff"/>
  </g>
  <g id="patch_2">
   <path d="M 7.2 177.2 
L 233.2 177.2 
L 233.2 7.2 
L 7.2 7.2 
L 7.2 177.2 
z
" style="fill: none; stroke: #ffffff; stroke-width: 0.7; stroke-linejoin: miter"/>
  </g>
  <g id="axes_1">
   <g id="patch_3">
    <path d="M 37.19449 153.85184 
L 230.94 153.85184 
L 230.94 9.466667 
L 37.19449 9.466667 
z
" style="fill: #ffffff"/>
   </g>
   <g id="matplotlib.axis_1">
    <g id="xtick_1">
     <g id="line2d_1">
      <defs>
       <path id="mde7f9da5d2" d="M 0 1.5 
L 0 -1.5 
" style="stroke: #000000; stroke-width: 0.7"/>
      </defs>
      <g>
       <use xlink:href="#mde7f9da5d2" x="90.034174" y="153.85184" style="stroke: #000000; stroke-width: 0.7"/>
      </g>
     </g>
     <g id="text_1">
      <!-- C -->
      <g transform="translate(87.755893 163.00184) scale(0.07 -0.07)">
       <defs>
        <path id="Roboto-Regular-43" d="M 3275 1447 
L 3875 1447 
Q 3806 800 3387 368 
Q 2969 -63 2150 -63 
Q 1356 -63 870 504 
Q 384 1072 375 2013 
L 375 2500 
Q 375 3456 867 4034 
Q 1359 4613 2203 4613 
Q 2975 4613 3390 4188 
Q 3806 3763 3875 3091 
L 3275 3091 
Q 3206 3566 2968 3842 
Q 2731 4119 2203 4119 
Q 1600 4119 1287 3675 
Q 975 3231 975 2506 
L 975 2047 
Q 975 1375 1259 901 
Q 1544 428 2150 428 
Q 2725 428 2961 697 
Q 3197 966 3275 1447 
z
" transform="scale(0.015625)"/>
       </defs>
       <use xlink:href="#Roboto-Regular-43"/>
      </g>
     </g>
    </g>
    <g id="xtick_2">
     <g id="line2d_2">
      <g>
       <use xlink:href="#mde7f9da5d2" x="178.100315" y="153.85184" style="stroke: #000000; stroke-width: 0.7"/>
      </g>
     </g>
     <g id="text_2">
      <!-- N -->
      <g transform="translate(175.603284 163.00184) scale(0.07 -0.07)">
       <defs>
        <path id="Roboto-Regular-4e" d="M 4028 4550 
L 4028 0 
L 3422 0 
L 1131 3509 
L 1131 0 
L 528 0 
L 528 4550 
L 1131 4550 
L 3431 1031 
L 3431 4550 
L 4028 4550 
z
" transform="scale(0.015625)"/>
       </defs>
       <use xlink:href="#Roboto-Regular-4e"/>
      </g>
     </g>
    </g>
   </g>
   <g id="matplotlib.axis_2">
    <g id="ytick_1">
     <g id="line2d_3">
      <defs>
       <path id="mdf6bae8bc9" d="M 1.5 0 
L -1.5 -0 
" style="stroke: #000000; stroke-width: 0.7"/>
      </defs>
      <g>
       <use xlink:href="#mdf6bae8bc9" x="37.19449" y="147.288878" style="stroke: #000000; stroke-width: 0.7"/>
      </g>
     </g>
     <g id="text_3">
      <!-- 0 -->
      <g transform="translate(29.360271 149.913878) scale(0.07 -0.07)">
       <defs>
        <path id="Roboto-Regular-30" d="M 3234 1944 
Q 3234 825 2848 381 
Q 2463 -63 1800 -63 
Q 1156 -63 764 368 
Q 372 800 359 1872 
L 359 2638 
Q 359 3753 750 4183 
Q 1141 4613 1794 4613 
Q 2447 4613 2834 4195 
Q 3222 3778 3234 2709 
L 3234 1944 
z
M 2653 2734 
Q 2653 3503 2434 3822 
Q 2216 4141 1794 4141 
Q 1388 4141 1167 3831 
Q 947 3522 941 2778 
L 941 1850 
Q 941 1088 1164 750 
Q 1388 413 1800 413 
Q 2222 413 2436 745 
Q 2650 1078 2653 1825 
L 2653 2734 
z
" transform="scale(0.015625)"/>
       </defs>
       <use xlink:href="#Roboto-Regular-30"/>
      </g>
     </g>
    </g>
    <g id="ytick_2">
     <g id="line2d_4">
      <g>
       <use xlink:href="#mdf6bae8bc9" x="37.19449" y="110.827975" style="stroke: #000000; stroke-width: 0.7"/>
      </g>
     </g>
     <g id="text_4">
      <!-- 50 -->
      <g transform="translate(25.426052 113.452975) scale(0.07 -0.07)">
       <defs>
        <path id="Roboto-Regular-35" d="M 1109 2166 
L 647 2284 
L 875 4550 
L 3209 4550 
L 3209 4016 
L 1366 4016 
L 1228 2778 
Q 1572 2975 1988 2975 
Q 2616 2975 2980 2561 
Q 3344 2147 3344 1450 
Q 3344 797 2987 367 
Q 2631 -63 1903 -63 
Q 1350 -63 947 248 
Q 544 559 481 1197 
L 1031 1197 
Q 1141 413 1903 413 
Q 2313 413 2538 691 
Q 2763 969 2763 1444 
Q 2763 1872 2527 2164 
Q 2291 2456 1853 2456 
Q 1563 2456 1413 2378 
Q 1263 2300 1109 2166 
z
" transform="scale(0.015625)"/>
       </defs>
       <use xlink:href="#Roboto-Regular-35"/>
       <use xlink:href="#Roboto-Regular-30" transform="translate(56.201172 0)"/>
      </g>
     </g>
    </g>
    <g id="ytick_3">
     <g id="line2d_5">
      <g>
       <use xlink:href="#mdf6bae8bc9" x="37.19449" y="74.367073" style="stroke: #000000; stroke-width: 0.7"/>
      </g>
     </g>
     <g id="text_5">
      <!-- 100 -->
      <g transform="translate(21.491833 76.992073) scale(0.07 -0.07)">
       <defs>
        <path id="Roboto-Regular-31" d="M 2278 4575 
L 2278 0 
L 1700 0 
L 1700 3853 
L 534 3428 
L 534 3950 
L 2188 4575 
L 2278 4575 
z
" transform="scale(0.015625)"/>
       </defs>
       <use xlink:href="#Roboto-Regular-31"/>
       <use xlink:href="#Roboto-Regular-30" transform="translate(56.201172 0)"/>
       <use xlink:href="#Roboto-Regular-30" transform="translate(112.402344 0)"/>
      </g>
     </g>
    </g>
    <g id="ytick_4">
     <g id="line2d_6">
      <g>
       <use xlink:href="#mdf6bae8bc9" x="37.19449" y="37.906171" style="stroke: #000000; stroke-width: 0.7"/>
      </g>
     </g>
     <g id="text_6">
      <!-- 150 -->
      <g transform="translate(21.491833 40.531171) scale(0.07 -0.07)">
       <use xlink:href="#Roboto-Regular-31"/>
       <use xlink:href="#Roboto-Regular-35" transform="translate(56.201172 0)"/>
       <use xlink:href="#Roboto-Regular-30" transform="translate(112.402344 0)"/>
      </g>
     </g>
    </g>
    <g id="ytick_5">
     <g id="line2d_7">
      <defs>
       <path id="m91ac79566e" d="M 2 0 
L -2 -0 
" style="stroke: #000000; stroke-width: 0.7"/>
      </defs>
      <g>
       <use xlink:href="#m91ac79566e" x="37.19449" y="129.058427" style="stroke: #000000; stroke-width: 0.7"/>
      </g>
     </g>
    </g>
    <g id="ytick_6">
     <g id="line2d_8">
      <g>
       <use xlink:href="#m91ac79566e" x="37.19449" y="92.597524" style="stroke: #000000; stroke-width: 0.7"/>
      </g>
     </g>
    </g>
    <g id="ytick_7">
     <g id="line2d_9">
      <g>
       <use xlink:href="#m91ac79566e" x="37.19449" y="56.136622" style="stroke: #000000; stroke-width: 0.7"/>
      </g>
     </g>
    </g>
    <g id="ytick_8">
     <g id="line2d_10">
      <g>
       <use xlink:href="#m91ac79566e" x="37.19449" y="19.675719" style="stroke: #000000; stroke-width: 0.7"/>
      </g>
     </g>
    </g>
   </g>
   <g id="PathCollection_1">
    <path d="M 179.133589 63.440679 
C 179.956194 63.440679 180.745218 63.113855 181.326888 62.532185 
C 181.908558 61.950515 182.235383 61.16149 182.235383 60.338885 
C 182.235383 59.51628 181.908558 58.727255 181.326888 58.145585 
C 180.745218 57.563915 179.956194 57.237091 179.133589 57.237091 
C 178.310983 57.237091 177.521959 57.563915 176.940289 58.145585 
C 176.358619 58.727255 176.031794 59.51628 176.031794 60.338885 
C 176.031794 61.16149 176.358619 61.950515 176.940289 62.532185 
C 177.521959 63.113855 178.310983 63.440679 179.133589 63.440679 
z
" clip-path="url(#pb233804978)" style="fill: #777777; stroke: #000000; stroke-width: 0.886227"/>
    <path d="M 177.851757 69.203126 
C 178.674362 69.203126 179.463387 68.876301 180.045057 68.294632 
C 180.626727 67.712962 180.953551 66.923937 180.953551 66.101332 
C 180.953551 65.278726 180.626727 64.489702 180.045057 63.908032 
C 179.463387 63.326362 178.674362 62.999538 177.851757 62.999538 
C 177.029151 62.999538 176.240127 63.326362 175.658457 63.908032 
C 175.076787 64.489702 174.749963 65.278726 174.749963 66.101332 
C 174.749963 66.923937 175.076787 67.712962 175.658457 68.294632 
C 176.240127 68.876301 177.029151 69.203126 177.851757 69.203126 
z
" clip-path="url(#pb233804978)" style="fill: #777777; stroke: #000000; stroke-width: 0.886227"/>
    <path d="M 85.668713 81.039604 
C 86.491319 81.039604 87.280343 80.712779 87.862013 80.131109 
C 88.443683 79.549439 88.770508 78.760415 88.770508 77.937809 
C 88.770508 77.115204 88.443683 76.32618 87.862013 75.74451 
C 87.280343 75.16284 86.491319 74.836015 85.668713 74.836015 
C 84.846108 74.836015 84.057084 75.16284 83.475414 75.74451 
C 82.893744 76.32618 82.566919 77.115204 82.566919 77.937809 
C 82.566919 78.760415 82.893744 79.549439 83.475414 80.131109 
C 84.057084 80.712779 84.846108 81.039604 85.668713 81.039604 
z
" clip-path="url(#pb233804978)" style="fill: #777777; stroke: #000000; stroke-width: 0.886227"/>
    <path d="M 94.035611 65.819947 
C 94.858216 65.819947 95.647241 65.493123 96.228911 64.911453 
C 96.810581 64.329783 97.137405 63.540758 97.137405 62.718153 
C 97.137405 61.895547 96.810581 61.106523 96.228911 60.524853 
C 95.647241 59.943183 94.858216 59.616359 94.035611 59.616359 
C 93.213006 59.616359 92.423981 59.943183 91.842311 60.524853 
C 91.260641 61.106523 90.933817 61.895547 90.933817 62.718153 
C 90.933817 63.540758 91.260641 64.329783 91.842311 64.911453 
C 92.423981 65.493123 93.213006 65.819947 94.035611 65.819947 
z
" clip-path="url(#pb233804978)" style="fill: #777777; stroke: #000000; stroke-width: 0.886227"/>
    <path d="M 93.248855 61.916942 
C 94.07146 61.916942 94.860485 61.590117 95.442154 61.008447 
C 96.023824 60.426777 96.350649 59.637753 96.350649 58.815148 
C 96.350649 57.992542 96.023824 57.203518 95.442154 56.621848 
C 94.860485 56.040178 94.07146 55.713353 93.248855 55.713353 
C 92.426249 55.713353 91.637225 56.040178 91.055555 56.621848 
C 90.473885 57.203518 90.14706 57.992542 90.14706 58.815148 
C 90.14706 59.637753 90.473885 60.426777 91.055555 61.008447 
C 91.637225 61.590117 92.426249 61.916942 93.248855 61.916942 
z
" clip-path="url(#pb233804978)" style="fill: #777777; stroke: #000000; stroke-width: 0.886227"/>
    <path d="M 81.890742 57.147162 
C 82.713348 57.147162 83.502372 56.820337 84.084042 56.238667 
C 84.665712 55.656997 84.992536 54.867973 84.992536 54.045367 
C 84.992536 53.222762 84.665712 52.433738 84.084042 51.852068 
C 83.502372 51.270398 82.713348 50.943573 81.890742 50.943573 
C 81.068137 50.943573 80.279112 51.270398 79.697442 51.852068 
C 79.115772 52.433738 78.788948 53.222762 78.788948 54.045367 
C 78.788948 54.867973 79.115772 55.656997 79.697442 56.238667 
C 80.279112 56.820337 81.068137 57.147162 81.890742 57.147162 
z
" clip-path="url(#pb233804978)" style="fill: #777777; stroke: #000000; stroke-width: 0.886227"/>
    <path d="M 95.5045 68.714963 
C 96.327105 68.714963 97.11613 68.388138 97.6978 67.806468 
C 98.279469 67.224798 98.606294 66.435774 98.606294 65.613168 
C 98.606294 64.790563 98.279469 64.001538 97.6978 63.419869 
C 97.11613 62.838199 96.327105 62.511374 95.5045 62.511374 
C 94.681894 62.511374 93.89287 62.838199 93.3112 63.419869 
C 92.72953 64.001538 92.402706 64.790563 92.402706 65.613168 
C 92.402706 66.435774 92.72953 67.224798 93.3112 67.806468 
C 93.89287 68.388138 94.681894 68.714963 95.5045 68.714963 
z
" clip-path="url(#pb233804978)" style="fill: #777777; stroke: #000000; stroke-width: 0.886227"/>
    <path d="M 93.537346 80.912291 
C 94.359952 80.912291 95.148976 80.585466 95.730646 80.003797 
C 96.312316 79.422127 96.63914 78.633102 96.63914 77.810497 
C 96.63914 76.987891 96.312316 76.198867 95.730646 75.617197 
C 95.148976 75.035527 94.359952 74.708703 93.537346 74.708703 
C 92.714741 74.708703 91.925716 75.035527 91.344046 75.617197 
C 90.762377 76.198867 90.435552 76.987891 90.435552 77.810497 
C 90.435552 78.633102 90.762377 79.422127 91.344046 80.003797 
C 91.925716 80.585466 92.714741 80.912291 93.537346 80.912291 
z
" clip-path="url(#pb233804978)" style="fill: #777777; stroke: #000000; stroke-width: 0.886227"/>
    <path d="M 83.039135 73.567104 
C 83.86174 73.567104 84.650764 73.240279 85.232434 72.658609 
C 85.814104 72.07694 86.140929 71.287915 86.140929 70.46531 
C 86.140929 69.642704 85.814104 68.85368 85.232434 68.27201 
C 84.650764 67.69034 83.86174 67.363515 83.039135 67.363515 
C 82.216529 67.363515 81.427505 67.69034 80.845835 68.27201 
C 80.264165 68.85368 79.93734 69.642704 79.93734 70.46531 
C 79.93734 71.287915 80.264165 72.07694 80.845835 72.658609 
C 81.427505 73.240279 82.216529 73.567104 83.039135 73.567104 
z
" clip-path="url(#pb233804978)" style="fill: #777777; stroke: #000000; stroke-width: 0.886227"/>
    <path d="M 97.692711 81.471837 
C 98.515317 81.471837 99.304341 81.145012 99.886011 80.563343 
C 100.467681 79.981673 100.794506 79.192648 100.794506 78.370043 
C 100.794506 77.547437 100.467681 76.758413 99.886011 76.176743 
C 99.304341 75.595073 98.515317 75.268249 97.692711 75.268249 
C 96.870106 75.268249 96.081081 75.595073 95.499412 76.176743 
C 94.917742 76.758413 94.590917 77.547437 94.590917 78.370043 
C 94.590917 79.192648 94.917742 79.981673 95.499412 80.563343 
C 96.081081 81.145012 96.870106 81.471837 97.692711 81.471837 
z
" clip-path="url(#pb233804978)" style="fill: #777777; stroke: #000000; stroke-width: 0.886227"/>
    <path d="M 88.352364 50.89753 
C 89.17497 50.89753 89.963994 50.570705 90.545664 49.989035 
C 91.127334 49.407365 91.454159 48.618341 91.454159 47.795736 
C 91.454159 46.97313 91.127334 46.184106 90.545664 45.602436 
C 89.963994 45.020766 89.17497 44.693941 88.352364 44.693941 
C 87.529759 44.693941 86.740735 45.020766 86.159065 45.602436 
C 85.577395 46.184106 85.25057 46.97313 85.25057 47.795736 
C 85.25057 48.618341 85.577395 49.407365 86.159065 49.989035 
C 86.740735 50.570705 87.529759 50.89753 88.352364 50.89753 
z
" clip-path="url(#pb233804978)" style="fill: #777777; stroke: #000000; stroke-width: 0.886227"/>
    <path d="M 94.845373 41.536997 
C 95.667979 41.536997 96.457003 41.210172 97.038673 40.628502 
C 97.620343 40.046832 97.947168 39.257808 97.947168 38.435203 
C 97.947168 37.612597 97.620343 36.823573 97.038673 36.241903 
C 96.457003 35.660233 95.667979 35.333408 94.845373 35.333408 
C 94.022768 35.333408 93.233744 35.660233 92.652074 36.241903 
C 92.070404 36.823573 91.743579 37.612597 91.743579 38.435203 
C 91.743579 39.257808 92.070404 40.046832 92.652074 40.628502 
C 93.233744 41.210172 94.022768 41.536997 94.845373 41.536997 
z
" clip-path="url(#pb233804978)" style="fill: #777777; stroke: #000000; stroke-width: 0.886227"/>
    <path d="M 96.74195 69.284942 
C 97.564556 69.284942 98.35358 68.958118 98.93525 68.376448 
C 99.51692 67.794778 99.843744 67.005753 99.843744 66.183148 
C 99.843744 65.360543 99.51692 64.571518 98.93525 63.989848 
C 98.35358 63.408178 97.564556 63.081354 96.74195 63.081354 
C 95.919345 63.081354 95.13032 63.408178 94.54865 63.989848 
C 93.966981 64.571518 93.640156 65.360543 93.640156 66.183148 
C 93.640156 67.005753 93.966981 67.794778 94.54865 68.376448 
C 95.13032 68.958118 95.919345 69.284942 96.74195 69.284942 
z
" clip-path="url(#pb233804978)" style="fill: #777777; stroke: #000000; stroke-width: 0.886227"/>
    <path d="M 83.700066 44.913329 
C 84.522671 44.913329 85.311696 44.586504 85.893365 44.004835 
C 86.475035 43.423165 86.80186 42.63414 86.80186 41.811535 
C 86.80186 40.988929 86.475035 40.199905 85.893365 39.618235 
C 85.311696 39.036565 84.522671 38.709741 83.700066 38.709741 
C 82.87746 38.709741 82.088436 39.036565 81.506766 39.618235 
C 80.925096 40.199905 80.598271 40.988929 80.598271 41.811535 
C 80.598271 42.63414 80.925096 43.423165 81.506766 44.004835 
C 82.088436 44.586504 82.87746 44.913329 83.700066 44.913329 
z
" clip-path="url(#pb233804978)" style="fill: #777777; stroke: #000000; stroke-width: 0.886227"/>
    <path d="M 177.307512 66.861598 
C 178.130118 66.861598 178.919142 66.534774 179.500812 65.953104 
C 180.082482 65.371434 180.409307 64.58241 180.409307 63.759804 
C 180.409307 62.937199 180.082482 62.148174 179.500812 61.566504 
C 178.919142 60.984834 178.130118 60.65801 177.307512 60.65801 
C 176.484907 60.65801 175.695882 60.984834 175.114213 61.566504 
C 174.532543 62.148174 174.205718 62.937199 174.205718 63.759804 
C 174.205718 64.58241 174.532543 65.371434 175.114213 65.953104 
C 175.695882 66.534774 176.484907 66.861598 177.307512 66.861598 
z
" clip-path="url(#pb233804978)" style="fill: #777777; stroke: #000000; stroke-width: 0.886227"/>
    <path d="M 173.834187 45.90736 
C 174.656792 45.90736 175.445817 45.580536 176.027487 44.998866 
C 176.609157 44.417196 176.935981 43.628171 176.935981 42.805566 
C 176.935981 41.98296 176.609157 41.193936 176.027487 40.612266 
C 175.445817 40.030596 174.656792 39.703772 173.834187 39.703772 
C 173.011581 39.703772 172.222557 40.030596 171.640887 40.612266 
C 171.059217 41.193936 170.732393 41.98296 170.732393 42.805566 
C 170.732393 43.628171 171.059217 44.417196 171.640887 44.998866 
C 172.222557 45.580536 173.011581 45.90736 173.834187 45.90736 
z
" clip-path="url(#pb233804978)" style="fill: #777777; stroke: #000000; stroke-width: 0.886227"/>
   </g>
  </g>
  <g id="patch_4">
   <path d="M 37.19449 153.85184 
L 230.94 153.85184 
L 230.94 9.466667 
L 37.19449 9.466667 
L 37.19449 153.85184 
z
" style="fill: none; stroke: #000000; stroke-width: 0.7; stroke-linejoin: miter"/>
  </g>
  <g id="text_7">
   <!-- Glycine position -->
   <g transform="translate(109.292714 173.439271) scale(0.07 -0.07)">
    <defs>
     <path id="Roboto-Regular-47" d="M 3891 2266 
L 3891 600 
Q 3763 413 3403 175 
Q 3044 -63 2281 -63 
Q 1450 -63 915 507 
Q 381 1078 381 2100 
L 381 2453 
Q 381 3469 856 4041 
Q 1331 4613 2213 4613 
Q 2994 4613 3398 4219 
Q 3803 3825 3891 3219 
L 3288 3219 
Q 3225 3588 2979 3853 
Q 2734 4119 2213 4119 
Q 1584 4119 1287 3676 
Q 991 3234 988 2475 
L 988 2100 
Q 988 1313 1344 870 
Q 1700 428 2284 428 
Q 2769 428 2984 542 
Q 3200 656 3291 759 
L 3291 1778 
L 2238 1778 
L 2238 2266 
L 3891 2266 
z
" transform="scale(0.015625)"/>
     <path id="Roboto-Regular-6c" d="M 1069 4800 
L 1069 0 
L 488 0 
L 488 4800 
L 1069 4800 
z
" transform="scale(0.015625)"/>
     <path id="Roboto-Regular-79" d="M 1594 -522 
Q 1294 -1316 688 -1363 
L 591 -1366 
Q 406 -1366 266 -1316 
L 263 -847 
L 419 -859 
Q 713 -859 878 -739 
Q 1044 -619 1150 -306 
L 1275 38 
L 69 3381 
L 700 3381 
L 1547 850 
L 2331 3381 
L 2950 3381 
L 1594 -522 
z
" transform="scale(0.015625)"/>
     <path id="Roboto-Regular-63" d="M 1794 413 
Q 2103 413 2336 597 
Q 2569 781 2591 1069 
L 3141 1069 
Q 3119 616 2725 276 
Q 2331 -63 1794 -63 
Q 1031 -63 661 440 
Q 291 944 291 1625 
L 291 1756 
Q 291 2438 661 2941 
Q 1031 3444 1794 3444 
Q 2388 3444 2753 3092 
Q 3119 2741 3141 2219 
L 2591 2219 
Q 2569 2531 2355 2750 
Q 2141 2969 1794 2969 
Q 1438 2969 1236 2787 
Q 1034 2606 951 2328 
Q 869 2050 869 1756 
L 869 1625 
Q 869 1328 950 1050 
Q 1031 772 1232 592 
Q 1434 413 1794 413 
z
" transform="scale(0.015625)"/>
     <path id="Roboto-Regular-69" d="M 444 4278 
Q 444 4419 530 4516 
Q 616 4613 784 4613 
Q 950 4613 1039 4516 
Q 1128 4419 1128 4278 
Q 1128 4144 1039 4048 
Q 950 3953 784 3953 
Q 616 3953 530 4048 
Q 444 4144 444 4278 
z
M 1069 3381 
L 1069 0 
L 488 0 
L 488 3381 
L 1069 3381 
z
" transform="scale(0.015625)"/>
     <path id="Roboto-Regular-6e" d="M 1844 2956 
Q 1566 2956 1353 2806 
Q 1141 2656 1019 2416 
L 1019 0 
L 441 0 
L 441 3381 
L 988 3381 
L 1006 2959 
Q 1391 3444 2016 3444 
Q 2513 3444 2805 3166 
Q 3097 2888 3100 2231 
L 3100 0 
L 2519 0 
L 2519 2222 
Q 2519 2619 2345 2787 
Q 2172 2956 1844 2956 
z
" transform="scale(0.015625)"/>
     <path id="Roboto-Regular-65" d="M 3116 591 
Q 2950 341 2647 139 
Q 2344 -63 1844 -63 
Q 1138 -63 714 396 
Q 291 856 291 1572 
L 291 1703 
Q 291 2256 502 2645 
Q 713 3034 1050 3239 
Q 1388 3444 1769 3444 
Q 2494 3444 2826 2970 
Q 3159 2497 3159 1788 
L 3159 1528 
L 872 1528 
Q 884 1063 1148 736 
Q 1413 409 1875 409 
Q 2181 409 2393 534 
Q 2606 659 2766 869 
L 3116 591 
z
M 1769 2969 
Q 1425 2969 1187 2719 
Q 950 2469 891 2000 
L 2581 2000 
L 2581 2044 
Q 2559 2381 2386 2675 
Q 2213 2969 1769 2969 
z
" transform="scale(0.015625)"/>
     <path id="Roboto-Regular-20" transform="scale(0.015625)"/>
     <path id="Roboto-Regular-70" d="M 1984 -63 
Q 1375 -63 1019 328 
L 1019 -1300 
L 438 -1300 
L 438 3381 
L 969 3381 
L 997 3009 
Q 1353 3444 1975 3444 
Q 2616 3444 2956 2969 
Q 3297 2494 3297 1719 
L 3297 1653 
Q 3297 913 2955 425 
Q 2613 -63 1984 -63 
z
M 1806 2956 
Q 1281 2956 1019 2491 
L 1019 872 
Q 1284 413 1813 413 
Q 2281 413 2498 781 
Q 2716 1150 2716 1653 
L 2716 1719 
Q 2716 2222 2498 2589 
Q 2281 2956 1806 2956 
z
" transform="scale(0.015625)"/>
     <path id="Roboto-Regular-6f" d="M 288 1725 
Q 288 2459 700 2951 
Q 1113 3444 1822 3444 
Q 2531 3444 2943 2961 
Q 3356 2478 3366 1756 
L 3366 1653 
Q 3366 919 2952 428 
Q 2538 -63 1828 -63 
Q 1116 -63 702 428 
Q 288 919 288 1653 
L 288 1725 
z
M 866 1653 
Q 866 1150 1105 781 
Q 1344 413 1828 413 
Q 2300 413 2540 777 
Q 2781 1141 2784 1644 
L 2784 1725 
Q 2784 2222 2543 2595 
Q 2303 2969 1822 2969 
Q 1344 2969 1105 2595 
Q 866 2222 866 1725 
L 866 1653 
z
" transform="scale(0.015625)"/>
     <path id="Roboto-Regular-73" d="M 2409 897 
Q 2409 1081 2273 1229 
Q 2138 1378 1647 1478 
Q 1081 1594 747 1814 
Q 413 2034 413 2456 
Q 413 2856 755 3150 
Q 1097 3444 1666 3444 
Q 2272 3444 2612 3134 
Q 2953 2825 2953 2388 
L 2375 2388 
Q 2375 2597 2190 2783 
Q 2006 2969 1666 2969 
Q 1306 2969 1150 2812 
Q 994 2656 994 2472 
Q 994 2288 1139 2173 
Q 1284 2059 1756 1953 
Q 2378 1813 2683 1584 
Q 2988 1356 2988 941 
Q 2988 494 2630 215 
Q 2272 -63 1681 -63 
Q 1009 -63 653 281 
Q 297 625 297 1044 
L 878 1044 
Q 897 684 1155 548 
Q 1413 413 1681 413 
Q 2034 413 2221 550 
Q 2409 688 2409 897 
z
" transform="scale(0.015625)"/>
     <path id="Roboto-Regular-74" d="M 1872 0 
Q 1675 -63 1425 -63 
Q 1103 -63 875 134 
Q 647 331 647 841 
L 647 2938 
L 28 2938 
L 28 3381 
L 647 3381 
L 647 4203 
L 1225 4203 
L 1225 3381 
L 1856 3381 
L 1856 2938 
L 1225 2938 
L 1225 838 
Q 1225 578 1337 506 
Q 1450 434 1597 434 
Q 1706 434 1869 472 
L 1872 0 
z
" transform="scale(0.015625)"/>
    </defs>
    <use xlink:href="#Roboto-Regular-47"/>
    <use xlink:href="#Roboto-Regular-6c" transform="translate(68.115234 0)"/>
    <use xlink:href="#Roboto-Regular-79" transform="translate(92.431641 0)"/>
    <use xlink:href="#Roboto-Regular-63" transform="translate(139.746094 0)"/>
    <use xlink:href="#Roboto-Regular-69" transform="translate(192.089844 0)"/>
    <use xlink:href="#Roboto-Regular-6e" transform="translate(216.40625 0)"/>
    <use xlink:href="#Roboto-Regular-65" transform="translate(271.630859 0)"/>
    <use xlink:href="#Roboto-Regular-20" transform="translate(324.658203 0)"/>
    <use xlink:href="#Roboto-Regular-70" transform="translate(349.462891 0)"/>
    <use xlink:href="#Roboto-Regular-6f" transform="translate(405.615234 0)"/>
    <use xlink:href="#Roboto-Regular-73" transform="translate(462.646484 0)"/>
    <use xlink:href="#Roboto-Regular-69" transform="translate(514.257812 0)"/>
    <use xlink:href="#Roboto-Regular-74" transform="translate(538.574219 0)"/>
    <use xlink:href="#Roboto-Regular-69" transform="translate(571.289062 0)"/>
    <use xlink:href="#Roboto-Regular-6f" transform="translate(595.605469 0)"/>
    <use xlink:href="#Roboto-Regular-6e" transform="translate(652.636719 0)"/>
   </g>
  </g>
  <g id="text_8">
   <!-- $\Delta$G (kJ/mol) -->
   <g transform="translate(15.13 100.804253) rotate(-90) scale(0.07 -0.07)">
    <defs>
     <path id="DejaVuSans-394" d="M 2188 4044 
L 906 525 
L 3472 525 
L 2188 4044 
z
M 50 0 
L 1831 4666 
L 2547 4666 
L 4325 0 
L 50 0 
z
" transform="scale(0.015625)"/>
     <path id="Roboto-Regular-28" d="M 419 1850 
Q 419 2756 678 3434 
Q 938 4113 1294 4541 
Q 1650 4969 1947 5134 
L 2069 4753 
Q 1700 4475 1348 3761 
Q 997 3047 997 1813 
Q 997 625 1348 -97 
Q 1700 -819 2069 -1119 
L 1947 -1469 
Q 1650 -1306 1294 -878 
Q 938 -450 678 226 
Q 419 903 419 1850 
z
" transform="scale(0.015625)"/>
     <path id="Roboto-Regular-6b" d="M 2559 0 
L 1388 1569 
L 1022 1191 
L 1022 0 
L 441 0 
L 441 4800 
L 1022 4800 
L 1022 1900 
L 1331 2269 
L 2381 3381 
L 3088 3381 
L 1769 1972 
L 3241 0 
L 2559 0 
z
" transform="scale(0.015625)"/>
     <path id="Roboto-Regular-4a" d="M 2438 4550 
L 3038 4550 
L 3038 1328 
Q 3038 653 2633 295 
Q 2228 -63 1603 -63 
Q 975 -63 570 262 
Q 166 588 166 1259 
L 769 1259 
Q 769 828 1001 628 
Q 1234 428 1603 428 
Q 1959 428 2198 656 
Q 2438 884 2438 1328 
L 2438 4550 
z
" transform="scale(0.015625)"/>
     <path id="Roboto-Regular-2f" d="M 2453 4550 
L 556 -391 
L 59 -391 
L 1959 4550 
L 2453 4550 
z
" transform="scale(0.015625)"/>
     <path id="Roboto-Regular-6d" d="M 1794 2956 
Q 1225 2956 1016 2478 
L 1016 0 
L 434 0 
L 434 3381 
L 984 3381 
L 1000 3013 
Q 1366 3444 2000 3444 
Q 2325 3444 2579 3314 
Q 2834 3184 2969 2900 
Q 3138 3144 3408 3294 
Q 3678 3444 4044 3444 
Q 4588 3444 4883 3153 
Q 5178 2863 5178 2222 
L 5178 0 
L 4597 0 
L 4597 2228 
Q 4597 2653 4401 2804 
Q 4206 2956 3875 2956 
Q 3525 2956 3325 2748 
Q 3125 2541 3094 2244 
L 3094 0 
L 2516 0 
L 2516 2225 
Q 2516 2622 2319 2789 
Q 2122 2956 1794 2956 
z
" transform="scale(0.015625)"/>
     <path id="Roboto-Regular-29" d="M 1772 1819 
Q 1772 906 1512 228 
Q 1253 -450 895 -878 
Q 538 -1306 244 -1469 
L 122 -1119 
Q 488 -841 841 -109 
Q 1194 622 1194 1856 
Q 1194 2647 1019 3236 
Q 844 3825 594 4212 
Q 344 4600 122 4781 
L 244 5134 
Q 538 4969 895 4541 
Q 1253 4113 1512 3436 
Q 1772 2759 1772 1819 
z
" transform="scale(0.015625)"/>
    </defs>
    <use xlink:href="#DejaVuSans-394" transform="translate(0 0.78125)"/>
    <use xlink:href="#Roboto-Regular-47" transform="translate(68.408203 0.78125)"/>
    <use xlink:href="#Roboto-Regular-20" transform="translate(136.523438 0.78125)"/>
    <use xlink:href="#Roboto-Regular-28" transform="translate(161.328125 0.78125)"/>
    <use xlink:href="#Roboto-Regular-6b" transform="translate(195.556641 0.78125)"/>
    <use xlink:href="#Roboto-Regular-4a" transform="translate(246.240234 0.78125)"/>
    <use xlink:href="#Roboto-Regular-2f" transform="translate(301.416016 0.78125)"/>
    <use xlink:href="#Roboto-Regular-6d" transform="translate(342.675781 0.78125)"/>
    <use xlink:href="#Roboto-Regular-6f" transform="translate(430.371094 0.78125)"/>
    <use xlink:href="#Roboto-Regular-6c" transform="translate(487.402344 0.78125)"/>
    <use xlink:href="#Roboto-Regular-29" transform="translate(511.71875 0.78125)"/>
   </g>
  </g>
 </g>
 <defs>
  <clipPath id="pb233804978">
   <rect x="37.19449" y="9.466667" width="193.74551" height="144.385174"/>
  </clipPath>
 </defs>
</svg>
