<?xml version="1.0" encoding="utf-8" standalone="no"?>
<!DOCTYPE svg PUBLIC "-//W3C//DTD SVG 1.1//EN"
  "http://www.w3.org/Graphics/SVG/1.1/DTD/svg11.dtd">
<svg xmlns:xlink="http://www.w3.org/1999/xlink" width="240.4pt" height="184.4pt" viewBox="0 0 240.4 184.4" xmlns="http://www.w3.org/2000/svg" version="1.1">
 <metadata>
  <rdf:RDF xmlns:dc="http://purl.org/dc/elements/1.1/" xmlns:cc="http://creativecommons.org/ns#" xmlns:rdf="http://www.w3.org/1999/02/22-rdf-syntax-ns#">
   <cc:Work>
    <dc:type rdf:resource="http://purl.org/dc/dcmitype/StillImage"/>
    <dc:date>2026-05-08T13:32:29.734836</dc:date>
    <dc:format>image/svg+xml</dc:format>
    <dc:creator>
     <cc:Agent>
      <dc:title>Matplotlib v3.10.6, https://matplotlib.org/</dc:title>
     </cc:Agent>
    </dc:creator>
   </cc:Work>
  </rdf:RDF>
 </metadata>
 <defs>
  <style type="text/css">*{stroke-linejoin: round; stroke-linecap: butt}</style>
 </defs>
 <g id="figure_1">
  <g id="patch_1">
   <path d="M 0 184.4 
L 240.4 184.4 
L 240.4 0 
L 0 0 
z
" style="fill: #ffffff"/>
  </g>
  <g id="patch_2">
   <path d="M 7.2 177.2 
L 233.2 177.2 
L 233.2 7.2 
L 7.2 7.2 
L 7.2 177.2 
z
" style="fill: none; stroke: #ffffff; stroke-width: 0.7; stroke-linejoin: miter"/>
  </g>
  <g id="axes_1">
   <g id="patch_3">
    <path d="M 37.19449 153.85184 
L 230.94 153.85184 
L 230.94 9.466667 
L 37.19449 9.466667 
z
" style="fill: #ffffff"/>
   </g>
   <g id="matplotlib.axis_1">
    <g id="xtick_1">
     <g id="line2d_1">
      <defs>
       <path id="mbde31d0705" d="M 0 1.5 
L 0 -1.5 
" style="stroke: #000000; stroke-width: 0.7"/>
      </defs>
      <g>
       <use xlink:href="#mbde31d0705" x="90.034174" y="153.85184" style="stroke: #000000; stroke-width: 0.7"/>
      </g>
     </g>
     <g id="text_1">
      <!-- C -->
      <g transform="translate(87.755893 163.00184) scale(0.07 -0.07)">
       <defs>
        <path id="Roboto-Regular-43" d="M 3275 1447 
L 3875 1447 
Q 3806 800 3387 368 
Q 2969 -63 2150 -63 
Q 1356 -63 870 504 
Q 384 1072 375 2013 
L 375 2500 
Q 375 3456 867 4034 
Q 1359 4613 2203 4613 
Q 2975 4613 3390 4188 
Q 3806 3763 3875 3091 
L 3275 3091 
Q 3206 3566 2968 3842 
Q 2731 4119 2203 4119 
Q 1600 4119 1287 3675 
Q 975 3231 975 2506 
L 975 2047 
Q 975 1375 1259 901 
Q 1544 428 2150 428 
Q 2725 428 2961 697 
Q 3197 966 3275 1447 
z
" transform="scale(0.015625)"/>
       </defs>
       <use xlink:href="#Roboto-Regular-43"/>
      </g>
     </g>
    </g>
    <g id="xtick_2">
     <g id="line2d_2">
      <g>
       <use xlink:href="#mbde31d0705" x="178.100315" y="153.85184" style="stroke: #000000; stroke-width: 0.7"/>
      </g>
     </g>
     <g id="text_2">
      <!-- N -->
      <g transform="translate(175.603284 163.00184) scale(0.07 -0.07)">
       <defs>
        <path id="Roboto-Regular-4e" d="M 4028 4550 
L 4028 0 
L 3422 0 
L 1131 3509 
L 1131 0 
L 528 0 
L 528 4550 
L 1131 4550 
L 3431 1031 
L 3431 4550 
L 4028 4550 
z
" transform="scale(0.015625)"/>
       </defs>
       <use xlink:href="#Roboto-Regular-4e"/>
      </g>
     </g>
    </g>
   </g>
   <g id="matplotlib.axis_2">
    <g id="ytick_1">
     <g id="line2d_3">
      <defs>
       <path id="m2a7e3d42ab" d="M 1.5 0 
L -1.5 -0 
" style="stroke: #000000; stroke-width: 0.7"/>
      </defs>
      <g>
       <use xlink:href="#m2a7e3d42ab" x="37.19449" y="147.288878" style="stroke: #000000; stroke-width: 0.7"/>
      </g>
     </g>
     <g id="text_3">
      <!-- 0 -->
      <g transform="translate(29.360271 149.913878) scale(0.07 -0.07)">
       <defs>
        <path id="Roboto-Regular-30" d="M 3234 1944 
Q 3234 825 2848 381 
Q 2463 -63 1800 -63 
Q 1156 -63 764 368 
Q 372 800 359 1872 
L 359 2638 
Q 359 3753 750 4183 
Q 1141 4613 1794 4613 
Q 2447 4613 2834 4195 
Q 3222 3778 3234 2709 
L 3234 1944 
z
M 2653 2734 
Q 2653 3503 2434 3822 
Q 2216 4141 1794 4141 
Q 1388 4141 1167 3831 
Q 947 3522 941 2778 
L 941 1850 
Q 941 1088 1164 750 
Q 1388 413 1800 413 
Q 2222 413 2436 745 
Q 2650 1078 2653 1825 
L 2653 2734 
z
" transform="scale(0.015625)"/>
       </defs>
       <use xlink:href="#Roboto-Regular-30"/>
      </g>
     </g>
    </g>
    <g id="ytick_2">
     <g id="line2d_4">
      <g>
       <use xlink:href="#m2a7e3d42ab" x="37.19449" y="110.827975" style="stroke: #000000; stroke-width: 0.7"/>
      </g>
     </g>
     <g id="text_4">
      <!-- 50 -->
      <g transform="translate(25.426052 113.452975) scale(0.07 -0.07)">
       <defs>
        <path id="Roboto-Regular-35" d="M 1109 2166 
L 647 2284 
L 875 4550 
L 3209 4550 
L 3209 4016 
L 1366 4016 
L 1228 2778 
Q 1572 2975 1988 2975 
Q 2616 2975 2980 2561 
Q 3344 2147 3344 1450 
Q 3344 797 2987 367 
Q 2631 -63 1903 -63 
Q 1350 -63 947 248 
Q 544 559 481 1197 
L 1031 1197 
Q 1141 413 1903 413 
Q 2313 413 2538 691 
Q 2763 969 2763 1444 
Q 2763 1872 2527 2164 
Q 2291 2456 1853 2456 
Q 1563 2456 1413 2378 
Q 1263 2300 1109 2166 
z
" transform="scale(0.015625)"/>
       </defs>
       <use xlink:href="#Roboto-Regular-35"/>
       <use xlink:href="#Roboto-Regular-30" transform="translate(56.201172 0)"/>
      </g>
     </g>
    </g>
    <g id="ytick_3">
     <g id="line2d_5">
      <g>
       <use xlink:href="#m2a7e3d42ab" x="37.19449" y="74.367073" style="stroke: #000000; stroke-width: 0.7"/>
      </g>
     </g>
     <g id="text_5">
      <!-- 100 -->
      <g transform="translate(21.491833 76.992073) scale(0.07 -0.07)">
       <defs>
        <path id="Roboto-Regular-31" d="M 2278 4575 
L 2278 0 
L 1700 0 
L 1700 3853 
L 534 3428 
L 534 3950 
L 2188 4575 
L 2278 4575 
z
" transform="scale(0.015625)"/>
       </defs>
       <use xlink:href="#Roboto-Regular-31"/>
       <use xlink:href="#Roboto-Regular-30" transform="translate(56.201172 0)"/>
       <use xlink:href="#Roboto-Regular-30" transform="translate(112.402344 0)"/>
      </g>
     </g>
    </g>
    <g id="ytick_4">
     <g id="line2d_6">
      <g>
       <use xlink:href="#m2a7e3d42ab" x="37.19449" y="37.906171" style="stroke: #000000; stroke-width: 0.7"/>
      </g>
     </g>
     <g id="text_6">
      <!-- 150 -->
      <g transform="translate(21.491833 40.531171) scale(0.07 -0.07)">
       <use xlink:href="#Roboto-Regular-31"/>
       <use xlink:href="#Roboto-Regular-35" transform="translate(56.201172 0)"/>
       <use xlink:href="#Roboto-Regular-30" transform="translate(112.402344 0)"/>
      </g>
     </g>
    </g>
    <g id="ytick_5">
     <g id="line2d_7">
      <defs>
       <path id="m608a0b82bc" d="M 2 0 
L -2 -0 
" style="stroke: #000000; stroke-width: 0.7"/>
      </defs>
      <g>
       <use xlink:href="#m608a0b82bc" x="37.19449" y="129.058427" style="stroke: #000000; stroke-width: 0.7"/>
      </g>
     </g>
    </g>
    <g id="ytick_6">
     <g id="line2d_8">
      <g>
       <use xlink:href="#m608a0b82bc" x="37.19449" y="92.597524" style="stroke: #000000; stroke-width: 0.7"/>
      </g>
     </g>
    </g>
    <g id="ytick_7">
     <g id="line2d_9">
      <g>
       <use xlink:href="#m608a0b82bc" x="37.19449" y="56.136622" style="stroke: #000000; stroke-width: 0.7"/>
      </g>
     </g>
    </g>
    <g id="ytick_8">
     <g id="line2d_10">
      <g>
       <use xlink:href="#m608a0b82bc" x="37.19449" y="19.675719" style="stroke: #000000; stroke-width: 0.7"/>
      </g>
     </g>
    </g>
   </g>
   <g id="PathCollection_1">
    <path d="M 186.754529 79.501388 
C 187.577134 79.501388 188.366159 79.174564 188.947828 78.592894 
C 189.529498 78.011224 189.856323 77.222199 189.856323 76.399594 
C 189.856323 75.576989 189.529498 74.787964 188.947828 74.206294 
C 188.366159 73.624624 187.577134 73.2978 186.754529 73.2978 
C 185.931923 73.2978 185.142899 73.624624 184.561229 74.206294 
C 183.979559 74.787964 183.652734 75.576989 183.652734 76.399594 
C 183.652734 77.222199 183.979559 78.011224 184.561229 78.592894 
C 185.142899 79.174564 185.931923 79.501388 186.754529 79.501388 
z
" clip-path="url(#p049d8e8c14)" style="fill: #55b4dc; stroke: #000000; stroke-width: 0.886227"/>
    <path d="M 185.26092 75.443184 
C 186.083525 75.443184 186.872549 75.116359 187.454219 74.53469 
C 188.035889 73.95302 188.362714 73.163995 188.362714 72.34139 
C 188.362714 71.518784 188.035889 70.72976 187.454219 70.14809 
C 186.872549 69.56642 186.083525 69.239596 185.26092 69.239596 
C 184.438314 69.239596 183.64929 69.56642 183.06762 70.14809 
C 182.48595 70.72976 182.159125 71.518784 182.159125 72.34139 
C 182.159125 73.163995 182.48595 73.95302 183.06762 74.53469 
C 183.64929 75.116359 184.438314 75.443184 185.26092 75.443184 
z
" clip-path="url(#p049d8e8c14)" style="fill: #55b4dc; stroke: #000000; stroke-width: 0.886227"/>
    <path d="M 84.437031 79.372192 
C 85.259636 79.372192 86.048661 79.045367 86.63033 78.463697 
C 87.212 77.882027 87.538825 77.093003 87.538825 76.270397 
C 87.538825 75.447792 87.212 74.658768 86.63033 74.077098 
C 86.048661 73.495428 85.259636 73.168603 84.437031 73.168603 
C 83.614425 73.168603 82.825401 73.495428 82.243731 74.077098 
C 81.662061 74.658768 81.335236 75.447792 81.335236 76.270397 
C 81.335236 77.093003 81.662061 77.882027 82.243731 78.463697 
C 82.825401 79.045367 83.614425 79.372192 84.437031 79.372192 
z
" clip-path="url(#p049d8e8c14)" style="fill: #55b4dc; stroke: #000000; stroke-width: 0.886227"/>
    <path d="M 90.142314 71.531762 
C 90.96492 71.531762 91.753944 71.204938 92.335614 70.623268 
C 92.917284 70.041598 93.244109 69.252573 93.244109 68.429968 
C 93.244109 67.607363 92.917284 66.818338 92.335614 66.236668 
C 91.753944 65.654998 90.96492 65.328174 90.142314 65.328174 
C 89.319709 65.328174 88.530685 65.654998 87.949015 66.236668 
C 87.367345 66.818338 87.04052 67.607363 87.04052 68.429968 
C 87.04052 69.252573 87.367345 70.041598 87.949015 70.623268 
C 88.530685 71.204938 89.319709 71.531762 90.142314 71.531762 
z
" clip-path="url(#p049d8e8c14)" style="fill: #55b4dc; stroke: #000000; stroke-width: 0.886227"/>
    <path d="M 85.718871 68.244471 
C 86.541477 68.244471 87.330501 67.917646 87.912171 67.335976 
C 88.493841 66.754307 88.820666 65.965282 88.820666 65.142677 
C 88.820666 64.320071 88.493841 63.531047 87.912171 62.949377 
C 87.330501 62.367707 86.541477 62.040883 85.718871 62.040883 
C 84.896266 62.040883 84.107242 62.367707 83.525572 62.949377 
C 82.943902 63.531047 82.617077 64.320071 82.617077 65.142677 
C 82.617077 65.965282 82.943902 66.754307 83.525572 67.335976 
C 84.107242 67.917646 84.896266 68.244471 85.718871 68.244471 
z
" clip-path="url(#p049d8e8c14)" style="fill: #55b4dc; stroke: #000000; stroke-width: 0.886227"/>
    <path d="M 83.888572 57.522344 
C 84.711177 57.522344 85.500202 57.19552 86.081871 56.61385 
C 86.663541 56.03218 86.990366 55.243156 86.990366 54.42055 
C 86.990366 53.597945 86.663541 52.80892 86.081871 52.22725 
C 85.500202 51.645581 84.711177 51.318756 83.888572 51.318756 
C 83.065966 51.318756 82.276942 51.645581 81.695272 52.22725 
C 81.113602 52.80892 80.786778 53.597945 80.786778 54.42055 
C 80.786778 55.243156 81.113602 56.03218 81.695272 56.61385 
C 82.276942 57.19552 83.065966 57.522344 83.888572 57.522344 
z
" clip-path="url(#p049d8e8c14)" style="fill: #55b4dc; stroke: #000000; stroke-width: 0.886227"/>
    <path d="M 88.784422 82.364299 
C 89.607027 82.364299 90.396051 82.037475 90.977721 81.455805 
C 91.559391 80.874135 91.886216 80.085111 91.886216 79.262505 
C 91.886216 78.4399 91.559391 77.650875 90.977721 77.069205 
C 90.396051 76.487536 89.607027 76.160711 88.784422 76.160711 
C 87.961816 76.160711 87.172792 76.487536 86.591122 77.069205 
C 86.009452 77.650875 85.682627 78.4399 85.682627 79.262505 
C 85.682627 80.085111 86.009452 80.874135 86.591122 81.455805 
C 87.172792 82.037475 87.961816 82.364299 88.784422 82.364299 
z
" clip-path="url(#p049d8e8c14)" style="fill: #55b4dc; stroke: #000000; stroke-width: 0.886227"/>
    <path d="M 91.657609 90.36893 
C 92.480214 90.36893 93.269239 90.042106 93.850908 89.460436 
C 94.432578 88.878766 94.759403 88.089742 94.759403 87.267136 
C 94.759403 86.444531 94.432578 85.655506 93.850908 85.073836 
C 93.269239 84.492167 92.480214 84.165342 91.657609 84.165342 
C 90.835003 84.165342 90.045979 84.492167 89.464309 85.073836 
C 88.882639 85.655506 88.555814 86.444531 88.555814 87.267136 
C 88.555814 88.089742 88.882639 88.878766 89.464309 89.460436 
C 90.045979 90.042106 90.835003 90.36893 91.657609 90.36893 
z
" clip-path="url(#p049d8e8c14)" style="fill: #55b4dc; stroke: #000000; stroke-width: 0.886227"/>
    <path d="M 97.698799 76.197906 
C 98.521404 76.197906 99.310429 75.871081 99.892099 75.289411 
C 100.473769 74.707741 100.800593 73.918717 100.800593 73.096111 
C 100.800593 72.273506 100.473769 71.484482 99.892099 70.902812 
C 99.310429 70.321142 98.521404 69.994317 97.698799 69.994317 
C 96.876193 69.994317 96.087169 70.321142 95.505499 70.902812 
C 94.923829 71.484482 94.597005 72.273506 94.597005 73.096111 
C 94.597005 73.918717 94.923829 74.707741 95.505499 75.289411 
C 96.087169 75.871081 96.876193 76.197906 97.698799 76.197906 
z
" clip-path="url(#p049d8e8c14)" style="fill: #55b4dc; stroke: #000000; stroke-width: 0.886227"/>
    <path d="M 97.39021 81.881842 
C 98.212816 81.881842 99.00184 81.555018 99.58351 80.973348 
C 100.16518 80.391678 100.492004 79.602654 100.492004 78.780048 
C 100.492004 77.957443 100.16518 77.168418 99.58351 76.586748 
C 99.00184 76.005079 98.212816 75.678254 97.39021 75.678254 
C 96.567605 75.678254 95.77858 76.005079 95.19691 76.586748 
C 94.61524 77.168418 94.288416 77.957443 94.288416 78.780048 
C 94.288416 79.602654 94.61524 80.391678 95.19691 80.973348 
C 95.77858 81.555018 96.567605 81.881842 97.39021 81.881842 
z
" clip-path="url(#p049d8e8c14)" style="fill: #55b4dc; stroke: #000000; stroke-width: 0.886227"/>
    <path d="M 97.330803 67.49092 
C 98.153409 67.49092 98.942433 67.164095 99.524103 66.582426 
C 100.105773 66.000756 100.432597 65.211731 100.432597 64.389126 
C 100.432597 63.56652 100.105773 62.777496 99.524103 62.195826 
C 98.942433 61.614156 98.153409 61.287332 97.330803 61.287332 
C 96.508198 61.287332 95.719173 61.614156 95.137503 62.195826 
C 94.555833 62.777496 94.229009 63.56652 94.229009 64.389126 
C 94.229009 65.211731 94.555833 66.000756 95.137503 66.582426 
C 95.719173 67.164095 96.508198 67.49092 97.330803 67.49092 
z
" clip-path="url(#p049d8e8c14)" style="fill: #55b4dc; stroke: #000000; stroke-width: 0.886227"/>
    <path d="M 83.280406 53.946611 
C 84.103011 53.946611 84.892035 53.619787 85.473705 53.038117 
C 86.055375 52.456447 86.3822 51.667423 86.3822 50.844817 
C 86.3822 50.022212 86.055375 49.233187 85.473705 48.651517 
C 84.892035 48.069848 84.103011 47.743023 83.280406 47.743023 
C 82.4578 47.743023 81.668776 48.069848 81.087106 48.651517 
C 80.505436 49.233187 80.178611 50.022212 80.178611 50.844817 
C 80.178611 51.667423 80.505436 52.456447 81.087106 53.038117 
C 81.668776 53.619787 82.4578 53.946611 83.280406 53.946611 
z
" clip-path="url(#p049d8e8c14)" style="fill: #55b4dc; stroke: #000000; stroke-width: 0.886227"/>
    <path d="M 90.528952 74.53112 
C 91.351558 74.53112 92.140582 74.204296 92.722252 73.622626 
C 93.303922 73.040956 93.630747 72.251932 93.630747 71.429326 
C 93.630747 70.606721 93.303922 69.817696 92.722252 69.236027 
C 92.140582 68.654357 91.351558 68.327532 90.528952 68.327532 
C 89.706347 68.327532 88.917323 68.654357 88.335653 69.236027 
C 87.753983 69.817696 87.427158 70.606721 87.427158 71.429326 
C 87.427158 72.251932 87.753983 73.040956 88.335653 73.622626 
C 88.917323 74.204296 89.706347 74.53112 90.528952 74.53112 
z
" clip-path="url(#p049d8e8c14)" style="fill: #55b4dc; stroke: #000000; stroke-width: 0.886227"/>
    <path d="M 94.018049 59.778416 
C 94.840655 59.778416 95.629679 59.451592 96.211349 58.869922 
C 96.793019 58.288252 97.119844 57.499227 97.119844 56.676622 
C 97.119844 55.854017 96.793019 55.064992 96.211349 54.483322 
C 95.629679 53.901652 94.840655 53.574828 94.018049 53.574828 
C 93.195444 53.574828 92.40642 53.901652 91.82475 54.483322 
C 91.24308 55.064992 90.916255 55.854017 90.916255 56.676622 
C 90.916255 57.499227 91.24308 58.288252 91.82475 58.869922 
C 92.40642 59.451592 93.195444 59.778416 94.018049 59.778416 
z
" clip-path="url(#p049d8e8c14)" style="fill: #55b4dc; stroke: #000000; stroke-width: 0.886227"/>
    <path d="M 179.437551 77.088396 
C 180.260156 77.088396 181.049181 76.761571 181.630851 76.179901 
C 182.212521 75.598232 182.539345 74.809207 182.539345 73.986602 
C 182.539345 73.163996 182.212521 72.374972 181.630851 71.793302 
C 181.049181 71.211632 180.260156 70.884807 179.437551 70.884807 
C 178.614945 70.884807 177.825921 71.211632 177.244251 71.793302 
C 176.662581 72.374972 176.335757 73.163996 176.335757 73.986602 
C 176.335757 74.809207 176.662581 75.598232 177.244251 76.179901 
C 177.825921 76.761571 178.614945 77.088396 179.437551 77.088396 
z
" clip-path="url(#p049d8e8c14)" style="fill: #55b4dc; stroke: #000000; stroke-width: 0.886227"/>
    <path d="M 173.222646 61.797703 
C 174.045251 61.797703 174.834276 61.470878 175.415946 60.889208 
C 175.997615 60.307538 176.32444 59.518514 176.32444 58.695909 
C 176.32444 57.873303 175.997615 57.084279 175.415946 56.502609 
C 174.834276 55.920939 174.045251 55.594114 173.222646 55.594114 
C 172.40004 55.594114 171.611016 55.920939 171.029346 56.502609 
C 170.447676 57.084279 170.120852 57.873303 170.120852 58.695909 
C 170.120852 59.518514 170.447676 60.307538 171.029346 60.889208 
C 171.611016 61.470878 172.40004 61.797703 173.222646 61.797703 
z
" clip-path="url(#p049d8e8c14)" style="fill: #55b4dc; stroke: #000000; stroke-width: 0.886227"/>
   </g>
  </g>
  <g id="patch_4">
   <path d="M 37.19449 153.85184 
L 230.94 153.85184 
L 230.94 9.466667 
L 37.19449 9.466667 
L 37.19449 153.85184 
z
" style="fill: none; stroke: #000000; stroke-width: 0.7; stroke-linejoin: miter"/>
  </g>
  <g id="text_7">
   <!-- Glycine position -->
   <g transform="translate(109.292714 173.439271) scale(0.07 -0.07)">
    <defs>
     <path id="Roboto-Regular-47" d="M 3891 2266 
L 3891 600 
Q 3763 413 3403 175 
Q 3044 -63 2281 -63 
Q 1450 -63 915 507 
Q 381 1078 381 2100 
L 381 2453 
Q 381 3469 856 4041 
Q 1331 4613 2213 4613 
Q 2994 4613 3398 4219 
Q 3803 3825 3891 3219 
L 3288 3219 
Q 3225 3588 2979 3853 
Q 2734 4119 2213 4119 
Q 1584 4119 1287 3676 
Q 991 3234 988 2475 
L 988 2100 
Q 988 1313 1344 870 
Q 1700 428 2284 428 
Q 2769 428 2984 542 
Q 3200 656 3291 759 
L 3291 1778 
L 2238 1778 
L 2238 2266 
L 3891 2266 
z
" transform="scale(0.015625)"/>
     <path id="Roboto-Regular-6c" d="M 1069 4800 
L 1069 0 
L 488 0 
L 488 4800 
L 1069 4800 
z
" transform="scale(0.015625)"/>
     <path id="Roboto-Regular-79" d="M 1594 -522 
Q 1294 -1316 688 -1363 
L 591 -1366 
Q 406 -1366 266 -1316 
L 263 -847 
L 419 -859 
Q 713 -859 878 -739 
Q 1044 -619 1150 -306 
L 1275 38 
L 69 3381 
L 700 3381 
L 1547 850 
L 2331 3381 
L 2950 3381 
L 1594 -522 
z
" transform="scale(0.015625)"/>
     <path id="Roboto-Regular-63" d="M 1794 413 
Q 2103 413 2336 597 
Q 2569 781 2591 1069 
L 3141 1069 
Q 3119 616 2725 276 
Q 2331 -63 1794 -63 
Q 1031 -63 661 440 
Q 291 944 291 1625 
L 291 1756 
Q 291 2438 661 2941 
Q 1031 3444 1794 3444 
Q 2388 3444 2753 3092 
Q 3119 2741 3141 2219 
L 2591 2219 
Q 2569 2531 2355 2750 
Q 2141 2969 1794 2969 
Q 1438 2969 1236 2787 
Q 1034 2606 951 2328 
Q 869 2050 869 1756 
L 869 1625 
Q 869 1328 950 1050 
Q 1031 772 1232 592 
Q 1434 413 1794 413 
z
" transform="scale(0.015625)"/>
     <path id="Roboto-Regular-69" d="M 444 4278 
Q 444 4419 530 4516 
Q 616 4613 784 4613 
Q 950 4613 1039 4516 
Q 1128 4419 1128 4278 
Q 1128 4144 1039 4048 
Q 950 3953 784 3953 
Q 616 3953 530 4048 
Q 444 4144 444 4278 
z
M 1069 3381 
L 1069 0 
L 488 0 
L 488 3381 
L 1069 3381 
z
" transform="scale(0.015625)"/>
     <path id="Roboto-Regular-6e" d="M 1844 2956 
Q 1566 2956 1353 2806 
Q 1141 2656 1019 2416 
L 1019 0 
L 441 0 
L 441 3381 
L 988 3381 
L 1006 2959 
Q 1391 3444 2016 3444 
Q 2513 3444 2805 3166 
Q 3097 2888 3100 2231 
L 3100 0 
L 2519 0 
L 2519 2222 
Q 2519 2619 2345 2787 
Q 2172 2956 1844 2956 
z
" transform="scale(0.015625)"/>
     <path id="Roboto-Regular-65" d="M 3116 591 
Q 2950 341 2647 139 
Q 2344 -63 1844 -63 
Q 1138 -63 714 396 
Q 291 856 291 1572 
L 291 1703 
Q 291 2256 502 2645 
Q 713 3034 1050 3239 
Q 1388 3444 1769 3444 
Q 2494 3444 2826 2970 
Q 3159 2497 3159 1788 
L 3159 1528 
L 872 1528 
Q 884 1063 1148 736 
Q 1413 409 1875 409 
Q 2181 409 2393 534 
Q 2606 659 2766 869 
L 3116 591 
z
M 1769 2969 
Q 1425 2969 1187 2719 
Q 950 2469 891 2000 
L 2581 2000 
L 2581 2044 
Q 2559 2381 2386 2675 
Q 2213 2969 1769 2969 
z
" transform="scale(0.015625)"/>
     <path id="Roboto-Regular-20" transform="scale(0.015625)"/>
     <path id="Roboto-Regular-70" d="M 1984 -63 
Q 1375 -63 1019 328 
L 1019 -1300 
L 438 -1300 
L 438 3381 
L 969 3381 
L 997 3009 
Q 1353 3444 1975 3444 
Q 2616 3444 2956 2969 
Q 3297 2494 3297 1719 
L 3297 1653 
Q 3297 913 2955 425 
Q 2613 -63 1984 -63 
z
M 1806 2956 
Q 1281 2956 1019 2491 
L 1019 872 
Q 1284 413 1813 413 
Q 2281 413 2498 781 
Q 2716 1150 2716 1653 
L 2716 1719 
Q 2716 2222 2498 2589 
Q 2281 2956 1806 2956 
z
" transform="scale(0.015625)"/>
     <path id="Roboto-Regular-6f" d="M 288 1725 
Q 288 2459 700 2951 
Q 1113 3444 1822 3444 
Q 2531 3444 2943 2961 
Q 3356 2478 3366 1756 
L 3366 1653 
Q 3366 919 2952 428 
Q 2538 -63 1828 -63 
Q 1116 -63 702 428 
Q 288 919 288 1653 
L 288 1725 
z
M 866 1653 
Q 866 1150 1105 781 
Q 1344 413 1828 413 
Q 2300 413 2540 777 
Q 2781 1141 2784 1644 
L 2784 1725 
Q 2784 2222 2543 2595 
Q 2303 2969 1822 2969 
Q 1344 2969 1105 2595 
Q 866 2222 866 1725 
L 866 1653 
z
" transform="scale(0.015625)"/>
     <path id="Roboto-Regular-73" d="M 2409 897 
Q 2409 1081 2273 1229 
Q 2138 1378 1647 1478 
Q 1081 1594 747 1814 
Q 413 2034 413 2456 
Q 413 2856 755 3150 
Q 1097 3444 1666 3444 
Q 2272 3444 2612 3134 
Q 2953 2825 2953 2388 
L 2375 2388 
Q 2375 2597 2190 2783 
Q 2006 2969 1666 2969 
Q 1306 2969 1150 2812 
Q 994 2656 994 2472 
Q 994 2288 1139 2173 
Q 1284 2059 1756 1953 
Q 2378 1813 2683 1584 
Q 2988 1356 2988 941 
Q 2988 494 2630 215 
Q 2272 -63 1681 -63 
Q 1009 -63 653 281 
Q 297 625 297 1044 
L 878 1044 
Q 897 684 1155 548 
Q 1413 413 1681 413 
Q 2034 413 2221 550 
Q 2409 688 2409 897 
z
" transform="scale(0.015625)"/>
     <path id="Roboto-Regular-74" d="M 1872 0 
Q 1675 -63 1425 -63 
Q 1103 -63 875 134 
Q 647 331 647 841 
L 647 2938 
L 28 2938 
L 28 3381 
L 647 3381 
L 647 4203 
L 1225 4203 
L 1225 3381 
L 1856 3381 
L 1856 2938 
L 1225 2938 
L 1225 838 
Q 1225 578 1337 506 
Q 1450 434 1597 434 
Q 1706 434 1869 472 
L 1872 0 
z
" transform="scale(0.015625)"/>
    </defs>
    <use xlink:href="#Roboto-Regular-47"/>
    <use xlink:href="#Roboto-Regular-6c" transform="translate(68.115234 0)"/>
    <use xlink:href="#Roboto-Regular-79" transform="translate(92.431641 0)"/>
    <use xlink:href="#Roboto-Regular-63" transform="translate(139.746094 0)"/>
    <use xlink:href="#Roboto-Regular-69" transform="translate(192.089844 0)"/>
    <use xlink:href="#Roboto-Regular-6e" transform="translate(216.40625 0)"/>
    <use xlink:href="#Roboto-Regular-65" transform="translate(271.630859 0)"/>
    <use xlink:href="#Roboto-Regular-20" transform="translate(324.658203 0)"/>
    <use xlink:href="#Roboto-Regular-70" transform="translate(349.462891 0)"/>
    <use xlink:href="#Roboto-Regular-6f" transform="translate(405.615234 0)"/>
    <use xlink:href="#Roboto-Regular-73" transform="translate(462.646484 0)"/>
    <use xlink:href="#Roboto-Regular-69" transform="translate(514.257812 0)"/>
    <use xlink:href="#Roboto-Regular-74" transform="translate(538.574219 0)"/>
    <use xlink:href="#Roboto-Regular-69" transform="translate(571.289062 0)"/>
    <use xlink:href="#Roboto-Regular-6f" transform="translate(595.605469 0)"/>
    <use xlink:href="#Roboto-Regular-6e" transform="translate(652.636719 0)"/>
   </g>
  </g>
  <g id="text_8">
   <!-- $\Delta$G (kJ/mol) -->
   <g transform="translate(15.13 100.804253) rotate(-90) scale(0.07 -0.07)">
    <defs>
     <path id="DejaVuSans-394" d="M 2188 4044 
L 906 525 
L 3472 525 
L 2188 4044 
z
M 50 0 
L 1831 4666 
L 2547 4666 
L 4325 0 
L 50 0 
z
" transform="scale(0.015625)"/>
     <path id="Roboto-Regular-28" d="M 419 1850 
Q 419 2756 678 3434 
Q 938 4113 1294 4541 
Q 1650 4969 1947 5134 
L 2069 4753 
Q 1700 4475 1348 3761 
Q 997 3047 997 1813 
Q 997 625 1348 -97 
Q 1700 -819 2069 -1119 
L 1947 -1469 
Q 1650 -1306 1294 -878 
Q 938 -450 678 226 
Q 419 903 419 1850 
z
" transform="scale(0.015625)"/>
     <path id="Roboto-Regular-6b" d="M 2559 0 
L 1388 1569 
L 1022 1191 
L 1022 0 
L 441 0 
L 441 4800 
L 1022 4800 
L 1022 1900 
L 1331 2269 
L 2381 3381 
L 3088 3381 
L 1769 1972 
L 3241 0 
L 2559 0 
z
" transform="scale(0.015625)"/>
     <path id="Roboto-Regular-4a" d="M 2438 4550 
L 3038 4550 
L 3038 1328 
Q 3038 653 2633 295 
Q 2228 -63 1603 -63 
Q 975 -63 570 262 
Q 166 588 166 1259 
L 769 1259 
Q 769 828 1001 628 
Q 1234 428 1603 428 
Q 1959 428 2198 656 
Q 2438 884 2438 1328 
L 2438 4550 
z
" transform="scale(0.015625)"/>
     <path id="Roboto-Regular-2f" d="M 2453 4550 
L 556 -391 
L 59 -391 
L 1959 4550 
L 2453 4550 
z
" transform="scale(0.015625)"/>
     <path id="Roboto-Regular-6d" d="M 1794 2956 
Q 1225 2956 1016 2478 
L 1016 0 
L 434 0 
L 434 3381 
L 984 3381 
L 1000 3013 
Q 1366 3444 2000 3444 
Q 2325 3444 2579 3314 
Q 2834 3184 2969 2900 
Q 3138 3144 3408 3294 
Q 3678 3444 4044 3444 
Q 4588 3444 4883 3153 
Q 5178 2863 5178 2222 
L 5178 0 
L 4597 0 
L 4597 2228 
Q 4597 2653 4401 2804 
Q 4206 2956 3875 2956 
Q 3525 2956 3325 2748 
Q 3125 2541 3094 2244 
L 3094 0 
L 2516 0 
L 2516 2225 
Q 2516 2622 2319 2789 
Q 2122 2956 1794 2956 
z
" transform="scale(0.015625)"/>
     <path id="Roboto-Regular-29" d="M 1772 1819 
Q 1772 906 1512 228 
Q 1253 -450 895 -878 
Q 538 -1306 244 -1469 
L 122 -1119 
Q 488 -841 841 -109 
Q 1194 622 1194 1856 
Q 1194 2647 1019 3236 
Q 844 3825 594 4212 
Q 344 4600 122 4781 
L 244 5134 
Q 538 4969 895 4541 
Q 1253 4113 1512 3436 
Q 1772 2759 1772 1819 
z
" transform="scale(0.015625)"/>
    </defs>
    <use xlink:href="#DejaVuSans-394" transform="translate(0 0.78125)"/>
    <use xlink:href="#Roboto-Regular-47" transform="translate(68.408203 0.78125)"/>
    <use xlink:href="#Roboto-Regular-20" transform="translate(136.523438 0.78125)"/>
    <use xlink:href="#Roboto-Regular-28" transform="translate(161.328125 0.78125)"/>
    <use xlink:href="#Roboto-Regular-6b" transform="translate(195.556641 0.78125)"/>
    <use xlink:href="#Roboto-Regular-4a" transform="translate(246.240234 0.78125)"/>
    <use xlink:href="#Roboto-Regular-2f" transform="translate(301.416016 0.78125)"/>
    <use xlink:href="#Roboto-Regular-6d" transform="translate(342.675781 0.78125)"/>
    <use xlink:href="#Roboto-Regular-6f" transform="translate(430.371094 0.78125)"/>
    <use xlink:href="#Roboto-Regular-6c" transform="translate(487.402344 0.78125)"/>
    <use xlink:href="#Roboto-Regular-29" transform="translate(511.71875 0.78125)"/>
   </g>
  </g>
 </g>
 <defs>
  <clipPath id="p049d8e8c14">
   <rect x="37.19449" y="9.466667" width="193.74551" height="144.385174"/>
  </clipPath>
 </defs>
</svg>
