<?xml version="1.0" encoding="utf-8" standalone="no"?>
<!DOCTYPE svg PUBLIC "-//W3C//DTD SVG 1.1//EN"
  "http://www.w3.org/Graphics/SVG/1.1/DTD/svg11.dtd">
<svg xmlns:xlink="http://www.w3.org/1999/xlink" width="240.4pt" height="184.4pt" viewBox="0 0 240.4 184.4" xmlns="http://www.w3.org/2000/svg" version="1.1">
 <metadata>
  <rdf:RDF xmlns:dc="http://purl.org/dc/elements/1.1/" xmlns:cc="http://creativecommons.org/ns#" xmlns:rdf="http://www.w3.org/1999/02/22-rdf-syntax-ns#">
   <cc:Work>
    <dc:type rdf:resource="http://purl.org/dc/dcmitype/StillImage"/>
    <dc:date>2026-01-28T17:36:56.083224</dc:date>
    <dc:format>image/svg+xml</dc:format>
    <dc:creator>
     <cc:Agent>
      <dc:title>Matplotlib v3.10.6, https://matplotlib.org/</dc:title>
     </cc:Agent>
    </dc:creator>
   </cc:Work>
  </rdf:RDF>
 </metadata>
 <defs>
  <style type="text/css">*{stroke-linejoin: round; stroke-linecap: butt}</style>
 </defs>
 <g id="figure_1">
  <g id="patch_1">
   <path d="M 0 184.4 
L 240.4 184.4 
L 240.4 0 
L 0 0 
z
" style="fill: #ffffff"/>
  </g>
  <g id="patch_2">
   <path d="M 7.2 177.2 
L 233.2 177.2 
L 233.2 7.2 
L 7.2 7.2 
L 7.2 177.2 
z
" style="fill: none; stroke: #ffffff; stroke-width: 0.7; stroke-linejoin: miter"/>
  </g>
  <g id="axes_1">
   <g id="patch_3">
    <path d="M 37.19449 153.924028 
L 230.94 153.924028 
L 230.94 9.466667 
L 37.19449 9.466667 
z
" style="fill: #ffffff"/>
   </g>
   <g id="matplotlib.axis_1">
    <g id="xtick_1">
     <g id="line2d_1">
      <defs>
       <path id="m78e629cb8a" d="M 0 1.5 
L 0 -1.5 
" style="stroke: #000000; stroke-width: 0.7"/>
      </defs>
      <g>
       <use xlink:href="#m78e629cb8a" x="73.521773" y="153.924028" style="stroke: #000000; stroke-width: 0.7"/>
      </g>
     </g>
     <g id="text_1">
      <!-- C -->
      <g transform="translate(71.243492 163.074028) scale(0.07 -0.07)">
       <defs>
        <path id="Roboto-Regular-43" d="M 3275 1447 
L 3875 1447 
Q 3806 800 3387 368 
Q 2969 -63 2150 -63 
Q 1356 -63 870 504 
Q 384 1072 375 2013 
L 375 2500 
Q 375 3456 867 4034 
Q 1359 4613 2203 4613 
Q 2975 4613 3390 4188 
Q 3806 3763 3875 3091 
L 3275 3091 
Q 3206 3566 2968 3842 
Q 2731 4119 2203 4119 
Q 1600 4119 1287 3675 
Q 975 3231 975 2506 
L 975 2047 
Q 975 1375 1259 901 
Q 1544 428 2150 428 
Q 2725 428 2961 697 
Q 3197 966 3275 1447 
z
" transform="scale(0.015625)"/>
       </defs>
       <use xlink:href="#Roboto-Regular-43"/>
      </g>
     </g>
    </g>
    <g id="xtick_2">
     <g id="line2d_2">
      <g>
       <use xlink:href="#m78e629cb8a" x="134.067245" y="153.924028" style="stroke: #000000; stroke-width: 0.7"/>
      </g>
     </g>
     <g id="text_2">
      <!-- N -->
      <g transform="translate(131.570214 163.074028) scale(0.07 -0.07)">
       <defs>
        <path id="Roboto-Regular-4e" d="M 4028 4550 
L 4028 0 
L 3422 0 
L 1131 3509 
L 1131 0 
L 528 0 
L 528 4550 
L 1131 4550 
L 3431 1031 
L 3431 4550 
L 4028 4550 
z
" transform="scale(0.015625)"/>
       </defs>
       <use xlink:href="#Roboto-Regular-4e"/>
      </g>
     </g>
    </g>
    <g id="xtick_3">
     <g id="line2d_3">
      <g>
       <use xlink:href="#m78e629cb8a" x="194.612717" y="153.924028" style="stroke: #000000; stroke-width: 0.7"/>
      </g>
     </g>
     <g id="text_3">
      <!-- none -->
      <g transform="translate(186.895217 163.074028) scale(0.07 -0.07)">
       <defs>
        <path id="Roboto-Regular-6e" d="M 1844 2956 
Q 1566 2956 1353 2806 
Q 1141 2656 1019 2416 
L 1019 0 
L 441 0 
L 441 3381 
L 988 3381 
L 1006 2959 
Q 1391 3444 2016 3444 
Q 2513 3444 2805 3166 
Q 3097 2888 3100 2231 
L 3100 0 
L 2519 0 
L 2519 2222 
Q 2519 2619 2345 2787 
Q 2172 2956 1844 2956 
z
" transform="scale(0.015625)"/>
        <path id="Roboto-Regular-6f" d="M 288 1725 
Q 288 2459 700 2951 
Q 1113 3444 1822 3444 
Q 2531 3444 2943 2961 
Q 3356 2478 3366 1756 
L 3366 1653 
Q 3366 919 2952 428 
Q 2538 -63 1828 -63 
Q 1116 -63 702 428 
Q 288 919 288 1653 
L 288 1725 
z
M 866 1653 
Q 866 1150 1105 781 
Q 1344 413 1828 413 
Q 2300 413 2540 777 
Q 2781 1141 2784 1644 
L 2784 1725 
Q 2784 2222 2543 2595 
Q 2303 2969 1822 2969 
Q 1344 2969 1105 2595 
Q 866 2222 866 1725 
L 866 1653 
z
" transform="scale(0.015625)"/>
        <path id="Roboto-Regular-65" d="M 3116 591 
Q 2950 341 2647 139 
Q 2344 -63 1844 -63 
Q 1138 -63 714 396 
Q 291 856 291 1572 
L 291 1703 
Q 291 2256 502 2645 
Q 713 3034 1050 3239 
Q 1388 3444 1769 3444 
Q 2494 3444 2826 2970 
Q 3159 2497 3159 1788 
L 3159 1528 
L 872 1528 
Q 884 1063 1148 736 
Q 1413 409 1875 409 
Q 2181 409 2393 534 
Q 2606 659 2766 869 
L 3116 591 
z
M 1769 2969 
Q 1425 2969 1187 2719 
Q 950 2469 891 2000 
L 2581 2000 
L 2581 2044 
Q 2559 2381 2386 2675 
Q 2213 2969 1769 2969 
z
" transform="scale(0.015625)"/>
       </defs>
       <use xlink:href="#Roboto-Regular-6e"/>
       <use xlink:href="#Roboto-Regular-6f" transform="translate(55.224609 0)"/>
       <use xlink:href="#Roboto-Regular-6e" transform="translate(112.255859 0)"/>
       <use xlink:href="#Roboto-Regular-65" transform="translate(167.480469 0)"/>
      </g>
     </g>
    </g>
   </g>
   <g id="matplotlib.axis_2">
    <g id="ytick_1">
     <g id="line2d_4">
      <defs>
       <path id="m14a8650c7a" d="M 1.5 0 
L -1.5 -0 
" style="stroke: #000000; stroke-width: 0.7"/>
      </defs>
      <g>
       <use xlink:href="#m14a8650c7a" x="37.19449" y="147.357784" style="stroke: #000000; stroke-width: 0.7"/>
      </g>
     </g>
     <g id="text_4">
      <!-- 0 -->
      <g transform="translate(29.360271 149.982784) scale(0.07 -0.07)">
       <defs>
        <path id="Roboto-Regular-30" d="M 3234 1944 
Q 3234 825 2848 381 
Q 2463 -63 1800 -63 
Q 1156 -63 764 368 
Q 372 800 359 1872 
L 359 2638 
Q 359 3753 750 4183 
Q 1141 4613 1794 4613 
Q 2447 4613 2834 4195 
Q 3222 3778 3234 2709 
L 3234 1944 
z
M 2653 2734 
Q 2653 3503 2434 3822 
Q 2216 4141 1794 4141 
Q 1388 4141 1167 3831 
Q 947 3522 941 2778 
L 941 1850 
Q 941 1088 1164 750 
Q 1388 413 1800 413 
Q 2222 413 2436 745 
Q 2650 1078 2653 1825 
L 2653 2734 
z
" transform="scale(0.015625)"/>
       </defs>
       <use xlink:href="#Roboto-Regular-30"/>
      </g>
     </g>
    </g>
    <g id="ytick_2">
     <g id="line2d_5">
      <g>
       <use xlink:href="#m14a8650c7a" x="37.19449" y="110.878652" style="stroke: #000000; stroke-width: 0.7"/>
      </g>
     </g>
     <g id="text_5">
      <!-- 50 -->
      <g transform="translate(25.426052 113.503652) scale(0.07 -0.07)">
       <defs>
        <path id="Roboto-Regular-35" d="M 1109 2166 
L 647 2284 
L 875 4550 
L 3209 4550 
L 3209 4016 
L 1366 4016 
L 1228 2778 
Q 1572 2975 1988 2975 
Q 2616 2975 2980 2561 
Q 3344 2147 3344 1450 
Q 3344 797 2987 367 
Q 2631 -63 1903 -63 
Q 1350 -63 947 248 
Q 544 559 481 1197 
L 1031 1197 
Q 1141 413 1903 413 
Q 2313 413 2538 691 
Q 2763 969 2763 1444 
Q 2763 1872 2527 2164 
Q 2291 2456 1853 2456 
Q 1563 2456 1413 2378 
Q 1263 2300 1109 2166 
z
" transform="scale(0.015625)"/>
       </defs>
       <use xlink:href="#Roboto-Regular-35"/>
       <use xlink:href="#Roboto-Regular-30" transform="translate(56.201172 0)"/>
      </g>
     </g>
    </g>
    <g id="ytick_3">
     <g id="line2d_6">
      <g>
       <use xlink:href="#m14a8650c7a" x="37.19449" y="74.399521" style="stroke: #000000; stroke-width: 0.7"/>
      </g>
     </g>
     <g id="text_6">
      <!-- 100 -->
      <g transform="translate(21.491833 77.024521) scale(0.07 -0.07)">
       <defs>
        <path id="Roboto-Regular-31" d="M 2278 4575 
L 2278 0 
L 1700 0 
L 1700 3853 
L 534 3428 
L 534 3950 
L 2188 4575 
L 2278 4575 
z
" transform="scale(0.015625)"/>
       </defs>
       <use xlink:href="#Roboto-Regular-31"/>
       <use xlink:href="#Roboto-Regular-30" transform="translate(56.201172 0)"/>
       <use xlink:href="#Roboto-Regular-30" transform="translate(112.402344 0)"/>
      </g>
     </g>
    </g>
    <g id="ytick_4">
     <g id="line2d_7">
      <g>
       <use xlink:href="#m14a8650c7a" x="37.19449" y="37.920389" style="stroke: #000000; stroke-width: 0.7"/>
      </g>
     </g>
     <g id="text_7">
      <!-- 150 -->
      <g transform="translate(21.491833 40.545389) scale(0.07 -0.07)">
       <use xlink:href="#Roboto-Regular-31"/>
       <use xlink:href="#Roboto-Regular-35" transform="translate(56.201172 0)"/>
       <use xlink:href="#Roboto-Regular-30" transform="translate(112.402344 0)"/>
      </g>
     </g>
    </g>
    <g id="ytick_5">
     <g id="line2d_8">
      <defs>
       <path id="m4489c9de13" d="M 2 0 
L -2 -0 
" style="stroke: #000000; stroke-width: 0.7"/>
      </defs>
      <g>
       <use xlink:href="#m4489c9de13" x="37.19449" y="129.118218" style="stroke: #000000; stroke-width: 0.7"/>
      </g>
     </g>
    </g>
    <g id="ytick_6">
     <g id="line2d_9">
      <g>
       <use xlink:href="#m4489c9de13" x="37.19449" y="92.639087" style="stroke: #000000; stroke-width: 0.7"/>
      </g>
     </g>
    </g>
    <g id="ytick_7">
     <g id="line2d_10">
      <g>
       <use xlink:href="#m4489c9de13" x="37.19449" y="56.159955" style="stroke: #000000; stroke-width: 0.7"/>
      </g>
     </g>
    </g>
    <g id="ytick_8">
     <g id="line2d_11">
      <g>
       <use xlink:href="#m4489c9de13" x="37.19449" y="19.680824" style="stroke: #000000; stroke-width: 0.7"/>
      </g>
     </g>
    </g>
   </g>
   <g id="PathCollection_1">
    <path d="M 189.231409 63.421523 
C 190.054014 63.421523 190.843038 63.094698 191.424708 62.513029 
C 192.006378 61.931359 192.333203 61.142334 192.333203 60.319729 
C 192.333203 59.497123 192.006378 58.708099 191.424708 58.126429 
C 190.843038 57.544759 190.054014 57.217935 189.231409 57.217935 
C 188.408803 57.217935 187.619779 57.544759 187.038109 58.126429 
C 186.456439 58.708099 186.129614 59.497123 186.129614 60.319729 
C 186.129614 61.142334 186.456439 61.931359 187.038109 62.513029 
C 187.619779 63.094698 188.408803 63.421523 189.231409 63.421523 
z
" clip-path="url(#p756b0d2172)" style="fill: #777777; stroke: #000000; stroke-width: 0.886227"/>
    <path d="M 200.260424 69.190373 
C 201.08303 69.190373 201.872054 68.863548 202.453724 68.281878 
C 203.035394 67.700208 203.362218 66.911184 203.362218 66.088579 
C 203.362218 65.265973 203.035394 64.476949 202.453724 63.895279 
C 201.872054 63.313609 201.08303 62.986784 200.260424 62.986784 
C 199.437819 62.986784 198.648794 63.313609 198.067124 63.895279 
C 197.485455 64.476949 197.15863 65.265973 197.15863 66.088579 
C 197.15863 66.911184 197.485455 67.700208 198.067124 68.281878 
C 198.648794 68.863548 199.437819 69.190373 200.260424 69.190373 
z
" clip-path="url(#p756b0d2172)" style="fill: #777777; stroke: #000000; stroke-width: 0.886227"/>
    <path d="M 193.932179 81.052077 
C 194.754785 81.052077 195.543809 80.725252 196.125479 80.143582 
C 196.707149 79.561912 197.033973 78.772888 197.033973 77.950282 
C 197.033973 77.127677 196.707149 76.338653 196.125479 75.756983 
C 195.543809 75.175313 194.754785 74.848488 193.932179 74.848488 
C 193.109574 74.848488 192.320549 75.175313 191.73888 75.756983 
C 191.15721 76.338653 190.830385 77.127677 190.830385 77.950282 
C 190.830385 78.772888 191.15721 79.561912 191.73888 80.143582 
C 192.320549 80.725252 193.109574 81.052077 193.932179 81.052077 
z
" clip-path="url(#p756b0d2172)" style="fill: #777777; stroke: #000000; stroke-width: 0.886227"/>
    <path d="M 199.065419 65.90259 
C 199.888024 65.90259 200.677049 65.575766 201.258719 64.994096 
C 201.840389 64.412426 202.167213 63.623402 202.167213 62.800796 
C 202.167213 61.978191 201.840389 61.189166 201.258719 60.607496 
C 200.677049 60.025827 199.888024 59.699002 199.065419 59.699002 
C 198.242813 59.699002 197.453789 60.025827 196.872119 60.607496 
C 196.290449 61.189166 195.963625 61.978191 195.963625 62.800796 
C 195.963625 63.623402 196.290449 64.412426 196.872119 64.994096 
C 197.453789 65.575766 198.242813 65.90259 199.065419 65.90259 
z
" clip-path="url(#p756b0d2172)" style="fill: #777777; stroke: #000000; stroke-width: 0.886227"/>
    <path d="M 191.532471 61.97079 
C 192.355077 61.97079 193.144101 61.643965 193.725771 61.062295 
C 194.307441 60.480625 194.634266 59.691601 194.634266 58.868996 
C 194.634266 58.04639 194.307441 57.257366 193.725771 56.675696 
C 193.144101 56.094026 192.355077 55.767201 191.532471 55.767201 
C 190.709866 55.767201 189.920841 56.094026 189.339172 56.675696 
C 188.757502 57.257366 188.430677 58.04639 188.430677 58.868996 
C 188.430677 59.691601 188.757502 60.480625 189.339172 61.062295 
C 189.920841 61.643965 190.709866 61.97079 191.532471 61.97079 
z
" clip-path="url(#p756b0d2172)" style="fill: #777777; stroke: #000000; stroke-width: 0.886227"/>
    <path d="M 195.523126 57.17044 
C 196.345731 57.17044 197.134755 56.843615 197.716425 56.261946 
C 198.298095 55.680276 198.62492 54.891251 198.62492 54.068646 
C 198.62492 53.24604 198.298095 52.457016 197.716425 51.875346 
C 197.134755 51.293676 196.345731 50.966852 195.523126 50.966852 
C 194.70052 50.966852 193.911496 51.293676 193.329826 51.875346 
C 192.748156 52.457016 192.421331 53.24604 192.421331 54.068646 
C 192.421331 54.891251 192.748156 55.680276 193.329826 56.261946 
C 193.911496 56.843615 194.70052 57.17044 195.523126 57.17044 
z
" clip-path="url(#p756b0d2172)" style="fill: #777777; stroke: #000000; stroke-width: 0.886227"/>
    <path d="M 129.421259 68.751345 
C 130.243864 68.751345 131.032889 68.424521 131.614558 67.842851 
C 132.196228 67.261181 132.523053 66.472157 132.523053 65.649551 
C 132.523053 64.826946 132.196228 64.037921 131.614558 63.456251 
C 131.032889 62.874582 130.243864 62.547757 129.421259 62.547757 
C 128.598653 62.547757 127.809629 62.874582 127.227959 63.456251 
C 126.646289 64.037921 126.319464 64.826946 126.319464 65.649551 
C 126.319464 66.472157 126.646289 67.261181 127.227959 67.842851 
C 127.809629 68.424521 128.598653 68.751345 129.421259 68.751345 
z
" clip-path="url(#p756b0d2172)" style="fill: #777777; stroke: #000000; stroke-width: 0.886227"/>
    <path d="M 132.048258 80.922748 
C 132.870863 80.922748 133.659888 80.595923 134.241557 80.014253 
C 134.823227 79.432583 135.150052 78.643559 135.150052 77.820953 
C 135.150052 76.998348 134.823227 76.209324 134.241557 75.627654 
C 133.659888 75.045984 132.870863 74.719159 132.048258 74.719159 
C 131.225652 74.719159 130.436628 75.045984 129.854958 75.627654 
C 129.273288 76.209324 128.946463 76.998348 128.946463 77.820953 
C 128.946463 78.643559 129.273288 79.432583 129.854958 80.014253 
C 130.436628 80.595923 131.225652 80.922748 132.048258 80.922748 
z
" clip-path="url(#p756b0d2172)" style="fill: #777777; stroke: #000000; stroke-width: 0.886227"/>
    <path d="M 193.974631 73.56731 
C 194.797237 73.56731 195.586261 73.240486 196.167931 72.658816 
C 196.749601 72.077146 197.076426 71.288122 197.076426 70.465516 
C 197.076426 69.642911 196.749601 68.853886 196.167931 68.272217 
C 195.586261 67.690547 194.797237 67.363722 193.974631 67.363722 
C 193.152026 67.363722 192.363001 67.690547 191.781332 68.272217 
C 191.199662 68.853886 190.872837 69.642911 190.872837 70.465516 
C 190.872837 71.288122 191.199662 72.077146 191.781332 72.658816 
C 192.363001 73.240486 193.152026 73.56731 193.974631 73.56731 
z
" clip-path="url(#p756b0d2172)" style="fill: #777777; stroke: #000000; stroke-width: 0.886227"/>
    <path d="M 191.97985 81.543152 
C 192.802456 81.543152 193.59148 81.216327 194.17315 80.634657 
C 194.75482 80.052987 195.081644 79.263963 195.081644 78.441358 
C 195.081644 77.618752 194.75482 76.829728 194.17315 76.248058 
C 193.59148 75.666388 192.802456 75.339563 191.97985 75.339563 
C 191.157245 75.339563 190.36822 75.666388 189.78655 76.248058 
C 189.20488 76.829728 188.878056 77.618752 188.878056 78.441358 
C 188.878056 79.263963 189.20488 80.052987 189.78655 80.634657 
C 190.36822 81.216327 191.157245 81.543152 191.97985 81.543152 
z
" clip-path="url(#p756b0d2172)" style="fill: #777777; stroke: #000000; stroke-width: 0.886227"/>
    <path d="M 69.91753 50.955556 
C 70.740136 50.955556 71.52916 50.628732 72.11083 50.047062 
C 72.6925 49.465392 73.019324 48.676367 73.019324 47.853762 
C 73.019324 47.031156 72.6925 46.242132 72.11083 45.660462 
C 71.52916 45.078792 70.740136 44.751968 69.91753 44.751968 
C 69.094925 44.751968 68.3059 45.078792 67.72423 45.660462 
C 67.142561 46.242132 66.815736 47.031156 66.815736 47.853762 
C 66.815736 48.676367 67.142561 49.465392 67.72423 50.047062 
C 68.3059 50.628732 69.094925 50.955556 69.91753 50.955556 
z
" clip-path="url(#p756b0d2172)" style="fill: #777777; stroke: #000000; stroke-width: 0.886227"/>
    <path d="M 70.685744 41.591078 
C 71.50835 41.591078 72.297374 41.264253 72.879044 40.682583 
C 73.460714 40.100913 73.787539 39.311889 73.787539 38.489283 
C 73.787539 37.666678 73.460714 36.877654 72.879044 36.295984 
C 72.297374 35.714314 71.50835 35.387489 70.685744 35.387489 
C 69.863139 35.387489 69.074115 35.714314 68.492445 36.295984 
C 67.910775 36.877654 67.58395 37.666678 67.58395 38.489283 
C 67.58395 39.311889 67.910775 40.100913 68.492445 40.682583 
C 69.074115 41.264253 69.863139 41.591078 70.685744 41.591078 
z
" clip-path="url(#p756b0d2172)" style="fill: #777777; stroke: #000000; stroke-width: 0.886227"/>
    <path d="M 76.295806 69.280385 
C 77.118412 69.280385 77.907436 68.953561 78.489106 68.371891 
C 79.070776 67.790221 79.397601 67.001196 79.397601 66.178591 
C 79.397601 65.355986 79.070776 64.566961 78.489106 63.985291 
C 77.907436 63.403621 77.118412 63.076797 76.295806 63.076797 
C 75.473201 63.076797 74.684176 63.403621 74.102507 63.985291 
C 73.520837 64.566961 73.194012 65.355986 73.194012 66.178591 
C 73.194012 67.001196 73.520837 67.790221 74.102507 68.371891 
C 74.684176 68.953561 75.473201 69.280385 76.295806 69.280385 
z
" clip-path="url(#p756b0d2172)" style="fill: #777777; stroke: #000000; stroke-width: 0.886227"/>
    <path d="M 77.229969 44.885896 
C 78.052575 44.885896 78.841599 44.559072 79.423269 43.977402 
C 80.004939 43.395732 80.331764 42.606708 80.331764 41.784102 
C 80.331764 40.961497 80.004939 40.172472 79.423269 39.590802 
C 78.841599 39.009132 78.052575 38.682308 77.229969 38.682308 
C 76.407364 38.682308 75.61834 39.009132 75.03667 39.590802 
C 74.455 40.172472 74.128175 40.961497 74.128175 41.784102 
C 74.128175 42.606708 74.455 43.395732 75.03667 43.977402 
C 75.61834 44.559072 76.407364 44.885896 77.229969 44.885896 
z
" clip-path="url(#p756b0d2172)" style="fill: #777777; stroke: #000000; stroke-width: 0.886227"/>
    <path d="M 190.837603 66.841658 
C 191.660209 66.841658 192.449233 66.514833 193.030903 65.933163 
C 193.612573 65.351493 193.939398 64.562469 193.939398 63.739864 
C 193.939398 62.917258 193.612573 62.128234 193.030903 61.546564 
C 192.449233 60.964894 191.660209 60.638069 190.837603 60.638069 
C 190.014998 60.638069 189.225974 60.964894 188.644304 61.546564 
C 188.062634 62.128234 187.735809 62.917258 187.735809 63.739864 
C 187.735809 64.562469 188.062634 65.351493 188.644304 65.933163 
C 189.225974 66.514833 190.014998 66.841658 190.837603 66.841658 
z
" clip-path="url(#p756b0d2172)" style="fill: #777777; stroke: #000000; stroke-width: 0.886227"/>
    <path d="M 195.81872 45.915174 
C 196.641326 45.915174 197.43035 45.58835 198.01202 45.00668 
C 198.59369 44.42501 198.920515 43.635986 198.920515 42.81338 
C 198.920515 41.990775 198.59369 41.20175 198.01202 40.62008 
C 197.43035 40.038411 196.641326 39.711586 195.81872 39.711586 
C 194.996115 39.711586 194.20709 40.038411 193.625421 40.62008 
C 193.043751 41.20175 192.716926 41.990775 192.716926 42.81338 
C 192.716926 43.635986 193.043751 44.42501 193.625421 45.00668 
C 194.20709 45.58835 194.996115 45.915174 195.81872 45.915174 
z
" clip-path="url(#p756b0d2172)" style="fill: #777777; stroke: #000000; stroke-width: 0.886227"/>
   </g>
  </g>
  <g id="patch_4">
   <path d="M 37.19449 153.924028 
L 230.94 153.924028 
L 230.94 9.466667 
L 37.19449 9.466667 
L 37.19449 153.924028 
z
" style="fill: none; stroke: #000000; stroke-width: 0.7; stroke-linejoin: miter"/>
  </g>
  <g id="text_8">
   <!-- Proline position -->
   <g transform="translate(109.773964 173.511458) scale(0.07 -0.07)">
    <defs>
     <path id="Roboto-Regular-50" d="M 1131 1784 
L 1131 0 
L 528 0 
L 528 4550 
L 2206 4550 
Q 2981 4550 3392 4159 
Q 3803 3769 3803 3163 
Q 3803 2503 3392 2143 
Q 2981 1784 2206 1784 
L 1131 1784 
z
M 1131 4056 
L 1131 2275 
L 2206 2275 
Q 2738 2275 2969 2522 
Q 3200 2769 3200 3156 
Q 3200 3506 2969 3781 
Q 2738 4056 2206 4056 
L 1131 4056 
z
" transform="scale(0.015625)"/>
     <path id="Roboto-Regular-72" d="M 1791 2888 
Q 1225 2888 1019 2400 
L 1019 0 
L 441 0 
L 441 3381 
L 1003 3381 
L 1016 2994 
Q 1294 3444 1819 3444 
Q 1981 3444 2075 3400 
L 2072 2863 
Q 1944 2888 1791 2888 
z
" transform="scale(0.015625)"/>
     <path id="Roboto-Regular-6c" d="M 1069 4800 
L 1069 0 
L 488 0 
L 488 4800 
L 1069 4800 
z
" transform="scale(0.015625)"/>
     <path id="Roboto-Regular-69" d="M 444 4278 
Q 444 4419 530 4516 
Q 616 4613 784 4613 
Q 950 4613 1039 4516 
Q 1128 4419 1128 4278 
Q 1128 4144 1039 4048 
Q 950 3953 784 3953 
Q 616 3953 530 4048 
Q 444 4144 444 4278 
z
M 1069 3381 
L 1069 0 
L 488 0 
L 488 3381 
L 1069 3381 
z
" transform="scale(0.015625)"/>
     <path id="Roboto-Regular-20" transform="scale(0.015625)"/>
     <path id="Roboto-Regular-70" d="M 1984 -63 
Q 1375 -63 1019 328 
L 1019 -1300 
L 438 -1300 
L 438 3381 
L 969 3381 
L 997 3009 
Q 1353 3444 1975 3444 
Q 2616 3444 2956 2969 
Q 3297 2494 3297 1719 
L 3297 1653 
Q 3297 913 2955 425 
Q 2613 -63 1984 -63 
z
M 1806 2956 
Q 1281 2956 1019 2491 
L 1019 872 
Q 1284 413 1813 413 
Q 2281 413 2498 781 
Q 2716 1150 2716 1653 
L 2716 1719 
Q 2716 2222 2498 2589 
Q 2281 2956 1806 2956 
z
" transform="scale(0.015625)"/>
     <path id="Roboto-Regular-73" d="M 2409 897 
Q 2409 1081 2273 1229 
Q 2138 1378 1647 1478 
Q 1081 1594 747 1814 
Q 413 2034 413 2456 
Q 413 2856 755 3150 
Q 1097 3444 1666 3444 
Q 2272 3444 2612 3134 
Q 2953 2825 2953 2388 
L 2375 2388 
Q 2375 2597 2190 2783 
Q 2006 2969 1666 2969 
Q 1306 2969 1150 2812 
Q 994 2656 994 2472 
Q 994 2288 1139 2173 
Q 1284 2059 1756 1953 
Q 2378 1813 2683 1584 
Q 2988 1356 2988 941 
Q 2988 494 2630 215 
Q 2272 -63 1681 -63 
Q 1009 -63 653 281 
Q 297 625 297 1044 
L 878 1044 
Q 897 684 1155 548 
Q 1413 413 1681 413 
Q 2034 413 2221 550 
Q 2409 688 2409 897 
z
" transform="scale(0.015625)"/>
     <path id="Roboto-Regular-74" d="M 1872 0 
Q 1675 -63 1425 -63 
Q 1103 -63 875 134 
Q 647 331 647 841 
L 647 2938 
L 28 2938 
L 28 3381 
L 647 3381 
L 647 4203 
L 1225 4203 
L 1225 3381 
L 1856 3381 
L 1856 2938 
L 1225 2938 
L 1225 838 
Q 1225 578 1337 506 
Q 1450 434 1597 434 
Q 1706 434 1869 472 
L 1872 0 
z
" transform="scale(0.015625)"/>
    </defs>
    <use xlink:href="#Roboto-Regular-50"/>
    <use xlink:href="#Roboto-Regular-72" transform="translate(63.085938 0)"/>
    <use xlink:href="#Roboto-Regular-6f" transform="translate(96.972656 0)"/>
    <use xlink:href="#Roboto-Regular-6c" transform="translate(154.003906 0)"/>
    <use xlink:href="#Roboto-Regular-69" transform="translate(178.320312 0)"/>
    <use xlink:href="#Roboto-Regular-6e" transform="translate(202.636719 0)"/>
    <use xlink:href="#Roboto-Regular-65" transform="translate(257.861328 0)"/>
    <use xlink:href="#Roboto-Regular-20" transform="translate(310.888672 0)"/>
    <use xlink:href="#Roboto-Regular-70" transform="translate(335.693359 0)"/>
    <use xlink:href="#Roboto-Regular-6f" transform="translate(391.845703 0)"/>
    <use xlink:href="#Roboto-Regular-73" transform="translate(448.876953 0)"/>
    <use xlink:href="#Roboto-Regular-69" transform="translate(500.488281 0)"/>
    <use xlink:href="#Roboto-Regular-74" transform="translate(524.804688 0)"/>
    <use xlink:href="#Roboto-Regular-69" transform="translate(557.519531 0)"/>
    <use xlink:href="#Roboto-Regular-6f" transform="translate(581.835938 0)"/>
    <use xlink:href="#Roboto-Regular-6e" transform="translate(638.867188 0)"/>
   </g>
  </g>
  <g id="text_9">
   <!-- $\Delta$G (kJ/mol) -->
   <g transform="translate(15.13 100.840347) rotate(-90) scale(0.07 -0.07)">
    <defs>
     <path id="DejaVuSans-394" d="M 2188 4044 
L 906 525 
L 3472 525 
L 2188 4044 
z
M 50 0 
L 1831 4666 
L 2547 4666 
L 4325 0 
L 50 0 
z
" transform="scale(0.015625)"/>
     <path id="Roboto-Regular-47" d="M 3891 2266 
L 3891 600 
Q 3763 413 3403 175 
Q 3044 -63 2281 -63 
Q 1450 -63 915 507 
Q 381 1078 381 2100 
L 381 2453 
Q 381 3469 856 4041 
Q 1331 4613 2213 4613 
Q 2994 4613 3398 4219 
Q 3803 3825 3891 3219 
L 3288 3219 
Q 3225 3588 2979 3853 
Q 2734 4119 2213 4119 
Q 1584 4119 1287 3676 
Q 991 3234 988 2475 
L 988 2100 
Q 988 1313 1344 870 
Q 1700 428 2284 428 
Q 2769 428 2984 542 
Q 3200 656 3291 759 
L 3291 1778 
L 2238 1778 
L 2238 2266 
L 3891 2266 
z
" transform="scale(0.015625)"/>
     <path id="Roboto-Regular-28" d="M 419 1850 
Q 419 2756 678 3434 
Q 938 4113 1294 4541 
Q 1650 4969 1947 5134 
L 2069 4753 
Q 1700 4475 1348 3761 
Q 997 3047 997 1813 
Q 997 625 1348 -97 
Q 1700 -819 2069 -1119 
L 1947 -1469 
Q 1650 -1306 1294 -878 
Q 938 -450 678 226 
Q 419 903 419 1850 
z
" transform="scale(0.015625)"/>
     <path id="Roboto-Regular-6b" d="M 2559 0 
L 1388 1569 
L 1022 1191 
L 1022 0 
L 441 0 
L 441 4800 
L 1022 4800 
L 1022 1900 
L 1331 2269 
L 2381 3381 
L 3088 3381 
L 1769 1972 
L 3241 0 
L 2559 0 
z
" transform="scale(0.015625)"/>
     <path id="Roboto-Regular-4a" d="M 2438 4550 
L 3038 4550 
L 3038 1328 
Q 3038 653 2633 295 
Q 2228 -63 1603 -63 
Q 975 -63 570 262 
Q 166 588 166 1259 
L 769 1259 
Q 769 828 1001 628 
Q 1234 428 1603 428 
Q 1959 428 2198 656 
Q 2438 884 2438 1328 
L 2438 4550 
z
" transform="scale(0.015625)"/>
     <path id="Roboto-Regular-2f" d="M 2453 4550 
L 556 -391 
L 59 -391 
L 1959 4550 
L 2453 4550 
z
" transform="scale(0.015625)"/>
     <path id="Roboto-Regular-6d" d="M 1794 2956 
Q 1225 2956 1016 2478 
L 1016 0 
L 434 0 
L 434 3381 
L 984 3381 
L 1000 3013 
Q 1366 3444 2000 3444 
Q 2325 3444 2579 3314 
Q 2834 3184 2969 2900 
Q 3138 3144 3408 3294 
Q 3678 3444 4044 3444 
Q 4588 3444 4883 3153 
Q 5178 2863 5178 2222 
L 5178 0 
L 4597 0 
L 4597 2228 
Q 4597 2653 4401 2804 
Q 4206 2956 3875 2956 
Q 3525 2956 3325 2748 
Q 3125 2541 3094 2244 
L 3094 0 
L 2516 0 
L 2516 2225 
Q 2516 2622 2319 2789 
Q 2122 2956 1794 2956 
z
" transform="scale(0.015625)"/>
     <path id="Roboto-Regular-29" d="M 1772 1819 
Q 1772 906 1512 228 
Q 1253 -450 895 -878 
Q 538 -1306 244 -1469 
L 122 -1119 
Q 488 -841 841 -109 
Q 1194 622 1194 1856 
Q 1194 2647 1019 3236 
Q 844 3825 594 4212 
Q 344 4600 122 4781 
L 244 5134 
Q 538 4969 895 4541 
Q 1253 4113 1512 3436 
Q 1772 2759 1772 1819 
z
" transform="scale(0.015625)"/>
    </defs>
    <use xlink:href="#DejaVuSans-394" transform="translate(0 0.78125)"/>
    <use xlink:href="#Roboto-Regular-47" transform="translate(68.408203 0.78125)"/>
    <use xlink:href="#Roboto-Regular-20" transform="translate(136.523438 0.78125)"/>
    <use xlink:href="#Roboto-Regular-28" transform="translate(161.328125 0.78125)"/>
    <use xlink:href="#Roboto-Regular-6b" transform="translate(195.556641 0.78125)"/>
    <use xlink:href="#Roboto-Regular-4a" transform="translate(246.240234 0.78125)"/>
    <use xlink:href="#Roboto-Regular-2f" transform="translate(301.416016 0.78125)"/>
    <use xlink:href="#Roboto-Regular-6d" transform="translate(342.675781 0.78125)"/>
    <use xlink:href="#Roboto-Regular-6f" transform="translate(430.371094 0.78125)"/>
    <use xlink:href="#Roboto-Regular-6c" transform="translate(487.402344 0.78125)"/>
    <use xlink:href="#Roboto-Regular-29" transform="translate(511.71875 0.78125)"/>
   </g>
  </g>
 </g>
 <defs>
  <clipPath id="p756b0d2172">
   <rect x="37.19449" y="9.466667" width="193.74551" height="144.457361"/>
  </clipPath>
 </defs>
</svg>
