<?xml version="1.0" encoding="utf-8" standalone="no"?>
<!DOCTYPE svg PUBLIC "-//W3C//DTD SVG 1.1//EN"
  "http://www.w3.org/Graphics/SVG/1.1/DTD/svg11.dtd">
<svg xmlns:xlink="http://www.w3.org/1999/xlink" width="240.4pt" height="184.4pt" viewBox="0 0 240.4 184.4" xmlns="http://www.w3.org/2000/svg" version="1.1">
 <metadata>
  <rdf:RDF xmlns:dc="http://purl.org/dc/elements/1.1/" xmlns:cc="http://creativecommons.org/ns#" xmlns:rdf="http://www.w3.org/1999/02/22-rdf-syntax-ns#">
   <cc:Work>
    <dc:type rdf:resource="http://purl.org/dc/dcmitype/StillImage"/>
    <dc:date>2026-01-28T17:36:55.249867</dc:date>
    <dc:format>image/svg+xml</dc:format>
    <dc:creator>
     <cc:Agent>
      <dc:title>Matplotlib v3.10.6, https://matplotlib.org/</dc:title>
     </cc:Agent>
    </dc:creator>
   </cc:Work>
  </rdf:RDF>
 </metadata>
 <defs>
  <style type="text/css">*{stroke-linejoin: round; stroke-linecap: butt}</style>
 </defs>
 <g id="figure_1">
  <g id="patch_1">
   <path d="M 0 184.4 
L 240.4 184.4 
L 240.4 0 
L 0 0 
z
" style="fill: #ffffff"/>
  </g>
  <g id="patch_2">
   <path d="M 7.2 177.2 
L 233.2 177.2 
L 233.2 7.2 
L 7.2 7.2 
L 7.2 177.2 
z
" style="fill: none; stroke: #ffffff; stroke-width: 0.7; stroke-linejoin: miter"/>
  </g>
  <g id="axes_1">
   <g id="patch_3">
    <path d="M 37.19449 153.924028 
L 230.94 153.924028 
L 230.94 9.466667 
L 37.19449 9.466667 
z
" style="fill: #ffffff"/>
   </g>
   <g id="matplotlib.axis_1">
    <g id="xtick_1">
     <g id="line2d_1">
      <defs>
       <path id="m5fb90992b4" d="M 0 1.5 
L 0 -1.5 
" style="stroke: #000000; stroke-width: 0.7"/>
      </defs>
      <g>
       <use xlink:href="#m5fb90992b4" x="73.521773" y="153.924028" style="stroke: #000000; stroke-width: 0.7"/>
      </g>
     </g>
     <g id="text_1">
      <!-- C -->
      <g transform="translate(71.243492 163.074028) scale(0.07 -0.07)">
       <defs>
        <path id="Roboto-Regular-43" d="M 3275 1447 
L 3875 1447 
Q 3806 800 3387 368 
Q 2969 -63 2150 -63 
Q 1356 -63 870 504 
Q 384 1072 375 2013 
L 375 2500 
Q 375 3456 867 4034 
Q 1359 4613 2203 4613 
Q 2975 4613 3390 4188 
Q 3806 3763 3875 3091 
L 3275 3091 
Q 3206 3566 2968 3842 
Q 2731 4119 2203 4119 
Q 1600 4119 1287 3675 
Q 975 3231 975 2506 
L 975 2047 
Q 975 1375 1259 901 
Q 1544 428 2150 428 
Q 2725 428 2961 697 
Q 3197 966 3275 1447 
z
" transform="scale(0.015625)"/>
       </defs>
       <use xlink:href="#Roboto-Regular-43"/>
      </g>
     </g>
    </g>
    <g id="xtick_2">
     <g id="line2d_2">
      <g>
       <use xlink:href="#m5fb90992b4" x="134.067245" y="153.924028" style="stroke: #000000; stroke-width: 0.7"/>
      </g>
     </g>
     <g id="text_2">
      <!-- N -->
      <g transform="translate(131.570214 163.074028) scale(0.07 -0.07)">
       <defs>
        <path id="Roboto-Regular-4e" d="M 4028 4550 
L 4028 0 
L 3422 0 
L 1131 3509 
L 1131 0 
L 528 0 
L 528 4550 
L 1131 4550 
L 3431 1031 
L 3431 4550 
L 4028 4550 
z
" transform="scale(0.015625)"/>
       </defs>
       <use xlink:href="#Roboto-Regular-4e"/>
      </g>
     </g>
    </g>
    <g id="xtick_3">
     <g id="line2d_3">
      <g>
       <use xlink:href="#m5fb90992b4" x="194.612717" y="153.924028" style="stroke: #000000; stroke-width: 0.7"/>
      </g>
     </g>
     <g id="text_3">
      <!-- none -->
      <g transform="translate(186.895217 163.074028) scale(0.07 -0.07)">
       <defs>
        <path id="Roboto-Regular-6e" d="M 1844 2956 
Q 1566 2956 1353 2806 
Q 1141 2656 1019 2416 
L 1019 0 
L 441 0 
L 441 3381 
L 988 3381 
L 1006 2959 
Q 1391 3444 2016 3444 
Q 2513 3444 2805 3166 
Q 3097 2888 3100 2231 
L 3100 0 
L 2519 0 
L 2519 2222 
Q 2519 2619 2345 2787 
Q 2172 2956 1844 2956 
z
" transform="scale(0.015625)"/>
        <path id="Roboto-Regular-6f" d="M 288 1725 
Q 288 2459 700 2951 
Q 1113 3444 1822 3444 
Q 2531 3444 2943 2961 
Q 3356 2478 3366 1756 
L 3366 1653 
Q 3366 919 2952 428 
Q 2538 -63 1828 -63 
Q 1116 -63 702 428 
Q 288 919 288 1653 
L 288 1725 
z
M 866 1653 
Q 866 1150 1105 781 
Q 1344 413 1828 413 
Q 2300 413 2540 777 
Q 2781 1141 2784 1644 
L 2784 1725 
Q 2784 2222 2543 2595 
Q 2303 2969 1822 2969 
Q 1344 2969 1105 2595 
Q 866 2222 866 1725 
L 866 1653 
z
" transform="scale(0.015625)"/>
        <path id="Roboto-Regular-65" d="M 3116 591 
Q 2950 341 2647 139 
Q 2344 -63 1844 -63 
Q 1138 -63 714 396 
Q 291 856 291 1572 
L 291 1703 
Q 291 2256 502 2645 
Q 713 3034 1050 3239 
Q 1388 3444 1769 3444 
Q 2494 3444 2826 2970 
Q 3159 2497 3159 1788 
L 3159 1528 
L 872 1528 
Q 884 1063 1148 736 
Q 1413 409 1875 409 
Q 2181 409 2393 534 
Q 2606 659 2766 869 
L 3116 591 
z
M 1769 2969 
Q 1425 2969 1187 2719 
Q 950 2469 891 2000 
L 2581 2000 
L 2581 2044 
Q 2559 2381 2386 2675 
Q 2213 2969 1769 2969 
z
" transform="scale(0.015625)"/>
       </defs>
       <use xlink:href="#Roboto-Regular-6e"/>
       <use xlink:href="#Roboto-Regular-6f" transform="translate(55.224609 0)"/>
       <use xlink:href="#Roboto-Regular-6e" transform="translate(112.255859 0)"/>
       <use xlink:href="#Roboto-Regular-65" transform="translate(167.480469 0)"/>
      </g>
     </g>
    </g>
   </g>
   <g id="matplotlib.axis_2">
    <g id="ytick_1">
     <g id="line2d_4">
      <defs>
       <path id="m3c89be57f1" d="M 1.5 0 
L -1.5 -0 
" style="stroke: #000000; stroke-width: 0.7"/>
      </defs>
      <g>
       <use xlink:href="#m3c89be57f1" x="37.19449" y="147.357784" style="stroke: #000000; stroke-width: 0.7"/>
      </g>
     </g>
     <g id="text_4">
      <!-- 0 -->
      <g transform="translate(29.360271 149.982784) scale(0.07 -0.07)">
       <defs>
        <path id="Roboto-Regular-30" d="M 3234 1944 
Q 3234 825 2848 381 
Q 2463 -63 1800 -63 
Q 1156 -63 764 368 
Q 372 800 359 1872 
L 359 2638 
Q 359 3753 750 4183 
Q 1141 4613 1794 4613 
Q 2447 4613 2834 4195 
Q 3222 3778 3234 2709 
L 3234 1944 
z
M 2653 2734 
Q 2653 3503 2434 3822 
Q 2216 4141 1794 4141 
Q 1388 4141 1167 3831 
Q 947 3522 941 2778 
L 941 1850 
Q 941 1088 1164 750 
Q 1388 413 1800 413 
Q 2222 413 2436 745 
Q 2650 1078 2653 1825 
L 2653 2734 
z
" transform="scale(0.015625)"/>
       </defs>
       <use xlink:href="#Roboto-Regular-30"/>
      </g>
     </g>
    </g>
    <g id="ytick_2">
     <g id="line2d_5">
      <g>
       <use xlink:href="#m3c89be57f1" x="37.19449" y="110.878652" style="stroke: #000000; stroke-width: 0.7"/>
      </g>
     </g>
     <g id="text_5">
      <!-- 50 -->
      <g transform="translate(25.426052 113.503652) scale(0.07 -0.07)">
       <defs>
        <path id="Roboto-Regular-35" d="M 1109 2166 
L 647 2284 
L 875 4550 
L 3209 4550 
L 3209 4016 
L 1366 4016 
L 1228 2778 
Q 1572 2975 1988 2975 
Q 2616 2975 2980 2561 
Q 3344 2147 3344 1450 
Q 3344 797 2987 367 
Q 2631 -63 1903 -63 
Q 1350 -63 947 248 
Q 544 559 481 1197 
L 1031 1197 
Q 1141 413 1903 413 
Q 2313 413 2538 691 
Q 2763 969 2763 1444 
Q 2763 1872 2527 2164 
Q 2291 2456 1853 2456 
Q 1563 2456 1413 2378 
Q 1263 2300 1109 2166 
z
" transform="scale(0.015625)"/>
       </defs>
       <use xlink:href="#Roboto-Regular-35"/>
       <use xlink:href="#Roboto-Regular-30" transform="translate(56.201172 0)"/>
      </g>
     </g>
    </g>
    <g id="ytick_3">
     <g id="line2d_6">
      <g>
       <use xlink:href="#m3c89be57f1" x="37.19449" y="74.399521" style="stroke: #000000; stroke-width: 0.7"/>
      </g>
     </g>
     <g id="text_6">
      <!-- 100 -->
      <g transform="translate(21.491833 77.024521) scale(0.07 -0.07)">
       <defs>
        <path id="Roboto-Regular-31" d="M 2278 4575 
L 2278 0 
L 1700 0 
L 1700 3853 
L 534 3428 
L 534 3950 
L 2188 4575 
L 2278 4575 
z
" transform="scale(0.015625)"/>
       </defs>
       <use xlink:href="#Roboto-Regular-31"/>
       <use xlink:href="#Roboto-Regular-30" transform="translate(56.201172 0)"/>
       <use xlink:href="#Roboto-Regular-30" transform="translate(112.402344 0)"/>
      </g>
     </g>
    </g>
    <g id="ytick_4">
     <g id="line2d_7">
      <g>
       <use xlink:href="#m3c89be57f1" x="37.19449" y="37.920389" style="stroke: #000000; stroke-width: 0.7"/>
      </g>
     </g>
     <g id="text_7">
      <!-- 150 -->
      <g transform="translate(21.491833 40.545389) scale(0.07 -0.07)">
       <use xlink:href="#Roboto-Regular-31"/>
       <use xlink:href="#Roboto-Regular-35" transform="translate(56.201172 0)"/>
       <use xlink:href="#Roboto-Regular-30" transform="translate(112.402344 0)"/>
      </g>
     </g>
    </g>
    <g id="ytick_5">
     <g id="line2d_8">
      <defs>
       <path id="ma265b99335" d="M 2 0 
L -2 -0 
" style="stroke: #000000; stroke-width: 0.7"/>
      </defs>
      <g>
       <use xlink:href="#ma265b99335" x="37.19449" y="129.118218" style="stroke: #000000; stroke-width: 0.7"/>
      </g>
     </g>
    </g>
    <g id="ytick_6">
     <g id="line2d_9">
      <g>
       <use xlink:href="#ma265b99335" x="37.19449" y="92.639087" style="stroke: #000000; stroke-width: 0.7"/>
      </g>
     </g>
    </g>
    <g id="ytick_7">
     <g id="line2d_10">
      <g>
       <use xlink:href="#ma265b99335" x="37.19449" y="56.159955" style="stroke: #000000; stroke-width: 0.7"/>
      </g>
     </g>
    </g>
    <g id="ytick_8">
     <g id="line2d_11">
      <g>
       <use xlink:href="#ma265b99335" x="37.19449" y="19.680824" style="stroke: #000000; stroke-width: 0.7"/>
      </g>
     </g>
    </g>
   </g>
   <g id="PathCollection_1">
    <path d="M 189.543671 79.495815 
C 190.366277 79.495815 191.155301 79.168991 191.736971 78.587321 
C 192.318641 78.005651 192.645465 77.216626 192.645465 76.394021 
C 192.645465 75.571415 192.318641 74.782391 191.736971 74.200721 
C 191.155301 73.619051 190.366277 73.292227 189.543671 73.292227 
C 188.721066 73.292227 187.932041 73.619051 187.350371 74.200721 
C 186.768701 74.782391 186.441877 75.571415 186.441877 76.394021 
C 186.441877 77.216626 186.768701 78.005651 187.350371 78.587321 
C 187.932041 79.168991 188.721066 79.495815 189.543671 79.495815 
z
" clip-path="url(#p0603cb70a2)" style="fill: #55b4dc; stroke: #000000; stroke-width: 0.886227"/>
    <path d="M 194.15676 75.477345 
C 194.979365 75.477345 195.768389 75.150521 196.350059 74.568851 
C 196.931729 73.987181 197.258554 73.198157 197.258554 72.375551 
C 197.258554 71.552946 196.931729 70.763921 196.350059 70.182251 
C 195.768389 69.600581 194.979365 69.273757 194.15676 69.273757 
C 193.334154 69.273757 192.54513 69.600581 191.96346 70.182251 
C 191.38179 70.763921 191.054965 71.552946 191.054965 72.375551 
C 191.054965 73.198157 191.38179 73.987181 191.96346 74.568851 
C 192.54513 75.150521 193.334154 75.477345 194.15676 75.477345 
z
" clip-path="url(#p0603cb70a2)" style="fill: #55b4dc; stroke: #000000; stroke-width: 0.886227"/>
    <path d="M 189.195951 79.423058 
C 190.018557 79.423058 190.807581 79.096234 191.389251 78.514564 
C 191.970921 77.932894 192.297746 77.14387 192.297746 76.321264 
C 192.297746 75.498659 191.970921 74.709634 191.389251 74.127964 
C 190.807581 73.546295 190.018557 73.21947 189.195951 73.21947 
C 188.373346 73.21947 187.584321 73.546295 187.002652 74.127964 
C 186.420982 74.709634 186.094157 75.498659 186.094157 76.321264 
C 186.094157 77.14387 186.420982 77.932894 187.002652 78.514564 
C 187.584321 79.096234 188.373346 79.423058 189.195951 79.423058 
z
" clip-path="url(#p0603cb70a2)" style="fill: #55b4dc; stroke: #000000; stroke-width: 0.886227"/>
    <path d="M 190.067943 71.546487 
C 190.890548 71.546487 191.679573 71.219662 192.261243 70.637992 
C 192.842913 70.056322 193.169737 69.267298 193.169737 68.444692 
C 193.169737 67.622087 192.842913 66.833062 192.261243 66.251393 
C 191.679573 65.669723 190.890548 65.342898 190.067943 65.342898 
C 189.245338 65.342898 188.456313 65.669723 187.874643 66.251393 
C 187.292973 66.833062 186.966149 67.622087 186.966149 68.444692 
C 186.966149 69.267298 187.292973 70.056322 187.874643 70.637992 
C 188.456313 71.219662 189.245338 71.546487 190.067943 71.546487 
z
" clip-path="url(#p0603cb70a2)" style="fill: #55b4dc; stroke: #000000; stroke-width: 0.886227"/>
    <path d="M 191.583261 68.283111 
C 192.405866 68.283111 193.19489 67.956286 193.77656 67.374616 
C 194.35823 66.792946 194.685055 66.003922 194.685055 65.181316 
C 194.685055 64.358711 194.35823 63.569687 193.77656 62.988017 
C 193.19489 62.406347 192.405866 62.079522 191.583261 62.079522 
C 190.760655 62.079522 189.971631 62.406347 189.389961 62.988017 
C 188.808291 63.569687 188.481466 64.358711 188.481466 65.181316 
C 188.481466 66.003922 188.808291 66.792946 189.389961 67.374616 
C 189.971631 67.956286 190.760655 68.283111 191.583261 68.283111 
z
" clip-path="url(#p0603cb70a2)" style="fill: #55b4dc; stroke: #000000; stroke-width: 0.886227"/>
    <path d="M 193.50937 57.499594 
C 194.331975 57.499594 195.120999 57.17277 195.702669 56.5911 
C 196.284339 56.00943 196.611164 55.220406 196.611164 54.3978 
C 196.611164 53.575195 196.284339 52.78617 195.702669 52.2045 
C 195.120999 51.62283 194.331975 51.296006 193.50937 51.296006 
C 192.686764 51.296006 191.89774 51.62283 191.31607 52.2045 
C 190.7344 52.78617 190.407575 53.575195 190.407575 54.3978 
C 190.407575 55.220406 190.7344 56.00943 191.31607 56.5911 
C 191.89774 57.17277 192.686764 57.499594 193.50937 57.499594 
z
" clip-path="url(#p0603cb70a2)" style="fill: #55b4dc; stroke: #000000; stroke-width: 0.886227"/>
    <path d="M 137.282806 82.452333 
C 138.105411 82.452333 138.894436 82.125508 139.476105 81.543838 
C 140.057775 80.962169 140.3846 80.173144 140.3846 79.350539 
C 140.3846 78.527933 140.057775 77.738909 139.476105 77.157239 
C 138.894436 76.575569 138.105411 76.248744 137.282806 76.248744 
C 136.4602 76.248744 135.671176 76.575569 135.089506 77.157239 
C 134.507836 77.738909 134.181011 78.527933 134.181011 79.350539 
C 134.181011 80.173144 134.507836 80.962169 135.089506 81.543838 
C 135.671176 82.125508 136.4602 82.452333 137.282806 82.452333 
z
" clip-path="url(#p0603cb70a2)" style="fill: #55b4dc; stroke: #000000; stroke-width: 0.886227"/>
    <path d="M 138.423715 90.393934 
C 139.246321 90.393934 140.035345 90.067109 140.617015 89.485439 
C 141.198685 88.903769 141.52551 88.114745 141.52551 87.292139 
C 141.52551 86.469534 141.198685 85.680509 140.617015 85.09884 
C 140.035345 84.51717 139.246321 84.190345 138.423715 84.190345 
C 137.60111 84.190345 136.812086 84.51717 136.230416 85.09884 
C 135.648746 85.680509 135.321921 86.469534 135.321921 87.292139 
C 135.321921 88.114745 135.648746 88.903769 136.230416 89.485439 
C 136.812086 90.067109 137.60111 90.393934 138.423715 90.393934 
z
" clip-path="url(#p0603cb70a2)" style="fill: #55b4dc; stroke: #000000; stroke-width: 0.886227"/>
    <path d="M 190.637327 76.263586 
C 191.459932 76.263586 192.248956 75.936761 192.830626 75.355091 
C 193.412296 74.773421 193.739121 73.984397 193.739121 73.161792 
C 193.739121 72.339186 193.412296 71.550162 192.830626 70.968492 
C 192.248956 70.386822 191.459932 70.059997 190.637327 70.059997 
C 189.814721 70.059997 189.025697 70.386822 188.444027 70.968492 
C 187.862357 71.550162 187.535532 72.339186 187.535532 73.161792 
C 187.535532 73.984397 187.862357 74.773421 188.444027 75.355091 
C 189.025697 75.936761 189.814721 76.263586 190.637327 76.263586 
z
" clip-path="url(#p0603cb70a2)" style="fill: #55b4dc; stroke: #000000; stroke-width: 0.886227"/>
    <path d="M 196.042583 81.873846 
C 196.865188 81.873846 197.654213 81.547021 198.235883 80.965351 
C 198.817553 80.383681 199.144377 79.594657 199.144377 78.772051 
C 199.144377 77.949446 198.817553 77.160422 198.235883 76.578752 
C 197.654213 75.997082 196.865188 75.670257 196.042583 75.670257 
C 195.219978 75.670257 194.430953 75.997082 193.849283 76.578752 
C 193.267613 77.160422 192.940789 77.949446 192.940789 78.772051 
C 192.940789 79.594657 193.267613 80.383681 193.849283 80.965351 
C 194.430953 81.547021 195.219978 81.873846 196.042583 81.873846 
z
" clip-path="url(#p0603cb70a2)" style="fill: #55b4dc; stroke: #000000; stroke-width: 0.886227"/>
    <path d="M 79.453825 67.541182 
C 80.276431 67.541182 81.065455 67.214357 81.647125 66.632687 
C 82.228795 66.051017 82.555619 65.261993 82.555619 64.439387 
C 82.555619 63.616782 82.228795 62.827757 81.647125 62.246088 
C 81.065455 61.664418 80.276431 61.337593 79.453825 61.337593 
C 78.63122 61.337593 77.842195 61.664418 77.260525 62.246088 
C 76.678856 62.827757 76.352031 63.616782 76.352031 64.439387 
C 76.352031 65.261993 76.678856 66.051017 77.260525 66.632687 
C 77.842195 67.214357 78.63122 67.541182 79.453825 67.541182 
z
" clip-path="url(#p0603cb70a2)" style="fill: #55b4dc; stroke: #000000; stroke-width: 0.886227"/>
    <path d="M 76.696189 53.9673 
C 77.518794 53.9673 78.307819 53.640475 78.889489 53.058806 
C 79.471158 52.477136 79.797983 51.688111 79.797983 50.865506 
C 79.797983 50.0429 79.471158 49.253876 78.889489 48.672206 
C 78.307819 48.090536 77.518794 47.763712 76.696189 47.763712 
C 75.873583 47.763712 75.084559 48.090536 74.502889 48.672206 
C 73.921219 49.253876 73.594395 50.0429 73.594395 50.865506 
C 73.594395 51.688111 73.921219 52.477136 74.502889 53.058806 
C 75.084559 53.640475 75.873583 53.9673 76.696189 53.9673 
z
" clip-path="url(#p0603cb70a2)" style="fill: #55b4dc; stroke: #000000; stroke-width: 0.886227"/>
    <path d="M 78.941767 74.589016 
C 79.764373 74.589016 80.553397 74.262191 81.135067 73.680521 
C 81.716737 73.098851 82.043561 72.309827 82.043561 71.487221 
C 82.043561 70.664616 81.716737 69.875591 81.135067 69.293922 
C 80.553397 68.712252 79.764373 68.385427 78.941767 68.385427 
C 78.119162 68.385427 77.330137 68.712252 76.748467 69.293922 
C 76.166797 69.875591 75.839973 70.664616 75.839973 71.487221 
C 75.839973 72.309827 76.166797 73.098851 76.748467 73.680521 
C 77.330137 74.262191 78.119162 74.589016 78.941767 74.589016 
z
" clip-path="url(#p0603cb70a2)" style="fill: #55b4dc; stroke: #000000; stroke-width: 0.886227"/>
    <path d="M 78.921498 59.811146 
C 79.744103 59.811146 80.533127 59.484322 81.114797 58.902652 
C 81.696467 58.320982 82.023292 57.531958 82.023292 56.709352 
C 82.023292 55.886747 81.696467 55.097722 81.114797 54.516052 
C 80.533127 53.934383 79.744103 53.607558 78.921498 53.607558 
C 78.098892 53.607558 77.309868 53.934383 76.728198 54.516052 
C 76.146528 55.097722 75.819703 55.886747 75.819703 56.709352 
C 75.819703 57.531958 76.146528 58.320982 76.728198 58.902652 
C 77.309868 59.484322 78.098892 59.811146 78.921498 59.811146 
z
" clip-path="url(#p0603cb70a2)" style="fill: #55b4dc; stroke: #000000; stroke-width: 0.886227"/>
    <path d="M 190.426725 77.173573 
C 191.24933 77.173573 192.038355 76.846749 192.620024 76.265079 
C 193.201694 75.683409 193.528519 74.894384 193.528519 74.071779 
C 193.528519 73.249174 193.201694 72.460149 192.620024 71.878479 
C 192.038355 71.296809 191.24933 70.969985 190.426725 70.969985 
C 189.604119 70.969985 188.815095 71.296809 188.233425 71.878479 
C 187.651755 72.460149 187.32493 73.249174 187.32493 74.071779 
C 187.32493 74.894384 187.651755 75.683409 188.233425 76.265079 
C 188.815095 76.846749 189.604119 77.173573 190.426725 77.173573 
z
" clip-path="url(#p0603cb70a2)" style="fill: #55b4dc; stroke: #000000; stroke-width: 0.886227"/>
    <path d="M 199.216983 61.887116 
C 200.039588 61.887116 200.828612 61.560291 201.410282 60.978621 
C 201.991952 60.396951 202.318777 59.607927 202.318777 58.785321 
C 202.318777 57.962716 201.991952 57.173691 201.410282 56.592022 
C 200.828612 56.010352 200.039588 55.683527 199.216983 55.683527 
C 198.394377 55.683527 197.605353 56.010352 197.023683 56.592022 
C 196.442013 57.173691 196.115188 57.962716 196.115188 58.785321 
C 196.115188 59.607927 196.442013 60.396951 197.023683 60.978621 
C 197.605353 61.560291 198.394377 61.887116 199.216983 61.887116 
z
" clip-path="url(#p0603cb70a2)" style="fill: #55b4dc; stroke: #000000; stroke-width: 0.886227"/>
   </g>
  </g>
  <g id="patch_4">
   <path d="M 37.19449 153.924028 
L 230.94 153.924028 
L 230.94 9.466667 
L 37.19449 9.466667 
L 37.19449 153.924028 
z
" style="fill: none; stroke: #000000; stroke-width: 0.7; stroke-linejoin: miter"/>
  </g>
  <g id="text_8">
   <!-- Proline position -->
   <g transform="translate(109.773964 173.511458) scale(0.07 -0.07)">
    <defs>
     <path id="Roboto-Regular-50" d="M 1131 1784 
L 1131 0 
L 528 0 
L 528 4550 
L 2206 4550 
Q 2981 4550 3392 4159 
Q 3803 3769 3803 3163 
Q 3803 2503 3392 2143 
Q 2981 1784 2206 1784 
L 1131 1784 
z
M 1131 4056 
L 1131 2275 
L 2206 2275 
Q 2738 2275 2969 2522 
Q 3200 2769 3200 3156 
Q 3200 3506 2969 3781 
Q 2738 4056 2206 4056 
L 1131 4056 
z
" transform="scale(0.015625)"/>
     <path id="Roboto-Regular-72" d="M 1791 2888 
Q 1225 2888 1019 2400 
L 1019 0 
L 441 0 
L 441 3381 
L 1003 3381 
L 1016 2994 
Q 1294 3444 1819 3444 
Q 1981 3444 2075 3400 
L 2072 2863 
Q 1944 2888 1791 2888 
z
" transform="scale(0.015625)"/>
     <path id="Roboto-Regular-6c" d="M 1069 4800 
L 1069 0 
L 488 0 
L 488 4800 
L 1069 4800 
z
" transform="scale(0.015625)"/>
     <path id="Roboto-Regular-69" d="M 444 4278 
Q 444 4419 530 4516 
Q 616 4613 784 4613 
Q 950 4613 1039 4516 
Q 1128 4419 1128 4278 
Q 1128 4144 1039 4048 
Q 950 3953 784 3953 
Q 616 3953 530 4048 
Q 444 4144 444 4278 
z
M 1069 3381 
L 1069 0 
L 488 0 
L 488 3381 
L 1069 3381 
z
" transform="scale(0.015625)"/>
     <path id="Roboto-Regular-20" transform="scale(0.015625)"/>
     <path id="Roboto-Regular-70" d="M 1984 -63 
Q 1375 -63 1019 328 
L 1019 -1300 
L 438 -1300 
L 438 3381 
L 969 3381 
L 997 3009 
Q 1353 3444 1975 3444 
Q 2616 3444 2956 2969 
Q 3297 2494 3297 1719 
L 3297 1653 
Q 3297 913 2955 425 
Q 2613 -63 1984 -63 
z
M 1806 2956 
Q 1281 2956 1019 2491 
L 1019 872 
Q 1284 413 1813 413 
Q 2281 413 2498 781 
Q 2716 1150 2716 1653 
L 2716 1719 
Q 2716 2222 2498 2589 
Q 2281 2956 1806 2956 
z
" transform="scale(0.015625)"/>
     <path id="Roboto-Regular-73" d="M 2409 897 
Q 2409 1081 2273 1229 
Q 2138 1378 1647 1478 
Q 1081 1594 747 1814 
Q 413 2034 413 2456 
Q 413 2856 755 3150 
Q 1097 3444 1666 3444 
Q 2272 3444 2612 3134 
Q 2953 2825 2953 2388 
L 2375 2388 
Q 2375 2597 2190 2783 
Q 2006 2969 1666 2969 
Q 1306 2969 1150 2812 
Q 994 2656 994 2472 
Q 994 2288 1139 2173 
Q 1284 2059 1756 1953 
Q 2378 1813 2683 1584 
Q 2988 1356 2988 941 
Q 2988 494 2630 215 
Q 2272 -63 1681 -63 
Q 1009 -63 653 281 
Q 297 625 297 1044 
L 878 1044 
Q 897 684 1155 548 
Q 1413 413 1681 413 
Q 2034 413 2221 550 
Q 2409 688 2409 897 
z
" transform="scale(0.015625)"/>
     <path id="Roboto-Regular-74" d="M 1872 0 
Q 1675 -63 1425 -63 
Q 1103 -63 875 134 
Q 647 331 647 841 
L 647 2938 
L 28 2938 
L 28 3381 
L 647 3381 
L 647 4203 
L 1225 4203 
L 1225 3381 
L 1856 3381 
L 1856 2938 
L 1225 2938 
L 1225 838 
Q 1225 578 1337 506 
Q 1450 434 1597 434 
Q 1706 434 1869 472 
L 1872 0 
z
" transform="scale(0.015625)"/>
    </defs>
    <use xlink:href="#Roboto-Regular-50"/>
    <use xlink:href="#Roboto-Regular-72" transform="translate(63.085938 0)"/>
    <use xlink:href="#Roboto-Regular-6f" transform="translate(96.972656 0)"/>
    <use xlink:href="#Roboto-Regular-6c" transform="translate(154.003906 0)"/>
    <use xlink:href="#Roboto-Regular-69" transform="translate(178.320312 0)"/>
    <use xlink:href="#Roboto-Regular-6e" transform="translate(202.636719 0)"/>
    <use xlink:href="#Roboto-Regular-65" transform="translate(257.861328 0)"/>
    <use xlink:href="#Roboto-Regular-20" transform="translate(310.888672 0)"/>
    <use xlink:href="#Roboto-Regular-70" transform="translate(335.693359 0)"/>
    <use xlink:href="#Roboto-Regular-6f" transform="translate(391.845703 0)"/>
    <use xlink:href="#Roboto-Regular-73" transform="translate(448.876953 0)"/>
    <use xlink:href="#Roboto-Regular-69" transform="translate(500.488281 0)"/>
    <use xlink:href="#Roboto-Regular-74" transform="translate(524.804688 0)"/>
    <use xlink:href="#Roboto-Regular-69" transform="translate(557.519531 0)"/>
    <use xlink:href="#Roboto-Regular-6f" transform="translate(581.835938 0)"/>
    <use xlink:href="#Roboto-Regular-6e" transform="translate(638.867188 0)"/>
   </g>
  </g>
  <g id="text_9">
   <!-- $\Delta$G (kJ/mol) -->
   <g transform="translate(15.13 100.840347) rotate(-90) scale(0.07 -0.07)">
    <defs>
     <path id="DejaVuSans-394" d="M 2188 4044 
L 906 525 
L 3472 525 
L 2188 4044 
z
M 50 0 
L 1831 4666 
L 2547 4666 
L 4325 0 
L 50 0 
z
" transform="scale(0.015625)"/>
     <path id="Roboto-Regular-47" d="M 3891 2266 
L 3891 600 
Q 3763 413 3403 175 
Q 3044 -63 2281 -63 
Q 1450 -63 915 507 
Q 381 1078 381 2100 
L 381 2453 
Q 381 3469 856 4041 
Q 1331 4613 2213 4613 
Q 2994 4613 3398 4219 
Q 3803 3825 3891 3219 
L 3288 3219 
Q 3225 3588 2979 3853 
Q 2734 4119 2213 4119 
Q 1584 4119 1287 3676 
Q 991 3234 988 2475 
L 988 2100 
Q 988 1313 1344 870 
Q 1700 428 2284 428 
Q 2769 428 2984 542 
Q 3200 656 3291 759 
L 3291 1778 
L 2238 1778 
L 2238 2266 
L 3891 2266 
z
" transform="scale(0.015625)"/>
     <path id="Roboto-Regular-28" d="M 419 1850 
Q 419 2756 678 3434 
Q 938 4113 1294 4541 
Q 1650 4969 1947 5134 
L 2069 4753 
Q 1700 4475 1348 3761 
Q 997 3047 997 1813 
Q 997 625 1348 -97 
Q 1700 -819 2069 -1119 
L 1947 -1469 
Q 1650 -1306 1294 -878 
Q 938 -450 678 226 
Q 419 903 419 1850 
z
" transform="scale(0.015625)"/>
     <path id="Roboto-Regular-6b" d="M 2559 0 
L 1388 1569 
L 1022 1191 
L 1022 0 
L 441 0 
L 441 4800 
L 1022 4800 
L 1022 1900 
L 1331 2269 
L 2381 3381 
L 3088 3381 
L 1769 1972 
L 3241 0 
L 2559 0 
z
" transform="scale(0.015625)"/>
     <path id="Roboto-Regular-4a" d="M 2438 4550 
L 3038 4550 
L 3038 1328 
Q 3038 653 2633 295 
Q 2228 -63 1603 -63 
Q 975 -63 570 262 
Q 166 588 166 1259 
L 769 1259 
Q 769 828 1001 628 
Q 1234 428 1603 428 
Q 1959 428 2198 656 
Q 2438 884 2438 1328 
L 2438 4550 
z
" transform="scale(0.015625)"/>
     <path id="Roboto-Regular-2f" d="M 2453 4550 
L 556 -391 
L 59 -391 
L 1959 4550 
L 2453 4550 
z
" transform="scale(0.015625)"/>
     <path id="Roboto-Regular-6d" d="M 1794 2956 
Q 1225 2956 1016 2478 
L 1016 0 
L 434 0 
L 434 3381 
L 984 3381 
L 1000 3013 
Q 1366 3444 2000 3444 
Q 2325 3444 2579 3314 
Q 2834 3184 2969 2900 
Q 3138 3144 3408 3294 
Q 3678 3444 4044 3444 
Q 4588 3444 4883 3153 
Q 5178 2863 5178 2222 
L 5178 0 
L 4597 0 
L 4597 2228 
Q 4597 2653 4401 2804 
Q 4206 2956 3875 2956 
Q 3525 2956 3325 2748 
Q 3125 2541 3094 2244 
L 3094 0 
L 2516 0 
L 2516 2225 
Q 2516 2622 2319 2789 
Q 2122 2956 1794 2956 
z
" transform="scale(0.015625)"/>
     <path id="Roboto-Regular-29" d="M 1772 1819 
Q 1772 906 1512 228 
Q 1253 -450 895 -878 
Q 538 -1306 244 -1469 
L 122 -1119 
Q 488 -841 841 -109 
Q 1194 622 1194 1856 
Q 1194 2647 1019 3236 
Q 844 3825 594 4212 
Q 344 4600 122 4781 
L 244 5134 
Q 538 4969 895 4541 
Q 1253 4113 1512 3436 
Q 1772 2759 1772 1819 
z
" transform="scale(0.015625)"/>
    </defs>
    <use xlink:href="#DejaVuSans-394" transform="translate(0 0.78125)"/>
    <use xlink:href="#Roboto-Regular-47" transform="translate(68.408203 0.78125)"/>
    <use xlink:href="#Roboto-Regular-20" transform="translate(136.523438 0.78125)"/>
    <use xlink:href="#Roboto-Regular-28" transform="translate(161.328125 0.78125)"/>
    <use xlink:href="#Roboto-Regular-6b" transform="translate(195.556641 0.78125)"/>
    <use xlink:href="#Roboto-Regular-4a" transform="translate(246.240234 0.78125)"/>
    <use xlink:href="#Roboto-Regular-2f" transform="translate(301.416016 0.78125)"/>
    <use xlink:href="#Roboto-Regular-6d" transform="translate(342.675781 0.78125)"/>
    <use xlink:href="#Roboto-Regular-6f" transform="translate(430.371094 0.78125)"/>
    <use xlink:href="#Roboto-Regular-6c" transform="translate(487.402344 0.78125)"/>
    <use xlink:href="#Roboto-Regular-29" transform="translate(511.71875 0.78125)"/>
   </g>
  </g>
 </g>
 <defs>
  <clipPath id="p0603cb70a2">
   <rect x="37.19449" y="9.466667" width="193.74551" height="144.457361"/>
  </clipPath>
 </defs>
</svg>
