<?xml version="1.0" encoding="utf-8" standalone="no"?>
<!DOCTYPE svg PUBLIC "-//W3C//DTD SVG 1.1//EN"
  "http://www.w3.org/Graphics/SVG/1.1/DTD/svg11.dtd">
<svg xmlns:xlink="http://www.w3.org/1999/xlink" width="240.4pt" height="184.4pt" viewBox="0 0 240.4 184.4" xmlns="http://www.w3.org/2000/svg" version="1.1">
 <metadata>
  <rdf:RDF xmlns:dc="http://purl.org/dc/elements/1.1/" xmlns:cc="http://creativecommons.org/ns#" xmlns:rdf="http://www.w3.org/1999/02/22-rdf-syntax-ns#">
   <cc:Work>
    <dc:type rdf:resource="http://purl.org/dc/dcmitype/StillImage"/>
    <dc:date>2026-05-08T13:32:29.942242</dc:date>
    <dc:format>image/svg+xml</dc:format>
    <dc:creator>
     <cc:Agent>
      <dc:title>Matplotlib v3.10.6, https://matplotlib.org/</dc:title>
     </cc:Agent>
    </dc:creator>
   </cc:Work>
  </rdf:RDF>
 </metadata>
 <defs>
  <style type="text/css">*{stroke-linejoin: round; stroke-linecap: butt}</style>
 </defs>
 <g id="figure_1">
  <g id="patch_1">
   <path d="M 0 184.4 
L 240.4 184.4 
L 240.4 0 
L 0 0 
z
" style="fill: #ffffff"/>
  </g>
  <g id="patch_2">
   <path d="M 7.2 177.2 
L 233.2 177.2 
L 233.2 7.2 
L 7.2 7.2 
L 7.2 177.2 
z
" style="fill: none; stroke: #ffffff; stroke-width: 0.7; stroke-linejoin: miter"/>
  </g>
  <g id="axes_1">
   <g id="patch_3">
    <path d="M 37.19449 153.924028 
L 230.94 153.924028 
L 230.94 9.466667 
L 37.19449 9.466667 
z
" style="fill: #ffffff"/>
   </g>
   <g id="matplotlib.axis_1">
    <g id="xtick_1">
     <g id="line2d_1">
      <defs>
       <path id="mbd796ccf9a" d="M 0 1.5 
L 0 -1.5 
" style="stroke: #000000; stroke-width: 0.7"/>
      </defs>
      <g>
       <use xlink:href="#mbd796ccf9a" x="73.521773" y="153.924028" style="stroke: #000000; stroke-width: 0.7"/>
      </g>
     </g>
     <g id="text_1">
      <!-- C -->
      <g transform="translate(71.243492 163.074028) scale(0.07 -0.07)">
       <defs>
        <path id="Roboto-Regular-43" d="M 3275 1447 
L 3875 1447 
Q 3806 800 3387 368 
Q 2969 -63 2150 -63 
Q 1356 -63 870 504 
Q 384 1072 375 2013 
L 375 2500 
Q 375 3456 867 4034 
Q 1359 4613 2203 4613 
Q 2975 4613 3390 4188 
Q 3806 3763 3875 3091 
L 3275 3091 
Q 3206 3566 2968 3842 
Q 2731 4119 2203 4119 
Q 1600 4119 1287 3675 
Q 975 3231 975 2506 
L 975 2047 
Q 975 1375 1259 901 
Q 1544 428 2150 428 
Q 2725 428 2961 697 
Q 3197 966 3275 1447 
z
" transform="scale(0.015625)"/>
       </defs>
       <use xlink:href="#Roboto-Regular-43"/>
      </g>
     </g>
    </g>
    <g id="xtick_2">
     <g id="line2d_2">
      <g>
       <use xlink:href="#mbd796ccf9a" x="134.067245" y="153.924028" style="stroke: #000000; stroke-width: 0.7"/>
      </g>
     </g>
     <g id="text_2">
      <!-- N -->
      <g transform="translate(131.570214 163.074028) scale(0.07 -0.07)">
       <defs>
        <path id="Roboto-Regular-4e" d="M 4028 4550 
L 4028 0 
L 3422 0 
L 1131 3509 
L 1131 0 
L 528 0 
L 528 4550 
L 1131 4550 
L 3431 1031 
L 3431 4550 
L 4028 4550 
z
" transform="scale(0.015625)"/>
       </defs>
       <use xlink:href="#Roboto-Regular-4e"/>
      </g>
     </g>
    </g>
    <g id="xtick_3">
     <g id="line2d_3">
      <g>
       <use xlink:href="#mbd796ccf9a" x="194.612717" y="153.924028" style="stroke: #000000; stroke-width: 0.7"/>
      </g>
     </g>
     <g id="text_3">
      <!-- none -->
      <g transform="translate(186.895217 163.074028) scale(0.07 -0.07)">
       <defs>
        <path id="Roboto-Regular-6e" d="M 1844 2956 
Q 1566 2956 1353 2806 
Q 1141 2656 1019 2416 
L 1019 0 
L 441 0 
L 441 3381 
L 988 3381 
L 1006 2959 
Q 1391 3444 2016 3444 
Q 2513 3444 2805 3166 
Q 3097 2888 3100 2231 
L 3100 0 
L 2519 0 
L 2519 2222 
Q 2519 2619 2345 2787 
Q 2172 2956 1844 2956 
z
" transform="scale(0.015625)"/>
        <path id="Roboto-Regular-6f" d="M 288 1725 
Q 288 2459 700 2951 
Q 1113 3444 1822 3444 
Q 2531 3444 2943 2961 
Q 3356 2478 3366 1756 
L 3366 1653 
Q 3366 919 2952 428 
Q 2538 -63 1828 -63 
Q 1116 -63 702 428 
Q 288 919 288 1653 
L 288 1725 
z
M 866 1653 
Q 866 1150 1105 781 
Q 1344 413 1828 413 
Q 2300 413 2540 777 
Q 2781 1141 2784 1644 
L 2784 1725 
Q 2784 2222 2543 2595 
Q 2303 2969 1822 2969 
Q 1344 2969 1105 2595 
Q 866 2222 866 1725 
L 866 1653 
z
" transform="scale(0.015625)"/>
        <path id="Roboto-Regular-65" d="M 3116 591 
Q 2950 341 2647 139 
Q 2344 -63 1844 -63 
Q 1138 -63 714 396 
Q 291 856 291 1572 
L 291 1703 
Q 291 2256 502 2645 
Q 713 3034 1050 3239 
Q 1388 3444 1769 3444 
Q 2494 3444 2826 2970 
Q 3159 2497 3159 1788 
L 3159 1528 
L 872 1528 
Q 884 1063 1148 736 
Q 1413 409 1875 409 
Q 2181 409 2393 534 
Q 2606 659 2766 869 
L 3116 591 
z
M 1769 2969 
Q 1425 2969 1187 2719 
Q 950 2469 891 2000 
L 2581 2000 
L 2581 2044 
Q 2559 2381 2386 2675 
Q 2213 2969 1769 2969 
z
" transform="scale(0.015625)"/>
       </defs>
       <use xlink:href="#Roboto-Regular-6e"/>
       <use xlink:href="#Roboto-Regular-6f" transform="translate(55.224609 0)"/>
       <use xlink:href="#Roboto-Regular-6e" transform="translate(112.255859 0)"/>
       <use xlink:href="#Roboto-Regular-65" transform="translate(167.480469 0)"/>
      </g>
     </g>
    </g>
   </g>
   <g id="matplotlib.axis_2">
    <g id="ytick_1">
     <g id="line2d_4">
      <defs>
       <path id="mf4eefb8dcd" d="M 1.5 0 
L -1.5 -0 
" style="stroke: #000000; stroke-width: 0.7"/>
      </defs>
      <g>
       <use xlink:href="#mf4eefb8dcd" x="37.19449" y="147.357784" style="stroke: #000000; stroke-width: 0.7"/>
      </g>
     </g>
     <g id="text_4">
      <!-- 0 -->
      <g transform="translate(29.360271 149.982784) scale(0.07 -0.07)">
       <defs>
        <path id="Roboto-Regular-30" d="M 3234 1944 
Q 3234 825 2848 381 
Q 2463 -63 1800 -63 
Q 1156 -63 764 368 
Q 372 800 359 1872 
L 359 2638 
Q 359 3753 750 4183 
Q 1141 4613 1794 4613 
Q 2447 4613 2834 4195 
Q 3222 3778 3234 2709 
L 3234 1944 
z
M 2653 2734 
Q 2653 3503 2434 3822 
Q 2216 4141 1794 4141 
Q 1388 4141 1167 3831 
Q 947 3522 941 2778 
L 941 1850 
Q 941 1088 1164 750 
Q 1388 413 1800 413 
Q 2222 413 2436 745 
Q 2650 1078 2653 1825 
L 2653 2734 
z
" transform="scale(0.015625)"/>
       </defs>
       <use xlink:href="#Roboto-Regular-30"/>
      </g>
     </g>
    </g>
    <g id="ytick_2">
     <g id="line2d_5">
      <g>
       <use xlink:href="#mf4eefb8dcd" x="37.19449" y="110.878652" style="stroke: #000000; stroke-width: 0.7"/>
      </g>
     </g>
     <g id="text_5">
      <!-- 50 -->
      <g transform="translate(25.426052 113.503652) scale(0.07 -0.07)">
       <defs>
        <path id="Roboto-Regular-35" d="M 1109 2166 
L 647 2284 
L 875 4550 
L 3209 4550 
L 3209 4016 
L 1366 4016 
L 1228 2778 
Q 1572 2975 1988 2975 
Q 2616 2975 2980 2561 
Q 3344 2147 3344 1450 
Q 3344 797 2987 367 
Q 2631 -63 1903 -63 
Q 1350 -63 947 248 
Q 544 559 481 1197 
L 1031 1197 
Q 1141 413 1903 413 
Q 2313 413 2538 691 
Q 2763 969 2763 1444 
Q 2763 1872 2527 2164 
Q 2291 2456 1853 2456 
Q 1563 2456 1413 2378 
Q 1263 2300 1109 2166 
z
" transform="scale(0.015625)"/>
       </defs>
       <use xlink:href="#Roboto-Regular-35"/>
       <use xlink:href="#Roboto-Regular-30" transform="translate(56.201172 0)"/>
      </g>
     </g>
    </g>
    <g id="ytick_3">
     <g id="line2d_6">
      <g>
       <use xlink:href="#mf4eefb8dcd" x="37.19449" y="74.399521" style="stroke: #000000; stroke-width: 0.7"/>
      </g>
     </g>
     <g id="text_6">
      <!-- 100 -->
      <g transform="translate(21.491833 77.024521) scale(0.07 -0.07)">
       <defs>
        <path id="Roboto-Regular-31" d="M 2278 4575 
L 2278 0 
L 1700 0 
L 1700 3853 
L 534 3428 
L 534 3950 
L 2188 4575 
L 2278 4575 
z
" transform="scale(0.015625)"/>
       </defs>
       <use xlink:href="#Roboto-Regular-31"/>
       <use xlink:href="#Roboto-Regular-30" transform="translate(56.201172 0)"/>
       <use xlink:href="#Roboto-Regular-30" transform="translate(112.402344 0)"/>
      </g>
     </g>
    </g>
    <g id="ytick_4">
     <g id="line2d_7">
      <g>
       <use xlink:href="#mf4eefb8dcd" x="37.19449" y="37.920389" style="stroke: #000000; stroke-width: 0.7"/>
      </g>
     </g>
     <g id="text_7">
      <!-- 150 -->
      <g transform="translate(21.491833 40.545389) scale(0.07 -0.07)">
       <use xlink:href="#Roboto-Regular-31"/>
       <use xlink:href="#Roboto-Regular-35" transform="translate(56.201172 0)"/>
       <use xlink:href="#Roboto-Regular-30" transform="translate(112.402344 0)"/>
      </g>
     </g>
    </g>
    <g id="ytick_5">
     <g id="line2d_8">
      <defs>
       <path id="m51a54bd96a" d="M 2 0 
L -2 -0 
" style="stroke: #000000; stroke-width: 0.7"/>
      </defs>
      <g>
       <use xlink:href="#m51a54bd96a" x="37.19449" y="129.118218" style="stroke: #000000; stroke-width: 0.7"/>
      </g>
     </g>
    </g>
    <g id="ytick_6">
     <g id="line2d_9">
      <g>
       <use xlink:href="#m51a54bd96a" x="37.19449" y="92.639087" style="stroke: #000000; stroke-width: 0.7"/>
      </g>
     </g>
    </g>
    <g id="ytick_7">
     <g id="line2d_10">
      <g>
       <use xlink:href="#m51a54bd96a" x="37.19449" y="56.159955" style="stroke: #000000; stroke-width: 0.7"/>
      </g>
     </g>
    </g>
    <g id="ytick_8">
     <g id="line2d_11">
      <g>
       <use xlink:href="#m51a54bd96a" x="37.19449" y="19.680824" style="stroke: #000000; stroke-width: 0.7"/>
      </g>
     </g>
    </g>
   </g>
   <g id="PathCollection_1">
    <path d="M 192.274193 79.528756 
C 193.096798 79.528756 193.885823 79.201932 194.467493 78.620262 
C 195.049162 78.038592 195.375987 77.249567 195.375987 76.426962 
C 195.375987 75.604356 195.049162 74.815332 194.467493 74.233662 
C 193.885823 73.651992 193.096798 73.325168 192.274193 73.325168 
C 191.451587 73.325168 190.662563 73.651992 190.080893 74.233662 
C 189.499223 74.815332 189.172399 75.604356 189.172399 76.426962 
C 189.172399 77.249567 189.499223 78.038592 190.080893 78.620262 
C 190.662563 79.201932 191.451587 79.528756 192.274193 79.528756 
z
" clip-path="url(#p6a7e59c283)" style="fill: #55b4dc; stroke: #000000; stroke-width: 0.886227"/>
    <path d="M 191.987745 75.435719 
C 192.81035 75.435719 193.599375 75.108894 194.181045 74.527224 
C 194.762715 73.945554 195.089539 73.15653 195.089539 72.333924 
C 195.089539 71.511319 194.762715 70.722295 194.181045 70.140625 
C 193.599375 69.558955 192.81035 69.23213 191.987745 69.23213 
C 191.165139 69.23213 190.376115 69.558955 189.794445 70.140625 
C 189.212775 70.722295 188.885951 71.511319 188.885951 72.333924 
C 188.885951 73.15653 189.212775 73.945554 189.794445 74.527224 
C 190.376115 75.108894 191.165139 75.435719 191.987745 75.435719 
z
" clip-path="url(#p6a7e59c283)" style="fill: #55b4dc; stroke: #000000; stroke-width: 0.886227"/>
    <path d="M 199.388577 79.435527 
C 200.211182 79.435527 201.000207 79.108702 201.581877 78.527033 
C 202.163547 77.945363 202.490371 77.156338 202.490371 76.333733 
C 202.490371 75.511127 202.163547 74.722103 201.581877 74.140433 
C 201.000207 73.558763 200.211182 73.231939 199.388577 73.231939 
C 198.565971 73.231939 197.776947 73.558763 197.195277 74.140433 
C 196.613607 74.722103 196.286783 75.511127 196.286783 76.333733 
C 196.286783 77.156338 196.613607 77.945363 197.195277 78.527033 
C 197.776947 79.108702 198.565971 79.435527 199.388577 79.435527 
z
" clip-path="url(#p6a7e59c283)" style="fill: #55b4dc; stroke: #000000; stroke-width: 0.886227"/>
    <path d="M 199.445761 71.569021 
C 200.268366 71.569021 201.057391 71.242196 201.639061 70.660526 
C 202.220731 70.078856 202.547555 69.289832 202.547555 68.467227 
C 202.547555 67.644621 202.220731 66.855597 201.639061 66.273927 
C 201.057391 65.692257 200.268366 65.365432 199.445761 65.365432 
C 198.623155 65.365432 197.834131 65.692257 197.252461 66.273927 
C 196.670791 66.855597 196.343967 67.644621 196.343967 68.467227 
C 196.343967 69.289832 196.670791 70.078856 197.252461 70.660526 
C 197.834131 71.242196 198.623155 71.569021 199.445761 71.569021 
z
" clip-path="url(#p6a7e59c283)" style="fill: #55b4dc; stroke: #000000; stroke-width: 0.886227"/>
    <path d="M 198.142762 68.341233 
C 198.965368 68.341233 199.754392 68.014409 200.336062 67.432739 
C 200.917732 66.851069 201.244556 66.062044 201.244556 65.239439 
C 201.244556 64.416834 200.917732 63.627809 200.336062 63.046139 
C 199.754392 62.464469 198.965368 62.137645 198.142762 62.137645 
C 197.320157 62.137645 196.531132 62.464469 195.949462 63.046139 
C 195.367792 63.627809 195.040968 64.416834 195.040968 65.239439 
C 195.040968 66.062044 195.367792 66.851069 195.949462 67.432739 
C 196.531132 68.014409 197.320157 68.341233 198.142762 68.341233 
z
" clip-path="url(#p6a7e59c283)" style="fill: #55b4dc; stroke: #000000; stroke-width: 0.886227"/>
    <path d="M 195.43687 57.507571 
C 196.259476 57.507571 197.0485 57.180746 197.63017 56.599076 
C 198.21184 56.017406 198.538664 55.228382 198.538664 54.405776 
C 198.538664 53.583171 198.21184 52.794147 197.63017 52.212477 
C 197.0485 51.630807 196.259476 51.303982 195.43687 51.303982 
C 194.614265 51.303982 193.82524 51.630807 193.24357 52.212477 
C 192.6619 52.794147 192.335076 53.583171 192.335076 54.405776 
C 192.335076 55.228382 192.6619 56.017406 193.24357 56.599076 
C 193.82524 57.180746 194.614265 57.507571 195.43687 57.507571 
z
" clip-path="url(#p6a7e59c283)" style="fill: #55b4dc; stroke: #000000; stroke-width: 0.886227"/>
    <path d="M 139.080139 82.418482 
C 139.902745 82.418482 140.691769 82.091657 141.273439 81.509987 
C 141.855109 80.928317 142.181933 80.139293 142.181933 79.316688 
C 142.181933 78.494082 141.855109 77.705058 141.273439 77.123388 
C 140.691769 76.541718 139.902745 76.214893 139.080139 76.214893 
C 138.257534 76.214893 137.468509 76.541718 136.886839 77.123388 
C 136.30517 77.705058 135.978345 78.494082 135.978345 79.316688 
C 135.978345 80.139293 136.30517 80.928317 136.886839 81.509987 
C 137.468509 82.091657 138.257534 82.418482 139.080139 82.418482 
z
" clip-path="url(#p6a7e59c283)" style="fill: #55b4dc; stroke: #000000; stroke-width: 0.886227"/>
    <path d="M 128.665795 90.399861 
C 129.488401 90.399861 130.277425 90.073036 130.859095 89.491367 
C 131.440765 88.909697 131.767589 88.120672 131.767589 87.298067 
C 131.767589 86.475461 131.440765 85.686437 130.859095 85.104767 
C 130.277425 84.523097 129.488401 84.196273 128.665795 84.196273 
C 127.84319 84.196273 127.054165 84.523097 126.472495 85.104767 
C 125.890825 85.686437 125.564001 86.475461 125.564001 87.298067 
C 125.564001 88.120672 125.890825 88.909697 126.472495 89.491367 
C 127.054165 90.073036 127.84319 90.399861 128.665795 90.399861 
z
" clip-path="url(#p6a7e59c283)" style="fill: #55b4dc; stroke: #000000; stroke-width: 0.886227"/>
    <path d="M 190.074488 76.217523 
C 190.897094 76.217523 191.686118 75.890698 192.267788 75.309028 
C 192.849458 74.727358 193.176283 73.938334 193.176283 73.115728 
C 193.176283 72.293123 192.849458 71.504099 192.267788 70.922429 
C 191.686118 70.340759 190.897094 70.013934 190.074488 70.013934 
C 189.251883 70.013934 188.462859 70.340759 187.881189 70.922429 
C 187.299519 71.504099 186.972694 72.293123 186.972694 73.115728 
C 186.972694 73.938334 187.299519 74.727358 187.881189 75.309028 
C 188.462859 75.890698 189.251883 76.217523 190.074488 76.217523 
z
" clip-path="url(#p6a7e59c283)" style="fill: #55b4dc; stroke: #000000; stroke-width: 0.886227"/>
    <path d="M 198.833346 81.93144 
C 199.655952 81.93144 200.444976 81.604616 201.026646 81.022946 
C 201.608316 80.441276 201.935141 79.652252 201.935141 78.829646 
C 201.935141 78.007041 201.608316 77.218016 201.026646 76.636346 
C 200.444976 76.054677 199.655952 75.727852 198.833346 75.727852 
C 198.010741 75.727852 197.221716 76.054677 196.640047 76.636346 
C 196.058377 77.218016 195.731552 78.007041 195.731552 78.829646 
C 195.731552 79.652252 196.058377 80.441276 196.640047 81.022946 
C 197.221716 81.604616 198.010741 81.93144 198.833346 81.93144 
z
" clip-path="url(#p6a7e59c283)" style="fill: #55b4dc; stroke: #000000; stroke-width: 0.886227"/>
    <path d="M 68.957678 67.538922 
C 69.780283 67.538922 70.569308 67.212097 71.150977 66.630427 
C 71.732647 66.048758 72.059472 65.259733 72.059472 64.437128 
C 72.059472 63.614522 71.732647 62.825498 71.150977 62.243828 
C 70.569308 61.662158 69.780283 61.335333 68.957678 61.335333 
C 68.135072 61.335333 67.346048 61.662158 66.764378 62.243828 
C 66.182708 62.825498 65.855884 63.614522 65.855884 64.437128 
C 65.855884 65.259733 66.182708 66.048758 66.764378 66.630427 
C 67.346048 67.212097 68.135072 67.538922 68.957678 67.538922 
z
" clip-path="url(#p6a7e59c283)" style="fill: #55b4dc; stroke: #000000; stroke-width: 0.886227"/>
    <path d="M 71.93412 53.981648 
C 72.756726 53.981648 73.54575 53.654823 74.12742 53.073154 
C 74.70909 52.491484 75.035915 51.702459 75.035915 50.879854 
C 75.035915 50.057248 74.70909 49.268224 74.12742 48.686554 
C 73.54575 48.104884 72.756726 47.77806 71.93412 47.77806 
C 71.111515 47.77806 70.32249 48.104884 69.740821 48.686554 
C 69.159151 49.268224 68.832326 50.057248 68.832326 50.879854 
C 68.832326 51.702459 69.159151 52.491484 69.740821 53.073154 
C 70.32249 53.654823 71.111515 53.981648 71.93412 53.981648 
z
" clip-path="url(#p6a7e59c283)" style="fill: #55b4dc; stroke: #000000; stroke-width: 0.886227"/>
    <path d="M 71.943841 74.581714 
C 72.766447 74.581714 73.555471 74.254889 74.137141 73.673219 
C 74.718811 73.091549 75.045636 72.302525 75.045636 71.47992 
C 75.045636 70.657314 74.718811 69.86829 74.137141 69.28662 
C 73.555471 68.70495 72.766447 68.378125 71.943841 68.378125 
C 71.121236 68.378125 70.332212 68.70495 69.750542 69.28662 
C 69.168872 69.86829 68.842047 70.657314 68.842047 71.47992 
C 68.842047 72.302525 69.168872 73.091549 69.750542 73.673219 
C 70.332212 74.254889 71.121236 74.581714 71.943841 74.581714 
z
" clip-path="url(#p6a7e59c283)" style="fill: #55b4dc; stroke: #000000; stroke-width: 0.886227"/>
    <path d="M 69.127678 59.785546 
C 69.950283 59.785546 70.739308 59.458721 71.320978 58.877051 
C 71.902648 58.295382 72.229472 57.506357 72.229472 56.683752 
C 72.229472 55.861146 71.902648 55.072122 71.320978 54.490452 
C 70.739308 53.908782 69.950283 53.581957 69.127678 53.581957 
C 68.305073 53.581957 67.516048 53.908782 66.934378 54.490452 
C 66.352708 55.072122 66.025884 55.861146 66.025884 56.683752 
C 66.025884 57.506357 66.352708 58.295382 66.934378 58.877051 
C 67.516048 59.458721 68.305073 59.785546 69.127678 59.785546 
z
" clip-path="url(#p6a7e59c283)" style="fill: #55b4dc; stroke: #000000; stroke-width: 0.886227"/>
    <path d="M 195.522907 77.153119 
C 196.345512 77.153119 197.134537 76.826294 197.716206 76.244624 
C 198.297876 75.662954 198.624701 74.87393 198.624701 74.051324 
C 198.624701 73.228719 198.297876 72.439694 197.716206 71.858025 
C 197.134537 71.276355 196.345512 70.94953 195.522907 70.94953 
C 194.700301 70.94953 193.911277 71.276355 193.329607 71.858025 
C 192.747937 72.439694 192.421113 73.228719 192.421113 74.051324 
C 192.421113 74.87393 192.747937 75.662954 193.329607 76.244624 
C 193.911277 76.826294 194.700301 77.153119 195.522907 77.153119 
z
" clip-path="url(#p6a7e59c283)" style="fill: #55b4dc; stroke: #000000; stroke-width: 0.886227"/>
    <path d="M 197.787757 61.861553 
C 198.610362 61.861553 199.399387 61.534728 199.981057 60.953058 
C 200.562727 60.371388 200.889551 59.582364 200.889551 58.759758 
C 200.889551 57.937153 200.562727 57.148128 199.981057 56.566459 
C 199.399387 55.984789 198.610362 55.657964 197.787757 55.657964 
C 196.965152 55.657964 196.176127 55.984789 195.594457 56.566459 
C 195.012787 57.148128 194.685963 57.937153 194.685963 58.759758 
C 194.685963 59.582364 195.012787 60.371388 195.594457 60.953058 
C 196.176127 61.534728 196.965152 61.861553 197.787757 61.861553 
z
" clip-path="url(#p6a7e59c283)" style="fill: #55b4dc; stroke: #000000; stroke-width: 0.886227"/>
   </g>
  </g>
  <g id="patch_4">
   <path d="M 37.19449 153.924028 
L 230.94 153.924028 
L 230.94 9.466667 
L 37.19449 9.466667 
L 37.19449 153.924028 
z
" style="fill: none; stroke: #000000; stroke-width: 0.7; stroke-linejoin: miter"/>
  </g>
  <g id="text_8">
   <!-- Proline position -->
   <g transform="translate(109.773964 173.511458) scale(0.07 -0.07)">
    <defs>
     <path id="Roboto-Regular-50" d="M 1131 1784 
L 1131 0 
L 528 0 
L 528 4550 
L 2206 4550 
Q 2981 4550 3392 4159 
Q 3803 3769 3803 3163 
Q 3803 2503 3392 2143 
Q 2981 1784 2206 1784 
L 1131 1784 
z
M 1131 4056 
L 1131 2275 
L 2206 2275 
Q 2738 2275 2969 2522 
Q 3200 2769 3200 3156 
Q 3200 3506 2969 3781 
Q 2738 4056 2206 4056 
L 1131 4056 
z
" transform="scale(0.015625)"/>
     <path id="Roboto-Regular-72" d="M 1791 2888 
Q 1225 2888 1019 2400 
L 1019 0 
L 441 0 
L 441 3381 
L 1003 3381 
L 1016 2994 
Q 1294 3444 1819 3444 
Q 1981 3444 2075 3400 
L 2072 2863 
Q 1944 2888 1791 2888 
z
" transform="scale(0.015625)"/>
     <path id="Roboto-Regular-6c" d="M 1069 4800 
L 1069 0 
L 488 0 
L 488 4800 
L 1069 4800 
z
" transform="scale(0.015625)"/>
     <path id="Roboto-Regular-69" d="M 444 4278 
Q 444 4419 530 4516 
Q 616 4613 784 4613 
Q 950 4613 1039 4516 
Q 1128 4419 1128 4278 
Q 1128 4144 1039 4048 
Q 950 3953 784 3953 
Q 616 3953 530 4048 
Q 444 4144 444 4278 
z
M 1069 3381 
L 1069 0 
L 488 0 
L 488 3381 
L 1069 3381 
z
" transform="scale(0.015625)"/>
     <path id="Roboto-Regular-20" transform="scale(0.015625)"/>
     <path id="Roboto-Regular-70" d="M 1984 -63 
Q 1375 -63 1019 328 
L 1019 -1300 
L 438 -1300 
L 438 3381 
L 969 3381 
L 997 3009 
Q 1353 3444 1975 3444 
Q 2616 3444 2956 2969 
Q 3297 2494 3297 1719 
L 3297 1653 
Q 3297 913 2955 425 
Q 2613 -63 1984 -63 
z
M 1806 2956 
Q 1281 2956 1019 2491 
L 1019 872 
Q 1284 413 1813 413 
Q 2281 413 2498 781 
Q 2716 1150 2716 1653 
L 2716 1719 
Q 2716 2222 2498 2589 
Q 2281 2956 1806 2956 
z
" transform="scale(0.015625)"/>
     <path id="Roboto-Regular-73" d="M 2409 897 
Q 2409 1081 2273 1229 
Q 2138 1378 1647 1478 
Q 1081 1594 747 1814 
Q 413 2034 413 2456 
Q 413 2856 755 3150 
Q 1097 3444 1666 3444 
Q 2272 3444 2612 3134 
Q 2953 2825 2953 2388 
L 2375 2388 
Q 2375 2597 2190 2783 
Q 2006 2969 1666 2969 
Q 1306 2969 1150 2812 
Q 994 2656 994 2472 
Q 994 2288 1139 2173 
Q 1284 2059 1756 1953 
Q 2378 1813 2683 1584 
Q 2988 1356 2988 941 
Q 2988 494 2630 215 
Q 2272 -63 1681 -63 
Q 1009 -63 653 281 
Q 297 625 297 1044 
L 878 1044 
Q 897 684 1155 548 
Q 1413 413 1681 413 
Q 2034 413 2221 550 
Q 2409 688 2409 897 
z
" transform="scale(0.015625)"/>
     <path id="Roboto-Regular-74" d="M 1872 0 
Q 1675 -63 1425 -63 
Q 1103 -63 875 134 
Q 647 331 647 841 
L 647 2938 
L 28 2938 
L 28 3381 
L 647 3381 
L 647 4203 
L 1225 4203 
L 1225 3381 
L 1856 3381 
L 1856 2938 
L 1225 2938 
L 1225 838 
Q 1225 578 1337 506 
Q 1450 434 1597 434 
Q 1706 434 1869 472 
L 1872 0 
z
" transform="scale(0.015625)"/>
    </defs>
    <use xlink:href="#Roboto-Regular-50"/>
    <use xlink:href="#Roboto-Regular-72" transform="translate(63.085938 0)"/>
    <use xlink:href="#Roboto-Regular-6f" transform="translate(96.972656 0)"/>
    <use xlink:href="#Roboto-Regular-6c" transform="translate(154.003906 0)"/>
    <use xlink:href="#Roboto-Regular-69" transform="translate(178.320312 0)"/>
    <use xlink:href="#Roboto-Regular-6e" transform="translate(202.636719 0)"/>
    <use xlink:href="#Roboto-Regular-65" transform="translate(257.861328 0)"/>
    <use xlink:href="#Roboto-Regular-20" transform="translate(310.888672 0)"/>
    <use xlink:href="#Roboto-Regular-70" transform="translate(335.693359 0)"/>
    <use xlink:href="#Roboto-Regular-6f" transform="translate(391.845703 0)"/>
    <use xlink:href="#Roboto-Regular-73" transform="translate(448.876953 0)"/>
    <use xlink:href="#Roboto-Regular-69" transform="translate(500.488281 0)"/>
    <use xlink:href="#Roboto-Regular-74" transform="translate(524.804688 0)"/>
    <use xlink:href="#Roboto-Regular-69" transform="translate(557.519531 0)"/>
    <use xlink:href="#Roboto-Regular-6f" transform="translate(581.835938 0)"/>
    <use xlink:href="#Roboto-Regular-6e" transform="translate(638.867188 0)"/>
   </g>
  </g>
  <g id="text_9">
   <!-- $\Delta$G (kJ/mol) -->
   <g transform="translate(15.13 100.840347) rotate(-90) scale(0.07 -0.07)">
    <defs>
     <path id="DejaVuSans-394" d="M 2188 4044 
L 906 525 
L 3472 525 
L 2188 4044 
z
M 50 0 
L 1831 4666 
L 2547 4666 
L 4325 0 
L 50 0 
z
" transform="scale(0.015625)"/>
     <path id="Roboto-Regular-47" d="M 3891 2266 
L 3891 600 
Q 3763 413 3403 175 
Q 3044 -63 2281 -63 
Q 1450 -63 915 507 
Q 381 1078 381 2100 
L 381 2453 
Q 381 3469 856 4041 
Q 1331 4613 2213 4613 
Q 2994 4613 3398 4219 
Q 3803 3825 3891 3219 
L 3288 3219 
Q 3225 3588 2979 3853 
Q 2734 4119 2213 4119 
Q 1584 4119 1287 3676 
Q 991 3234 988 2475 
L 988 2100 
Q 988 1313 1344 870 
Q 1700 428 2284 428 
Q 2769 428 2984 542 
Q 3200 656 3291 759 
L 3291 1778 
L 2238 1778 
L 2238 2266 
L 3891 2266 
z
" transform="scale(0.015625)"/>
     <path id="Roboto-Regular-28" d="M 419 1850 
Q 419 2756 678 3434 
Q 938 4113 1294 4541 
Q 1650 4969 1947 5134 
L 2069 4753 
Q 1700 4475 1348 3761 
Q 997 3047 997 1813 
Q 997 625 1348 -97 
Q 1700 -819 2069 -1119 
L 1947 -1469 
Q 1650 -1306 1294 -878 
Q 938 -450 678 226 
Q 419 903 419 1850 
z
" transform="scale(0.015625)"/>
     <path id="Roboto-Regular-6b" d="M 2559 0 
L 1388 1569 
L 1022 1191 
L 1022 0 
L 441 0 
L 441 4800 
L 1022 4800 
L 1022 1900 
L 1331 2269 
L 2381 3381 
L 3088 3381 
L 1769 1972 
L 3241 0 
L 2559 0 
z
" transform="scale(0.015625)"/>
     <path id="Roboto-Regular-4a" d="M 2438 4550 
L 3038 4550 
L 3038 1328 
Q 3038 653 2633 295 
Q 2228 -63 1603 -63 
Q 975 -63 570 262 
Q 166 588 166 1259 
L 769 1259 
Q 769 828 1001 628 
Q 1234 428 1603 428 
Q 1959 428 2198 656 
Q 2438 884 2438 1328 
L 2438 4550 
z
" transform="scale(0.015625)"/>
     <path id="Roboto-Regular-2f" d="M 2453 4550 
L 556 -391 
L 59 -391 
L 1959 4550 
L 2453 4550 
z
" transform="scale(0.015625)"/>
     <path id="Roboto-Regular-6d" d="M 1794 2956 
Q 1225 2956 1016 2478 
L 1016 0 
L 434 0 
L 434 3381 
L 984 3381 
L 1000 3013 
Q 1366 3444 2000 3444 
Q 2325 3444 2579 3314 
Q 2834 3184 2969 2900 
Q 3138 3144 3408 3294 
Q 3678 3444 4044 3444 
Q 4588 3444 4883 3153 
Q 5178 2863 5178 2222 
L 5178 0 
L 4597 0 
L 4597 2228 
Q 4597 2653 4401 2804 
Q 4206 2956 3875 2956 
Q 3525 2956 3325 2748 
Q 3125 2541 3094 2244 
L 3094 0 
L 2516 0 
L 2516 2225 
Q 2516 2622 2319 2789 
Q 2122 2956 1794 2956 
z
" transform="scale(0.015625)"/>
     <path id="Roboto-Regular-29" d="M 1772 1819 
Q 1772 906 1512 228 
Q 1253 -450 895 -878 
Q 538 -1306 244 -1469 
L 122 -1119 
Q 488 -841 841 -109 
Q 1194 622 1194 1856 
Q 1194 2647 1019 3236 
Q 844 3825 594 4212 
Q 344 4600 122 4781 
L 244 5134 
Q 538 4969 895 4541 
Q 1253 4113 1512 3436 
Q 1772 2759 1772 1819 
z
" transform="scale(0.015625)"/>
    </defs>
    <use xlink:href="#DejaVuSans-394" transform="translate(0 0.78125)"/>
    <use xlink:href="#Roboto-Regular-47" transform="translate(68.408203 0.78125)"/>
    <use xlink:href="#Roboto-Regular-20" transform="translate(136.523438 0.78125)"/>
    <use xlink:href="#Roboto-Regular-28" transform="translate(161.328125 0.78125)"/>
    <use xlink:href="#Roboto-Regular-6b" transform="translate(195.556641 0.78125)"/>
    <use xlink:href="#Roboto-Regular-4a" transform="translate(246.240234 0.78125)"/>
    <use xlink:href="#Roboto-Regular-2f" transform="translate(301.416016 0.78125)"/>
    <use xlink:href="#Roboto-Regular-6d" transform="translate(342.675781 0.78125)"/>
    <use xlink:href="#Roboto-Regular-6f" transform="translate(430.371094 0.78125)"/>
    <use xlink:href="#Roboto-Regular-6c" transform="translate(487.402344 0.78125)"/>
    <use xlink:href="#Roboto-Regular-29" transform="translate(511.71875 0.78125)"/>
   </g>
  </g>
 </g>
 <defs>
  <clipPath id="p6a7e59c283">
   <rect x="37.19449" y="9.466667" width="193.74551" height="144.457361"/>
  </clipPath>
 </defs>
</svg>
