<?xml version="1.0" encoding="utf-8" standalone="no"?>
<!DOCTYPE svg PUBLIC "-//W3C//DTD SVG 1.1//EN"
  "http://www.w3.org/Graphics/SVG/1.1/DTD/svg11.dtd">
<svg xmlns:xlink="http://www.w3.org/1999/xlink" width="240.4pt" height="184.4pt" viewBox="0 0 240.4 184.4" xmlns="http://www.w3.org/2000/svg" version="1.1">
 <metadata>
  <rdf:RDF xmlns:dc="http://purl.org/dc/elements/1.1/" xmlns:cc="http://creativecommons.org/ns#" xmlns:rdf="http://www.w3.org/1999/02/22-rdf-syntax-ns#">
   <cc:Work>
    <dc:type rdf:resource="http://purl.org/dc/dcmitype/StillImage"/>
    <dc:date>2026-05-08T13:32:30.514647</dc:date>
    <dc:format>image/svg+xml</dc:format>
    <dc:creator>
     <cc:Agent>
      <dc:title>Matplotlib v3.10.6, https://matplotlib.org/</dc:title>
     </cc:Agent>
    </dc:creator>
   </cc:Work>
  </rdf:RDF>
 </metadata>
 <defs>
  <style type="text/css">*{stroke-linejoin: round; stroke-linecap: butt}</style>
 </defs>
 <g id="figure_1">
  <g id="patch_1">
   <path d="M 0 184.4 
L 240.4 184.4 
L 240.4 0 
L 0 0 
z
" style="fill: #ffffff"/>
  </g>
  <g id="patch_2">
   <path d="M 7.2 177.2 
L 233.2 177.2 
L 233.2 7.2 
L 7.2 7.2 
L 7.2 177.2 
z
" style="fill: none; stroke: #ffffff; stroke-width: 0.7; stroke-linejoin: miter"/>
  </g>
  <g id="axes_1">
   <g id="patch_3">
    <path d="M 37.19449 153.85184 
L 230.94 153.85184 
L 230.94 9.466667 
L 37.19449 9.466667 
z
" style="fill: #ffffff"/>
   </g>
   <g id="matplotlib.axis_1">
    <g id="xtick_1">
     <g id="line2d_1">
      <defs>
       <path id="mefe3f586a9" d="M 0 1.5 
L 0 -1.5 
" style="stroke: #000000; stroke-width: 0.7"/>
      </defs>
      <g>
       <use xlink:href="#mefe3f586a9" x="90.034174" y="153.85184" style="stroke: #000000; stroke-width: 0.7"/>
      </g>
     </g>
     <g id="text_1">
      <!-- C -->
      <g transform="translate(87.755893 163.00184) scale(0.07 -0.07)">
       <defs>
        <path id="Roboto-Regular-43" d="M 3275 1447 
L 3875 1447 
Q 3806 800 3387 368 
Q 2969 -63 2150 -63 
Q 1356 -63 870 504 
Q 384 1072 375 2013 
L 375 2500 
Q 375 3456 867 4034 
Q 1359 4613 2203 4613 
Q 2975 4613 3390 4188 
Q 3806 3763 3875 3091 
L 3275 3091 
Q 3206 3566 2968 3842 
Q 2731 4119 2203 4119 
Q 1600 4119 1287 3675 
Q 975 3231 975 2506 
L 975 2047 
Q 975 1375 1259 901 
Q 1544 428 2150 428 
Q 2725 428 2961 697 
Q 3197 966 3275 1447 
z
" transform="scale(0.015625)"/>
       </defs>
       <use xlink:href="#Roboto-Regular-43"/>
      </g>
     </g>
    </g>
    <g id="xtick_2">
     <g id="line2d_2">
      <g>
       <use xlink:href="#mefe3f586a9" x="178.100315" y="153.85184" style="stroke: #000000; stroke-width: 0.7"/>
      </g>
     </g>
     <g id="text_2">
      <!-- N -->
      <g transform="translate(175.603284 163.00184) scale(0.07 -0.07)">
       <defs>
        <path id="Roboto-Regular-4e" d="M 4028 4550 
L 4028 0 
L 3422 0 
L 1131 3509 
L 1131 0 
L 528 0 
L 528 4550 
L 1131 4550 
L 3431 1031 
L 3431 4550 
L 4028 4550 
z
" transform="scale(0.015625)"/>
       </defs>
       <use xlink:href="#Roboto-Regular-4e"/>
      </g>
     </g>
    </g>
   </g>
   <g id="matplotlib.axis_2">
    <g id="ytick_1">
     <g id="line2d_3">
      <defs>
       <path id="m9c0def02e8" d="M 1.5 0 
L -1.5 -0 
" style="stroke: #000000; stroke-width: 0.7"/>
      </defs>
      <g>
       <use xlink:href="#m9c0def02e8" x="37.19449" y="147.288878" style="stroke: #000000; stroke-width: 0.7"/>
      </g>
     </g>
     <g id="text_3">
      <!-- 0 -->
      <g transform="translate(29.360271 149.913878) scale(0.07 -0.07)">
       <defs>
        <path id="Roboto-Regular-30" d="M 3234 1944 
Q 3234 825 2848 381 
Q 2463 -63 1800 -63 
Q 1156 -63 764 368 
Q 372 800 359 1872 
L 359 2638 
Q 359 3753 750 4183 
Q 1141 4613 1794 4613 
Q 2447 4613 2834 4195 
Q 3222 3778 3234 2709 
L 3234 1944 
z
M 2653 2734 
Q 2653 3503 2434 3822 
Q 2216 4141 1794 4141 
Q 1388 4141 1167 3831 
Q 947 3522 941 2778 
L 941 1850 
Q 941 1088 1164 750 
Q 1388 413 1800 413 
Q 2222 413 2436 745 
Q 2650 1078 2653 1825 
L 2653 2734 
z
" transform="scale(0.015625)"/>
       </defs>
       <use xlink:href="#Roboto-Regular-30"/>
      </g>
     </g>
    </g>
    <g id="ytick_2">
     <g id="line2d_4">
      <g>
       <use xlink:href="#m9c0def02e8" x="37.19449" y="110.827975" style="stroke: #000000; stroke-width: 0.7"/>
      </g>
     </g>
     <g id="text_4">
      <!-- 50 -->
      <g transform="translate(25.426052 113.452975) scale(0.07 -0.07)">
       <defs>
        <path id="Roboto-Regular-35" d="M 1109 2166 
L 647 2284 
L 875 4550 
L 3209 4550 
L 3209 4016 
L 1366 4016 
L 1228 2778 
Q 1572 2975 1988 2975 
Q 2616 2975 2980 2561 
Q 3344 2147 3344 1450 
Q 3344 797 2987 367 
Q 2631 -63 1903 -63 
Q 1350 -63 947 248 
Q 544 559 481 1197 
L 1031 1197 
Q 1141 413 1903 413 
Q 2313 413 2538 691 
Q 2763 969 2763 1444 
Q 2763 1872 2527 2164 
Q 2291 2456 1853 2456 
Q 1563 2456 1413 2378 
Q 1263 2300 1109 2166 
z
" transform="scale(0.015625)"/>
       </defs>
       <use xlink:href="#Roboto-Regular-35"/>
       <use xlink:href="#Roboto-Regular-30" transform="translate(56.201172 0)"/>
      </g>
     </g>
    </g>
    <g id="ytick_3">
     <g id="line2d_5">
      <g>
       <use xlink:href="#m9c0def02e8" x="37.19449" y="74.367073" style="stroke: #000000; stroke-width: 0.7"/>
      </g>
     </g>
     <g id="text_5">
      <!-- 100 -->
      <g transform="translate(21.491833 76.992073) scale(0.07 -0.07)">
       <defs>
        <path id="Roboto-Regular-31" d="M 2278 4575 
L 2278 0 
L 1700 0 
L 1700 3853 
L 534 3428 
L 534 3950 
L 2188 4575 
L 2278 4575 
z
" transform="scale(0.015625)"/>
       </defs>
       <use xlink:href="#Roboto-Regular-31"/>
       <use xlink:href="#Roboto-Regular-30" transform="translate(56.201172 0)"/>
       <use xlink:href="#Roboto-Regular-30" transform="translate(112.402344 0)"/>
      </g>
     </g>
    </g>
    <g id="ytick_4">
     <g id="line2d_6">
      <g>
       <use xlink:href="#m9c0def02e8" x="37.19449" y="37.906171" style="stroke: #000000; stroke-width: 0.7"/>
      </g>
     </g>
     <g id="text_6">
      <!-- 150 -->
      <g transform="translate(21.491833 40.531171) scale(0.07 -0.07)">
       <use xlink:href="#Roboto-Regular-31"/>
       <use xlink:href="#Roboto-Regular-35" transform="translate(56.201172 0)"/>
       <use xlink:href="#Roboto-Regular-30" transform="translate(112.402344 0)"/>
      </g>
     </g>
    </g>
    <g id="ytick_5">
     <g id="line2d_7">
      <defs>
       <path id="m6e0f55d775" d="M 2 0 
L -2 -0 
" style="stroke: #000000; stroke-width: 0.7"/>
      </defs>
      <g>
       <use xlink:href="#m6e0f55d775" x="37.19449" y="129.058427" style="stroke: #000000; stroke-width: 0.7"/>
      </g>
     </g>
    </g>
    <g id="ytick_6">
     <g id="line2d_8">
      <g>
       <use xlink:href="#m6e0f55d775" x="37.19449" y="92.597524" style="stroke: #000000; stroke-width: 0.7"/>
      </g>
     </g>
    </g>
    <g id="ytick_7">
     <g id="line2d_9">
      <g>
       <use xlink:href="#m6e0f55d775" x="37.19449" y="56.136622" style="stroke: #000000; stroke-width: 0.7"/>
      </g>
     </g>
    </g>
    <g id="ytick_8">
     <g id="line2d_10">
      <g>
       <use xlink:href="#m6e0f55d775" x="37.19449" y="19.675719" style="stroke: #000000; stroke-width: 0.7"/>
      </g>
     </g>
    </g>
   </g>
   <g id="PathCollection_1">
    <path d="M 172.619318 63.402477 
C 173.441924 63.402477 174.230948 63.075652 174.812618 62.493982 
C 175.394288 61.912312 175.721112 61.123288 175.721112 60.300682 
C 175.721112 59.478077 175.394288 58.689053 174.812618 58.107383 
C 174.230948 57.525713 173.441924 57.198888 172.619318 57.198888 
C 171.796713 57.198888 171.007688 57.525713 170.426018 58.107383 
C 169.844349 58.689053 169.517524 59.478077 169.517524 60.300682 
C 169.517524 61.123288 169.844349 61.912312 170.426018 62.493982 
C 171.007688 63.075652 171.796713 63.402477 172.619318 63.402477 
z
" clip-path="url(#p74b32ab8b4)" style="fill: #777777; stroke: #000000; stroke-width: 0.886227"/>
    <path d="M 185.849935 69.152728 
C 186.67254 69.152728 187.461564 68.825904 188.043234 68.244234 
C 188.624904 67.662564 188.951729 66.873539 188.951729 66.050934 
C 188.951729 65.228328 188.624904 64.439304 188.043234 63.857634 
C 187.461564 63.275964 186.67254 62.94914 185.849935 62.94914 
C 185.027329 62.94914 184.238305 63.275964 183.656635 63.857634 
C 183.074965 64.439304 182.74814 65.228328 182.74814 66.050934 
C 182.74814 66.873539 183.074965 67.662564 183.656635 68.244234 
C 184.238305 68.825904 185.027329 69.152728 185.849935 69.152728 
z
" clip-path="url(#p74b32ab8b4)" style="fill: #777777; stroke: #000000; stroke-width: 0.886227"/>
    <path d="M 85.802036 81.016197 
C 86.624641 81.016197 87.413666 80.689373 87.995336 80.107703 
C 88.577005 79.526033 88.90383 78.737009 88.90383 77.914403 
C 88.90383 77.091798 88.577005 76.302773 87.995336 75.721103 
C 87.413666 75.139433 86.624641 74.812609 85.802036 74.812609 
C 84.97943 74.812609 84.190406 75.139433 83.608736 75.721103 
C 83.027066 76.302773 82.700242 77.091798 82.700242 77.914403 
C 82.700242 78.737009 83.027066 79.526033 83.608736 80.107703 
C 84.190406 80.689373 84.97943 81.016197 85.802036 81.016197 
z
" clip-path="url(#p74b32ab8b4)" style="fill: #777777; stroke: #000000; stroke-width: 0.886227"/>
    <path d="M 89.56948 65.81366 
C 90.392085 65.81366 91.18111 65.486836 91.76278 64.905166 
C 92.344449 64.323496 92.671274 63.534471 92.671274 62.711866 
C 92.671274 61.889261 92.344449 61.100236 91.76278 60.518566 
C 91.18111 59.936896 90.392085 59.610072 89.56948 59.610072 
C 88.746874 59.610072 87.95785 59.936896 87.37618 60.518566 
C 86.79451 61.100236 86.467686 61.889261 86.467686 62.711866 
C 86.467686 63.534471 86.79451 64.323496 87.37618 64.905166 
C 87.95785 65.486836 88.746874 65.81366 89.56948 65.81366 
z
" clip-path="url(#p74b32ab8b4)" style="fill: #777777; stroke: #000000; stroke-width: 0.886227"/>
    <path d="M 98.738114 61.907303 
C 99.56072 61.907303 100.349744 61.580478 100.931414 60.998808 
C 101.513084 60.417138 101.839908 59.628114 101.839908 58.805508 
C 101.839908 57.982903 101.513084 57.193879 100.931414 56.612209 
C 100.349744 56.030539 99.56072 55.703714 98.738114 55.703714 
C 97.915509 55.703714 97.126484 56.030539 96.544814 56.612209 
C 95.963145 57.193879 95.63632 57.982903 95.63632 58.805508 
C 95.63632 59.628114 95.963145 60.417138 96.544814 60.998808 
C 97.126484 61.580478 97.915509 61.907303 98.738114 61.907303 
z
" clip-path="url(#p74b32ab8b4)" style="fill: #777777; stroke: #000000; stroke-width: 0.886227"/>
    <path d="M 88.03846 57.1819 
C 88.861066 57.1819 89.65009 56.855076 90.23176 56.273406 
C 90.81343 55.691736 91.140254 54.902712 91.140254 54.080106 
C 91.140254 53.257501 90.81343 52.468476 90.23176 51.886806 
C 89.65009 51.305137 88.861066 50.978312 88.03846 50.978312 
C 87.215855 50.978312 86.42683 51.305137 85.84516 51.886806 
C 85.26349 52.468476 84.936666 53.257501 84.936666 54.080106 
C 84.936666 54.902712 85.26349 55.691736 85.84516 56.273406 
C 86.42683 56.855076 87.215855 57.1819 88.03846 57.1819 
z
" clip-path="url(#p74b32ab8b4)" style="fill: #777777; stroke: #000000; stroke-width: 0.886227"/>
    <path d="M 93.254096 68.76366 
C 94.076702 68.76366 94.865726 68.436835 95.447396 67.855165 
C 96.029066 67.273495 96.35589 66.484471 96.35589 65.661865 
C 96.35589 64.83926 96.029066 64.050236 95.447396 63.468566 
C 94.865726 62.886896 94.076702 62.560071 93.254096 62.560071 
C 92.431491 62.560071 91.642466 62.886896 91.060796 63.468566 
C 90.479127 64.050236 90.152302 64.83926 90.152302 65.661865 
C 90.152302 66.484471 90.479127 67.273495 91.060796 67.855165 
C 91.642466 68.436835 92.431491 68.76366 93.254096 68.76366 
z
" clip-path="url(#p74b32ab8b4)" style="fill: #777777; stroke: #000000; stroke-width: 0.886227"/>
    <path d="M 97.191588 80.887201 
C 98.014194 80.887201 98.803218 80.560376 99.384888 79.978706 
C 99.966558 79.397037 100.293383 78.608012 100.293383 77.785407 
C 100.293383 76.962801 99.966558 76.173777 99.384888 75.592107 
C 98.803218 75.010437 98.014194 74.683612 97.191588 74.683612 
C 96.368983 74.683612 95.579958 75.010437 94.998289 75.592107 
C 94.416619 76.173777 94.089794 76.962801 94.089794 77.785407 
C 94.089794 78.608012 94.416619 79.397037 94.998289 79.978706 
C 95.579958 80.560376 96.368983 80.887201 97.191588 80.887201 
z
" clip-path="url(#p74b32ab8b4)" style="fill: #777777; stroke: #000000; stroke-width: 0.886227"/>
    <path d="M 97.072711 73.541174 
C 97.895317 73.541174 98.684341 73.21435 99.266011 72.63268 
C 99.847681 72.05101 100.174505 71.261986 100.174505 70.43938 
C 100.174505 69.616775 99.847681 68.82775 99.266011 68.24608 
C 98.684341 67.66441 97.895317 67.337586 97.072711 67.337586 
C 96.250106 67.337586 95.461081 67.66441 94.879411 68.24608 
C 94.297741 68.82775 93.970917 69.616775 93.970917 70.43938 
C 93.970917 71.261986 94.297741 72.05101 94.879411 72.63268 
C 95.461081 73.21435 96.250106 73.541174 97.072711 73.541174 
z
" clip-path="url(#p74b32ab8b4)" style="fill: #777777; stroke: #000000; stroke-width: 0.886227"/>
    <path d="M 97.252585 81.457306 
C 98.07519 81.457306 98.864214 81.130481 99.445884 80.548812 
C 100.027554 79.967142 100.354379 79.178117 100.354379 78.355512 
C 100.354379 77.532906 100.027554 76.743882 99.445884 76.162212 
C 98.864214 75.580542 98.07519 75.253718 97.252585 75.253718 
C 96.429979 75.253718 95.640955 75.580542 95.059285 76.162212 
C 94.477615 76.743882 94.15079 77.532906 94.15079 78.355512 
C 94.15079 79.178117 94.477615 79.967142 95.059285 80.548812 
C 95.640955 81.130481 96.429979 81.457306 97.252585 81.457306 
z
" clip-path="url(#p74b32ab8b4)" style="fill: #777777; stroke: #000000; stroke-width: 0.886227"/>
    <path d="M 89.390243 50.922251 
C 90.212849 50.922251 91.001873 50.595427 91.583543 50.013757 
C 92.165213 49.432087 92.492037 48.643062 92.492037 47.820457 
C 92.492037 46.997851 92.165213 46.208827 91.583543 45.627157 
C 91.001873 45.045487 90.212849 44.718663 89.390243 44.718663 
C 88.567638 44.718663 87.778613 45.045487 87.196943 45.627157 
C 86.615273 46.208827 86.288449 46.997851 86.288449 47.820457 
C 86.288449 48.643062 86.615273 49.432087 87.196943 50.013757 
C 87.778613 50.595427 88.567638 50.922251 89.390243 50.922251 
z
" clip-path="url(#p74b32ab8b4)" style="fill: #777777; stroke: #000000; stroke-width: 0.886227"/>
    <path d="M 84.150793 41.568449 
C 84.973399 41.568449 85.762423 41.241624 86.344093 40.659954 
C 86.925763 40.078284 87.252587 39.28926 87.252587 38.466654 
C 87.252587 37.644049 86.925763 36.855025 86.344093 36.273355 
C 85.762423 35.691685 84.973399 35.36486 84.150793 35.36486 
C 83.328188 35.36486 82.539163 35.691685 81.957493 36.273355 
C 81.375824 36.855025 81.048999 37.644049 81.048999 38.466654 
C 81.048999 39.28926 81.375824 40.078284 81.957493 40.659954 
C 82.539163 41.241624 83.328188 41.568449 84.150793 41.568449 
z
" clip-path="url(#p74b32ab8b4)" style="fill: #777777; stroke: #000000; stroke-width: 0.886227"/>
    <path d="M 90.764837 69.250229 
C 91.587442 69.250229 92.376467 68.923404 92.958137 68.341735 
C 93.539806 67.760065 93.866631 66.97104 93.866631 66.148435 
C 93.866631 65.325829 93.539806 64.536805 92.958137 63.955135 
C 92.376467 63.373465 91.587442 63.046641 90.764837 63.046641 
C 89.942231 63.046641 89.153207 63.373465 88.571537 63.955135 
C 87.989867 64.536805 87.663043 65.325829 87.663043 66.148435 
C 87.663043 66.97104 87.989867 67.760065 88.571537 68.341735 
C 89.153207 68.923404 89.942231 69.250229 90.764837 69.250229 
z
" clip-path="url(#p74b32ab8b4)" style="fill: #777777; stroke: #000000; stroke-width: 0.886227"/>
    <path d="M 88.359821 44.868778 
C 89.182426 44.868778 89.97145 44.541953 90.55312 43.960283 
C 91.13479 43.378614 91.461615 42.589589 91.461615 41.766984 
C 91.461615 40.944378 91.13479 40.155354 90.55312 39.573684 
C 89.97145 38.992014 89.182426 38.665189 88.359821 38.665189 
C 87.537215 38.665189 86.748191 38.992014 86.166521 39.573684 
C 85.584851 40.155354 85.258026 40.944378 85.258026 41.766984 
C 85.258026 42.589589 85.584851 43.378614 86.166521 43.960283 
C 86.748191 44.541953 87.537215 44.868778 88.359821 44.868778 
z
" clip-path="url(#p74b32ab8b4)" style="fill: #777777; stroke: #000000; stroke-width: 0.886227"/>
    <path d="M 174.81998 66.857344 
C 175.642586 66.857344 176.43161 66.53052 177.01328 65.94885 
C 177.59495 65.36718 177.921775 64.578156 177.921775 63.75555 
C 177.921775 62.932945 177.59495 62.14392 177.01328 61.56225 
C 176.43161 60.98058 175.642586 60.653756 174.81998 60.653756 
C 173.997375 60.653756 173.208351 60.98058 172.626681 61.56225 
C 172.045011 62.14392 171.718186 62.932945 171.718186 63.75555 
C 171.718186 64.578156 172.045011 65.36718 172.626681 65.94885 
C 173.208351 66.53052 173.997375 66.857344 174.81998 66.857344 
z
" clip-path="url(#p74b32ab8b4)" style="fill: #777777; stroke: #000000; stroke-width: 0.886227"/>
    <path d="M 169.757547 45.891973 
C 170.580153 45.891973 171.369177 45.565149 171.950847 44.983479 
C 172.532517 44.401809 172.859342 43.612785 172.859342 42.790179 
C 172.859342 41.967574 172.532517 41.178549 171.950847 40.596879 
C 171.369177 40.015209 170.580153 39.688385 169.757547 39.688385 
C 168.934942 39.688385 168.145917 40.015209 167.564248 40.596879 
C 166.982578 41.178549 166.655753 41.967574 166.655753 42.790179 
C 166.655753 43.612785 166.982578 44.401809 167.564248 44.983479 
C 168.145917 45.565149 168.934942 45.891973 169.757547 45.891973 
z
" clip-path="url(#p74b32ab8b4)" style="fill: #777777; stroke: #000000; stroke-width: 0.886227"/>
   </g>
  </g>
  <g id="patch_4">
   <path d="M 37.19449 153.85184 
L 230.94 153.85184 
L 230.94 9.466667 
L 37.19449 9.466667 
L 37.19449 153.85184 
z
" style="fill: none; stroke: #000000; stroke-width: 0.7; stroke-linejoin: miter"/>
  </g>
  <g id="text_7">
   <!-- Glycine position -->
   <g transform="translate(109.292714 173.439271) scale(0.07 -0.07)">
    <defs>
     <path id="Roboto-Regular-47" d="M 3891 2266 
L 3891 600 
Q 3763 413 3403 175 
Q 3044 -63 2281 -63 
Q 1450 -63 915 507 
Q 381 1078 381 2100 
L 381 2453 
Q 381 3469 856 4041 
Q 1331 4613 2213 4613 
Q 2994 4613 3398 4219 
Q 3803 3825 3891 3219 
L 3288 3219 
Q 3225 3588 2979 3853 
Q 2734 4119 2213 4119 
Q 1584 4119 1287 3676 
Q 991 3234 988 2475 
L 988 2100 
Q 988 1313 1344 870 
Q 1700 428 2284 428 
Q 2769 428 2984 542 
Q 3200 656 3291 759 
L 3291 1778 
L 2238 1778 
L 2238 2266 
L 3891 2266 
z
" transform="scale(0.015625)"/>
     <path id="Roboto-Regular-6c" d="M 1069 4800 
L 1069 0 
L 488 0 
L 488 4800 
L 1069 4800 
z
" transform="scale(0.015625)"/>
     <path id="Roboto-Regular-79" d="M 1594 -522 
Q 1294 -1316 688 -1363 
L 591 -1366 
Q 406 -1366 266 -1316 
L 263 -847 
L 419 -859 
Q 713 -859 878 -739 
Q 1044 -619 1150 -306 
L 1275 38 
L 69 3381 
L 700 3381 
L 1547 850 
L 2331 3381 
L 2950 3381 
L 1594 -522 
z
" transform="scale(0.015625)"/>
     <path id="Roboto-Regular-63" d="M 1794 413 
Q 2103 413 2336 597 
Q 2569 781 2591 1069 
L 3141 1069 
Q 3119 616 2725 276 
Q 2331 -63 1794 -63 
Q 1031 -63 661 440 
Q 291 944 291 1625 
L 291 1756 
Q 291 2438 661 2941 
Q 1031 3444 1794 3444 
Q 2388 3444 2753 3092 
Q 3119 2741 3141 2219 
L 2591 2219 
Q 2569 2531 2355 2750 
Q 2141 2969 1794 2969 
Q 1438 2969 1236 2787 
Q 1034 2606 951 2328 
Q 869 2050 869 1756 
L 869 1625 
Q 869 1328 950 1050 
Q 1031 772 1232 592 
Q 1434 413 1794 413 
z
" transform="scale(0.015625)"/>
     <path id="Roboto-Regular-69" d="M 444 4278 
Q 444 4419 530 4516 
Q 616 4613 784 4613 
Q 950 4613 1039 4516 
Q 1128 4419 1128 4278 
Q 1128 4144 1039 4048 
Q 950 3953 784 3953 
Q 616 3953 530 4048 
Q 444 4144 444 4278 
z
M 1069 3381 
L 1069 0 
L 488 0 
L 488 3381 
L 1069 3381 
z
" transform="scale(0.015625)"/>
     <path id="Roboto-Regular-6e" d="M 1844 2956 
Q 1566 2956 1353 2806 
Q 1141 2656 1019 2416 
L 1019 0 
L 441 0 
L 441 3381 
L 988 3381 
L 1006 2959 
Q 1391 3444 2016 3444 
Q 2513 3444 2805 3166 
Q 3097 2888 3100 2231 
L 3100 0 
L 2519 0 
L 2519 2222 
Q 2519 2619 2345 2787 
Q 2172 2956 1844 2956 
z
" transform="scale(0.015625)"/>
     <path id="Roboto-Regular-65" d="M 3116 591 
Q 2950 341 2647 139 
Q 2344 -63 1844 -63 
Q 1138 -63 714 396 
Q 291 856 291 1572 
L 291 1703 
Q 291 2256 502 2645 
Q 713 3034 1050 3239 
Q 1388 3444 1769 3444 
Q 2494 3444 2826 2970 
Q 3159 2497 3159 1788 
L 3159 1528 
L 872 1528 
Q 884 1063 1148 736 
Q 1413 409 1875 409 
Q 2181 409 2393 534 
Q 2606 659 2766 869 
L 3116 591 
z
M 1769 2969 
Q 1425 2969 1187 2719 
Q 950 2469 891 2000 
L 2581 2000 
L 2581 2044 
Q 2559 2381 2386 2675 
Q 2213 2969 1769 2969 
z
" transform="scale(0.015625)"/>
     <path id="Roboto-Regular-20" transform="scale(0.015625)"/>
     <path id="Roboto-Regular-70" d="M 1984 -63 
Q 1375 -63 1019 328 
L 1019 -1300 
L 438 -1300 
L 438 3381 
L 969 3381 
L 997 3009 
Q 1353 3444 1975 3444 
Q 2616 3444 2956 2969 
Q 3297 2494 3297 1719 
L 3297 1653 
Q 3297 913 2955 425 
Q 2613 -63 1984 -63 
z
M 1806 2956 
Q 1281 2956 1019 2491 
L 1019 872 
Q 1284 413 1813 413 
Q 2281 413 2498 781 
Q 2716 1150 2716 1653 
L 2716 1719 
Q 2716 2222 2498 2589 
Q 2281 2956 1806 2956 
z
" transform="scale(0.015625)"/>
     <path id="Roboto-Regular-6f" d="M 288 1725 
Q 288 2459 700 2951 
Q 1113 3444 1822 3444 
Q 2531 3444 2943 2961 
Q 3356 2478 3366 1756 
L 3366 1653 
Q 3366 919 2952 428 
Q 2538 -63 1828 -63 
Q 1116 -63 702 428 
Q 288 919 288 1653 
L 288 1725 
z
M 866 1653 
Q 866 1150 1105 781 
Q 1344 413 1828 413 
Q 2300 413 2540 777 
Q 2781 1141 2784 1644 
L 2784 1725 
Q 2784 2222 2543 2595 
Q 2303 2969 1822 2969 
Q 1344 2969 1105 2595 
Q 866 2222 866 1725 
L 866 1653 
z
" transform="scale(0.015625)"/>
     <path id="Roboto-Regular-73" d="M 2409 897 
Q 2409 1081 2273 1229 
Q 2138 1378 1647 1478 
Q 1081 1594 747 1814 
Q 413 2034 413 2456 
Q 413 2856 755 3150 
Q 1097 3444 1666 3444 
Q 2272 3444 2612 3134 
Q 2953 2825 2953 2388 
L 2375 2388 
Q 2375 2597 2190 2783 
Q 2006 2969 1666 2969 
Q 1306 2969 1150 2812 
Q 994 2656 994 2472 
Q 994 2288 1139 2173 
Q 1284 2059 1756 1953 
Q 2378 1813 2683 1584 
Q 2988 1356 2988 941 
Q 2988 494 2630 215 
Q 2272 -63 1681 -63 
Q 1009 -63 653 281 
Q 297 625 297 1044 
L 878 1044 
Q 897 684 1155 548 
Q 1413 413 1681 413 
Q 2034 413 2221 550 
Q 2409 688 2409 897 
z
" transform="scale(0.015625)"/>
     <path id="Roboto-Regular-74" d="M 1872 0 
Q 1675 -63 1425 -63 
Q 1103 -63 875 134 
Q 647 331 647 841 
L 647 2938 
L 28 2938 
L 28 3381 
L 647 3381 
L 647 4203 
L 1225 4203 
L 1225 3381 
L 1856 3381 
L 1856 2938 
L 1225 2938 
L 1225 838 
Q 1225 578 1337 506 
Q 1450 434 1597 434 
Q 1706 434 1869 472 
L 1872 0 
z
" transform="scale(0.015625)"/>
    </defs>
    <use xlink:href="#Roboto-Regular-47"/>
    <use xlink:href="#Roboto-Regular-6c" transform="translate(68.115234 0)"/>
    <use xlink:href="#Roboto-Regular-79" transform="translate(92.431641 0)"/>
    <use xlink:href="#Roboto-Regular-63" transform="translate(139.746094 0)"/>
    <use xlink:href="#Roboto-Regular-69" transform="translate(192.089844 0)"/>
    <use xlink:href="#Roboto-Regular-6e" transform="translate(216.40625 0)"/>
    <use xlink:href="#Roboto-Regular-65" transform="translate(271.630859 0)"/>
    <use xlink:href="#Roboto-Regular-20" transform="translate(324.658203 0)"/>
    <use xlink:href="#Roboto-Regular-70" transform="translate(349.462891 0)"/>
    <use xlink:href="#Roboto-Regular-6f" transform="translate(405.615234 0)"/>
    <use xlink:href="#Roboto-Regular-73" transform="translate(462.646484 0)"/>
    <use xlink:href="#Roboto-Regular-69" transform="translate(514.257812 0)"/>
    <use xlink:href="#Roboto-Regular-74" transform="translate(538.574219 0)"/>
    <use xlink:href="#Roboto-Regular-69" transform="translate(571.289062 0)"/>
    <use xlink:href="#Roboto-Regular-6f" transform="translate(595.605469 0)"/>
    <use xlink:href="#Roboto-Regular-6e" transform="translate(652.636719 0)"/>
   </g>
  </g>
  <g id="text_8">
   <!-- $\Delta$G (kJ/mol) -->
   <g transform="translate(15.13 100.804253) rotate(-90) scale(0.07 -0.07)">
    <defs>
     <path id="DejaVuSans-394" d="M 2188 4044 
L 906 525 
L 3472 525 
L 2188 4044 
z
M 50 0 
L 1831 4666 
L 2547 4666 
L 4325 0 
L 50 0 
z
" transform="scale(0.015625)"/>
     <path id="Roboto-Regular-28" d="M 419 1850 
Q 419 2756 678 3434 
Q 938 4113 1294 4541 
Q 1650 4969 1947 5134 
L 2069 4753 
Q 1700 4475 1348 3761 
Q 997 3047 997 1813 
Q 997 625 1348 -97 
Q 1700 -819 2069 -1119 
L 1947 -1469 
Q 1650 -1306 1294 -878 
Q 938 -450 678 226 
Q 419 903 419 1850 
z
" transform="scale(0.015625)"/>
     <path id="Roboto-Regular-6b" d="M 2559 0 
L 1388 1569 
L 1022 1191 
L 1022 0 
L 441 0 
L 441 4800 
L 1022 4800 
L 1022 1900 
L 1331 2269 
L 2381 3381 
L 3088 3381 
L 1769 1972 
L 3241 0 
L 2559 0 
z
" transform="scale(0.015625)"/>
     <path id="Roboto-Regular-4a" d="M 2438 4550 
L 3038 4550 
L 3038 1328 
Q 3038 653 2633 295 
Q 2228 -63 1603 -63 
Q 975 -63 570 262 
Q 166 588 166 1259 
L 769 1259 
Q 769 828 1001 628 
Q 1234 428 1603 428 
Q 1959 428 2198 656 
Q 2438 884 2438 1328 
L 2438 4550 
z
" transform="scale(0.015625)"/>
     <path id="Roboto-Regular-2f" d="M 2453 4550 
L 556 -391 
L 59 -391 
L 1959 4550 
L 2453 4550 
z
" transform="scale(0.015625)"/>
     <path id="Roboto-Regular-6d" d="M 1794 2956 
Q 1225 2956 1016 2478 
L 1016 0 
L 434 0 
L 434 3381 
L 984 3381 
L 1000 3013 
Q 1366 3444 2000 3444 
Q 2325 3444 2579 3314 
Q 2834 3184 2969 2900 
Q 3138 3144 3408 3294 
Q 3678 3444 4044 3444 
Q 4588 3444 4883 3153 
Q 5178 2863 5178 2222 
L 5178 0 
L 4597 0 
L 4597 2228 
Q 4597 2653 4401 2804 
Q 4206 2956 3875 2956 
Q 3525 2956 3325 2748 
Q 3125 2541 3094 2244 
L 3094 0 
L 2516 0 
L 2516 2225 
Q 2516 2622 2319 2789 
Q 2122 2956 1794 2956 
z
" transform="scale(0.015625)"/>
     <path id="Roboto-Regular-29" d="M 1772 1819 
Q 1772 906 1512 228 
Q 1253 -450 895 -878 
Q 538 -1306 244 -1469 
L 122 -1119 
Q 488 -841 841 -109 
Q 1194 622 1194 1856 
Q 1194 2647 1019 3236 
Q 844 3825 594 4212 
Q 344 4600 122 4781 
L 244 5134 
Q 538 4969 895 4541 
Q 1253 4113 1512 3436 
Q 1772 2759 1772 1819 
z
" transform="scale(0.015625)"/>
    </defs>
    <use xlink:href="#DejaVuSans-394" transform="translate(0 0.78125)"/>
    <use xlink:href="#Roboto-Regular-47" transform="translate(68.408203 0.78125)"/>
    <use xlink:href="#Roboto-Regular-20" transform="translate(136.523438 0.78125)"/>
    <use xlink:href="#Roboto-Regular-28" transform="translate(161.328125 0.78125)"/>
    <use xlink:href="#Roboto-Regular-6b" transform="translate(195.556641 0.78125)"/>
    <use xlink:href="#Roboto-Regular-4a" transform="translate(246.240234 0.78125)"/>
    <use xlink:href="#Roboto-Regular-2f" transform="translate(301.416016 0.78125)"/>
    <use xlink:href="#Roboto-Regular-6d" transform="translate(342.675781 0.78125)"/>
    <use xlink:href="#Roboto-Regular-6f" transform="translate(430.371094 0.78125)"/>
    <use xlink:href="#Roboto-Regular-6c" transform="translate(487.402344 0.78125)"/>
    <use xlink:href="#Roboto-Regular-29" transform="translate(511.71875 0.78125)"/>
   </g>
  </g>
 </g>
 <defs>
  <clipPath id="p74b32ab8b4">
   <rect x="37.19449" y="9.466667" width="193.74551" height="144.385174"/>
  </clipPath>
 </defs>
</svg>
