<?xml version="1.0" encoding="utf-8" standalone="no"?>
<!DOCTYPE svg PUBLIC "-//W3C//DTD SVG 1.1//EN"
  "http://www.w3.org/Graphics/SVG/1.1/DTD/svg11.dtd">
<svg xmlns:xlink="http://www.w3.org/1999/xlink" width="241.171653pt" height="184.47874pt" viewBox="0 0 241.171653 184.47874" xmlns="http://www.w3.org/2000/svg" version="1.1">
 <metadata>
  <rdf:RDF xmlns:dc="http://purl.org/dc/elements/1.1/" xmlns:cc="http://creativecommons.org/ns#" xmlns:rdf="http://www.w3.org/1999/02/22-rdf-syntax-ns#">
   <cc:Work>
    <dc:type rdf:resource="http://purl.org/dc/dcmitype/StillImage"/>
    <dc:date>2026-05-05T16:47:05.397102</dc:date>
    <dc:format>image/svg+xml</dc:format>
    <dc:creator>
     <cc:Agent>
      <dc:title>Matplotlib v3.10.6, https://matplotlib.org/</dc:title>
     </cc:Agent>
    </dc:creator>
   </cc:Work>
  </rdf:RDF>
 </metadata>
 <defs>
  <style type="text/css">*{stroke-linejoin: round; stroke-linecap: butt}</style>
 </defs>
 <g id="figure_1">
  <g id="patch_1">
   <path d="M 0 184.47874 
L 241.171653 184.47874 
L 241.171653 0 
L 0 0 
z
" style="fill: #ffffff"/>
  </g>
  <g id="patch_2">
   <path d="M 7.2 177.27874 
L 233.971653 177.27874 
L 233.971653 7.2 
L 7.2 7.2 
L 7.2 177.27874 
z
" style="fill: none; stroke: #ffffff; stroke-width: 0.7; stroke-linejoin: miter"/>
  </g>
  <g id="axes_1">
   <g id="patch_3">
    <path d="M 34.521996 152.999557 
L 231.703937 152.999557 
L 231.703937 50.263929 
L 34.521996 50.263929 
z
" style="fill: #ffffff"/>
   </g>
   <g id="matplotlib.axis_1">
    <g id="xtick_1">
     <g id="line2d_1">
      <defs>
       <path id="m8fbb6061c0" d="M 0 1.5 
L 0 -1.5 
" style="stroke: #000000; stroke-width: 0.7"/>
      </defs>
      <g>
       <use xlink:href="#m8fbb6061c0" x="43.484811" y="152.999557" style="stroke: #000000; stroke-width: 0.7"/>
      </g>
     </g>
     <g id="text_1">
      <!-- 0.1 -->
      <g transform="translate(38.627467 162.149557) scale(0.07 -0.07)">
       <defs>
        <path id="Roboto-Regular-30" d="M 3234 1944 
Q 3234 825 2848 381 
Q 2463 -63 1800 -63 
Q 1156 -63 764 368 
Q 372 800 359 1872 
L 359 2638 
Q 359 3753 750 4183 
Q 1141 4613 1794 4613 
Q 2447 4613 2834 4195 
Q 3222 3778 3234 2709 
L 3234 1944 
z
M 2653 2734 
Q 2653 3503 2434 3822 
Q 2216 4141 1794 4141 
Q 1388 4141 1167 3831 
Q 947 3522 941 2778 
L 941 1850 
Q 941 1088 1164 750 
Q 1388 413 1800 413 
Q 2222 413 2436 745 
Q 2650 1078 2653 1825 
L 2653 2734 
z
" transform="scale(0.015625)"/>
        <path id="Roboto-Regular-2e" d="M 450 306 
Q 450 453 542 554 
Q 634 656 809 656 
Q 984 656 1076 554 
Q 1169 453 1169 306 
Q 1169 163 1076 62 
Q 984 -38 809 -38 
Q 634 -38 542 62 
Q 450 163 450 306 
z
" transform="scale(0.015625)"/>
        <path id="Roboto-Regular-31" d="M 2278 4575 
L 2278 0 
L 1700 0 
L 1700 3853 
L 534 3428 
L 534 3950 
L 2188 4575 
L 2278 4575 
z
" transform="scale(0.015625)"/>
       </defs>
       <use xlink:href="#Roboto-Regular-30"/>
       <use xlink:href="#Roboto-Regular-2e" transform="translate(56.201172 0)"/>
       <use xlink:href="#Roboto-Regular-31" transform="translate(82.568359 0)"/>
      </g>
     </g>
    </g>
    <g id="xtick_2">
     <g id="line2d_2">
      <g>
       <use xlink:href="#m8fbb6061c0" x="88.298889" y="152.999557" style="stroke: #000000; stroke-width: 0.7"/>
      </g>
     </g>
     <g id="text_2">
      <!-- 0.2 -->
      <g transform="translate(83.441545 162.149557) scale(0.07 -0.07)">
       <defs>
        <path id="Roboto-Regular-32" d="M 3359 475 
L 3359 0 
L 381 0 
L 381 416 
L 1925 2134 
Q 2306 2566 2439 2819 
Q 2572 3072 2572 3328 
Q 2572 3663 2364 3900 
Q 2156 4138 1778 4138 
Q 1322 4138 1097 3878 
Q 872 3619 872 3213 
L 294 3213 
Q 294 3788 672 4200 
Q 1050 4613 1778 4613 
Q 2422 4613 2786 4278 
Q 3150 3944 3150 3397 
Q 3150 2997 2903 2592 
Q 2656 2188 2297 1797 
L 1078 475 
L 3359 475 
z
" transform="scale(0.015625)"/>
       </defs>
       <use xlink:href="#Roboto-Regular-30"/>
       <use xlink:href="#Roboto-Regular-2e" transform="translate(56.201172 0)"/>
       <use xlink:href="#Roboto-Regular-32" transform="translate(82.568359 0)"/>
      </g>
     </g>
    </g>
    <g id="xtick_3">
     <g id="line2d_3">
      <g>
       <use xlink:href="#m8fbb6061c0" x="133.112966" y="152.999557" style="stroke: #000000; stroke-width: 0.7"/>
      </g>
     </g>
     <g id="text_3">
      <!-- 0.3 -->
      <g transform="translate(128.255622 162.149557) scale(0.07 -0.07)">
       <defs>
        <path id="Roboto-Regular-33" d="M 1222 2084 
L 1222 2559 
L 1647 2559 
Q 2094 2563 2312 2784 
Q 2531 3006 2531 3338 
Q 2531 4138 1738 4138 
Q 1369 4138 1141 3927 
Q 913 3716 913 3359 
L 334 3359 
Q 334 3881 720 4247 
Q 1106 4613 1738 4613 
Q 2353 4613 2733 4286 
Q 3113 3959 3113 3325 
Q 3113 3072 2942 2784 
Q 2772 2497 2397 2338 
Q 2850 2191 3015 1884 
Q 3181 1578 3181 1269 
Q 3181 631 2768 284 
Q 2356 -63 1741 -63 
Q 1147 -63 722 267 
Q 297 597 297 1203 
L 875 1203 
Q 875 844 1108 628 
Q 1341 413 1741 413 
Q 2138 413 2369 622 
Q 2600 831 2600 1256 
Q 2600 1681 2337 1882 
Q 2075 2084 1634 2084 
L 1222 2084 
z
" transform="scale(0.015625)"/>
       </defs>
       <use xlink:href="#Roboto-Regular-30"/>
       <use xlink:href="#Roboto-Regular-2e" transform="translate(56.201172 0)"/>
       <use xlink:href="#Roboto-Regular-33" transform="translate(82.568359 0)"/>
      </g>
     </g>
    </g>
    <g id="xtick_4">
     <g id="line2d_4">
      <g>
       <use xlink:href="#m8fbb6061c0" x="177.927044" y="152.999557" style="stroke: #000000; stroke-width: 0.7"/>
      </g>
     </g>
     <g id="text_4">
      <!-- 0.4 -->
      <g transform="translate(173.0697 162.149557) scale(0.07 -0.07)">
       <defs>
        <path id="Roboto-Regular-34" d="M 166 1397 
L 2203 4550 
L 2819 4550 
L 2819 1531 
L 3453 1531 
L 3453 1056 
L 2819 1056 
L 2819 0 
L 2241 0 
L 2241 1056 
L 166 1056 
L 166 1397 
z
M 822 1531 
L 2241 1531 
L 2241 3766 
L 2169 3638 
L 822 1531 
z
" transform="scale(0.015625)"/>
       </defs>
       <use xlink:href="#Roboto-Regular-30"/>
       <use xlink:href="#Roboto-Regular-2e" transform="translate(56.201172 0)"/>
       <use xlink:href="#Roboto-Regular-34" transform="translate(82.568359 0)"/>
      </g>
     </g>
    </g>
    <g id="xtick_5">
     <g id="line2d_5">
      <g>
       <use xlink:href="#m8fbb6061c0" x="222.741121" y="152.999557" style="stroke: #000000; stroke-width: 0.7"/>
      </g>
     </g>
     <g id="text_5">
      <!-- 0.5 -->
      <g transform="translate(217.883778 162.149557) scale(0.07 -0.07)">
       <defs>
        <path id="Roboto-Regular-35" d="M 1109 2166 
L 647 2284 
L 875 4550 
L 3209 4550 
L 3209 4016 
L 1366 4016 
L 1228 2778 
Q 1572 2975 1988 2975 
Q 2616 2975 2980 2561 
Q 3344 2147 3344 1450 
Q 3344 797 2987 367 
Q 2631 -63 1903 -63 
Q 1350 -63 947 248 
Q 544 559 481 1197 
L 1031 1197 
Q 1141 413 1903 413 
Q 2313 413 2538 691 
Q 2763 969 2763 1444 
Q 2763 1872 2527 2164 
Q 2291 2456 1853 2456 
Q 1563 2456 1413 2378 
Q 1263 2300 1109 2166 
z
" transform="scale(0.015625)"/>
       </defs>
       <use xlink:href="#Roboto-Regular-30"/>
       <use xlink:href="#Roboto-Regular-2e" transform="translate(56.201172 0)"/>
       <use xlink:href="#Roboto-Regular-35" transform="translate(82.568359 0)"/>
      </g>
     </g>
    </g>
    <g id="xtick_6">
     <g id="line2d_6">
      <defs>
       <path id="m5656bd0366" d="M 0 2 
L 0 -2 
" style="stroke: #000000; stroke-width: 0.7"/>
      </defs>
      <g>
       <use xlink:href="#m5656bd0366" x="65.89185" y="152.999557" style="stroke: #000000; stroke-width: 0.7"/>
      </g>
     </g>
    </g>
    <g id="xtick_7">
     <g id="line2d_7">
      <g>
       <use xlink:href="#m5656bd0366" x="110.705927" y="152.999557" style="stroke: #000000; stroke-width: 0.7"/>
      </g>
     </g>
    </g>
    <g id="xtick_8">
     <g id="line2d_8">
      <g>
       <use xlink:href="#m5656bd0366" x="155.520005" y="152.999557" style="stroke: #000000; stroke-width: 0.7"/>
      </g>
     </g>
    </g>
    <g id="xtick_9">
     <g id="line2d_9">
      <g>
       <use xlink:href="#m5656bd0366" x="200.334082" y="152.999557" style="stroke: #000000; stroke-width: 0.7"/>
      </g>
     </g>
    </g>
   </g>
   <g id="matplotlib.axis_2">
    <g id="ytick_1">
     <g id="line2d_10">
      <defs>
       <path id="m747380caa1" d="M 1.5 0 
L -1.5 -0 
" style="stroke: #000000; stroke-width: 0.7"/>
      </defs>
      <g>
       <use xlink:href="#m747380caa1" x="34.521996" y="143.749833" style="stroke: #000000; stroke-width: 0.7"/>
      </g>
     </g>
     <g id="text_6">
      <!-- 0.0 -->
      <g transform="translate(20.907308 146.374833) scale(0.07 -0.07)">
       <use xlink:href="#Roboto-Regular-30"/>
       <use xlink:href="#Roboto-Regular-2e" transform="translate(56.201172 0)"/>
       <use xlink:href="#Roboto-Regular-30" transform="translate(82.568359 0)"/>
      </g>
     </g>
    </g>
    <g id="ytick_2">
     <g id="line2d_11">
      <g>
       <use xlink:href="#m747380caa1" x="34.521996" y="121.786632" style="stroke: #000000; stroke-width: 0.7"/>
      </g>
     </g>
     <g id="text_7">
      <!-- 0.5 -->
      <g transform="translate(20.907308 124.411632) scale(0.07 -0.07)">
       <use xlink:href="#Roboto-Regular-30"/>
       <use xlink:href="#Roboto-Regular-2e" transform="translate(56.201172 0)"/>
       <use xlink:href="#Roboto-Regular-35" transform="translate(82.568359 0)"/>
      </g>
     </g>
    </g>
    <g id="ytick_3">
     <g id="line2d_12">
      <g>
       <use xlink:href="#m747380caa1" x="34.521996" y="99.823431" style="stroke: #000000; stroke-width: 0.7"/>
      </g>
     </g>
     <g id="text_8">
      <!-- 1.0 -->
      <g transform="translate(20.907308 102.448431) scale(0.07 -0.07)">
       <use xlink:href="#Roboto-Regular-31"/>
       <use xlink:href="#Roboto-Regular-2e" transform="translate(56.201172 0)"/>
       <use xlink:href="#Roboto-Regular-30" transform="translate(82.568359 0)"/>
      </g>
     </g>
    </g>
    <g id="ytick_4">
     <g id="line2d_13">
      <g>
       <use xlink:href="#m747380caa1" x="34.521996" y="77.860229" style="stroke: #000000; stroke-width: 0.7"/>
      </g>
     </g>
     <g id="text_9">
      <!-- 1.5 -->
      <g transform="translate(20.907308 80.485229) scale(0.07 -0.07)">
       <use xlink:href="#Roboto-Regular-31"/>
       <use xlink:href="#Roboto-Regular-2e" transform="translate(56.201172 0)"/>
       <use xlink:href="#Roboto-Regular-35" transform="translate(82.568359 0)"/>
      </g>
     </g>
    </g>
    <g id="ytick_5">
     <g id="line2d_14">
      <g>
       <use xlink:href="#m747380caa1" x="34.521996" y="55.897028" style="stroke: #000000; stroke-width: 0.7"/>
      </g>
     </g>
     <g id="text_10">
      <!-- 2.0 -->
      <g transform="translate(20.907308 58.522028) scale(0.07 -0.07)">
       <use xlink:href="#Roboto-Regular-32"/>
       <use xlink:href="#Roboto-Regular-2e" transform="translate(56.201172 0)"/>
       <use xlink:href="#Roboto-Regular-30" transform="translate(82.568359 0)"/>
      </g>
     </g>
    </g>
    <g id="ytick_6">
     <g id="line2d_15">
      <defs>
       <path id="m6a3eeed8ae" d="M 2 0 
L -2 -0 
" style="stroke: #000000; stroke-width: 0.7"/>
      </defs>
      <g>
       <use xlink:href="#m6a3eeed8ae" x="34.521996" y="132.768232" style="stroke: #000000; stroke-width: 0.7"/>
      </g>
     </g>
    </g>
    <g id="ytick_7">
     <g id="line2d_16">
      <g>
       <use xlink:href="#m6a3eeed8ae" x="34.521996" y="110.805031" style="stroke: #000000; stroke-width: 0.7"/>
      </g>
     </g>
    </g>
    <g id="ytick_8">
     <g id="line2d_17">
      <g>
       <use xlink:href="#m6a3eeed8ae" x="34.521996" y="88.84183" style="stroke: #000000; stroke-width: 0.7"/>
      </g>
     </g>
    </g>
    <g id="ytick_9">
     <g id="line2d_18">
      <g>
       <use xlink:href="#m6a3eeed8ae" x="34.521996" y="66.878629" style="stroke: #000000; stroke-width: 0.7"/>
      </g>
     </g>
    </g>
   </g>
   <g id="line2d_19">
    <path d="M 56.929034 142.959158 
L 58.721597 125.00662 
L 60.514161 143.66198 
L 62.306724 143.486274 
L 64.099287 131.620022 
L 65.89185 142.08063 
L 67.684413 143.398422 
L 69.476976 130.659765 
L 71.269539 143.66198 
L 73.286173 140.762838 
L 75.302806 143.134863 
L 77.095369 143.749833 
L 78.887932 143.749833 
L 80.680495 143.749833 
L 82.473059 143.749833 
L 84.265622 143.749833 
L 86.058185 143.749833 
L 87.850748 143.749833 
L 89.643311 143.749833 
L 91.435874 143.749833 
L 93.228437 143.749833 
L 95.021 143.749833 
L 96.813563 143.749833 
L 98.606126 143.749833 
L 100.39869 143.749833 
L 102.191253 143.749833 
L 103.983816 143.749833 
L 106.000449 143.749833 
L 108.017083 143.749833 
L 109.809646 143.749833 
L 114.739194 143.749833 
L 123.029799 143.749833 
L 131.320403 143.749833 
L 139.386937 143.749833 
L 147.677541 143.749833 
L 155.968146 143.749833 
L 164.03468 143.749833 
L 172.325284 143.749833 
L 180.615888 143.653503 
L 188.682422 143.749833 
L 196.973027 143.749833 
L 205.263631 143.749833 
L 213.330165 143.749833 
L 221.620769 143.749833 
" clip-path="url(#pe709db786c)" style="fill: none; stroke: #c3006b; stroke-opacity: 0.298039; stroke-width: 0.886227"/>
   </g>
   <g id="line2d_20">
    <path d="M 56.929034 99.823431 
L 58.721597 99.91955 
L 60.514161 99.823431 
L 62.306724 99.823431 
L 64.099287 99.823431 
L 65.89185 99.823431 
L 67.684413 99.823431 
L 69.476976 99.823431 
L 71.269539 99.823431 
L 73.286173 99.823431 
L 75.302806 99.823431 
L 77.095369 55.897028 
L 78.887932 55.897028 
L 80.680495 55.897028 
L 82.473059 55.897028 
L 84.265622 55.897028 
L 86.058185 55.897028 
L 87.850748 55.897028 
L 89.643311 55.897028 
L 91.435874 55.897028 
L 93.228437 55.897028 
L 95.021 55.897028 
L 96.813563 63.540222 
L 98.606126 55.897028 
L 100.39869 55.897028 
L 102.191253 55.897028 
L 103.983816 55.897028 
L 106.000449 55.897028 
L 108.017083 55.897028 
L 109.809646 55.897028 
L 114.739194 55.897028 
L 123.029799 55.897028 
L 131.320403 55.897028 
L 139.386937 55.897028 
L 147.677541 55.897028 
L 155.968146 55.897028 
L 164.03468 55.897028 
L 172.325284 56.072734 
L 180.615888 54.93373 
L 188.682422 55.897028 
L 196.973027 55.897028 
L 205.263631 56.424145 
L 213.330165 57.390526 
L 221.620769 57.390526 
" clip-path="url(#pe709db786c)" style="fill: none; stroke: #003063; stroke-opacity: 0.298039; stroke-width: 0.886227"/>
   </g>
   <g id="line2d_21">
    <path d="M 56.929034 143.222716 
L 58.721597 141.817071 
L 60.514161 141.377807 
L 62.306724 103.337543 
L 64.099287 118.448225 
L 65.89185 143.398422 
L 67.684413 142.695599 
L 69.476976 143.749833 
L 71.269539 143.66198 
L 73.286173 143.04701 
L 75.302806 143.749833 
L 77.095369 143.749833 
L 78.887932 143.749833 
L 80.680495 143.486274 
L 82.473059 143.134863 
L 84.265622 143.749833 
L 86.058185 143.574127 
L 87.850748 143.749833 
L 89.643311 143.749833 
L 91.435874 143.749833 
L 93.228437 143.749833 
L 95.021 143.749833 
L 96.813563 143.749833 
L 98.830197 143.749833 
L 100.84683 143.749833 
L 102.639393 143.749833 
L 104.431957 143.749833 
L 106.22452 143.749833 
L 108.017083 143.749833 
L 109.809646 143.749833 
L 114.291054 143.749833 
L 121.461306 143.749833 
L 128.631558 143.749833 
L 135.57774 143.749833 
L 142.523922 143.749833 
L 149.694175 143.749833 
L 156.864427 143.749833 
L 164.03468 143.749833 
L 171.204932 143.749833 
L 178.151114 143.749833 
L 185.097296 143.749833 
L 192.267549 143.749833 
L 199.437801 143.749833 
L 206.608053 143.749833 
L 213.778306 143.749833 
L 220.948558 143.749833 
" clip-path="url(#pe709db786c)" style="fill: none; stroke: #c3006b; stroke-opacity: 0.298039; stroke-width: 0.886227"/>
   </g>
   <g id="line2d_22">
    <path d="M 56.929034 99.823431 
L 58.721597 99.823431 
L 60.514161 99.823431 
L 62.306724 99.823431 
L 64.099287 99.823431 
L 65.89185 99.823431 
L 67.684413 97.978522 
L 69.476976 60.377521 
L 71.269539 99.032755 
L 73.286173 99.120608 
L 75.302806 98.593491 
L 77.095369 92.531648 
L 78.887932 98.944903 
L 80.680495 98.944903 
L 82.473059 99.032755 
L 84.265622 99.120608 
L 86.058185 95.342938 
L 87.850748 97.890669 
L 89.643311 55.984881 
L 91.435874 55.897028 
L 93.228437 55.984881 
L 95.021 55.897028 
L 96.813563 55.897028 
L 98.830197 55.897028 
L 100.84683 56.248439 
L 102.639393 55.984881 
L 104.431957 55.897028 
L 106.22452 56.072734 
L 108.017083 55.897028 
L 109.809646 56.511998 
L 114.291054 55.897028 
L 121.461306 55.897028 
L 128.631558 55.897028 
L 135.57774 55.897028 
L 142.523922 55.897028 
L 149.694175 55.897028 
L 156.864427 55.897028 
L 164.03468 56.336292 
L 171.204932 59.498993 
L 178.151114 55.897028 
L 185.097296 55.897028 
L 192.267549 57.21482 
L 199.437801 55.897028 
L 206.608053 55.897028 
L 213.778306 55.897028 
L 220.948558 55.897028 
" clip-path="url(#pe709db786c)" style="fill: none; stroke: #003063; stroke-opacity: 0.298039; stroke-width: 0.886227"/>
   </g>
   <g id="line2d_23">
    <path d="M 51.775415 61.431755 
L 53.792049 99.823431 
L 55.808682 84.888454 
L 57.825316 99.823431 
L 59.841949 99.823431 
L 61.858583 99.823431 
L 63.875216 99.999136 
L 65.89185 99.999136 
L 67.908483 136.253411 
L 69.925117 126.354978 
L 71.71768 99.999136 
L 73.734313 99.999136 
L 75.750947 113.879879 
L 77.76758 128.639151 
L 79.784214 143.749833 
L 81.800847 143.749833 
L 83.817481 143.749833 
L 85.610044 143.749833 
L 87.626677 143.749833 
L 89.643311 143.749833 
L 91.659944 143.749833 
L 93.676578 143.749833 
L 95.693211 143.749833 
L 97.709845 143.749833 
L 99.726478 143.749833 
L 101.743112 143.749833 
L 103.535675 143.749833 
L 105.552308 143.749833 
L 107.568942 143.749833 
L 109.585575 143.749833 
L 115.187335 143.749833 
L 124.150151 143.749833 
L 133.337037 143.749833 
L 142.523922 143.749833 
L 151.486738 143.749833 
L 160.449553 143.749833 
L 169.412369 143.749833 
L 178.375184 143.749833 
L 187.338 143.749833 
L 196.524886 143.749833 
L 205.711772 143.749833 
L 214.674587 143.512393 
" clip-path="url(#pe709db786c)" style="fill: none; stroke: #c3006b; stroke-opacity: 0.298039; stroke-width: 0.886227"/>
   </g>
   <g id="line2d_24">
    <path d="M 51.775415 143.749833 
L 53.792049 143.749833 
L 55.808682 143.486274 
L 57.825316 140.674985 
L 59.841949 142.344188 
L 61.858583 142.695599 
L 63.875216 133.383202 
L 65.89185 115.900494 
L 67.908483 101.401625 
L 69.925117 101.316928 
L 71.71768 141.553513 
L 73.734313 136.45805 
L 75.750947 100.262695 
L 77.76758 102.195456 
L 79.784214 55.984881 
L 81.800847 57.126967 
L 83.817481 56.072734 
L 85.610044 56.072734 
L 87.626677 57.302673 
L 89.643311 62.22243 
L 91.659944 61.871019 
L 93.676578 55.984881 
L 95.693211 55.897028 
L 97.709845 55.897028 
L 99.726478 56.160587 
L 101.743112 55.897028 
L 103.535675 55.897028 
L 105.552308 56.160587 
L 107.568942 55.897028 
L 109.585575 55.897028 
L 115.187335 55.897028 
L 124.150151 55.897028 
L 133.337037 55.984881 
L 142.523922 55.897028 
L 151.486738 55.897028 
L 160.449553 56.248439 
L 169.412369 55.897028 
L 178.375184 55.897028 
L 187.338 55.897028 
L 196.524886 55.897028 
L 205.711772 55.897028 
L 214.674587 55.897028 
" clip-path="url(#pe709db786c)" style="fill: none; stroke: #003063; stroke-opacity: 0.298039; stroke-width: 0.886227"/>
   </g>
   <g id="line2d_25">
    <path d="M 56.480894 103.425396 
L 58.273457 132.768232 
L 60.06602 141.289954 
L 61.858583 128.199886 
L 63.651146 118.27252 
L 65.667779 143.222716 
L 67.684413 136.194492 
L 69.476976 106.324538 
L 71.269539 142.168482 
L 73.062102 142.959158 
L 74.854665 142.256335 
L 76.647228 143.134863 
L 78.439792 106.148833 
L 80.232355 143.222716 
L 82.024918 143.749833 
L 84.041551 143.749833 
L 86.058185 143.749833 
L 87.850748 143.749833 
L 89.643311 143.749833 
L 91.435874 143.749833 
L 93.228437 143.749833 
L 95.021 143.749833 
L 96.813563 143.749833 
L 98.606126 143.749833 
L 100.39869 143.749833 
L 102.415323 143.749833 
L 104.431957 143.749833 
L 106.22452 143.749833 
L 108.017083 143.749833 
L 109.809646 143.749833 
L 114.515124 143.749833 
L 122.133517 143.749833 
L 129.75191 143.749833 
L 137.594374 143.749833 
L 145.436837 143.749833 
L 153.055231 143.749833 
L 160.673624 143.749833 
L 168.292017 143.749833 
L 175.91041 143.749833 
L 183.528803 143.749833 
L 191.147197 143.749833 
L 198.76559 143.749833 
L 206.383983 143.749833 
L 214.002376 143.749833 
L 221.620769 143.749833 
" clip-path="url(#pe709db786c)" style="fill: none; stroke: #c3006b; stroke-opacity: 0.298039; stroke-width: 0.886227"/>
   </g>
   <g id="line2d_26">
    <path d="M 56.480894 137.863695 
L 58.273457 109.047975 
L 60.06602 99.823431 
L 61.858583 100.526253 
L 63.651146 112.386382 
L 65.667779 99.823431 
L 67.684413 99.823431 
L 69.476976 135.930933 
L 71.269539 99.823431 
L 73.062102 99.823431 
L 74.854665 99.823431 
L 76.647228 99.823431 
L 78.439792 126.882094 
L 80.232355 99.823431 
L 82.024918 59.586846 
L 84.041551 93.673734 
L 86.058185 94.991526 
L 87.850748 97.099994 
L 89.643311 93.410176 
L 91.435874 90.335328 
L 93.228437 87.260479 
L 95.021 61.431755 
L 96.813563 62.8374 
L 98.606126 95.782202 
L 100.39869 57.302673 
L 102.415323 62.485989 
L 104.431957 57.126967 
L 106.22452 65.64869 
L 108.017083 61.871019 
L 109.809646 65.824395 
L 114.515124 73.643295 
L 122.133517 80.671519 
L 129.75191 62.8374 
L 137.594374 67.581451 
L 145.436837 58.356907 
L 153.055231 62.661694 
L 160.673624 62.046725 
L 168.292017 61.256049 
L 175.91041 61.343902 
L 183.528803 59.235435 
L 191.147197 62.046725 
L 198.76559 91.65312 
L 206.383983 90.511033 
L 214.002376 84.712748 
L 221.620769 57.917643 
" clip-path="url(#pe709db786c)" style="fill: none; stroke: #003063; stroke-opacity: 0.298039; stroke-width: 0.886227"/>
   </g>
   <g id="line2d_27">
    <path d="M 55.808682 141.992777 
L 57.825316 142.959158 
L 59.617879 141.992777 
L 61.410442 143.310569 
L 63.203005 143.749833 
L 64.995568 143.398422 
L 66.788131 143.66198 
L 68.580695 143.486274 
L 70.597328 143.66198 
L 72.613961 143.66198 
L 74.406525 143.66198 
L 76.199088 143.640017 
L 77.991651 143.66198 
L 79.784214 143.574127 
L 81.576777 143.749833 
L 83.59341 143.749833 
L 85.610044 143.749833 
L 87.402607 143.66198 
L 89.19517 143.749833 
L 90.987733 143.749833 
L 92.780296 143.749833 
L 94.572859 143.749833 
L 96.589493 143.749833 
L 98.606126 143.749833 
L 100.39869 143.749833 
L 102.191253 143.749833 
L 103.983816 143.749833 
L 105.776379 143.749833 
L 107.568942 143.749833 
L 109.361505 143.749833 
L 114.963265 143.749833 
L 123.253869 143.749833 
L 131.320403 143.749833 
L 139.611007 143.749833 
L 147.901612 143.749833 
L 155.968146 143.749833 
L 164.03468 143.749833 
L 172.101214 143.749833 
L 180.391818 143.749833 
L 188.682422 143.749833 
L 196.748956 143.749833 
L 204.81549 103.513248 
L 212.882024 139.708604 
L 221.172629 112.64994 
" clip-path="url(#pe709db786c)" style="fill: none; stroke: #c3006b; stroke-opacity: 0.298039; stroke-width: 0.886227"/>
   </g>
   <g id="line2d_28">
    <path d="M 55.808682 99.823431 
L 57.825316 99.823431 
L 59.617879 99.823431 
L 61.410442 99.823431 
L 63.203005 99.823431 
L 64.995568 99.823431 
L 66.788131 99.823431 
L 68.580695 99.823431 
L 70.597328 99.823431 
L 72.613961 99.823431 
L 74.406525 99.823431 
L 76.199088 99.823431 
L 77.991651 99.823431 
L 79.784214 99.823431 
L 81.576777 62.485989 
L 83.59341 72.940472 
L 85.610044 71.62268 
L 87.402607 99.823431 
L 89.19517 95.694349 
L 90.987733 59.059729 
L 92.780296 93.937293 
L 94.572859 66.61507 
L 96.589493 60.201816 
L 98.606126 70.129183 
L 100.39869 85.152012 
L 102.191253 81.462194 
L 103.983816 77.684524 
L 105.776379 61.607461 
L 107.568942 68.635685 
L 109.361505 66.527218 
L 114.963265 55.897028 
L 123.253869 59.147582 
L 131.320403 55.897028 
L 139.611007 57.126967 
L 147.901612 55.897028 
L 155.968146 60.289668 
L 164.03468 56.336292 
L 172.101214 56.160587 
L 180.391818 56.775556 
L 188.682422 56.511998 
L 196.748956 57.126967 
L 204.81549 55.984881 
L 212.882024 56.072734 
L 221.172629 55.897028 
" clip-path="url(#pe709db786c)" style="fill: none; stroke: #003063; stroke-opacity: 0.298039; stroke-width: 0.886227"/>
   </g>
   <g id="line2d_29">
    <path d="M 55.584612 141.114249 
L 57.601246 138.390812 
L 59.617879 140.762838 
L 61.410442 141.202102 
L 63.203005 136.809461 
L 64.995568 142.607746 
L 66.788131 141.114249 
L 68.580695 140.674985 
L 70.597328 141.817071 
L 72.613961 143.749833 
L 74.406525 143.749833 
L 76.199088 143.749833 
L 77.991651 143.749833 
L 79.784214 143.749833 
L 81.800847 143.749833 
L 83.817481 143.749833 
L 85.610044 143.749833 
L 87.402607 143.749833 
L 89.19517 143.749833 
L 90.987733 143.749833 
L 92.780296 143.749833 
L 94.79693 143.749833 
L 96.813563 143.749833 
L 98.606126 143.749833 
L 100.39869 143.749833 
L 102.191253 143.749833 
L 103.983816 143.749833 
L 106.000449 143.749833 
L 108.017083 143.749833 
L 109.809646 143.749833 
L 113.842913 143.749833 
L 120.340954 143.749833 
L 126.838995 143.749833 
L 133.112966 143.749833 
L 139.611007 143.749833 
L 146.109049 143.749833 
L 152.38302 143.749833 
L 158.881061 143.749833 
L 165.379102 143.749833 
L 171.653073 143.749833 
L 178.151114 143.749833 
L 184.649155 143.749833 
L 190.923126 143.749833 
L 197.421167 143.749833 
L 203.919209 143.749833 
L 210.19318 143.749833 
L 216.691221 143.749833 
" clip-path="url(#pe709db786c)" style="fill: none; stroke: #c3006b; stroke-opacity: 0.298039; stroke-width: 0.886227"/>
   </g>
   <g id="line2d_30">
    <path d="M 55.584612 99.823431 
L 57.601246 99.823431 
L 59.617879 99.823431 
L 61.410442 99.823431 
L 63.203005 99.823431 
L 64.995568 99.823431 
L 66.788131 99.823431 
L 68.580695 99.823431 
L 70.597328 99.823431 
L 72.613961 55.897028 
L 74.406525 55.897028 
L 76.199088 55.897028 
L 77.991651 55.897028 
L 79.784214 55.897028 
L 81.800847 55.897028 
L 83.817481 55.897028 
L 85.610044 55.897028 
L 87.402607 55.897028 
L 89.19517 55.897028 
L 90.987733 55.897028 
L 92.780296 55.897028 
L 94.79693 55.897028 
L 96.813563 55.897028 
L 98.606126 55.897028 
L 100.39869 55.897028 
L 102.191253 55.897028 
L 103.983816 55.897028 
L 106.000449 55.897028 
L 108.017083 55.897028 
L 109.809646 55.897028 
L 113.842913 55.897028 
L 120.340954 55.897028 
L 126.838995 55.897028 
L 133.112966 55.897028 
L 139.611007 55.897028 
L 146.109049 55.897028 
L 152.38302 55.897028 
L 158.881061 55.897028 
L 165.379102 55.984881 
L 171.653073 55.897028 
L 178.151114 55.897028 
L 184.649155 55.897028 
L 190.923126 55.897028 
L 197.421167 55.897028 
L 203.919209 55.897028 
L 210.19318 55.897028 
L 216.691221 55.897028 
" clip-path="url(#pe709db786c)" style="fill: none; stroke: #003063; stroke-opacity: 0.298039; stroke-width: 0.886227"/>
   </g>
   <g id="line2d_31">
    <path d="M 55.584612 143.749833 
L 57.377175 142.783452 
L 59.169738 143.134863 
L 61.186372 143.574127 
L 63.203005 143.222716 
L 64.995568 143.574127 
L 66.788131 143.749833 
L 68.580695 143.222716 
L 70.373258 143.749833 
L 72.389891 143.749833 
L 74.406525 143.749833 
L 76.199088 143.749833 
L 77.991651 143.749833 
L 79.784214 143.656372 
L 81.576777 143.749833 
L 83.36934 143.749833 
L 85.385974 143.749833 
L 87.402607 143.749833 
L 89.19517 143.749833 
L 90.987733 143.749833 
L 92.780296 143.749833 
L 94.572859 143.749833 
L 96.589493 143.749833 
L 98.606126 143.749833 
L 100.39869 143.749833 
L 102.191253 143.749833 
L 103.983816 143.749833 
L 105.776379 143.749833 
L 107.568942 143.749833 
L 109.585575 143.749833 
L 114.963265 143.749833 
L 123.70201 143.749833 
L 132.440755 143.749833 
L 140.95543 143.749833 
L 149.694175 143.749833 
L 158.43292 143.749833 
L 166.947595 143.749833 
L 175.68634 143.749833 
L 184.425085 143.749833 
L 192.93976 143.749833 
L 201.678505 143.749833 
L 210.41725 143.749833 
L 218.931925 143.749833 
" clip-path="url(#pe709db786c)" style="fill: none; stroke: #c3006b; stroke-opacity: 0.298039; stroke-width: 0.886227"/>
   </g>
   <g id="line2d_32">
    <path d="M 55.584612 99.823431 
L 57.377175 99.823431 
L 59.169738 99.823431 
L 61.186372 99.823431 
L 63.203005 99.823431 
L 64.995568 99.823431 
L 66.788131 99.823431 
L 68.580695 99.823431 
L 70.373258 75.751762 
L 72.389891 65.824395 
L 74.406525 64.945867 
L 76.199088 85.591276 
L 77.991651 94.288704 
L 79.784214 68.327265 
L 81.576777 99.559872 
L 83.36934 74.873234 
L 85.385974 74.170412 
L 87.402607 87.699744 
L 89.19517 80.05655 
L 90.987733 90.071769 
L 92.780296 75.839615 
L 94.572859 65.385131 
L 96.589493 92.970912 
L 98.606126 56.775556 
L 100.39869 70.568447 
L 102.191253 56.511998 
L 103.983816 56.863409 
L 105.776379 56.424145 
L 107.568942 56.687703 
L 109.585575 58.532612 
L 114.963265 57.302673 
L 123.70201 59.586846 
L 132.440755 57.741937 
L 140.95543 64.770161 
L 149.694175 58.708318 
L 158.43292 68.020715 
L 166.947595 56.424145 
L 175.68634 64.330897 
L 184.425085 64.243045 
L 192.93976 56.775556 
L 201.678505 56.775556 
L 210.41725 57.741937 
L 218.931925 57.654084 
" clip-path="url(#pe709db786c)" style="fill: none; stroke: #003063; stroke-opacity: 0.298039; stroke-width: 0.886227"/>
   </g>
   <g id="line2d_33">
    <path d="M 57.377175 141.026396 
L 59.169738 142.256335 
L 60.962301 142.08063 
L 62.754864 132.592527 
L 64.547428 143.486274 
L 66.339991 143.04701 
L 68.132554 141.607082 
L 69.925117 143.749833 
L 71.71768 143.749833 
L 73.510243 143.749833 
L 75.302806 143.749833 
L 77.095369 143.66198 
L 78.887932 143.749833 
L 80.680495 143.749833 
L 82.473059 143.749833 
L 84.265622 143.749833 
L 86.058185 143.749833 
L 88.074818 143.749833 
L 90.091452 143.749833 
L 91.884015 143.749833 
L 93.676578 143.749833 
L 95.469141 143.749833 
L 97.261704 143.749833 
L 99.054267 143.749833 
L 100.84683 143.749833 
L 102.639393 143.749833 
L 104.431957 143.749833 
L 106.22452 143.749833 
L 108.017083 143.749833 
L 109.809646 143.749833 
L 114.739194 143.749833 
L 122.581658 143.749833 
L 130.424122 143.749833 
L 138.266585 143.749833 
L 145.884978 143.749833 
L 153.727442 143.749833 
L 161.569905 143.749833 
L 169.188299 143.749833 
L 176.806692 143.749833 
L 184.649155 143.749833 
L 192.491619 143.749833 
L 200.110012 143.749833 
L 207.728405 143.749833 
L 215.570869 143.749833 
" clip-path="url(#pe709db786c)" style="fill: none; stroke: #c3006b; stroke-opacity: 0.298039; stroke-width: 0.886227"/>
   </g>
   <g id="line2d_34">
    <path d="M 57.377175 99.823431 
L 59.169738 99.823431 
L 60.962301 99.823431 
L 62.754864 99.823431 
L 64.547428 99.823431 
L 66.339991 99.823431 
L 68.132554 99.823431 
L 69.925117 94.991526 
L 71.71768 55.984881 
L 73.510243 66.175806 
L 75.302806 71.095563 
L 77.095369 72.676914 
L 78.887932 75.114829 
L 80.680495 55.897028 
L 82.473059 55.984881 
L 84.265622 55.897028 
L 86.058185 55.897028 
L 88.074818 55.897028 
L 90.091452 55.897028 
L 91.884015 58.181201 
L 93.676578 55.897028 
L 95.469141 55.897028 
L 97.261704 55.897028 
L 99.054267 55.897028 
L 100.84683 55.984881 
L 102.639393 55.897028 
L 104.431957 55.897028 
L 106.22452 55.897028 
L 108.017083 55.897028 
L 109.809646 55.897028 
L 114.739194 55.897028 
L 122.581658 55.897028 
L 130.424122 55.984881 
L 138.266585 55.897028 
L 145.884978 55.897028 
L 153.727442 56.424145 
L 161.569905 55.897028 
L 169.188299 55.897028 
L 176.806692 55.897028 
L 184.649155 55.897028 
L 192.491619 55.897028 
L 200.110012 55.897028 
L 207.728405 55.984881 
L 215.570869 55.984881 
" clip-path="url(#pe709db786c)" style="fill: none; stroke: #003063; stroke-opacity: 0.298039; stroke-width: 0.886227"/>
   </g>
   <g id="line2d_35">
    <path d="M 51.775415 64.246217 
L 53.925357 102.288469 
L 56.075298 126.013026 
L 58.225239 135.20527 
L 60.37518 135.677276 
L 62.525121 129.112828 
L 64.675063 133.132978 
L 66.825004 140.227916 
L 68.974945 137.335677 
L 71.124886 136.761283 
L 73.274827 137.866535 
L 75.424768 140.283484 
L 77.57471 139.146507 
L 79.724651 141.429068 
L 81.874592 144.098971 
L 84.024533 143.727889 
L 86.174474 143.730881 
L 88.324416 143.74234 
L 90.474357 143.750976 
L 92.624298 143.749833 
L 94.774239 143.749833 
L 96.92418 143.749833 
L 99.074122 143.749833 
L 101.224063 143.749833 
L 103.374004 143.749833 
L 105.523945 143.749833 
L 107.673886 143.749833 
L 109.823828 143.749833 
L 111.973769 143.749833 
L 114.12371 143.749833 
L 116.273651 143.749833 
L 118.423592 143.749833 
L 120.573533 143.749833 
L 122.723475 143.749833 
L 124.873416 143.749833 
L 127.023357 143.749833 
L 129.173298 143.749833 
L 131.323239 143.749833 
L 133.473181 143.749833 
L 135.623122 143.749833 
L 137.773063 143.749833 
L 139.923004 143.749833 
L 142.072945 143.749833 
L 144.222887 143.749833 
L 146.372828 143.749833 
L 148.522769 143.749833 
L 150.67271 143.749833 
L 152.822651 143.749833 
L 154.972592 143.749833 
L 157.122534 143.749833 
L 159.272475 143.749833 
L 161.422416 143.749833 
L 163.572357 143.749833 
L 165.722298 143.750404 
L 167.87224 143.75152 
L 170.022181 143.750916 
L 172.172122 143.748156 
L 174.322063 143.745069 
L 176.472004 143.743254 
L 178.621946 143.741827 
L 180.771887 143.741724 
L 182.921828 143.742188 
L 185.071769 143.746406 
L 187.22171 143.833448 
L 189.371651 143.936684 
L 191.521593 143.920691 
L 193.671534 143.701176 
L 195.821475 143.28476 
L 197.971416 142.448827 
L 200.121357 141.23725 
L 202.271299 140.734461 
L 204.42124 140.437012 
L 206.571181 140.365943 
L 208.721122 140.66682 
L 210.871063 141.071034 
L 213.021005 141.073757 
L 215.170946 140.768939 
L 217.320887 140.258599 
L 219.470828 139.463298 
L 221.620769 138.438679 
" clip-path="url(#pe709db786c)" style="fill: none; stroke: #c3006b; stroke-width: 1.772454; stroke-linejoin: miter"/>
   </g>
   <g id="line2d_36">
    <path d="M 51.775415 148.329756 
L 53.925357 127.807792 
L 56.075298 113.365297 
L 58.225239 105.539521 
L 60.37518 104.830431 
L 62.525121 105.301118 
L 64.675063 103.774681 
L 66.825004 100.547052 
L 68.974945 98.958435 
L 71.124886 94.330381 
L 73.274827 88.878394 
L 75.424768 86.280862 
L 77.57471 86.031064 
L 79.724651 78.396149 
L 81.874592 68.52517 
L 84.024533 69.368474 
L 86.174474 72.317473 
L 88.324416 75.155606 
L 90.474357 67.016035 
L 92.624298 67.08509 
L 94.774239 60.120694 
L 96.92418 62.399796 
L 99.074122 62.522999 
L 101.224063 61.029857 
L 103.374004 59.266645 
L 105.523945 58.159933 
L 107.673886 58.318403 
L 109.823828 58.61786 
L 111.973769 58.648244 
L 114.12371 58.383847 
L 116.273651 58.384632 
L 118.423592 58.920232 
L 120.573533 59.424338 
L 122.723475 59.515138 
L 124.873416 58.881187 
L 127.023357 58.311756 
L 129.173298 57.707356 
L 131.323239 57.168492 
L 133.473181 57.323444 
L 135.623122 57.789615 
L 137.773063 58.032279 
L 139.923004 57.829594 
L 142.072945 57.570563 
L 144.222887 57.325937 
L 146.372828 56.870764 
L 148.522769 56.823425 
L 150.67271 57.349477 
L 152.822651 57.846182 
L 154.972592 58.06464 
L 157.122534 58.262677 
L 159.272475 58.250914 
L 161.422416 57.847632 
L 163.572357 57.438726 
L 165.722298 57.298835 
L 167.87224 57.21097 
L 170.022181 57.195435 
L 172.172122 57.380594 
L 174.322063 57.613104 
L 176.472004 57.683595 
L 178.621946 57.631131 
L 180.771887 57.457422 
L 182.921828 57.197184 
L 185.071769 57.078607 
L 187.22171 57.092462 
L 189.371651 57.254247 
L 191.521593 57.675729 
L 193.671534 58.429447 
L 195.821475 59.210044 
L 197.971416 59.907808 
L 200.121357 60.746792 
L 202.271299 60.966199 
L 204.42124 60.986046 
L 206.571181 60.913833 
L 208.721122 60.738989 
L 210.871063 60.412913 
L 213.021005 59.944533 
L 215.170946 59.338558 
L 217.320887 58.590762 
L 219.470828 57.697134 
L 221.620769 56.656853 
" clip-path="url(#pe709db786c)" style="fill: none; stroke: #003063; stroke-width: 1.772454; stroke-linejoin: miter"/>
   </g>
  </g>
  <g id="patch_4">
   <path d="M 34.521996 152.999557 
L 231.703937 152.999557 
L 231.703937 50.263929 
L 34.521996 50.263929 
L 34.521996 152.999557 
z
" style="fill: none; stroke: #000000; stroke-width: 0.7; stroke-linejoin: miter"/>
  </g>
  <g id="text_11">
   <!-- $\text{d}~[\text{nm}]$ -->
   <g transform="translate(121.387966 173.589148) scale(0.07 -0.07)">
    <defs>
     <path id="DejaVuSans-64" d="M 2906 2969 
L 2906 4863 
L 3481 4863 
L 3481 0 
L 2906 0 
L 2906 525 
Q 2725 213 2448 61 
Q 2172 -91 1784 -91 
Q 1150 -91 751 415 
Q 353 922 353 1747 
Q 353 2572 751 3078 
Q 1150 3584 1784 3584 
Q 2172 3584 2448 3432 
Q 2725 3281 2906 2969 
z
M 947 1747 
Q 947 1113 1208 752 
Q 1469 391 1925 391 
Q 2381 391 2643 752 
Q 2906 1113 2906 1747 
Q 2906 2381 2643 2742 
Q 2381 3103 1925 3103 
Q 1469 3103 1208 2742 
Q 947 2381 947 1747 
z
" transform="scale(0.015625)"/>
     <path id="DejaVuSans-5b" d="M 550 4863 
L 1875 4863 
L 1875 4416 
L 1125 4416 
L 1125 -397 
L 1875 -397 
L 1875 -844 
L 550 -844 
L 550 4863 
z
" transform="scale(0.015625)"/>
     <path id="DejaVuSans-6e" d="M 3513 2113 
L 3513 0 
L 2938 0 
L 2938 2094 
Q 2938 2591 2744 2837 
Q 2550 3084 2163 3084 
Q 1697 3084 1428 2787 
Q 1159 2491 1159 1978 
L 1159 0 
L 581 0 
L 581 3500 
L 1159 3500 
L 1159 2956 
Q 1366 3272 1645 3428 
Q 1925 3584 2291 3584 
Q 2894 3584 3203 3211 
Q 3513 2838 3513 2113 
z
" transform="scale(0.015625)"/>
     <path id="DejaVuSans-6d" d="M 3328 2828 
Q 3544 3216 3844 3400 
Q 4144 3584 4550 3584 
Q 5097 3584 5394 3201 
Q 5691 2819 5691 2113 
L 5691 0 
L 5113 0 
L 5113 2094 
Q 5113 2597 4934 2840 
Q 4756 3084 4391 3084 
Q 3944 3084 3684 2787 
Q 3425 2491 3425 1978 
L 3425 0 
L 2847 0 
L 2847 2094 
Q 2847 2600 2669 2842 
Q 2491 3084 2119 3084 
Q 1678 3084 1418 2786 
Q 1159 2488 1159 1978 
L 1159 0 
L 581 0 
L 581 3500 
L 1159 3500 
L 1159 2956 
Q 1356 3278 1631 3431 
Q 1906 3584 2284 3584 
Q 2666 3584 2933 3390 
Q 3200 3197 3328 2828 
z
" transform="scale(0.015625)"/>
     <path id="DejaVuSans-5d" d="M 1947 4863 
L 1947 -844 
L 622 -844 
L 622 -397 
L 1369 -397 
L 1369 4416 
L 622 4416 
L 622 4863 
L 1947 4863 
z
" transform="scale(0.015625)"/>
    </defs>
    <use xlink:href="#DejaVuSans-64" transform="translate(0 0.015625)"/>
    <use xlink:href="#DejaVuSans-5b" transform="translate(95.946941 0.015625)"/>
    <use xlink:href="#DejaVuSans-6e" transform="translate(134.960613 0.015625)"/>
    <use xlink:href="#DejaVuSans-6d" transform="translate(198.339519 0.015625)"/>
    <use xlink:href="#DejaVuSans-5d" transform="translate(295.751628 0.015625)"/>
   </g>
  </g>
  <g id="text_12">
   <!-- $\text{n}_{\text{H}^+}$ -->
   <g transform="translate(14.717717 108.036743) rotate(-90) scale(0.07 -0.07)">
    <defs>
     <path id="DejaVuSans-48" d="M 628 4666 
L 1259 4666 
L 1259 2753 
L 3553 2753 
L 3553 4666 
L 4184 4666 
L 4184 0 
L 3553 0 
L 3553 2222 
L 1259 2222 
L 1259 0 
L 628 0 
L 628 4666 
z
" transform="scale(0.015625)"/>
     <path id="DejaVuSans-2b" d="M 2944 4013 
L 2944 2272 
L 4684 2272 
L 4684 1741 
L 2944 1741 
L 2944 0 
L 2419 0 
L 2419 1741 
L 678 1741 
L 678 2272 
L 2419 2272 
L 2419 4013 
L 2944 4013 
z
" transform="scale(0.015625)"/>
    </defs>
    <use xlink:href="#DejaVuSans-6e"/>
    <use xlink:href="#DejaVuSans-48" transform="translate(64.335938 -16.40625) scale(0.7)"/>
    <use xlink:href="#DejaVuSans-2b" transform="translate(127.188965 10.390625) scale(0.49)"/>
   </g>
  </g>
  <g id="patch_5">
   <path d="M 34.521996 50.263929 
L 231.703937 50.263929 
L 231.703937 34.270866 
L 34.521996 34.270866 
z
" style="fill: #ffffff; stroke: #000000; stroke-linejoin: miter"/>
  </g>
  <g id="text_13">
   <!-- Gly857-Ala858-triple -->
   <g transform="translate(101.592185 44.892397) scale(0.07 -0.07)">
    <defs>
     <path id="Roboto-Regular-47" d="M 3891 2266 
L 3891 600 
Q 3763 413 3403 175 
Q 3044 -63 2281 -63 
Q 1450 -63 915 507 
Q 381 1078 381 2100 
L 381 2453 
Q 381 3469 856 4041 
Q 1331 4613 2213 4613 
Q 2994 4613 3398 4219 
Q 3803 3825 3891 3219 
L 3288 3219 
Q 3225 3588 2979 3853 
Q 2734 4119 2213 4119 
Q 1584 4119 1287 3676 
Q 991 3234 988 2475 
L 988 2100 
Q 988 1313 1344 870 
Q 1700 428 2284 428 
Q 2769 428 2984 542 
Q 3200 656 3291 759 
L 3291 1778 
L 2238 1778 
L 2238 2266 
L 3891 2266 
z
" transform="scale(0.015625)"/>
     <path id="Roboto-Regular-6c" d="M 1069 4800 
L 1069 0 
L 488 0 
L 488 4800 
L 1069 4800 
z
" transform="scale(0.015625)"/>
     <path id="Roboto-Regular-79" d="M 1594 -522 
Q 1294 -1316 688 -1363 
L 591 -1366 
Q 406 -1366 266 -1316 
L 263 -847 
L 419 -859 
Q 713 -859 878 -739 
Q 1044 -619 1150 -306 
L 1275 38 
L 69 3381 
L 700 3381 
L 1547 850 
L 2331 3381 
L 2950 3381 
L 1594 -522 
z
" transform="scale(0.015625)"/>
     <path id="Roboto-Regular-38" d="M 3244 1231 
Q 3244 606 2826 271 
Q 2409 -63 1796 -63 
Q 1184 -63 767 271 
Q 350 606 350 1231 
Q 350 1613 554 1905 
Q 759 2197 1109 2347 
Q 806 2494 629 2762 
Q 453 3031 453 3366 
Q 453 3963 833 4288 
Q 1213 4613 1794 4613 
Q 2378 4613 2758 4288 
Q 3138 3963 3138 3366 
Q 3138 3028 2956 2761 
Q 2775 2494 2472 2347 
Q 2825 2197 3034 1903 
Q 3244 1609 3244 1231 
z
M 2559 3356 
Q 2559 3697 2346 3917 
Q 2134 4138 1793 4138 
Q 1453 4138 1243 3927 
Q 1034 3716 1034 3356 
Q 1034 3003 1243 2790 
Q 1453 2578 1797 2578 
Q 2138 2578 2348 2790 
Q 2559 3003 2559 3356 
z
M 2663 1244 
Q 2663 1625 2420 1865 
Q 2178 2106 1791 2106 
Q 1394 2106 1161 1865 
Q 928 1625 928 1244 
Q 928 850 1161 631 
Q 1394 413 1797 413 
Q 2200 413 2431 631 
Q 2663 850 2663 1244 
z
" transform="scale(0.015625)"/>
     <path id="Roboto-Regular-37" d="M 3319 4550 
L 3319 4225 
L 1434 0 
L 825 0 
L 2706 4075 
L 244 4075 
L 244 4550 
L 3319 4550 
z
" transform="scale(0.015625)"/>
     <path id="Roboto-Regular-2d" d="M 1644 2172 
L 1644 1697 
L 119 1697 
L 119 2172 
L 1644 2172 
z
" transform="scale(0.015625)"/>
     <path id="Roboto-Regular-41" d="M 91 0 
L 1825 4550 
L 2353 4550 
L 4094 0 
L 3475 0 
L 3041 1191 
L 1138 1191 
L 706 0 
L 91 0 
z
M 1319 1684 
L 2863 1684 
L 2091 3806 
L 1319 1684 
z
" transform="scale(0.015625)"/>
     <path id="Roboto-Regular-61" d="M 2528 0 
Q 2472 122 2447 356 
Q 2284 184 2040 60 
Q 1797 -63 1484 -63 
Q 966 -63 653 228 
Q 341 519 341 941 
Q 341 1484 753 1767 
Q 1166 2050 1863 2050 
L 2434 2050 
L 2434 2319 
Q 2434 2619 2254 2798 
Q 2075 2978 1722 2978 
Q 1394 2978 1192 2817 
Q 991 2656 991 2444 
L 413 2444 
Q 413 2806 778 3125 
Q 1144 3444 1756 3444 
Q 2306 3444 2659 3162 
Q 3013 2881 3013 2313 
L 3013 794 
Q 3013 325 3131 50 
L 3131 0 
L 2528 0 
z
M 1569 444 
Q 1881 444 2111 600 
Q 2341 756 2434 947 
L 2434 1644 
L 1897 1644 
Q 922 1625 922 1019 
Q 922 778 1084 611 
Q 1247 444 1569 444 
z
" transform="scale(0.015625)"/>
     <path id="Roboto-Regular-74" d="M 1872 0 
Q 1675 -63 1425 -63 
Q 1103 -63 875 134 
Q 647 331 647 841 
L 647 2938 
L 28 2938 
L 28 3381 
L 647 3381 
L 647 4203 
L 1225 4203 
L 1225 3381 
L 1856 3381 
L 1856 2938 
L 1225 2938 
L 1225 838 
Q 1225 578 1337 506 
Q 1450 434 1597 434 
Q 1706 434 1869 472 
L 1872 0 
z
" transform="scale(0.015625)"/>
     <path id="Roboto-Regular-72" d="M 1791 2888 
Q 1225 2888 1019 2400 
L 1019 0 
L 441 0 
L 441 3381 
L 1003 3381 
L 1016 2994 
Q 1294 3444 1819 3444 
Q 1981 3444 2075 3400 
L 2072 2863 
Q 1944 2888 1791 2888 
z
" transform="scale(0.015625)"/>
     <path id="Roboto-Regular-69" d="M 444 4278 
Q 444 4419 530 4516 
Q 616 4613 784 4613 
Q 950 4613 1039 4516 
Q 1128 4419 1128 4278 
Q 1128 4144 1039 4048 
Q 950 3953 784 3953 
Q 616 3953 530 4048 
Q 444 4144 444 4278 
z
M 1069 3381 
L 1069 0 
L 488 0 
L 488 3381 
L 1069 3381 
z
" transform="scale(0.015625)"/>
     <path id="Roboto-Regular-70" d="M 1984 -63 
Q 1375 -63 1019 328 
L 1019 -1300 
L 438 -1300 
L 438 3381 
L 969 3381 
L 997 3009 
Q 1353 3444 1975 3444 
Q 2616 3444 2956 2969 
Q 3297 2494 3297 1719 
L 3297 1653 
Q 3297 913 2955 425 
Q 2613 -63 1984 -63 
z
M 1806 2956 
Q 1281 2956 1019 2491 
L 1019 872 
Q 1284 413 1813 413 
Q 2281 413 2498 781 
Q 2716 1150 2716 1653 
L 2716 1719 
Q 2716 2222 2498 2589 
Q 2281 2956 1806 2956 
z
" transform="scale(0.015625)"/>
     <path id="Roboto-Regular-65" d="M 3116 591 
Q 2950 341 2647 139 
Q 2344 -63 1844 -63 
Q 1138 -63 714 396 
Q 291 856 291 1572 
L 291 1703 
Q 291 2256 502 2645 
Q 713 3034 1050 3239 
Q 1388 3444 1769 3444 
Q 2494 3444 2826 2970 
Q 3159 2497 3159 1788 
L 3159 1528 
L 872 1528 
Q 884 1063 1148 736 
Q 1413 409 1875 409 
Q 2181 409 2393 534 
Q 2606 659 2766 869 
L 3116 591 
z
M 1769 2969 
Q 1425 2969 1187 2719 
Q 950 2469 891 2000 
L 2581 2000 
L 2581 2044 
Q 2559 2381 2386 2675 
Q 2213 2969 1769 2969 
z
" transform="scale(0.015625)"/>
    </defs>
    <use xlink:href="#Roboto-Regular-47"/>
    <use xlink:href="#Roboto-Regular-6c" transform="translate(68.115234 0)"/>
    <use xlink:href="#Roboto-Regular-79" transform="translate(92.431641 0)"/>
    <use xlink:href="#Roboto-Regular-38" transform="translate(139.746094 0)"/>
    <use xlink:href="#Roboto-Regular-35" transform="translate(195.947266 0)"/>
    <use xlink:href="#Roboto-Regular-37" transform="translate(252.148438 0)"/>
    <use xlink:href="#Roboto-Regular-2d" transform="translate(308.349609 0)"/>
    <use xlink:href="#Roboto-Regular-41" transform="translate(335.986328 0)"/>
    <use xlink:href="#Roboto-Regular-6c" transform="translate(401.220703 0)"/>
    <use xlink:href="#Roboto-Regular-61" transform="translate(425.537109 0)"/>
    <use xlink:href="#Roboto-Regular-38" transform="translate(479.931641 0)"/>
    <use xlink:href="#Roboto-Regular-35" transform="translate(536.132812 0)"/>
    <use xlink:href="#Roboto-Regular-38" transform="translate(592.333984 0)"/>
    <use xlink:href="#Roboto-Regular-2d" transform="translate(648.535156 0)"/>
    <use xlink:href="#Roboto-Regular-74" transform="translate(676.171875 0)"/>
    <use xlink:href="#Roboto-Regular-72" transform="translate(708.886719 0)"/>
    <use xlink:href="#Roboto-Regular-69" transform="translate(742.773438 0)"/>
    <use xlink:href="#Roboto-Regular-70" transform="translate(767.089844 0)"/>
    <use xlink:href="#Roboto-Regular-6c" transform="translate(823.242188 0)"/>
    <use xlink:href="#Roboto-Regular-65" transform="translate(847.558594 0)"/>
   </g>
  </g>
  <g id="patch_6">
   <path d="M 66.527954 27.467717 
L 199.697978 27.467717 
L 199.697978 9.467717 
L 66.527954 9.467717 
z
" style="fill: #ffffff"/>
  </g>
  <g id="text_14">
   <!-- $\text{n}_{\text{H}^+}$ at -->
   <g transform="translate(67.527954 20.381779) scale(0.07 -0.07)">
    <defs>
     <path id="Roboto-Regular-20" transform="scale(0.015625)"/>
    </defs>
    <use xlink:href="#DejaVuSans-6e" transform="translate(0 0.328125)"/>
    <use xlink:href="#DejaVuSans-48" transform="translate(64.335938 -16.078125) scale(0.7)"/>
    <use xlink:href="#DejaVuSans-2b" transform="translate(127.188965 10.71875) scale(0.49)"/>
    <use xlink:href="#Roboto-Regular-20" transform="translate(182.44043 0.328125)"/>
    <use xlink:href="#Roboto-Regular-61" transform="translate(207.245117 0.328125)"/>
    <use xlink:href="#Roboto-Regular-74" transform="translate(261.639648 0.328125)"/>
   </g>
  </g>
  <g id="patch_7">
   <path d="M 93.413387 25.767717 
L 108.013387 25.767717 
L 108.013387 11.167717 
L 93.413387 11.167717 
L 93.413387 25.767717 
z
" clip-path="url(#pd13dd22552)" style="fill: none"/>
  </g>
  <g id="line2d_37">
   <path d="M 92.713387 18.467717 
L 108.713387 18.467717 
" clip-path="url(#pd13dd22552)" style="fill: none; stroke: #c3006b; stroke-opacity: 0.298039; stroke-width: 0.886227"/>
  </g>
  <g id="line2d_38">
   <path d="M 92.713387 18.467717 
L 108.713387 18.467717 
" clip-path="url(#pd13dd22552)" style="fill: none; stroke: #c3006b; stroke-width: 1.772454"/>
  </g>
  <g id="text_15">
   <!-- carbonyl O -->
   <g transform="translate(109.847245 20.345685) scale(0.07 -0.07)">
    <defs>
     <path id="Roboto-Regular-63" d="M 1794 413 
Q 2103 413 2336 597 
Q 2569 781 2591 1069 
L 3141 1069 
Q 3119 616 2725 276 
Q 2331 -63 1794 -63 
Q 1031 -63 661 440 
Q 291 944 291 1625 
L 291 1756 
Q 291 2438 661 2941 
Q 1031 3444 1794 3444 
Q 2388 3444 2753 3092 
Q 3119 2741 3141 2219 
L 2591 2219 
Q 2569 2531 2355 2750 
Q 2141 2969 1794 2969 
Q 1438 2969 1236 2787 
Q 1034 2606 951 2328 
Q 869 2050 869 1756 
L 869 1625 
Q 869 1328 950 1050 
Q 1031 772 1232 592 
Q 1434 413 1794 413 
z
" transform="scale(0.015625)"/>
     <path id="Roboto-Regular-62" d="M 3303 1653 
Q 3303 913 2959 425 
Q 2616 -63 1988 -63 
Q 1347 -63 1000 391 
L 969 0 
L 438 0 
L 438 4800 
L 1019 4800 
L 1019 3016 
Q 1363 3444 1981 3444 
Q 2619 3444 2961 2969 
Q 3303 2494 3303 1719 
L 3303 1653 
z
M 1838 2956 
Q 1522 2956 1325 2804 
Q 1128 2653 1019 2431 
L 1019 959 
Q 1131 734 1331 581 
Q 1531 428 1844 428 
Q 2313 428 2517 789 
Q 2722 1150 2722 1653 
L 2722 1719 
Q 2722 2222 2526 2589 
Q 2331 2956 1838 2956 
z
" transform="scale(0.015625)"/>
     <path id="Roboto-Regular-6f" d="M 288 1725 
Q 288 2459 700 2951 
Q 1113 3444 1822 3444 
Q 2531 3444 2943 2961 
Q 3356 2478 3366 1756 
L 3366 1653 
Q 3366 919 2952 428 
Q 2538 -63 1828 -63 
Q 1116 -63 702 428 
Q 288 919 288 1653 
L 288 1725 
z
M 866 1653 
Q 866 1150 1105 781 
Q 1344 413 1828 413 
Q 2300 413 2540 777 
Q 2781 1141 2784 1644 
L 2784 1725 
Q 2784 2222 2543 2595 
Q 2303 2969 1822 2969 
Q 1344 2969 1105 2595 
Q 866 2222 866 1725 
L 866 1653 
z
" transform="scale(0.015625)"/>
     <path id="Roboto-Regular-6e" d="M 1844 2956 
Q 1566 2956 1353 2806 
Q 1141 2656 1019 2416 
L 1019 0 
L 441 0 
L 441 3381 
L 988 3381 
L 1006 2959 
Q 1391 3444 2016 3444 
Q 2513 3444 2805 3166 
Q 3097 2888 3100 2231 
L 3100 0 
L 2519 0 
L 2519 2222 
Q 2519 2619 2345 2787 
Q 2172 2956 1844 2956 
z
" transform="scale(0.015625)"/>
     <path id="Roboto-Regular-4f" d="M 4031 2131 
Q 4031 1106 3534 521 
Q 3038 -63 2206 -63 
Q 1397 -63 884 521 
Q 372 1106 372 2131 
L 372 2419 
Q 372 3441 881 4027 
Q 1391 4613 2200 4613 
Q 3025 4613 3523 4036 
Q 4022 3459 4031 2456 
L 4031 2131 
z
M 3434 2425 
Q 3434 3238 3109 3669 
Q 2784 4100 2200 4100 
Q 1641 4100 1305 3669 
Q 969 3238 969 2425 
L 969 2131 
Q 969 1313 1308 880 
Q 1647 447 2206 447 
Q 2794 447 3114 880 
Q 3434 1313 3434 2131 
L 3434 2425 
z
" transform="scale(0.015625)"/>
    </defs>
    <use xlink:href="#Roboto-Regular-63"/>
    <use xlink:href="#Roboto-Regular-61" transform="translate(52.34375 0)"/>
    <use xlink:href="#Roboto-Regular-72" transform="translate(106.738281 0)"/>
    <use xlink:href="#Roboto-Regular-62" transform="translate(140.625 0)"/>
    <use xlink:href="#Roboto-Regular-6f" transform="translate(196.777344 0)"/>
    <use xlink:href="#Roboto-Regular-6e" transform="translate(253.808594 0)"/>
    <use xlink:href="#Roboto-Regular-79" transform="translate(309.033203 0)"/>
    <use xlink:href="#Roboto-Regular-6c" transform="translate(356.347656 0)"/>
    <use xlink:href="#Roboto-Regular-20" transform="translate(380.664062 0)"/>
    <use xlink:href="#Roboto-Regular-4f" transform="translate(405.46875 0)"/>
   </g>
  </g>
  <g id="patch_8">
   <path d="M 149.745839 25.767717 
L 164.345839 25.767717 
L 164.345839 11.167717 
L 149.745839 11.167717 
L 149.745839 25.767717 
z
" clip-path="url(#p9967679f8b)" style="fill: none"/>
  </g>
  <g id="line2d_39">
   <path d="M 149.045839 18.467717 
L 165.045839 18.467717 
" clip-path="url(#p9967679f8b)" style="fill: none; stroke: #003063; stroke-opacity: 0.298039; stroke-width: 0.886227"/>
  </g>
  <g id="line2d_40">
   <path d="M 149.045839 18.467717 
L 165.045839 18.467717 
" clip-path="url(#p9967679f8b)" style="fill: none; stroke: #003063; stroke-width: 1.772454"/>
  </g>
  <g id="text_16">
   <!-- hydroxyl O -->
   <g transform="translate(166.179697 20.345685) scale(0.07 -0.07)">
    <defs>
     <path id="Roboto-Regular-68" d="M 1844 2956 
Q 1566 2956 1353 2806 
Q 1141 2656 1019 2416 
L 1019 0 
L 441 0 
L 441 4800 
L 1019 4800 
L 1019 2978 
Q 1403 3444 2016 3444 
Q 2513 3444 2805 3166 
Q 3097 2888 3100 2231 
L 3100 0 
L 2519 0 
L 2519 2222 
Q 2519 2619 2345 2787 
Q 2172 2956 1844 2956 
z
" transform="scale(0.015625)"/>
     <path id="Roboto-Regular-64" d="M 2622 0 
L 2594 363 
Q 2247 -63 1628 -63 
Q 1034 -63 668 418 
Q 303 900 297 1628 
L 297 1719 
Q 297 2494 664 2969 
Q 1031 3444 1634 3444 
Q 2231 3444 2572 3044 
L 2572 4800 
L 3153 4800 
L 3153 0 
L 2622 0 
z
M 878 1653 
Q 878 1150 1090 789 
Q 1303 428 1772 428 
Q 2309 428 2572 919 
L 2572 2475 
Q 2313 2956 1778 2956 
Q 1306 2956 1092 2589 
Q 878 2222 878 1719 
L 878 1653 
z
" transform="scale(0.015625)"/>
     <path id="Roboto-Regular-78" d="M 831 3381 
L 1572 2150 
L 2322 3381 
L 3000 3381 
L 1894 1713 
L 3034 0 
L 2366 0 
L 1584 1269 
L 803 0 
L 131 0 
L 1269 1713 
L 166 3381 
L 831 3381 
z
" transform="scale(0.015625)"/>
    </defs>
    <use xlink:href="#Roboto-Regular-68"/>
    <use xlink:href="#Roboto-Regular-79" transform="translate(55.078125 0)"/>
    <use xlink:href="#Roboto-Regular-64" transform="translate(102.392578 0)"/>
    <use xlink:href="#Roboto-Regular-72" transform="translate(158.789062 0)"/>
    <use xlink:href="#Roboto-Regular-6f" transform="translate(192.675781 0)"/>
    <use xlink:href="#Roboto-Regular-78" transform="translate(249.707031 0)"/>
    <use xlink:href="#Roboto-Regular-79" transform="translate(299.316406 0)"/>
    <use xlink:href="#Roboto-Regular-6c" transform="translate(346.630859 0)"/>
    <use xlink:href="#Roboto-Regular-20" transform="translate(370.947266 0)"/>
    <use xlink:href="#Roboto-Regular-4f" transform="translate(395.751953 0)"/>
   </g>
  </g>
 </g>
 <defs>
  <clipPath id="pe709db786c">
   <rect x="34.521996" y="50.263929" width="197.181941" height="102.735628"/>
  </clipPath>
  <clipPath id="pd13dd22552">
   <path d="M 92.713387 26.467717 
L 92.713387 10.467717 
L 108.713387 10.467717 
L 108.713387 26.467717 
"/>
  </clipPath>
  <clipPath id="p9967679f8b">
   <path d="M 149.045839 26.467717 
L 149.045839 10.467717 
L 165.045839 10.467717 
L 165.045839 26.467717 
"/>
  </clipPath>
 </defs>
</svg>
