<?xml version="1.0" encoding="utf-8" standalone="no"?>
<!DOCTYPE svg PUBLIC "-//W3C//DTD SVG 1.1//EN"
  "http://www.w3.org/Graphics/SVG/1.1/DTD/svg11.dtd">
<svg xmlns:xlink="http://www.w3.org/1999/xlink" width="240.4pt" height="184.4pt" viewBox="0 0 240.4 184.4" xmlns="http://www.w3.org/2000/svg" version="1.1">
 <metadata>
  <rdf:RDF xmlns:dc="http://purl.org/dc/elements/1.1/" xmlns:cc="http://creativecommons.org/ns#" xmlns:rdf="http://www.w3.org/1999/02/22-rdf-syntax-ns#">
   <cc:Work>
    <dc:type rdf:resource="http://purl.org/dc/dcmitype/StillImage"/>
    <dc:date>2026-05-08T13:32:30.857024</dc:date>
    <dc:format>image/svg+xml</dc:format>
    <dc:creator>
     <cc:Agent>
      <dc:title>Matplotlib v3.10.6, https://matplotlib.org/</dc:title>
     </cc:Agent>
    </dc:creator>
   </cc:Work>
  </rdf:RDF>
 </metadata>
 <defs>
  <style type="text/css">*{stroke-linejoin: round; stroke-linecap: butt}</style>
 </defs>
 <g id="figure_1">
  <g id="patch_1">
   <path d="M 0 184.4 
L 240.4 184.4 
L 240.4 0 
L 0 0 
z
" style="fill: #ffffff"/>
  </g>
  <g id="patch_2">
   <path d="M 7.2 177.2 
L 233.2 177.2 
L 233.2 7.2 
L 7.2 7.2 
L 7.2 177.2 
z
" style="fill: none; stroke: #ffffff; stroke-width: 0.7; stroke-linejoin: miter"/>
  </g>
  <g id="axes_1">
   <g id="patch_3">
    <path d="M 37.19449 153.924028 
L 230.94 153.924028 
L 230.94 9.466667 
L 37.19449 9.466667 
z
" style="fill: #ffffff"/>
   </g>
   <g id="matplotlib.axis_1">
    <g id="xtick_1">
     <g id="line2d_1">
      <defs>
       <path id="mfe647410c7" d="M 0 1.5 
L 0 -1.5 
" style="stroke: #000000; stroke-width: 0.7"/>
      </defs>
      <g>
       <use xlink:href="#mfe647410c7" x="73.521773" y="153.924028" style="stroke: #000000; stroke-width: 0.7"/>
      </g>
     </g>
     <g id="text_1">
      <!-- C -->
      <g transform="translate(71.243492 163.074028) scale(0.07 -0.07)">
       <defs>
        <path id="Roboto-Regular-43" d="M 3275 1447 
L 3875 1447 
Q 3806 800 3387 368 
Q 2969 -63 2150 -63 
Q 1356 -63 870 504 
Q 384 1072 375 2013 
L 375 2500 
Q 375 3456 867 4034 
Q 1359 4613 2203 4613 
Q 2975 4613 3390 4188 
Q 3806 3763 3875 3091 
L 3275 3091 
Q 3206 3566 2968 3842 
Q 2731 4119 2203 4119 
Q 1600 4119 1287 3675 
Q 975 3231 975 2506 
L 975 2047 
Q 975 1375 1259 901 
Q 1544 428 2150 428 
Q 2725 428 2961 697 
Q 3197 966 3275 1447 
z
" transform="scale(0.015625)"/>
       </defs>
       <use xlink:href="#Roboto-Regular-43"/>
      </g>
     </g>
    </g>
    <g id="xtick_2">
     <g id="line2d_2">
      <g>
       <use xlink:href="#mfe647410c7" x="134.067245" y="153.924028" style="stroke: #000000; stroke-width: 0.7"/>
      </g>
     </g>
     <g id="text_2">
      <!-- N -->
      <g transform="translate(131.570214 163.074028) scale(0.07 -0.07)">
       <defs>
        <path id="Roboto-Regular-4e" d="M 4028 4550 
L 4028 0 
L 3422 0 
L 1131 3509 
L 1131 0 
L 528 0 
L 528 4550 
L 1131 4550 
L 3431 1031 
L 3431 4550 
L 4028 4550 
z
" transform="scale(0.015625)"/>
       </defs>
       <use xlink:href="#Roboto-Regular-4e"/>
      </g>
     </g>
    </g>
    <g id="xtick_3">
     <g id="line2d_3">
      <g>
       <use xlink:href="#mfe647410c7" x="194.612717" y="153.924028" style="stroke: #000000; stroke-width: 0.7"/>
      </g>
     </g>
     <g id="text_3">
      <!-- none -->
      <g transform="translate(186.895217 163.074028) scale(0.07 -0.07)">
       <defs>
        <path id="Roboto-Regular-6e" d="M 1844 2956 
Q 1566 2956 1353 2806 
Q 1141 2656 1019 2416 
L 1019 0 
L 441 0 
L 441 3381 
L 988 3381 
L 1006 2959 
Q 1391 3444 2016 3444 
Q 2513 3444 2805 3166 
Q 3097 2888 3100 2231 
L 3100 0 
L 2519 0 
L 2519 2222 
Q 2519 2619 2345 2787 
Q 2172 2956 1844 2956 
z
" transform="scale(0.015625)"/>
        <path id="Roboto-Regular-6f" d="M 288 1725 
Q 288 2459 700 2951 
Q 1113 3444 1822 3444 
Q 2531 3444 2943 2961 
Q 3356 2478 3366 1756 
L 3366 1653 
Q 3366 919 2952 428 
Q 2538 -63 1828 -63 
Q 1116 -63 702 428 
Q 288 919 288 1653 
L 288 1725 
z
M 866 1653 
Q 866 1150 1105 781 
Q 1344 413 1828 413 
Q 2300 413 2540 777 
Q 2781 1141 2784 1644 
L 2784 1725 
Q 2784 2222 2543 2595 
Q 2303 2969 1822 2969 
Q 1344 2969 1105 2595 
Q 866 2222 866 1725 
L 866 1653 
z
" transform="scale(0.015625)"/>
        <path id="Roboto-Regular-65" d="M 3116 591 
Q 2950 341 2647 139 
Q 2344 -63 1844 -63 
Q 1138 -63 714 396 
Q 291 856 291 1572 
L 291 1703 
Q 291 2256 502 2645 
Q 713 3034 1050 3239 
Q 1388 3444 1769 3444 
Q 2494 3444 2826 2970 
Q 3159 2497 3159 1788 
L 3159 1528 
L 872 1528 
Q 884 1063 1148 736 
Q 1413 409 1875 409 
Q 2181 409 2393 534 
Q 2606 659 2766 869 
L 3116 591 
z
M 1769 2969 
Q 1425 2969 1187 2719 
Q 950 2469 891 2000 
L 2581 2000 
L 2581 2044 
Q 2559 2381 2386 2675 
Q 2213 2969 1769 2969 
z
" transform="scale(0.015625)"/>
       </defs>
       <use xlink:href="#Roboto-Regular-6e"/>
       <use xlink:href="#Roboto-Regular-6f" transform="translate(55.224609 0)"/>
       <use xlink:href="#Roboto-Regular-6e" transform="translate(112.255859 0)"/>
       <use xlink:href="#Roboto-Regular-65" transform="translate(167.480469 0)"/>
      </g>
     </g>
    </g>
   </g>
   <g id="matplotlib.axis_2">
    <g id="ytick_1">
     <g id="line2d_4">
      <defs>
       <path id="mcb47e80140" d="M 1.5 0 
L -1.5 -0 
" style="stroke: #000000; stroke-width: 0.7"/>
      </defs>
      <g>
       <use xlink:href="#mcb47e80140" x="37.19449" y="147.357784" style="stroke: #000000; stroke-width: 0.7"/>
      </g>
     </g>
     <g id="text_4">
      <!-- 0 -->
      <g transform="translate(29.360271 149.982784) scale(0.07 -0.07)">
       <defs>
        <path id="Roboto-Regular-30" d="M 3234 1944 
Q 3234 825 2848 381 
Q 2463 -63 1800 -63 
Q 1156 -63 764 368 
Q 372 800 359 1872 
L 359 2638 
Q 359 3753 750 4183 
Q 1141 4613 1794 4613 
Q 2447 4613 2834 4195 
Q 3222 3778 3234 2709 
L 3234 1944 
z
M 2653 2734 
Q 2653 3503 2434 3822 
Q 2216 4141 1794 4141 
Q 1388 4141 1167 3831 
Q 947 3522 941 2778 
L 941 1850 
Q 941 1088 1164 750 
Q 1388 413 1800 413 
Q 2222 413 2436 745 
Q 2650 1078 2653 1825 
L 2653 2734 
z
" transform="scale(0.015625)"/>
       </defs>
       <use xlink:href="#Roboto-Regular-30"/>
      </g>
     </g>
    </g>
    <g id="ytick_2">
     <g id="line2d_5">
      <g>
       <use xlink:href="#mcb47e80140" x="37.19449" y="110.878652" style="stroke: #000000; stroke-width: 0.7"/>
      </g>
     </g>
     <g id="text_5">
      <!-- 50 -->
      <g transform="translate(25.426052 113.503652) scale(0.07 -0.07)">
       <defs>
        <path id="Roboto-Regular-35" d="M 1109 2166 
L 647 2284 
L 875 4550 
L 3209 4550 
L 3209 4016 
L 1366 4016 
L 1228 2778 
Q 1572 2975 1988 2975 
Q 2616 2975 2980 2561 
Q 3344 2147 3344 1450 
Q 3344 797 2987 367 
Q 2631 -63 1903 -63 
Q 1350 -63 947 248 
Q 544 559 481 1197 
L 1031 1197 
Q 1141 413 1903 413 
Q 2313 413 2538 691 
Q 2763 969 2763 1444 
Q 2763 1872 2527 2164 
Q 2291 2456 1853 2456 
Q 1563 2456 1413 2378 
Q 1263 2300 1109 2166 
z
" transform="scale(0.015625)"/>
       </defs>
       <use xlink:href="#Roboto-Regular-35"/>
       <use xlink:href="#Roboto-Regular-30" transform="translate(56.201172 0)"/>
      </g>
     </g>
    </g>
    <g id="ytick_3">
     <g id="line2d_6">
      <g>
       <use xlink:href="#mcb47e80140" x="37.19449" y="74.399521" style="stroke: #000000; stroke-width: 0.7"/>
      </g>
     </g>
     <g id="text_6">
      <!-- 100 -->
      <g transform="translate(21.491833 77.024521) scale(0.07 -0.07)">
       <defs>
        <path id="Roboto-Regular-31" d="M 2278 4575 
L 2278 0 
L 1700 0 
L 1700 3853 
L 534 3428 
L 534 3950 
L 2188 4575 
L 2278 4575 
z
" transform="scale(0.015625)"/>
       </defs>
       <use xlink:href="#Roboto-Regular-31"/>
       <use xlink:href="#Roboto-Regular-30" transform="translate(56.201172 0)"/>
       <use xlink:href="#Roboto-Regular-30" transform="translate(112.402344 0)"/>
      </g>
     </g>
    </g>
    <g id="ytick_4">
     <g id="line2d_7">
      <g>
       <use xlink:href="#mcb47e80140" x="37.19449" y="37.920389" style="stroke: #000000; stroke-width: 0.7"/>
      </g>
     </g>
     <g id="text_7">
      <!-- 150 -->
      <g transform="translate(21.491833 40.545389) scale(0.07 -0.07)">
       <use xlink:href="#Roboto-Regular-31"/>
       <use xlink:href="#Roboto-Regular-35" transform="translate(56.201172 0)"/>
       <use xlink:href="#Roboto-Regular-30" transform="translate(112.402344 0)"/>
      </g>
     </g>
    </g>
    <g id="ytick_5">
     <g id="line2d_8">
      <defs>
       <path id="m7e49808d90" d="M 2 0 
L -2 -0 
" style="stroke: #000000; stroke-width: 0.7"/>
      </defs>
      <g>
       <use xlink:href="#m7e49808d90" x="37.19449" y="129.118218" style="stroke: #000000; stroke-width: 0.7"/>
      </g>
     </g>
    </g>
    <g id="ytick_6">
     <g id="line2d_9">
      <g>
       <use xlink:href="#m7e49808d90" x="37.19449" y="92.639087" style="stroke: #000000; stroke-width: 0.7"/>
      </g>
     </g>
    </g>
    <g id="ytick_7">
     <g id="line2d_10">
      <g>
       <use xlink:href="#m7e49808d90" x="37.19449" y="56.159955" style="stroke: #000000; stroke-width: 0.7"/>
      </g>
     </g>
    </g>
    <g id="ytick_8">
     <g id="line2d_11">
      <g>
       <use xlink:href="#m7e49808d90" x="37.19449" y="19.680824" style="stroke: #000000; stroke-width: 0.7"/>
      </g>
     </g>
    </g>
   </g>
   <g id="PathCollection_1">
    <path d="M 190.923625 63.442962 
C 191.74623 63.442962 192.535255 63.116137 193.116925 62.534467 
C 193.698594 61.952797 194.025419 61.163773 194.025419 60.341167 
C 194.025419 59.518562 193.698594 58.729538 193.116925 58.147868 
C 192.535255 57.566198 191.74623 57.239373 190.923625 57.239373 
C 190.101019 57.239373 189.311995 57.566198 188.730325 58.147868 
C 188.148655 58.729538 187.821831 59.518562 187.821831 60.341167 
C 187.821831 61.163773 188.148655 61.952797 188.730325 62.534467 
C 189.311995 63.116137 190.101019 63.442962 190.923625 63.442962 
z
" clip-path="url(#pb841b9be1c)" style="fill: #777777; stroke: #000000; stroke-width: 0.886227"/>
    <path d="M 192.492701 69.202429 
C 193.315307 69.202429 194.104331 68.875605 194.686001 68.293935 
C 195.267671 67.712265 195.594495 66.923241 195.594495 66.100635 
C 195.594495 65.27803 195.267671 64.489005 194.686001 63.907335 
C 194.104331 63.325665 193.315307 62.998841 192.492701 62.998841 
C 191.670096 62.998841 190.881071 63.325665 190.299401 63.907335 
C 189.717731 64.489005 189.390907 65.27803 189.390907 66.100635 
C 189.390907 66.923241 189.717731 67.712265 190.299401 68.293935 
C 190.881071 68.875605 191.670096 69.202429 192.492701 69.202429 
z
" clip-path="url(#pb841b9be1c)" style="fill: #777777; stroke: #000000; stroke-width: 0.886227"/>
    <path d="M 188.779514 81.10707 
C 189.60212 81.10707 190.391144 80.780245 190.972814 80.198575 
C 191.554484 79.616905 191.881308 78.827881 191.881308 78.005276 
C 191.881308 77.18267 191.554484 76.393646 190.972814 75.811976 
C 190.391144 75.230306 189.60212 74.903481 188.779514 74.903481 
C 187.956909 74.903481 187.167884 75.230306 186.586214 75.811976 
C 186.004544 76.393646 185.67772 77.18267 185.67772 78.005276 
C 185.67772 78.827881 186.004544 79.616905 186.586214 80.198575 
C 187.167884 80.780245 187.956909 81.10707 188.779514 81.10707 
z
" clip-path="url(#pb841b9be1c)" style="fill: #777777; stroke: #000000; stroke-width: 0.886227"/>
    <path d="M 200.451596 65.860889 
C 201.274202 65.860889 202.063226 65.534065 202.644896 64.952395 
C 203.226566 64.370725 203.55339 63.5817 203.55339 62.759095 
C 203.55339 61.936489 203.226566 61.147465 202.644896 60.565795 
C 202.063226 59.984125 201.274202 59.657301 200.451596 59.657301 
C 199.628991 59.657301 198.839966 59.984125 198.258297 60.565795 
C 197.676627 61.147465 197.349802 61.936489 197.349802 62.759095 
C 197.349802 63.5817 197.676627 64.370725 198.258297 64.952395 
C 198.839966 65.534065 199.628991 65.860889 200.451596 65.860889 
z
" clip-path="url(#pb841b9be1c)" style="fill: #777777; stroke: #000000; stroke-width: 0.886227"/>
    <path d="M 194.413535 61.922774 
C 195.23614 61.922774 196.025165 61.595949 196.606835 61.014279 
C 197.188505 60.432609 197.515329 59.643585 197.515329 58.82098 
C 197.515329 57.998374 197.188505 57.20935 196.606835 56.62768 
C 196.025165 56.04601 195.23614 55.719185 194.413535 55.719185 
C 193.590929 55.719185 192.801905 56.04601 192.220235 56.62768 
C 191.638565 57.20935 191.311741 57.998374 191.311741 58.82098 
C 191.311741 59.643585 191.638565 60.432609 192.220235 61.014279 
C 192.801905 61.595949 193.590929 61.922774 194.413535 61.922774 
z
" clip-path="url(#pb841b9be1c)" style="fill: #777777; stroke: #000000; stroke-width: 0.886227"/>
    <path d="M 199.356224 57.175936 
C 200.17883 57.175936 200.967854 56.849111 201.549524 56.267441 
C 202.131194 55.685771 202.458019 54.896747 202.458019 54.074142 
C 202.458019 53.251536 202.131194 52.462512 201.549524 51.880842 
C 200.967854 51.299172 200.17883 50.972347 199.356224 50.972347 
C 198.533619 50.972347 197.744595 51.299172 197.162925 51.880842 
C 196.581255 52.462512 196.25443 53.251536 196.25443 54.074142 
C 196.25443 54.896747 196.581255 55.685771 197.162925 56.267441 
C 197.744595 56.849111 198.533619 57.175936 199.356224 57.175936 
z
" clip-path="url(#pb841b9be1c)" style="fill: #777777; stroke: #000000; stroke-width: 0.886227"/>
    <path d="M 135.324232 68.758938 
C 136.146838 68.758938 136.935862 68.432114 137.517532 67.850444 
C 138.099202 67.268774 138.426027 66.47975 138.426027 65.657144 
C 138.426027 64.834539 138.099202 64.045514 137.517532 63.463844 
C 136.935862 62.882174 136.146838 62.55535 135.324232 62.55535 
C 134.501627 62.55535 133.712603 62.882174 133.130933 63.463844 
C 132.549263 64.045514 132.222438 64.834539 132.222438 65.657144 
C 132.222438 66.47975 132.549263 67.268774 133.130933 67.850444 
C 133.712603 68.432114 134.501627 68.758938 135.324232 68.758938 
z
" clip-path="url(#pb841b9be1c)" style="fill: #777777; stroke: #000000; stroke-width: 0.886227"/>
    <path d="M 129.765451 80.95054 
C 130.588057 80.95054 131.377081 80.623715 131.958751 80.042045 
C 132.540421 79.460375 132.867245 78.671351 132.867245 77.848745 
C 132.867245 77.02614 132.540421 76.237116 131.958751 75.655446 
C 131.377081 75.073776 130.588057 74.746951 129.765451 74.746951 
C 128.942846 74.746951 128.153821 75.073776 127.572151 75.655446 
C 126.990481 76.237116 126.663657 77.02614 126.663657 77.848745 
C 126.663657 78.671351 126.990481 79.460375 127.572151 80.042045 
C 128.153821 80.623715 128.942846 80.95054 129.765451 80.95054 
z
" clip-path="url(#pb841b9be1c)" style="fill: #777777; stroke: #000000; stroke-width: 0.886227"/>
    <path d="M 196.058538 73.617388 
C 196.881143 73.617388 197.670168 73.290563 198.251838 72.708893 
C 198.833507 72.127223 199.160332 71.338199 199.160332 70.515593 
C 199.160332 69.692988 198.833507 68.903964 198.251838 68.322294 
C 197.670168 67.740624 196.881143 67.413799 196.058538 67.413799 
C 195.235932 67.413799 194.446908 67.740624 193.865238 68.322294 
C 193.283568 68.903964 192.956744 69.692988 192.956744 70.515593 
C 192.956744 71.338199 193.283568 72.127223 193.865238 72.708893 
C 194.446908 73.290563 195.235932 73.617388 196.058538 73.617388 
z
" clip-path="url(#pb841b9be1c)" style="fill: #777777; stroke: #000000; stroke-width: 0.886227"/>
    <path d="M 195.821574 81.509207 
C 196.644179 81.509207 197.433204 81.182383 198.014874 80.600713 
C 198.596543 80.019043 198.923368 79.230018 198.923368 78.407413 
C 198.923368 77.584808 198.596543 76.795783 198.014874 76.214113 
C 197.433204 75.632443 196.644179 75.305619 195.821574 75.305619 
C 194.998968 75.305619 194.209944 75.632443 193.628274 76.214113 
C 193.046604 76.795783 192.71978 77.584808 192.71978 78.407413 
C 192.71978 79.230018 193.046604 80.019043 193.628274 80.600713 
C 194.209944 81.182383 194.998968 81.509207 195.821574 81.509207 
z
" clip-path="url(#pb841b9be1c)" style="fill: #777777; stroke: #000000; stroke-width: 0.886227"/>
    <path d="M 76.236052 50.901509 
C 77.058658 50.901509 77.847682 50.574684 78.429352 49.993014 
C 79.011022 49.411345 79.337847 48.62232 79.337847 47.799715 
C 79.337847 46.977109 79.011022 46.188085 78.429352 45.606415 
C 77.847682 45.024745 77.058658 44.69792 76.236052 44.69792 
C 75.413447 44.69792 74.624423 45.024745 74.042753 45.606415 
C 73.461083 46.188085 73.134258 46.977109 73.134258 47.799715 
C 73.134258 48.62232 73.461083 49.411345 74.042753 49.993014 
C 74.624423 50.574684 75.413447 50.901509 76.236052 50.901509 
z
" clip-path="url(#pb841b9be1c)" style="fill: #777777; stroke: #000000; stroke-width: 0.886227"/>
    <path d="M 76.43375 41.561094 
C 77.256355 41.561094 78.04538 41.23427 78.62705 40.6526 
C 79.208719 40.07093 79.535544 39.281906 79.535544 38.4593 
C 79.535544 37.636695 79.208719 36.84767 78.62705 36.266 
C 78.04538 35.684331 77.256355 35.357506 76.43375 35.357506 
C 75.611144 35.357506 74.82212 35.684331 74.24045 36.266 
C 73.65878 36.84767 73.331956 37.636695 73.331956 38.4593 
C 73.331956 39.281906 73.65878 40.07093 74.24045 40.6526 
C 74.82212 41.23427 75.611144 41.561094 76.43375 41.561094 
z
" clip-path="url(#pb841b9be1c)" style="fill: #777777; stroke: #000000; stroke-width: 0.886227"/>
    <path d="M 74.010775 69.310774 
C 74.83338 69.310774 75.622404 68.983949 76.204074 68.402279 
C 76.785744 67.820609 77.112569 67.031585 77.112569 66.20898 
C 77.112569 65.386374 76.785744 64.59735 76.204074 64.01568 
C 75.622404 63.43401 74.83338 63.107185 74.010775 63.107185 
C 73.188169 63.107185 72.399145 63.43401 71.817475 64.01568 
C 71.235805 64.59735 70.90898 65.386374 70.90898 66.20898 
C 70.90898 67.031585 71.235805 67.820609 71.817475 68.402279 
C 72.399145 68.983949 73.188169 69.310774 74.010775 69.310774 
z
" clip-path="url(#pb841b9be1c)" style="fill: #777777; stroke: #000000; stroke-width: 0.886227"/>
    <path d="M 75.924423 44.94168 
C 76.747029 44.94168 77.536053 44.614855 78.117723 44.033185 
C 78.699393 43.451515 79.026217 42.662491 79.026217 41.839886 
C 79.026217 41.01728 78.699393 40.228256 78.117723 39.646586 
C 77.536053 39.064916 76.747029 38.738091 75.924423 38.738091 
C 75.101818 38.738091 74.312793 39.064916 73.731123 39.646586 
C 73.149453 40.228256 72.822629 41.01728 72.822629 41.839886 
C 72.822629 42.662491 73.149453 43.451515 73.731123 44.033185 
C 74.312793 44.614855 75.101818 44.94168 75.924423 44.94168 
z
" clip-path="url(#pb841b9be1c)" style="fill: #777777; stroke: #000000; stroke-width: 0.886227"/>
    <path d="M 189.280505 66.853691 
C 190.10311 66.853691 190.892134 66.526867 191.473804 65.945197 
C 192.055474 65.363527 192.382299 64.574502 192.382299 63.751897 
C 192.382299 62.929292 192.055474 62.140267 191.473804 61.558597 
C 190.892134 60.976927 190.10311 60.650103 189.280505 60.650103 
C 188.457899 60.650103 187.668875 60.976927 187.087205 61.558597 
C 186.505535 62.140267 186.17871 62.929292 186.17871 63.751897 
C 186.17871 64.574502 186.505535 65.363527 187.087205 65.945197 
C 187.668875 66.526867 188.457899 66.853691 189.280505 66.853691 
z
" clip-path="url(#pb841b9be1c)" style="fill: #777777; stroke: #000000; stroke-width: 0.886227"/>
    <path d="M 196.424494 45.939805 
C 197.2471 45.939805 198.036124 45.61298 198.617794 45.03131 
C 199.199464 44.44964 199.526289 43.660616 199.526289 42.83801 
C 199.526289 42.015405 199.199464 41.22638 198.617794 40.644711 
C 198.036124 40.063041 197.2471 39.736216 196.424494 39.736216 
C 195.601889 39.736216 194.812864 40.063041 194.231195 40.644711 
C 193.649525 41.22638 193.3227 42.015405 193.3227 42.83801 
C 193.3227 43.660616 193.649525 44.44964 194.231195 45.03131 
C 194.812864 45.61298 195.601889 45.939805 196.424494 45.939805 
z
" clip-path="url(#pb841b9be1c)" style="fill: #777777; stroke: #000000; stroke-width: 0.886227"/>
   </g>
  </g>
  <g id="patch_4">
   <path d="M 37.19449 153.924028 
L 230.94 153.924028 
L 230.94 9.466667 
L 37.19449 9.466667 
L 37.19449 153.924028 
z
" style="fill: none; stroke: #000000; stroke-width: 0.7; stroke-linejoin: miter"/>
  </g>
  <g id="text_8">
   <!-- Proline position -->
   <g transform="translate(109.773964 173.511458) scale(0.07 -0.07)">
    <defs>
     <path id="Roboto-Regular-50" d="M 1131 1784 
L 1131 0 
L 528 0 
L 528 4550 
L 2206 4550 
Q 2981 4550 3392 4159 
Q 3803 3769 3803 3163 
Q 3803 2503 3392 2143 
Q 2981 1784 2206 1784 
L 1131 1784 
z
M 1131 4056 
L 1131 2275 
L 2206 2275 
Q 2738 2275 2969 2522 
Q 3200 2769 3200 3156 
Q 3200 3506 2969 3781 
Q 2738 4056 2206 4056 
L 1131 4056 
z
" transform="scale(0.015625)"/>
     <path id="Roboto-Regular-72" d="M 1791 2888 
Q 1225 2888 1019 2400 
L 1019 0 
L 441 0 
L 441 3381 
L 1003 3381 
L 1016 2994 
Q 1294 3444 1819 3444 
Q 1981 3444 2075 3400 
L 2072 2863 
Q 1944 2888 1791 2888 
z
" transform="scale(0.015625)"/>
     <path id="Roboto-Regular-6c" d="M 1069 4800 
L 1069 0 
L 488 0 
L 488 4800 
L 1069 4800 
z
" transform="scale(0.015625)"/>
     <path id="Roboto-Regular-69" d="M 444 4278 
Q 444 4419 530 4516 
Q 616 4613 784 4613 
Q 950 4613 1039 4516 
Q 1128 4419 1128 4278 
Q 1128 4144 1039 4048 
Q 950 3953 784 3953 
Q 616 3953 530 4048 
Q 444 4144 444 4278 
z
M 1069 3381 
L 1069 0 
L 488 0 
L 488 3381 
L 1069 3381 
z
" transform="scale(0.015625)"/>
     <path id="Roboto-Regular-20" transform="scale(0.015625)"/>
     <path id="Roboto-Regular-70" d="M 1984 -63 
Q 1375 -63 1019 328 
L 1019 -1300 
L 438 -1300 
L 438 3381 
L 969 3381 
L 997 3009 
Q 1353 3444 1975 3444 
Q 2616 3444 2956 2969 
Q 3297 2494 3297 1719 
L 3297 1653 
Q 3297 913 2955 425 
Q 2613 -63 1984 -63 
z
M 1806 2956 
Q 1281 2956 1019 2491 
L 1019 872 
Q 1284 413 1813 413 
Q 2281 413 2498 781 
Q 2716 1150 2716 1653 
L 2716 1719 
Q 2716 2222 2498 2589 
Q 2281 2956 1806 2956 
z
" transform="scale(0.015625)"/>
     <path id="Roboto-Regular-73" d="M 2409 897 
Q 2409 1081 2273 1229 
Q 2138 1378 1647 1478 
Q 1081 1594 747 1814 
Q 413 2034 413 2456 
Q 413 2856 755 3150 
Q 1097 3444 1666 3444 
Q 2272 3444 2612 3134 
Q 2953 2825 2953 2388 
L 2375 2388 
Q 2375 2597 2190 2783 
Q 2006 2969 1666 2969 
Q 1306 2969 1150 2812 
Q 994 2656 994 2472 
Q 994 2288 1139 2173 
Q 1284 2059 1756 1953 
Q 2378 1813 2683 1584 
Q 2988 1356 2988 941 
Q 2988 494 2630 215 
Q 2272 -63 1681 -63 
Q 1009 -63 653 281 
Q 297 625 297 1044 
L 878 1044 
Q 897 684 1155 548 
Q 1413 413 1681 413 
Q 2034 413 2221 550 
Q 2409 688 2409 897 
z
" transform="scale(0.015625)"/>
     <path id="Roboto-Regular-74" d="M 1872 0 
Q 1675 -63 1425 -63 
Q 1103 -63 875 134 
Q 647 331 647 841 
L 647 2938 
L 28 2938 
L 28 3381 
L 647 3381 
L 647 4203 
L 1225 4203 
L 1225 3381 
L 1856 3381 
L 1856 2938 
L 1225 2938 
L 1225 838 
Q 1225 578 1337 506 
Q 1450 434 1597 434 
Q 1706 434 1869 472 
L 1872 0 
z
" transform="scale(0.015625)"/>
    </defs>
    <use xlink:href="#Roboto-Regular-50"/>
    <use xlink:href="#Roboto-Regular-72" transform="translate(63.085938 0)"/>
    <use xlink:href="#Roboto-Regular-6f" transform="translate(96.972656 0)"/>
    <use xlink:href="#Roboto-Regular-6c" transform="translate(154.003906 0)"/>
    <use xlink:href="#Roboto-Regular-69" transform="translate(178.320312 0)"/>
    <use xlink:href="#Roboto-Regular-6e" transform="translate(202.636719 0)"/>
    <use xlink:href="#Roboto-Regular-65" transform="translate(257.861328 0)"/>
    <use xlink:href="#Roboto-Regular-20" transform="translate(310.888672 0)"/>
    <use xlink:href="#Roboto-Regular-70" transform="translate(335.693359 0)"/>
    <use xlink:href="#Roboto-Regular-6f" transform="translate(391.845703 0)"/>
    <use xlink:href="#Roboto-Regular-73" transform="translate(448.876953 0)"/>
    <use xlink:href="#Roboto-Regular-69" transform="translate(500.488281 0)"/>
    <use xlink:href="#Roboto-Regular-74" transform="translate(524.804688 0)"/>
    <use xlink:href="#Roboto-Regular-69" transform="translate(557.519531 0)"/>
    <use xlink:href="#Roboto-Regular-6f" transform="translate(581.835938 0)"/>
    <use xlink:href="#Roboto-Regular-6e" transform="translate(638.867188 0)"/>
   </g>
  </g>
  <g id="text_9">
   <!-- $\Delta$G (kJ/mol) -->
   <g transform="translate(15.13 100.840347) rotate(-90) scale(0.07 -0.07)">
    <defs>
     <path id="DejaVuSans-394" d="M 2188 4044 
L 906 525 
L 3472 525 
L 2188 4044 
z
M 50 0 
L 1831 4666 
L 2547 4666 
L 4325 0 
L 50 0 
z
" transform="scale(0.015625)"/>
     <path id="Roboto-Regular-47" d="M 3891 2266 
L 3891 600 
Q 3763 413 3403 175 
Q 3044 -63 2281 -63 
Q 1450 -63 915 507 
Q 381 1078 381 2100 
L 381 2453 
Q 381 3469 856 4041 
Q 1331 4613 2213 4613 
Q 2994 4613 3398 4219 
Q 3803 3825 3891 3219 
L 3288 3219 
Q 3225 3588 2979 3853 
Q 2734 4119 2213 4119 
Q 1584 4119 1287 3676 
Q 991 3234 988 2475 
L 988 2100 
Q 988 1313 1344 870 
Q 1700 428 2284 428 
Q 2769 428 2984 542 
Q 3200 656 3291 759 
L 3291 1778 
L 2238 1778 
L 2238 2266 
L 3891 2266 
z
" transform="scale(0.015625)"/>
     <path id="Roboto-Regular-28" d="M 419 1850 
Q 419 2756 678 3434 
Q 938 4113 1294 4541 
Q 1650 4969 1947 5134 
L 2069 4753 
Q 1700 4475 1348 3761 
Q 997 3047 997 1813 
Q 997 625 1348 -97 
Q 1700 -819 2069 -1119 
L 1947 -1469 
Q 1650 -1306 1294 -878 
Q 938 -450 678 226 
Q 419 903 419 1850 
z
" transform="scale(0.015625)"/>
     <path id="Roboto-Regular-6b" d="M 2559 0 
L 1388 1569 
L 1022 1191 
L 1022 0 
L 441 0 
L 441 4800 
L 1022 4800 
L 1022 1900 
L 1331 2269 
L 2381 3381 
L 3088 3381 
L 1769 1972 
L 3241 0 
L 2559 0 
z
" transform="scale(0.015625)"/>
     <path id="Roboto-Regular-4a" d="M 2438 4550 
L 3038 4550 
L 3038 1328 
Q 3038 653 2633 295 
Q 2228 -63 1603 -63 
Q 975 -63 570 262 
Q 166 588 166 1259 
L 769 1259 
Q 769 828 1001 628 
Q 1234 428 1603 428 
Q 1959 428 2198 656 
Q 2438 884 2438 1328 
L 2438 4550 
z
" transform="scale(0.015625)"/>
     <path id="Roboto-Regular-2f" d="M 2453 4550 
L 556 -391 
L 59 -391 
L 1959 4550 
L 2453 4550 
z
" transform="scale(0.015625)"/>
     <path id="Roboto-Regular-6d" d="M 1794 2956 
Q 1225 2956 1016 2478 
L 1016 0 
L 434 0 
L 434 3381 
L 984 3381 
L 1000 3013 
Q 1366 3444 2000 3444 
Q 2325 3444 2579 3314 
Q 2834 3184 2969 2900 
Q 3138 3144 3408 3294 
Q 3678 3444 4044 3444 
Q 4588 3444 4883 3153 
Q 5178 2863 5178 2222 
L 5178 0 
L 4597 0 
L 4597 2228 
Q 4597 2653 4401 2804 
Q 4206 2956 3875 2956 
Q 3525 2956 3325 2748 
Q 3125 2541 3094 2244 
L 3094 0 
L 2516 0 
L 2516 2225 
Q 2516 2622 2319 2789 
Q 2122 2956 1794 2956 
z
" transform="scale(0.015625)"/>
     <path id="Roboto-Regular-29" d="M 1772 1819 
Q 1772 906 1512 228 
Q 1253 -450 895 -878 
Q 538 -1306 244 -1469 
L 122 -1119 
Q 488 -841 841 -109 
Q 1194 622 1194 1856 
Q 1194 2647 1019 3236 
Q 844 3825 594 4212 
Q 344 4600 122 4781 
L 244 5134 
Q 538 4969 895 4541 
Q 1253 4113 1512 3436 
Q 1772 2759 1772 1819 
z
" transform="scale(0.015625)"/>
    </defs>
    <use xlink:href="#DejaVuSans-394" transform="translate(0 0.78125)"/>
    <use xlink:href="#Roboto-Regular-47" transform="translate(68.408203 0.78125)"/>
    <use xlink:href="#Roboto-Regular-20" transform="translate(136.523438 0.78125)"/>
    <use xlink:href="#Roboto-Regular-28" transform="translate(161.328125 0.78125)"/>
    <use xlink:href="#Roboto-Regular-6b" transform="translate(195.556641 0.78125)"/>
    <use xlink:href="#Roboto-Regular-4a" transform="translate(246.240234 0.78125)"/>
    <use xlink:href="#Roboto-Regular-2f" transform="translate(301.416016 0.78125)"/>
    <use xlink:href="#Roboto-Regular-6d" transform="translate(342.675781 0.78125)"/>
    <use xlink:href="#Roboto-Regular-6f" transform="translate(430.371094 0.78125)"/>
    <use xlink:href="#Roboto-Regular-6c" transform="translate(487.402344 0.78125)"/>
    <use xlink:href="#Roboto-Regular-29" transform="translate(511.71875 0.78125)"/>
   </g>
  </g>
 </g>
 <defs>
  <clipPath id="pb841b9be1c">
   <rect x="37.19449" y="9.466667" width="193.74551" height="144.457361"/>
  </clipPath>
 </defs>
</svg>
