<?xml version="1.0" encoding="UTF-8" standalone="no"?>
<!DOCTYPE svg PUBLIC "-//W3C//DTD SVG 1.1//EN"
 "http://www.w3.org/Graphics/SVG/1.1/DTD/svg11.dtd">
<!-- Generated by graphviz version 2.43.0 (0)
 -->
<!-- Title: %3 Pages: 1 -->
<svg width="613pt" height="1042pt"
 viewBox="0.00 0.00 613.00 1042.00" xmlns="http://www.w3.org/2000/svg" xmlns:xlink="http://www.w3.org/1999/xlink">
<g id="graph0" class="graph" transform="scale(1 1) rotate(0) translate(4 1038)">
<title>%3</title>
<polygon fill="white" stroke="transparent" points="-4,4 -4,-1038 609,-1038 609,4 -4,4"/>
<g id="clust1" class="cluster">
<title>cluster__legend</title>
<polygon fill="#ffffff" stroke="black" points="50,-894 50,-1026 146,-1026 146,-894 50,-894"/>
<text text-anchor="middle" x="98" y="-1010.8" font-family="Helvetica,sans-Serif" font-size="14.00">Legend</text>
</g>
<!-- ts_hyd_energies -->
<g id="node1" class="node">
<title>ts_hyd_energies</title>
<path fill="#b4d8e4" stroke="black" d="M372.5,-474C372.5,-474 248.5,-474 248.5,-474 242.5,-474 236.5,-468 236.5,-462 236.5,-462 236.5,-422 236.5,-422 236.5,-416 242.5,-410 248.5,-410 248.5,-410 372.5,-410 372.5,-410 378.5,-410 384.5,-416 384.5,-422 384.5,-422 384.5,-462 384.5,-462 384.5,-468 378.5,-474 372.5,-474"/>
<text text-anchor="start" x="247.5" y="-452.8" font-family="Helvetica,sans-Serif" font-weight="bold" font-size="14.00">ts_hyd_energies</text>
<text text-anchor="start" x="301" y="-424.8" font-family="Helvetica,sans-Serif" font-style="italic" font-size="14.00">str</text>
</g>
<!-- wethyd_us_energies -->
<g id="node4" class="node">
<title>wethyd_us_energies</title>
<path fill="#ffc857" stroke="black" d="M593,-351C593,-351 437,-351 437,-351 431,-351 425,-345 425,-339 425,-339 425,-299 425,-299 425,-293 431,-287 437,-287 437,-287 593,-287 593,-287 599,-287 605,-293 605,-299 605,-299 605,-339 605,-339 605,-345 599,-351 593,-351"/>
<text text-anchor="start" x="436" y="-329.8" font-family="Helvetica,sans-Serif" font-weight="bold" font-size="14.00">wethyd_us_energies</text>
<text text-anchor="start" x="476.5" y="-301.8" font-family="Helvetica,sans-Serif" font-style="italic" font-size="14.00">DataFrame</text>
</g>
<!-- ts_hyd_energies&#45;&gt;wethyd_us_energies -->
<g id="edge5" class="edge">
<title>ts_hyd_energies&#45;&gt;wethyd_us_energies</title>
<path fill="none" stroke="black" d="M380.23,-409.77C385.62,-406.91 390.93,-403.97 396,-401 418.71,-387.71 442.73,-371.45 463.14,-356.93"/>
<polygon fill="black" stroke="black" points="465.27,-359.71 471.35,-351.04 461.19,-354.02 465.27,-359.71"/>
</g>
<!-- parameters -->
<g id="node2" class="node">
<title>parameters</title>
<path fill="#ffc857" stroke="black" d="M355.5,-556C355.5,-556 265.5,-556 265.5,-556 259.5,-556 253.5,-550 253.5,-544 253.5,-544 253.5,-504 253.5,-504 253.5,-498 259.5,-492 265.5,-492 265.5,-492 355.5,-492 355.5,-492 361.5,-492 367.5,-498 367.5,-504 367.5,-504 367.5,-544 367.5,-544 367.5,-550 361.5,-556 355.5,-556"/>
<text text-anchor="start" x="264.5" y="-534.8" font-family="Helvetica,sans-Serif" font-weight="bold" font-size="14.00">parameters</text>
<text text-anchor="start" x="272" y="-506.8" font-family="Helvetica,sans-Serif" font-style="italic" font-size="14.00">DataFrame</text>
</g>
<!-- wethyd_us_comb -->
<g id="node3" class="node">
<title>wethyd_us_comb</title>
<path fill="#ffc857" stroke="black" d="M375.5,-392C375.5,-392 245.5,-392 245.5,-392 239.5,-392 233.5,-386 233.5,-380 233.5,-380 233.5,-340 233.5,-340 233.5,-334 239.5,-328 245.5,-328 245.5,-328 375.5,-328 375.5,-328 381.5,-328 387.5,-334 387.5,-340 387.5,-340 387.5,-380 387.5,-380 387.5,-386 381.5,-392 375.5,-392"/>
<text text-anchor="start" x="244.5" y="-370.8" font-family="Helvetica,sans-Serif" font-weight="bold" font-size="14.00">wethyd_us_comb</text>
<text text-anchor="start" x="292.5" y="-342.8" font-family="Helvetica,sans-Serif" font-style="italic" font-size="14.00">tuple</text>
</g>
<!-- example_equilibration -->
<g id="node5" class="node">
<title>example_equilibration</title>
<path fill="#ffc857" stroke="black" d="M184,-638C184,-638 12,-638 12,-638 6,-638 0,-632 0,-626 0,-626 0,-586 0,-586 0,-580 6,-574 12,-574 12,-574 184,-574 184,-574 190,-574 196,-580 196,-586 196,-586 196,-626 196,-626 196,-632 190,-638 184,-638"/>
<text text-anchor="start" x="11" y="-616.8" font-family="Helvetica,sans-Serif" font-weight="bold" font-size="14.00">example_equilibration</text>
<text text-anchor="start" x="59.5" y="-588.8" font-family="Helvetica,sans-Serif" font-style="italic" font-size="14.00">DataFrame</text>
</g>
<!-- wetbreak_choices -->
<g id="node6" class="node">
<title>wetbreak_choices</title>
<path fill="#b4d8e4" stroke="black" d="M167,-802C167,-802 29,-802 29,-802 23,-802 17,-796 17,-790 17,-790 17,-750 17,-750 17,-744 23,-738 29,-738 29,-738 167,-738 167,-738 173,-738 179,-744 179,-750 179,-750 179,-790 179,-790 179,-796 173,-802 167,-802"/>
<text text-anchor="start" x="28" y="-780.8" font-family="Helvetica,sans-Serif" font-weight="bold" font-size="14.00">wetbreak_choices</text>
<text text-anchor="start" x="59.5" y="-752.8" font-family="Helvetica,sans-Serif" font-style="italic" font-size="14.00">DataFrame</text>
</g>
<!-- wetbreak_us -->
<g id="node10" class="node">
<title>wetbreak_us</title>
<path fill="#ffc857" stroke="black" d="M359.5,-864C359.5,-864 261.5,-864 261.5,-864 255.5,-864 249.5,-858 249.5,-852 249.5,-852 249.5,-812 249.5,-812 249.5,-806 255.5,-800 261.5,-800 261.5,-800 359.5,-800 359.5,-800 365.5,-800 371.5,-806 371.5,-812 371.5,-812 371.5,-852 371.5,-852 371.5,-858 365.5,-864 359.5,-864"/>
<text text-anchor="start" x="260.5" y="-842.8" font-family="Helvetica,sans-Serif" font-weight="bold" font-size="14.00">wetbreak_us</text>
<text text-anchor="start" x="292.5" y="-814.8" font-family="Helvetica,sans-Serif" font-style="italic" font-size="14.00">tuple</text>
</g>
<!-- wetbreak_choices&#45;&gt;wetbreak_us -->
<g id="edge7" class="edge">
<title>wetbreak_choices&#45;&gt;wetbreak_us</title>
<path fill="none" stroke="black" d="M179.18,-793.62C199.06,-799.47 220.21,-805.7 239.55,-811.4"/>
<polygon fill="black" stroke="black" points="238.61,-814.77 249.19,-814.24 240.58,-808.05 238.61,-814.77"/>
</g>
<!-- wetbreak_us_comb -->
<g id="node14" class="node">
<title>wetbreak_us_comb</title>
<path fill="#ffc857" stroke="black" d="M383.5,-741C383.5,-741 237.5,-741 237.5,-741 231.5,-741 225.5,-735 225.5,-729 225.5,-729 225.5,-689 225.5,-689 225.5,-683 231.5,-677 237.5,-677 237.5,-677 383.5,-677 383.5,-677 389.5,-677 395.5,-683 395.5,-689 395.5,-689 395.5,-729 395.5,-729 395.5,-735 389.5,-741 383.5,-741"/>
<text text-anchor="start" x="236.5" y="-719.8" font-family="Helvetica,sans-Serif" font-weight="bold" font-size="14.00">wetbreak_us_comb</text>
<text text-anchor="start" x="292.5" y="-691.8" font-family="Helvetica,sans-Serif" font-style="italic" font-size="14.00">tuple</text>
</g>
<!-- wetbreak_choices&#45;&gt;wetbreak_us_comb -->
<g id="edge11" class="edge">
<title>wetbreak_choices&#45;&gt;wetbreak_us_comb</title>
<path fill="none" stroke="black" d="M179.18,-746.76C191.1,-743.31 203.47,-739.73 215.64,-736.2"/>
<polygon fill="black" stroke="black" points="216.71,-739.53 225.34,-733.39 214.76,-732.81 216.71,-739.53"/>
</g>
<!-- ts_hyd_us_comb -->
<g id="node7" class="node">
<title>ts_hyd_us_comb</title>
<path fill="#b4d8e4" stroke="black" d="M159,-392C159,-392 37,-392 37,-392 31,-392 25,-386 25,-380 25,-380 25,-340 25,-340 25,-334 31,-328 37,-328 37,-328 159,-328 159,-328 165,-328 171,-334 171,-340 171,-340 171,-380 171,-380 171,-386 165,-392 159,-392"/>
<text text-anchor="start" x="36" y="-370.8" font-family="Helvetica,sans-Serif" font-weight="bold" font-size="14.00">ts_hyd_us_comb</text>
<text text-anchor="start" x="88.5" y="-342.8" font-family="Helvetica,sans-Serif" font-style="italic" font-size="14.00">str</text>
</g>
<!-- ts_hyd_us_comb&#45;&gt;wethyd_us_comb -->
<g id="edge3" class="edge">
<title>ts_hyd_us_comb&#45;&gt;wethyd_us_comb</title>
<path fill="none" stroke="black" d="M171.15,-360C187.96,-360 206.03,-360 223.38,-360"/>
<polygon fill="black" stroke="black" points="223.5,-363.5 233.5,-360 223.5,-356.5 223.5,-363.5"/>
</g>
<!-- envs -->
<g id="node8" class="node">
<title>envs</title>
<path fill="#ffc857" stroke="black" d="M115.5,-556C115.5,-556 80.5,-556 80.5,-556 74.5,-556 68.5,-550 68.5,-544 68.5,-544 68.5,-504 68.5,-504 68.5,-498 74.5,-492 80.5,-492 80.5,-492 115.5,-492 115.5,-492 121.5,-492 127.5,-498 127.5,-504 127.5,-504 127.5,-544 127.5,-544 127.5,-550 121.5,-556 115.5,-556"/>
<text text-anchor="start" x="79.5" y="-534.8" font-family="Helvetica,sans-Serif" font-weight="bold" font-size="14.00">envs</text>
<text text-anchor="start" x="87.5" y="-506.8" font-family="Helvetica,sans-Serif" font-style="italic" font-size="14.00">list</text>
</g>
<!-- envs&#45;&gt;parameters -->
<g id="edge1" class="edge">
<title>envs&#45;&gt;parameters</title>
<path fill="none" stroke="black" d="M127.83,-524C157.39,-524 204.4,-524 243.2,-524"/>
<polygon fill="black" stroke="black" points="243.38,-527.5 253.38,-524 243.38,-520.5 243.38,-527.5"/>
</g>
<!-- frame_cwds -->
<g id="node9" class="node">
<title>frame_cwds</title>
<path fill="#ffc857" stroke="black" d="M356,-310C356,-310 265,-310 265,-310 259,-310 253,-304 253,-298 253,-298 253,-258 253,-258 253,-252 259,-246 265,-246 265,-246 356,-246 356,-246 362,-246 368,-252 368,-258 368,-258 368,-298 368,-298 368,-304 362,-310 356,-310"/>
<text text-anchor="start" x="264" y="-288.8" font-family="Helvetica,sans-Serif" font-weight="bold" font-size="14.00">frame_cwds</text>
<text text-anchor="start" x="300" y="-260.8" font-family="Helvetica,sans-Serif" font-style="italic" font-size="14.00">list</text>
</g>
<!-- frame_cwds&#45;&gt;wethyd_us_energies -->
<g id="edge4" class="edge">
<title>frame_cwds&#45;&gt;wethyd_us_energies</title>
<path fill="none" stroke="black" d="M368.18,-289.48C382.71,-292.42 398.78,-295.67 414.77,-298.91"/>
<polygon fill="black" stroke="black" points="414.22,-302.37 424.71,-300.92 415.61,-295.51 414.22,-302.37"/>
</g>
<!-- break_us_distances -->
<g id="node15" class="node">
<title>break_us_distances</title>
<path fill="#ffc857" stroke="black" d="M590,-269C590,-269 440,-269 440,-269 434,-269 428,-263 428,-257 428,-257 428,-217 428,-217 428,-211 434,-205 440,-205 440,-205 590,-205 590,-205 596,-205 602,-211 602,-217 602,-217 602,-257 602,-257 602,-263 596,-269 590,-269"/>
<text text-anchor="start" x="439" y="-247.8" font-family="Helvetica,sans-Serif" font-weight="bold" font-size="14.00">break_us_distances</text>
<text text-anchor="start" x="476.5" y="-219.8" font-family="Helvetica,sans-Serif" font-style="italic" font-size="14.00">DataFrame</text>
</g>
<!-- frame_cwds&#45;&gt;break_us_distances -->
<g id="edge13" class="edge">
<title>frame_cwds&#45;&gt;break_us_distances</title>
<path fill="none" stroke="black" d="M368.18,-266.52C383.63,-263.4 400.82,-259.92 417.81,-256.48"/>
<polygon fill="black" stroke="black" points="418.67,-259.87 427.78,-254.46 417.28,-253.01 418.67,-259.87"/>
</g>
<!-- wethyd_us_prof -->
<g id="node11" class="node">
<title>wethyd_us_prof</title>
<path fill="#ffc857" stroke="black" d="M370.5,-146C370.5,-146 250.5,-146 250.5,-146 244.5,-146 238.5,-140 238.5,-134 238.5,-134 238.5,-94 238.5,-94 238.5,-88 244.5,-82 250.5,-82 250.5,-82 370.5,-82 370.5,-82 376.5,-82 382.5,-88 382.5,-94 382.5,-94 382.5,-134 382.5,-134 382.5,-140 376.5,-146 370.5,-146"/>
<text text-anchor="start" x="249.5" y="-124.8" font-family="Helvetica,sans-Serif" font-weight="bold" font-size="14.00">wethyd_us_prof</text>
<text text-anchor="start" x="272" y="-96.8" font-family="Helvetica,sans-Serif" font-style="italic" font-size="14.00">DataFrame</text>
</g>
<!-- wethyd_choices -->
<g id="node12" class="node">
<title>wethyd_choices</title>
<path fill="#ffc857" stroke="black" d="M159,-269C159,-269 37,-269 37,-269 31,-269 25,-263 25,-257 25,-257 25,-217 25,-217 25,-211 31,-205 37,-205 37,-205 159,-205 159,-205 165,-205 171,-211 171,-217 171,-217 171,-257 171,-257 171,-263 165,-269 159,-269"/>
<text text-anchor="start" x="36" y="-247.8" font-family="Helvetica,sans-Serif" font-weight="bold" font-size="14.00">wethyd_choices</text>
<text text-anchor="start" x="59.5" y="-219.8" font-family="Helvetica,sans-Serif" font-style="italic" font-size="14.00">DataFrame</text>
</g>
<!-- wethyd_choices&#45;&gt;wethyd_us_comb -->
<g id="edge2" class="edge">
<title>wethyd_choices&#45;&gt;wethyd_us_comb</title>
<path fill="none" stroke="black" d="M145.4,-269.19C168.83,-284.93 197.96,-303.72 225,-319 227.38,-320.34 229.81,-321.69 232.28,-323.03"/>
<polygon fill="black" stroke="black" points="230.84,-326.23 241.32,-327.84 234.13,-320.05 230.84,-326.23"/>
</g>
<!-- wethyd_choices&#45;&gt;frame_cwds -->
<g id="edge6" class="edge">
<title>wethyd_choices&#45;&gt;frame_cwds</title>
<path fill="none" stroke="black" d="M171.15,-251.05C194.37,-255.58 219.99,-260.57 242.8,-265.01"/>
<polygon fill="black" stroke="black" points="242.24,-268.47 252.73,-266.94 243.58,-261.59 242.24,-268.47"/>
</g>
<!-- wethyd_choices&#45;&gt;wethyd_us_prof -->
<g id="edge9" class="edge">
<title>wethyd_choices&#45;&gt;wethyd_us_prof</title>
<path fill="none" stroke="black" d="M145.4,-204.81C168.83,-189.07 197.96,-170.28 225,-155 227.38,-153.66 229.81,-152.31 232.28,-150.97"/>
<polygon fill="black" stroke="black" points="234.13,-153.95 241.32,-146.16 230.84,-147.77 234.13,-153.95"/>
</g>
<!-- wethyd_us_hist -->
<g id="node16" class="node">
<title>wethyd_us_hist</title>
<path fill="#ffc857" stroke="black" d="M369,-64C369,-64 252,-64 252,-64 246,-64 240,-58 240,-52 240,-52 240,-12 240,-12 240,-6 246,0 252,0 252,0 369,0 369,0 375,0 381,-6 381,-12 381,-12 381,-52 381,-52 381,-58 375,-64 369,-64"/>
<text text-anchor="start" x="251" y="-42.8" font-family="Helvetica,sans-Serif" font-weight="bold" font-size="14.00">wethyd_us_hist</text>
<text text-anchor="start" x="272" y="-14.8" font-family="Helvetica,sans-Serif" font-style="italic" font-size="14.00">DataFrame</text>
</g>
<!-- wethyd_choices&#45;&gt;wethyd_us_hist -->
<g id="edge15" class="edge">
<title>wethyd_choices&#45;&gt;wethyd_us_hist</title>
<path fill="none" stroke="black" d="M124.99,-204.99C144.8,-180.37 172.56,-145.37 196,-114 209.36,-96.12 207.98,-87.44 225,-73 227.01,-71.29 229.11,-69.64 231.27,-68.03"/>
<polygon fill="black" stroke="black" points="233.63,-70.66 239.89,-62.11 229.66,-64.89 233.63,-70.66"/>
</g>
<!-- ts_break_us -->
<g id="node13" class="node">
<title>ts_break_us</title>
<path fill="#b4d8e4" stroke="black" d="M143,-884C143,-884 53,-884 53,-884 47,-884 41,-878 41,-872 41,-872 41,-832 41,-832 41,-826 47,-820 53,-820 53,-820 143,-820 143,-820 149,-820 155,-826 155,-832 155,-832 155,-872 155,-872 155,-878 149,-884 143,-884"/>
<text text-anchor="start" x="52" y="-862.8" font-family="Helvetica,sans-Serif" font-weight="bold" font-size="14.00">ts_break_us</text>
<text text-anchor="start" x="88.5" y="-834.8" font-family="Helvetica,sans-Serif" font-style="italic" font-size="14.00">str</text>
</g>
<!-- ts_break_us&#45;&gt;wetbreak_us -->
<g id="edge8" class="edge">
<title>ts_break_us&#45;&gt;wetbreak_us</title>
<path fill="none" stroke="black" d="M155.13,-846.67C180.94,-844.21 211.84,-841.28 239.18,-838.68"/>
<polygon fill="black" stroke="black" points="239.84,-842.13 249.47,-837.7 239.18,-835.17 239.84,-842.13"/>
</g>
<!-- ts_hyd_us -->
<g id="node17" class="node">
<title>ts_hyd_us</title>
<path fill="#b4d8e4" stroke="black" d="M135,-105C135,-105 61,-105 61,-105 55,-105 49,-99 49,-93 49,-93 49,-53 49,-53 49,-47 55,-41 61,-41 61,-41 135,-41 135,-41 141,-41 147,-47 147,-53 147,-53 147,-93 147,-93 147,-99 141,-105 135,-105"/>
<text text-anchor="start" x="60" y="-83.8" font-family="Helvetica,sans-Serif" font-weight="bold" font-size="14.00">ts_hyd_us</text>
<text text-anchor="start" x="88.5" y="-55.8" font-family="Helvetica,sans-Serif" font-style="italic" font-size="14.00">str</text>
</g>
<!-- ts_hyd_us&#45;&gt;wethyd_us_prof -->
<g id="edge10" class="edge">
<title>ts_hyd_us&#45;&gt;wethyd_us_prof</title>
<path fill="none" stroke="black" d="M147.03,-82.35C171.02,-87.03 200.71,-92.81 228.12,-98.15"/>
<polygon fill="black" stroke="black" points="227.62,-101.62 238.1,-100.09 228.96,-94.75 227.62,-101.62"/>
</g>
<!-- ts_hyd_us&#45;&gt;wethyd_us_hist -->
<g id="edge16" class="edge">
<title>ts_hyd_us&#45;&gt;wethyd_us_hist</title>
<path fill="none" stroke="black" d="M147.03,-63.65C171.45,-58.89 201.78,-52.98 229.6,-47.56"/>
<polygon fill="black" stroke="black" points="230.57,-50.94 239.72,-45.59 229.24,-44.07 230.57,-50.94"/>
</g>
<!-- ts_break_distances -->
<g id="node18" class="node">
<title>ts_break_distances</title>
<path fill="#b4d8e4" stroke="black" d="M384,-228C384,-228 237,-228 237,-228 231,-228 225,-222 225,-216 225,-216 225,-176 225,-176 225,-170 231,-164 237,-164 237,-164 384,-164 384,-164 390,-164 396,-170 396,-176 396,-176 396,-216 396,-216 396,-222 390,-228 384,-228"/>
<text text-anchor="start" x="236" y="-206.8" font-family="Helvetica,sans-Serif" font-weight="bold" font-size="14.00">ts_break_distances</text>
<text text-anchor="start" x="301" y="-178.8" font-family="Helvetica,sans-Serif" font-style="italic" font-size="14.00">str</text>
</g>
<!-- ts_break_distances&#45;&gt;break_us_distances -->
<g id="edge14" class="edge">
<title>ts_break_distances&#45;&gt;break_us_distances</title>
<path fill="none" stroke="black" d="M396.2,-213.15C403.36,-214.6 410.62,-216.07 417.86,-217.53"/>
<polygon fill="black" stroke="black" points="417.19,-220.97 427.68,-219.52 418.57,-214.11 417.19,-220.97"/>
</g>
<!-- ts_break_us_comb -->
<g id="node19" class="node">
<title>ts_break_us_comb</title>
<path fill="#b4d8e4" stroke="black" d="M167.5,-720C167.5,-720 28.5,-720 28.5,-720 22.5,-720 16.5,-714 16.5,-708 16.5,-708 16.5,-668 16.5,-668 16.5,-662 22.5,-656 28.5,-656 28.5,-656 167.5,-656 167.5,-656 173.5,-656 179.5,-662 179.5,-668 179.5,-668 179.5,-708 179.5,-708 179.5,-714 173.5,-720 167.5,-720"/>
<text text-anchor="start" x="27.5" y="-698.8" font-family="Helvetica,sans-Serif" font-weight="bold" font-size="14.00">ts_break_us_comb</text>
<text text-anchor="start" x="88.5" y="-670.8" font-family="Helvetica,sans-Serif" font-style="italic" font-size="14.00">str</text>
</g>
<!-- ts_break_us_comb&#45;&gt;wetbreak_us_comb -->
<g id="edge12" class="edge">
<title>ts_break_us_comb&#45;&gt;wetbreak_us_comb</title>
<path fill="none" stroke="black" d="M179.78,-696.06C191.35,-697.21 203.34,-698.41 215.14,-699.59"/>
<polygon fill="black" stroke="black" points="215.15,-703.1 225.44,-700.61 215.84,-696.14 215.15,-703.1"/>
</g>
<!-- function -->
<g id="node20" class="node">
<title>function</title>
<path fill="#b4d8e4" stroke="black" d="M126,-994.5C126,-994.5 70,-994.5 70,-994.5 64,-994.5 58,-988.5 58,-982.5 58,-982.5 58,-969.5 58,-969.5 58,-963.5 64,-957.5 70,-957.5 70,-957.5 126,-957.5 126,-957.5 132,-957.5 138,-963.5 138,-969.5 138,-969.5 138,-982.5 138,-982.5 138,-988.5 132,-994.5 126,-994.5"/>
<text text-anchor="middle" x="98" y="-972.3" font-family="Helvetica,sans-Serif" font-size="14.00">function</text>
</g>
<!-- output -->
<g id="node21" class="node">
<title>output</title>
<path fill="#ffc857" stroke="black" d="M120,-939.5C120,-939.5 76,-939.5 76,-939.5 70,-939.5 64,-933.5 64,-927.5 64,-927.5 64,-914.5 64,-914.5 64,-908.5 70,-902.5 76,-902.5 76,-902.5 120,-902.5 120,-902.5 126,-902.5 132,-908.5 132,-914.5 132,-914.5 132,-927.5 132,-927.5 132,-933.5 126,-939.5 120,-939.5"/>
<text text-anchor="middle" x="98" y="-917.3" font-family="Helvetica,sans-Serif" font-size="14.00">output</text>
</g>
</g>
</svg>
