<?xml version="1.0" encoding="UTF-8" standalone="no"?>
<!DOCTYPE svg PUBLIC "-//W3C//DTD SVG 1.1//EN"
 "http://www.w3.org/Graphics/SVG/1.1/DTD/svg11.dtd">
<!-- Generated by graphviz version 2.43.0 (0)
 -->
<!-- Title: %3 Pages: 1 -->
<svg width="613pt" height="1103pt"
 viewBox="0.00 0.00 613.00 1103.00" xmlns="http://www.w3.org/2000/svg" xmlns:xlink="http://www.w3.org/1999/xlink">
<g id="graph0" class="graph" transform="scale(1 1) rotate(0) translate(4 1099)">
<title>%3</title>
<polygon fill="white" stroke="transparent" points="-4,4 -4,-1099 609,-1099 609,4 -4,4"/>
<g id="clust1" class="cluster">
<title>cluster__legend</title>
<polygon fill="#ffffff" stroke="black" points="50,-955 50,-1087 146,-1087 146,-955 50,-955"/>
<text text-anchor="middle" x="98" y="-1071.8" font-family="Helvetica,sans-Serif" font-size="14.00">Legend</text>
</g>
<!-- wethyd_us_hist -->
<g id="node1" class="node">
<title>wethyd_us_hist</title>
<path fill="#ffc857" stroke="black" d="M369,-474C369,-474 252,-474 252,-474 246,-474 240,-468 240,-462 240,-462 240,-422 240,-422 240,-416 246,-410 252,-410 252,-410 369,-410 369,-410 375,-410 381,-416 381,-422 381,-422 381,-462 381,-462 381,-468 375,-474 369,-474"/>
<text text-anchor="start" x="251" y="-452.8" font-family="Helvetica,sans-Serif" font-weight="bold" font-size="14.00">wethyd_us_hist</text>
<text text-anchor="start" x="272" y="-424.8" font-family="Helvetica,sans-Serif" font-style="italic" font-size="14.00">DataFrame</text>
</g>
<!-- ts_hyd_us -->
<g id="node2" class="node">
<title>ts_hyd_us</title>
<path fill="#b4d8e4" stroke="black" d="M135,-494C135,-494 61,-494 61,-494 55,-494 49,-488 49,-482 49,-482 49,-442 49,-442 49,-436 55,-430 61,-430 61,-430 135,-430 135,-430 141,-430 147,-436 147,-442 147,-442 147,-482 147,-482 147,-488 141,-494 135,-494"/>
<text text-anchor="start" x="60" y="-472.8" font-family="Helvetica,sans-Serif" font-weight="bold" font-size="14.00">ts_hyd_us</text>
<text text-anchor="start" x="88.5" y="-444.8" font-family="Helvetica,sans-Serif" font-style="italic" font-size="14.00">str</text>
</g>
<!-- ts_hyd_us&#45;&gt;wethyd_us_hist -->
<g id="edge2" class="edge">
<title>ts_hyd_us&#45;&gt;wethyd_us_hist</title>
<path fill="none" stroke="black" d="M147.03,-457.44C171.45,-455.12 201.78,-452.23 229.6,-449.59"/>
<polygon fill="black" stroke="black" points="230.1,-453.06 239.72,-448.63 229.43,-446.09 230.1,-453.06"/>
</g>
<!-- wethyd_us_prof -->
<g id="node14" class="node">
<title>wethyd_us_prof</title>
<path fill="#ffc857" stroke="black" d="M370.5,-556C370.5,-556 250.5,-556 250.5,-556 244.5,-556 238.5,-550 238.5,-544 238.5,-544 238.5,-504 238.5,-504 238.5,-498 244.5,-492 250.5,-492 250.5,-492 370.5,-492 370.5,-492 376.5,-492 382.5,-498 382.5,-504 382.5,-504 382.5,-544 382.5,-544 382.5,-550 376.5,-556 370.5,-556"/>
<text text-anchor="start" x="249.5" y="-534.8" font-family="Helvetica,sans-Serif" font-weight="bold" font-size="14.00">wethyd_us_prof</text>
<text text-anchor="start" x="272" y="-506.8" font-family="Helvetica,sans-Serif" font-style="italic" font-size="14.00">DataFrame</text>
</g>
<!-- ts_hyd_us&#45;&gt;wethyd_us_prof -->
<g id="edge13" class="edge">
<title>ts_hyd_us&#45;&gt;wethyd_us_prof</title>
<path fill="none" stroke="black" d="M147.03,-476.15C171.13,-483.24 200.97,-492.03 228.48,-500.14"/>
<polygon fill="black" stroke="black" points="227.52,-503.5 238.1,-502.97 229.5,-496.79 227.52,-503.5"/>
</g>
<!-- wetbreak_us_comb -->
<g id="node3" class="node">
<title>wetbreak_us_comb</title>
<path fill="#ffc857" stroke="black" d="M383.5,-761C383.5,-761 237.5,-761 237.5,-761 231.5,-761 225.5,-755 225.5,-749 225.5,-749 225.5,-709 225.5,-709 225.5,-703 231.5,-697 237.5,-697 237.5,-697 383.5,-697 383.5,-697 389.5,-697 395.5,-703 395.5,-709 395.5,-709 395.5,-749 395.5,-749 395.5,-755 389.5,-761 383.5,-761"/>
<text text-anchor="start" x="236.5" y="-739.8" font-family="Helvetica,sans-Serif" font-weight="bold" font-size="14.00">wetbreak_us_comb</text>
<text text-anchor="start" x="292.5" y="-711.8" font-family="Helvetica,sans-Serif" font-style="italic" font-size="14.00">tuple</text>
</g>
<!-- ts_break_distances -->
<g id="node4" class="node">
<title>ts_break_distances</title>
<path fill="#b4d8e4" stroke="black" d="M384,-64C384,-64 237,-64 237,-64 231,-64 225,-58 225,-52 225,-52 225,-12 225,-12 225,-6 231,0 237,0 237,0 384,0 384,0 390,0 396,-6 396,-12 396,-12 396,-52 396,-52 396,-58 390,-64 384,-64"/>
<text text-anchor="start" x="236" y="-42.8" font-family="Helvetica,sans-Serif" font-weight="bold" font-size="14.00">ts_break_distances</text>
<text text-anchor="start" x="301" y="-14.8" font-family="Helvetica,sans-Serif" font-style="italic" font-size="14.00">str</text>
</g>
<!-- break_us_distances -->
<g id="node20" class="node">
<title>break_us_distances</title>
<path fill="#ffc857" stroke="black" d="M590,-125C590,-125 440,-125 440,-125 434,-125 428,-119 428,-113 428,-113 428,-73 428,-73 428,-67 434,-61 440,-61 440,-61 590,-61 590,-61 596,-61 602,-67 602,-73 602,-73 602,-113 602,-113 602,-119 596,-125 590,-125"/>
<text text-anchor="start" x="439" y="-103.8" font-family="Helvetica,sans-Serif" font-weight="bold" font-size="14.00">break_us_distances</text>
<text text-anchor="start" x="476.5" y="-75.8" font-family="Helvetica,sans-Serif" font-style="italic" font-size="14.00">DataFrame</text>
</g>
<!-- ts_break_distances&#45;&gt;break_us_distances -->
<g id="edge18" class="edge">
<title>ts_break_distances&#45;&gt;break_us_distances</title>
<path fill="none" stroke="black" d="M396.2,-57.52C403.36,-59.67 410.62,-61.86 417.86,-64.04"/>
<polygon fill="black" stroke="black" points="417.1,-67.46 427.68,-67 419.12,-60.76 417.1,-67.46"/>
</g>
<!-- wethyd_us_energies -->
<g id="node5" class="node">
<title>wethyd_us_energies</title>
<path fill="#ffc857" stroke="black" d="M593,-371C593,-371 437,-371 437,-371 431,-371 425,-365 425,-359 425,-359 425,-319 425,-319 425,-313 431,-307 437,-307 437,-307 593,-307 593,-307 599,-307 605,-313 605,-319 605,-319 605,-359 605,-359 605,-365 599,-371 593,-371"/>
<text text-anchor="start" x="436" y="-349.8" font-family="Helvetica,sans-Serif" font-weight="bold" font-size="14.00">wethyd_us_energies</text>
<text text-anchor="start" x="476.5" y="-321.8" font-family="Helvetica,sans-Serif" font-style="italic" font-size="14.00">DataFrame</text>
</g>
<!-- wethyd_us_comb -->
<g id="node6" class="node">
<title>wethyd_us_comb</title>
<path fill="#ffc857" stroke="black" d="M375.5,-146C375.5,-146 245.5,-146 245.5,-146 239.5,-146 233.5,-140 233.5,-134 233.5,-134 233.5,-94 233.5,-94 233.5,-88 239.5,-82 245.5,-82 245.5,-82 375.5,-82 375.5,-82 381.5,-82 387.5,-88 387.5,-94 387.5,-94 387.5,-134 387.5,-134 387.5,-140 381.5,-146 375.5,-146"/>
<text text-anchor="start" x="244.5" y="-124.8" font-family="Helvetica,sans-Serif" font-weight="bold" font-size="14.00">wethyd_us_comb</text>
<text text-anchor="start" x="292.5" y="-96.8" font-family="Helvetica,sans-Serif" font-style="italic" font-size="14.00">tuple</text>
</g>
<!-- ts_break_protons -->
<g id="node7" class="node">
<title>ts_break_protons</title>
<path fill="#b4d8e4" stroke="black" d="M377,-310C377,-310 244,-310 244,-310 238,-310 232,-304 232,-298 232,-298 232,-258 232,-258 232,-252 238,-246 244,-246 244,-246 377,-246 377,-246 383,-246 389,-252 389,-258 389,-258 389,-298 389,-298 389,-304 383,-310 377,-310"/>
<text text-anchor="start" x="243" y="-288.8" font-family="Helvetica,sans-Serif" font-weight="bold" font-size="14.00">ts_break_protons</text>
<text text-anchor="start" x="301" y="-260.8" font-family="Helvetica,sans-Serif" font-style="italic" font-size="14.00">str</text>
</g>
<!-- break_us_protons -->
<g id="node19" class="node">
<title>break_us_protons</title>
<path fill="#ffc857" stroke="black" d="M583,-248C583,-248 447,-248 447,-248 441,-248 435,-242 435,-236 435,-236 435,-196 435,-196 435,-190 441,-184 447,-184 447,-184 583,-184 583,-184 589,-184 595,-190 595,-196 595,-196 595,-236 595,-236 595,-242 589,-248 583,-248"/>
<text text-anchor="start" x="446" y="-226.8" font-family="Helvetica,sans-Serif" font-weight="bold" font-size="14.00">break_us_protons</text>
<text text-anchor="start" x="476.5" y="-198.8" font-family="Helvetica,sans-Serif" font-style="italic" font-size="14.00">DataFrame</text>
</g>
<!-- ts_break_protons&#45;&gt;break_us_protons -->
<g id="edge16" class="edge">
<title>ts_break_protons&#45;&gt;break_us_protons</title>
<path fill="none" stroke="black" d="M389.21,-254.21C401.01,-250.6 413.25,-246.85 425.26,-243.17"/>
<polygon fill="black" stroke="black" points="426.28,-246.52 434.82,-240.24 424.23,-239.82 426.28,-246.52"/>
</g>
<!-- example_equilibration -->
<g id="node8" class="node">
<title>example_equilibration</title>
<path fill="#ffc857" stroke="black" d="M184,-863C184,-863 12,-863 12,-863 6,-863 0,-857 0,-851 0,-851 0,-811 0,-811 0,-805 6,-799 12,-799 12,-799 184,-799 184,-799 190,-799 196,-805 196,-811 196,-811 196,-851 196,-851 196,-857 190,-863 184,-863"/>
<text text-anchor="start" x="11" y="-841.8" font-family="Helvetica,sans-Serif" font-weight="bold" font-size="14.00">example_equilibration</text>
<text text-anchor="start" x="59.5" y="-813.8" font-family="Helvetica,sans-Serif" font-style="italic" font-size="14.00">DataFrame</text>
</g>
<!-- wetbreak_us -->
<g id="node9" class="node">
<title>wetbreak_us</title>
<path fill="#ffc857" stroke="black" d="M359.5,-638C359.5,-638 261.5,-638 261.5,-638 255.5,-638 249.5,-632 249.5,-626 249.5,-626 249.5,-586 249.5,-586 249.5,-580 255.5,-574 261.5,-574 261.5,-574 359.5,-574 359.5,-574 365.5,-574 371.5,-580 371.5,-586 371.5,-586 371.5,-626 371.5,-626 371.5,-632 365.5,-638 359.5,-638"/>
<text text-anchor="start" x="260.5" y="-616.8" font-family="Helvetica,sans-Serif" font-weight="bold" font-size="14.00">wetbreak_us</text>
<text text-anchor="start" x="292.5" y="-588.8" font-family="Helvetica,sans-Serif" font-style="italic" font-size="14.00">tuple</text>
</g>
<!-- wetbreak_choices -->
<g id="node10" class="node">
<title>wetbreak_choices</title>
<path fill="#b4d8e4" stroke="black" d="M167,-699C167,-699 29,-699 29,-699 23,-699 17,-693 17,-687 17,-687 17,-647 17,-647 17,-641 23,-635 29,-635 29,-635 167,-635 167,-635 173,-635 179,-641 179,-647 179,-647 179,-687 179,-687 179,-693 173,-699 167,-699"/>
<text text-anchor="start" x="28" y="-677.8" font-family="Helvetica,sans-Serif" font-weight="bold" font-size="14.00">wetbreak_choices</text>
<text text-anchor="start" x="59.5" y="-649.8" font-family="Helvetica,sans-Serif" font-style="italic" font-size="14.00">DataFrame</text>
</g>
<!-- wetbreak_choices&#45;&gt;wetbreak_us_comb -->
<g id="edge3" class="edge">
<title>wetbreak_choices&#45;&gt;wetbreak_us_comb</title>
<path fill="none" stroke="black" d="M179.18,-690.62C191.1,-694.13 203.47,-697.77 215.64,-701.36"/>
<polygon fill="black" stroke="black" points="214.76,-704.74 225.34,-704.21 216.74,-698.03 214.76,-704.74"/>
</g>
<!-- wetbreak_choices&#45;&gt;wetbreak_us -->
<g id="edge9" class="edge">
<title>wetbreak_choices&#45;&gt;wetbreak_us</title>
<path fill="none" stroke="black" d="M179.18,-643.76C199.06,-638 220.21,-631.88 239.55,-626.27"/>
<polygon fill="black" stroke="black" points="240.56,-629.62 249.19,-623.48 238.61,-622.9 240.56,-629.62"/>
</g>
<!-- ts_hyd_energies -->
<g id="node11" class="node">
<title>ts_hyd_energies</title>
<path fill="#b4d8e4" stroke="black" d="M372.5,-392C372.5,-392 248.5,-392 248.5,-392 242.5,-392 236.5,-386 236.5,-380 236.5,-380 236.5,-340 236.5,-340 236.5,-334 242.5,-328 248.5,-328 248.5,-328 372.5,-328 372.5,-328 378.5,-328 384.5,-334 384.5,-340 384.5,-340 384.5,-380 384.5,-380 384.5,-386 378.5,-392 372.5,-392"/>
<text text-anchor="start" x="247.5" y="-370.8" font-family="Helvetica,sans-Serif" font-weight="bold" font-size="14.00">ts_hyd_energies</text>
<text text-anchor="start" x="301" y="-342.8" font-family="Helvetica,sans-Serif" font-style="italic" font-size="14.00">str</text>
</g>
<!-- ts_hyd_energies&#45;&gt;wethyd_us_energies -->
<g id="edge6" class="edge">
<title>ts_hyd_energies&#45;&gt;wethyd_us_energies</title>
<path fill="none" stroke="black" d="M384.61,-352.42C394.38,-351.41 404.53,-350.35 414.65,-349.3"/>
<polygon fill="black" stroke="black" points="415.17,-352.77 424.76,-348.25 414.45,-345.81 415.17,-352.77"/>
</g>
<!-- parameters -->
<g id="node12" class="node">
<title>parameters</title>
<path fill="#ffc857" stroke="black" d="M355.5,-945C355.5,-945 265.5,-945 265.5,-945 259.5,-945 253.5,-939 253.5,-933 253.5,-933 253.5,-893 253.5,-893 253.5,-887 259.5,-881 265.5,-881 265.5,-881 355.5,-881 355.5,-881 361.5,-881 367.5,-887 367.5,-893 367.5,-893 367.5,-933 367.5,-933 367.5,-939 361.5,-945 355.5,-945"/>
<text text-anchor="start" x="264.5" y="-923.8" font-family="Helvetica,sans-Serif" font-weight="bold" font-size="14.00">parameters</text>
<text text-anchor="start" x="272" y="-895.8" font-family="Helvetica,sans-Serif" font-style="italic" font-size="14.00">DataFrame</text>
</g>
<!-- ts_break_us -->
<g id="node13" class="node">
<title>ts_break_us</title>
<path fill="#b4d8e4" stroke="black" d="M143,-617C143,-617 53,-617 53,-617 47,-617 41,-611 41,-605 41,-605 41,-565 41,-565 41,-559 47,-553 53,-553 53,-553 143,-553 143,-553 149,-553 155,-559 155,-565 155,-565 155,-605 155,-605 155,-611 149,-617 143,-617"/>
<text text-anchor="start" x="52" y="-595.8" font-family="Helvetica,sans-Serif" font-weight="bold" font-size="14.00">ts_break_us</text>
<text text-anchor="start" x="88.5" y="-567.8" font-family="Helvetica,sans-Serif" font-style="italic" font-size="14.00">str</text>
</g>
<!-- ts_break_us&#45;&gt;wetbreak_us -->
<g id="edge10" class="edge">
<title>ts_break_us&#45;&gt;wetbreak_us</title>
<path fill="none" stroke="black" d="M155.13,-590.6C180.94,-593.17 211.84,-596.26 239.18,-598.98"/>
<polygon fill="black" stroke="black" points="239.17,-602.5 249.47,-600.01 239.86,-595.54 239.17,-602.5"/>
</g>
<!-- envs -->
<g id="node15" class="node">
<title>envs</title>
<path fill="#ffc857" stroke="black" d="M115.5,-945C115.5,-945 80.5,-945 80.5,-945 74.5,-945 68.5,-939 68.5,-933 68.5,-933 68.5,-893 68.5,-893 68.5,-887 74.5,-881 80.5,-881 80.5,-881 115.5,-881 115.5,-881 121.5,-881 127.5,-887 127.5,-893 127.5,-893 127.5,-933 127.5,-933 127.5,-939 121.5,-945 115.5,-945"/>
<text text-anchor="start" x="79.5" y="-923.8" font-family="Helvetica,sans-Serif" font-weight="bold" font-size="14.00">envs</text>
<text text-anchor="start" x="87.5" y="-895.8" font-family="Helvetica,sans-Serif" font-style="italic" font-size="14.00">list</text>
</g>
<!-- envs&#45;&gt;parameters -->
<g id="edge11" class="edge">
<title>envs&#45;&gt;parameters</title>
<path fill="none" stroke="black" d="M127.83,-913C157.39,-913 204.4,-913 243.2,-913"/>
<polygon fill="black" stroke="black" points="243.38,-916.5 253.38,-913 243.38,-909.5 243.38,-916.5"/>
</g>
<!-- wethyd_choices -->
<g id="node16" class="node">
<title>wethyd_choices</title>
<path fill="#ffc857" stroke="black" d="M159,-320C159,-320 37,-320 37,-320 31,-320 25,-314 25,-308 25,-308 25,-268 25,-268 25,-262 31,-256 37,-256 37,-256 159,-256 159,-256 165,-256 171,-262 171,-268 171,-268 171,-308 171,-308 171,-314 165,-320 159,-320"/>
<text text-anchor="start" x="36" y="-298.8" font-family="Helvetica,sans-Serif" font-weight="bold" font-size="14.00">wethyd_choices</text>
<text text-anchor="start" x="59.5" y="-270.8" font-family="Helvetica,sans-Serif" font-style="italic" font-size="14.00">DataFrame</text>
</g>
<!-- wethyd_choices&#45;&gt;wethyd_us_hist -->
<g id="edge1" class="edge">
<title>wethyd_choices&#45;&gt;wethyd_us_hist</title>
<path fill="none" stroke="black" d="M129.83,-320.16C154.15,-344.38 189.75,-377.33 225,-401 226.92,-402.29 228.9,-403.57 230.9,-404.82"/>
<polygon fill="black" stroke="black" points="229.52,-408.08 239.9,-410.2 233.11,-402.07 229.52,-408.08"/>
</g>
<!-- wethyd_choices&#45;&gt;wethyd_us_comb -->
<g id="edge7" class="edge">
<title>wethyd_choices&#45;&gt;wethyd_us_comb</title>
<path fill="none" stroke="black" d="M123.79,-255.83C147.42,-226.74 185.22,-184.13 225,-155 226.58,-153.84 228.19,-152.71 229.84,-151.59"/>
<polygon fill="black" stroke="black" points="231.78,-154.51 238.3,-146.16 227.99,-148.61 231.78,-154.51"/>
</g>
<!-- wethyd_choices&#45;&gt;wethyd_us_prof -->
<g id="edge12" class="edge">
<title>wethyd_choices&#45;&gt;wethyd_us_prof</title>
<path fill="none" stroke="black" d="M125.15,-320.13C145.81,-346.35 174.62,-384.83 196,-421 211.48,-447.19 203.64,-461.34 225,-483 226.63,-484.65 228.34,-486.25 230.11,-487.78"/>
<polygon fill="black" stroke="black" points="228.23,-490.76 238.26,-494.18 232.55,-485.25 228.23,-490.76"/>
</g>
<!-- frame_cwds -->
<g id="node17" class="node">
<title>frame_cwds</title>
<path fill="#ffc857" stroke="black" d="M356,-228C356,-228 265,-228 265,-228 259,-228 253,-222 253,-216 253,-216 253,-176 253,-176 253,-170 259,-164 265,-164 265,-164 356,-164 356,-164 362,-164 368,-170 368,-176 368,-176 368,-216 368,-216 368,-222 362,-228 356,-228"/>
<text text-anchor="start" x="264" y="-206.8" font-family="Helvetica,sans-Serif" font-weight="bold" font-size="14.00">frame_cwds</text>
<text text-anchor="start" x="300" y="-178.8" font-family="Helvetica,sans-Serif" font-style="italic" font-size="14.00">list</text>
</g>
<!-- wethyd_choices&#45;&gt;frame_cwds -->
<g id="edge14" class="edge">
<title>wethyd_choices&#45;&gt;frame_cwds</title>
<path fill="none" stroke="black" d="M171.15,-256.47C194.58,-246.23 220.45,-234.92 243.41,-224.88"/>
<polygon fill="black" stroke="black" points="244.96,-228.03 252.73,-220.81 242.16,-221.61 244.96,-228.03"/>
</g>
<!-- frame_cwds&#45;&gt;wethyd_us_energies -->
<g id="edge5" class="edge">
<title>frame_cwds&#45;&gt;wethyd_us_energies</title>
<path fill="none" stroke="black" d="M368.09,-220.91C377.64,-225.83 387.28,-231.26 396,-237 423.72,-255.25 451.94,-279.4 473.83,-299.62"/>
<polygon fill="black" stroke="black" points="471.6,-302.33 481.3,-306.59 476.38,-297.21 471.6,-302.33"/>
</g>
<!-- frame_cwds&#45;&gt;break_us_protons -->
<g id="edge15" class="edge">
<title>frame_cwds&#45;&gt;break_us_protons</title>
<path fill="none" stroke="black" d="M368.18,-201.6C385.71,-203.33 405.48,-205.28 424.66,-207.18"/>
<polygon fill="black" stroke="black" points="424.33,-210.66 434.63,-208.16 425.02,-203.69 424.33,-210.66"/>
</g>
<!-- frame_cwds&#45;&gt;break_us_distances -->
<g id="edge17" class="edge">
<title>frame_cwds&#45;&gt;break_us_distances</title>
<path fill="none" stroke="black" d="M368.44,-168.68C377.68,-164.16 387.12,-159.48 396,-155 411.8,-147.02 428.69,-138.27 444.61,-129.93"/>
<polygon fill="black" stroke="black" points="446.63,-132.82 453.86,-125.07 443.38,-126.62 446.63,-132.82"/>
</g>
<!-- ts_break_us_comb -->
<g id="node18" class="node">
<title>ts_break_us_comb</title>
<path fill="#b4d8e4" stroke="black" d="M167.5,-781C167.5,-781 28.5,-781 28.5,-781 22.5,-781 16.5,-775 16.5,-769 16.5,-769 16.5,-729 16.5,-729 16.5,-723 22.5,-717 28.5,-717 28.5,-717 167.5,-717 167.5,-717 173.5,-717 179.5,-723 179.5,-729 179.5,-729 179.5,-769 179.5,-769 179.5,-775 173.5,-781 167.5,-781"/>
<text text-anchor="start" x="27.5" y="-759.8" font-family="Helvetica,sans-Serif" font-weight="bold" font-size="14.00">ts_break_us_comb</text>
<text text-anchor="start" x="88.5" y="-731.8" font-family="Helvetica,sans-Serif" font-style="italic" font-size="14.00">str</text>
</g>
<!-- ts_break_us_comb&#45;&gt;wetbreak_us_comb -->
<g id="edge4" class="edge">
<title>ts_break_us_comb&#45;&gt;wetbreak_us_comb</title>
<path fill="none" stroke="black" d="M179.78,-741.32C191.35,-740.23 203.34,-739.09 215.14,-737.97"/>
<polygon fill="black" stroke="black" points="215.82,-741.42 225.44,-736.99 215.16,-734.45 215.82,-741.42"/>
</g>
<!-- ts_hyd_us_comb -->
<g id="node21" class="node">
<title>ts_hyd_us_comb</title>
<path fill="#b4d8e4" stroke="black" d="M159,-146C159,-146 37,-146 37,-146 31,-146 25,-140 25,-134 25,-134 25,-94 25,-94 25,-88 31,-82 37,-82 37,-82 159,-82 159,-82 165,-82 171,-88 171,-94 171,-94 171,-134 171,-134 171,-140 165,-146 159,-146"/>
<text text-anchor="start" x="36" y="-124.8" font-family="Helvetica,sans-Serif" font-weight="bold" font-size="14.00">ts_hyd_us_comb</text>
<text text-anchor="start" x="88.5" y="-96.8" font-family="Helvetica,sans-Serif" font-style="italic" font-size="14.00">str</text>
</g>
<!-- ts_hyd_us_comb&#45;&gt;wethyd_us_comb -->
<g id="edge8" class="edge">
<title>ts_hyd_us_comb&#45;&gt;wethyd_us_comb</title>
<path fill="none" stroke="black" d="M171.15,-114C187.96,-114 206.03,-114 223.38,-114"/>
<polygon fill="black" stroke="black" points="223.5,-117.5 233.5,-114 223.5,-110.5 223.5,-117.5"/>
</g>
<!-- function -->
<g id="node22" class="node">
<title>function</title>
<path fill="#b4d8e4" stroke="black" d="M126,-1055.5C126,-1055.5 70,-1055.5 70,-1055.5 64,-1055.5 58,-1049.5 58,-1043.5 58,-1043.5 58,-1030.5 58,-1030.5 58,-1024.5 64,-1018.5 70,-1018.5 70,-1018.5 126,-1018.5 126,-1018.5 132,-1018.5 138,-1024.5 138,-1030.5 138,-1030.5 138,-1043.5 138,-1043.5 138,-1049.5 132,-1055.5 126,-1055.5"/>
<text text-anchor="middle" x="98" y="-1033.3" font-family="Helvetica,sans-Serif" font-size="14.00">function</text>
</g>
<!-- output -->
<g id="node23" class="node">
<title>output</title>
<path fill="#ffc857" stroke="black" d="M120,-1000.5C120,-1000.5 76,-1000.5 76,-1000.5 70,-1000.5 64,-994.5 64,-988.5 64,-988.5 64,-975.5 64,-975.5 64,-969.5 70,-963.5 76,-963.5 76,-963.5 120,-963.5 120,-963.5 126,-963.5 132,-969.5 132,-975.5 132,-975.5 132,-988.5 132,-988.5 132,-994.5 126,-1000.5 120,-1000.5"/>
<text text-anchor="middle" x="98" y="-978.3" font-family="Helvetica,sans-Serif" font-size="14.00">output</text>
</g>
</g>
</svg>
