<?xml version="1.0" encoding="UTF-8" standalone="no"?>
<!DOCTYPE svg PUBLIC "-//W3C//DTD SVG 1.1//EN"
 "http://www.w3.org/Graphics/SVG/1.1/DTD/svg11.dtd">
<!-- Generated by graphviz version 2.43.0 (0)
 -->
<!-- Title: %3 Pages: 1 -->
<svg width="1190pt" height="994pt"
 viewBox="0.00 0.00 1190.00 994.00" xmlns="http://www.w3.org/2000/svg" xmlns:xlink="http://www.w3.org/1999/xlink">
<g id="graph0" class="graph" transform="scale(1 1) rotate(0) translate(4 990)">
<title>%3</title>
<polygon fill="white" stroke="transparent" points="-4,4 -4,-990 1186,-990 1186,4 -4,4"/>
<g id="clust1" class="cluster">
<title>cluster__legend</title>
<polygon fill="#ffffff" stroke="black" points="33,-846 33,-978 129,-978 129,-846 33,-846"/>
<text text-anchor="middle" x="81" y="-962.8" font-family="Helvetica,sans-Serif" font-size="14.00">Legend</text>
</g>
<!-- wethyd_choices_comb_analysed -->
<g id="node1" class="node">
<title>wethyd_choices_comb_analysed</title>
<path fill="#b4d8e4" stroke="black" d="M451,-146C451,-146 203,-146 203,-146 197,-146 191,-140 191,-134 191,-134 191,-94 191,-94 191,-88 197,-82 203,-82 203,-82 451,-82 451,-82 457,-82 463,-88 463,-94 463,-94 463,-134 463,-134 463,-140 457,-146 451,-146"/>
<text text-anchor="start" x="202" y="-124.8" font-family="Helvetica,sans-Serif" font-weight="bold" font-size="14.00">wethyd_choices_comb_analysed</text>
<text text-anchor="start" x="288.5" y="-96.8" font-family="Helvetica,sans-Serif" font-style="italic" font-size="14.00">DataFrame</text>
</g>
<!-- wethyd_us_comb -->
<g id="node18" class="node">
<title>wethyd_us_comb</title>
<path fill="#b4d8e4" stroke="black" d="M634,-146C634,-146 504,-146 504,-146 498,-146 492,-140 492,-134 492,-134 492,-94 492,-94 492,-88 498,-82 504,-82 504,-82 634,-82 634,-82 640,-82 646,-88 646,-94 646,-94 646,-134 646,-134 646,-140 640,-146 634,-146"/>
<text text-anchor="start" x="503" y="-124.8" font-family="Helvetica,sans-Serif" font-weight="bold" font-size="14.00">wethyd_us_comb</text>
<text text-anchor="start" x="530.5" y="-96.8" font-family="Helvetica,sans-Serif" font-style="italic" font-size="14.00">DataFrame</text>
</g>
<!-- wethyd_choices_comb_analysed&#45;&gt;wethyd_us_comb -->
<g id="edge15" class="edge">
<title>wethyd_choices_comb_analysed&#45;&gt;wethyd_us_comb</title>
<path fill="none" stroke="black" d="M463.08,-114C469.36,-114 475.59,-114 481.69,-114"/>
<polygon fill="black" stroke="black" points="481.82,-117.5 491.82,-114 481.82,-110.5 481.82,-117.5"/>
</g>
<!-- ix_to_resname -->
<g id="node2" class="node">
<title>ix_to_resname</title>
<path fill="#b4d8e4" stroke="black" d="M382,-228C382,-228 272,-228 272,-228 266,-228 260,-222 260,-216 260,-216 260,-176 260,-176 260,-170 266,-164 272,-164 272,-164 382,-164 382,-164 388,-164 394,-170 394,-176 394,-176 394,-216 394,-216 394,-222 388,-228 382,-228"/>
<text text-anchor="start" x="271" y="-206.8" font-family="Helvetica,sans-Serif" font-weight="bold" font-size="14.00">ix_to_resname</text>
<text text-anchor="start" x="317.5" y="-178.8" font-family="Helvetica,sans-Serif" font-style="italic" font-size="14.00">str</text>
</g>
<!-- mean_distances -->
<g id="node3" class="node">
<title>mean_distances</title>
<path fill="#b4d8e4" stroke="black" d="M1170,-228C1170,-228 1046,-228 1046,-228 1040,-228 1034,-222 1034,-216 1034,-216 1034,-176 1034,-176 1034,-170 1040,-164 1046,-164 1046,-164 1170,-164 1170,-164 1176,-164 1182,-170 1182,-176 1182,-176 1182,-216 1182,-216 1182,-222 1176,-228 1170,-228"/>
<text text-anchor="start" x="1045" y="-206.8" font-family="Helvetica,sans-Serif" font-weight="bold" font-size="14.00">mean_distances</text>
<text text-anchor="start" x="1069.5" y="-178.8" font-family="Helvetica,sans-Serif" font-style="italic" font-size="14.00">DataFrame</text>
</g>
<!-- wethyd_choices -->
<g id="node4" class="node">
<title>wethyd_choices</title>
<path fill="#b4d8e4" stroke="black" d="M142,-105C142,-105 20,-105 20,-105 14,-105 8,-99 8,-93 8,-93 8,-53 8,-53 8,-47 14,-41 20,-41 20,-41 142,-41 142,-41 148,-41 154,-47 154,-53 154,-53 154,-93 154,-93 154,-99 148,-105 142,-105"/>
<text text-anchor="start" x="19" y="-83.8" font-family="Helvetica,sans-Serif" font-weight="bold" font-size="14.00">wethyd_choices</text>
<text text-anchor="start" x="42.5" y="-55.8" font-family="Helvetica,sans-Serif" font-style="italic" font-size="14.00">DataFrame</text>
</g>
<!-- wethyd_choices&#45;&gt;wethyd_choices_comb_analysed -->
<g id="edge1" class="edge">
<title>wethyd_choices&#45;&gt;wethyd_choices_comb_analysed</title>
<path fill="none" stroke="black" d="M154.22,-85.13C162.78,-86.57 171.74,-88.08 180.88,-89.62"/>
<polygon fill="black" stroke="black" points="180.42,-93.09 190.86,-91.29 181.58,-86.18 180.42,-93.09"/>
</g>
<!-- wethyd_choices_analysed -->
<g id="node9" class="node">
<title>wethyd_choices_analysed</title>
<path fill="#b4d8e4" stroke="black" d="M426.5,-64C426.5,-64 227.5,-64 227.5,-64 221.5,-64 215.5,-58 215.5,-52 215.5,-52 215.5,-12 215.5,-12 215.5,-6 221.5,0 227.5,0 227.5,0 426.5,0 426.5,0 432.5,0 438.5,-6 438.5,-12 438.5,-12 438.5,-52 438.5,-52 438.5,-58 432.5,-64 426.5,-64"/>
<text text-anchor="start" x="226.5" y="-42.8" font-family="Helvetica,sans-Serif" font-weight="bold" font-size="14.00">wethyd_choices_analysed</text>
<text text-anchor="start" x="288.5" y="-14.8" font-family="Helvetica,sans-Serif" font-style="italic" font-size="14.00">DataFrame</text>
</g>
<!-- wethyd_choices&#45;&gt;wethyd_choices_analysed -->
<g id="edge6" class="edge">
<title>wethyd_choices&#45;&gt;wethyd_choices_analysed</title>
<path fill="none" stroke="black" d="M154.22,-60.87C170.19,-58.18 187.54,-55.27 204.87,-52.35"/>
<polygon fill="black" stroke="black" points="205.78,-55.75 215.06,-50.64 204.62,-48.85 205.78,-55.75"/>
</g>
<!-- env_dir -->
<g id="node5" class="node">
<title>env_dir</title>
<path fill="#b4d8e4" stroke="black" d="M108.5,-351C108.5,-351 53.5,-351 53.5,-351 47.5,-351 41.5,-345 41.5,-339 41.5,-339 41.5,-299 41.5,-299 41.5,-293 47.5,-287 53.5,-287 53.5,-287 108.5,-287 108.5,-287 114.5,-287 120.5,-293 120.5,-299 120.5,-299 120.5,-339 120.5,-339 120.5,-345 114.5,-351 108.5,-351"/>
<text text-anchor="start" x="52.5" y="-329.8" font-family="Helvetica,sans-Serif" font-weight="bold" font-size="14.00">env_dir</text>
<text text-anchor="start" x="71.5" y="-301.8" font-family="Helvetica,sans-Serif" font-style="italic" font-size="14.00">str</text>
</g>
<!-- get_env_paths -->
<g id="node17" class="node">
<title>get_env_paths</title>
<path fill="#b4d8e4" stroke="black" d="M382.5,-392C382.5,-392 271.5,-392 271.5,-392 265.5,-392 259.5,-386 259.5,-380 259.5,-380 259.5,-340 259.5,-340 259.5,-334 265.5,-328 271.5,-328 271.5,-328 382.5,-328 382.5,-328 388.5,-328 394.5,-334 394.5,-340 394.5,-340 394.5,-380 394.5,-380 394.5,-386 388.5,-392 382.5,-392"/>
<text text-anchor="start" x="270.5" y="-370.8" font-family="Helvetica,sans-Serif" font-weight="bold" font-size="14.00">get_env_paths</text>
<text text-anchor="start" x="314.5" y="-342.8" font-family="Helvetica,sans-Serif" font-style="italic" font-size="14.00">List</text>
</g>
<!-- env_dir&#45;&gt;get_env_paths -->
<g id="edge14" class="edge">
<title>env_dir&#45;&gt;get_env_paths</title>
<path fill="none" stroke="black" d="M120.66,-325.5C155.12,-331.29 206.57,-339.93 249.35,-347.12"/>
<polygon fill="black" stroke="black" points="249.02,-350.61 259.46,-348.82 250.18,-343.71 249.02,-350.61"/>
</g>
<!-- env_paths -->
<g id="node22" class="node">
<title>env_paths</title>
<path fill="#b4d8e4" stroke="black" d="M366,-310C366,-310 288,-310 288,-310 282,-310 276,-304 276,-298 276,-298 276,-258 276,-258 276,-252 282,-246 288,-246 288,-246 366,-246 366,-246 372,-246 378,-252 378,-258 378,-258 378,-298 378,-298 378,-304 372,-310 366,-310"/>
<text text-anchor="start" x="287" y="-288.8" font-family="Helvetica,sans-Serif" font-weight="bold" font-size="14.00">env_paths</text>
<text text-anchor="start" x="314.5" y="-260.8" font-family="Helvetica,sans-Serif" font-style="italic" font-size="14.00">List</text>
</g>
<!-- env_dir&#45;&gt;env_paths -->
<g id="edge19" class="edge">
<title>env_dir&#45;&gt;env_paths</title>
<path fill="none" stroke="black" d="M120.66,-312.5C159.64,-305.95 220.36,-295.75 265.67,-288.14"/>
<polygon fill="black" stroke="black" points="266.39,-291.57 275.67,-286.46 265.23,-284.66 266.39,-291.57"/>
</g>
<!-- wetbreak_starts -->
<g id="node6" class="node">
<title>wetbreak_starts</title>
<path fill="#b4d8e4" stroke="black" d="M144,-433C144,-433 18,-433 18,-433 12,-433 6,-427 6,-421 6,-421 6,-381 6,-381 6,-375 12,-369 18,-369 18,-369 144,-369 144,-369 150,-369 156,-375 156,-381 156,-381 156,-421 156,-421 156,-427 150,-433 144,-433"/>
<text text-anchor="start" x="17" y="-411.8" font-family="Helvetica,sans-Serif" font-weight="bold" font-size="14.00">wetbreak_starts</text>
<text text-anchor="start" x="42.5" y="-383.8" font-family="Helvetica,sans-Serif" font-style="italic" font-size="14.00">DataFrame</text>
</g>
<!-- read_distances -->
<g id="node7" class="node">
<title>read_distances</title>
<path fill="#b4d8e4" stroke="black" d="M385,-516C385,-516 269,-516 269,-516 263,-516 257,-510 257,-504 257,-504 257,-464 257,-464 257,-458 263,-452 269,-452 269,-452 385,-452 385,-452 391,-452 397,-458 397,-464 397,-464 397,-504 397,-504 397,-510 391,-516 385,-516"/>
<text text-anchor="start" x="268" y="-494.8" font-family="Helvetica,sans-Serif" font-weight="bold" font-size="14.00">read_distances</text>
<text text-anchor="start" x="288.5" y="-466.8" font-family="Helvetica,sans-Serif" font-style="italic" font-size="14.00">DataFrame</text>
</g>
<!-- envs -->
<g id="node8" class="node">
<title>envs</title>
<path fill="#b4d8e4" stroke="black" d="M722,-310C722,-310 687,-310 687,-310 681,-310 675,-304 675,-298 675,-298 675,-258 675,-258 675,-252 681,-246 687,-246 687,-246 722,-246 722,-246 728,-246 734,-252 734,-258 734,-258 734,-298 734,-298 734,-304 728,-310 722,-310"/>
<text text-anchor="start" x="686" y="-288.8" font-family="Helvetica,sans-Serif" font-weight="bold" font-size="14.00">envs</text>
<text text-anchor="start" x="692" y="-260.8" font-family="Helvetica,sans-Serif" font-style="italic" font-size="14.00">List</text>
</g>
<!-- envs_run_6 -->
<g id="node10" class="node">
<title>envs_run_6</title>
<path fill="#b4d8e4" stroke="black" d="M862.5,-351C862.5,-351 777.5,-351 777.5,-351 771.5,-351 765.5,-345 765.5,-339 765.5,-339 765.5,-299 765.5,-299 765.5,-293 771.5,-287 777.5,-287 777.5,-287 862.5,-287 862.5,-287 868.5,-287 874.5,-293 874.5,-299 874.5,-299 874.5,-339 874.5,-339 874.5,-345 868.5,-351 862.5,-351"/>
<text text-anchor="start" x="776.5" y="-329.8" font-family="Helvetica,sans-Serif" font-weight="bold" font-size="14.00">envs_run_6</text>
<text text-anchor="start" x="807.5" y="-301.8" font-family="Helvetica,sans-Serif" font-style="italic" font-size="14.00">List</text>
</g>
<!-- envs&#45;&gt;envs_run_6 -->
<g id="edge7" class="edge">
<title>envs&#45;&gt;envs_run_6</title>
<path fill="none" stroke="black" d="M734.14,-288.35C740.79,-290.75 748.13,-293.4 755.62,-296.11"/>
<polygon fill="black" stroke="black" points="754.56,-299.44 765.16,-299.55 756.94,-292.86 754.56,-299.44"/>
</g>
<!-- parameters -->
<g id="node15" class="node">
<title>parameters</title>
<path fill="#b4d8e4" stroke="black" d="M865,-269C865,-269 775,-269 775,-269 769,-269 763,-263 763,-257 763,-257 763,-217 763,-217 763,-211 769,-205 775,-205 775,-205 865,-205 865,-205 871,-205 877,-211 877,-217 877,-217 877,-257 877,-257 877,-263 871,-269 865,-269"/>
<text text-anchor="start" x="774" y="-247.8" font-family="Helvetica,sans-Serif" font-weight="bold" font-size="14.00">parameters</text>
<text text-anchor="start" x="781.5" y="-219.8" font-family="Helvetica,sans-Serif" font-style="italic" font-size="14.00">DataFrame</text>
</g>
<!-- envs&#45;&gt;parameters -->
<g id="edge12" class="edge">
<title>envs&#45;&gt;parameters</title>
<path fill="none" stroke="black" d="M734.14,-267.65C740.05,-265.52 746.51,-263.19 753.14,-260.79"/>
<polygon fill="black" stroke="black" points="754.71,-263.95 762.93,-257.26 752.33,-257.36 754.71,-263.95"/>
</g>
<!-- wethyd_us -->
<g id="node11" class="node">
<title>wethyd_us</title>
<path fill="#b4d8e4" stroke="black" d="M609.5,-64C609.5,-64 528.5,-64 528.5,-64 522.5,-64 516.5,-58 516.5,-52 516.5,-52 516.5,-12 516.5,-12 516.5,-6 522.5,0 528.5,0 528.5,0 609.5,0 609.5,0 615.5,0 621.5,-6 621.5,-12 621.5,-12 621.5,-52 621.5,-52 621.5,-58 615.5,-64 609.5,-64"/>
<text text-anchor="start" x="527.5" y="-42.8" font-family="Helvetica,sans-Serif" font-weight="bold" font-size="14.00">wethyd_us</text>
<text text-anchor="start" x="530.5" y="-14.8" font-family="Helvetica,sans-Serif" font-style="italic" font-size="14.00">DataFrame</text>
</g>
<!-- wethyd_choices_analysed&#45;&gt;wethyd_us -->
<g id="edge8" class="edge">
<title>wethyd_choices_analysed&#45;&gt;wethyd_us</title>
<path fill="none" stroke="black" d="M438.52,-32C461.78,-32 485.51,-32 506.2,-32"/>
<polygon fill="black" stroke="black" points="506.41,-35.5 516.41,-32 506.41,-28.5 506.41,-35.5"/>
</g>
<!-- env_files -->
<g id="node12" class="node">
<title>env_files</title>
<path fill="#b4d8e4" stroke="black" d="M602.5,-310C602.5,-310 535.5,-310 535.5,-310 529.5,-310 523.5,-304 523.5,-298 523.5,-298 523.5,-258 523.5,-258 523.5,-252 529.5,-246 535.5,-246 535.5,-246 602.5,-246 602.5,-246 608.5,-246 614.5,-252 614.5,-258 614.5,-258 614.5,-298 614.5,-298 614.5,-304 608.5,-310 602.5,-310"/>
<text text-anchor="start" x="534.5" y="-288.8" font-family="Helvetica,sans-Serif" font-weight="bold" font-size="14.00">env_files</text>
<text text-anchor="start" x="556.5" y="-260.8" font-family="Helvetica,sans-Serif" font-style="italic" font-size="14.00">List</text>
</g>
<!-- env_files&#45;&gt;envs -->
<g id="edge5" class="edge">
<title>env_files&#45;&gt;envs</title>
<path fill="none" stroke="black" d="M614.82,-278C630.95,-278 649,-278 664.58,-278"/>
<polygon fill="black" stroke="black" points="664.92,-281.5 674.92,-278 664.92,-274.5 664.92,-281.5"/>
</g>
<!-- read_xvg -->
<g id="node13" class="node">
<title>read_xvg</title>
<path fill="#b4d8e4" stroke="black" d="M364.5,-600C364.5,-600 289.5,-600 289.5,-600 283.5,-600 277.5,-594 277.5,-588 277.5,-588 277.5,-548 277.5,-548 277.5,-542 283.5,-536 289.5,-536 289.5,-536 364.5,-536 364.5,-536 370.5,-536 376.5,-542 376.5,-548 376.5,-548 376.5,-588 376.5,-588 376.5,-594 370.5,-600 364.5,-600"/>
<text text-anchor="start" x="291.5" y="-578.8" font-family="Helvetica,sans-Serif" font-weight="bold" font-size="14.00">read_xvg</text>
<text text-anchor="start" x="288.5" y="-550.8" font-family="Helvetica,sans-Serif" font-style="italic" font-size="14.00">DataFrame</text>
</g>
<!-- read_env -->
<g id="node14" class="node">
<title>read_env</title>
<path fill="#b4d8e4" stroke="black" d="M362,-682C362,-682 292,-682 292,-682 286,-682 280,-676 280,-670 280,-670 280,-630 280,-630 280,-624 286,-618 292,-618 292,-618 362,-618 362,-618 368,-618 374,-624 374,-630 374,-630 374,-670 374,-670 374,-676 368,-682 362,-682"/>
<text text-anchor="start" x="291" y="-660.8" font-family="Helvetica,sans-Serif" font-weight="bold" font-size="14.00">read_env</text>
<text text-anchor="start" x="313" y="-632.8" font-family="Helvetica,sans-Serif" font-style="italic" font-size="14.00">Dict</text>
</g>
<!-- pull -->
<g id="node16" class="node">
<title>pull</title>
<path fill="#b4d8e4" stroke="black" d="M993,-310C993,-310 918,-310 918,-310 912,-310 906,-304 906,-298 906,-298 906,-258 906,-258 906,-252 912,-246 918,-246 918,-246 993,-246 993,-246 999,-246 1005,-252 1005,-258 1005,-258 1005,-298 1005,-298 1005,-304 999,-310 993,-310"/>
<text text-anchor="start" x="941" y="-288.8" font-family="Helvetica,sans-Serif" font-weight="bold" font-size="14.00">pull</text>
<text text-anchor="start" x="917" y="-260.8" font-family="Helvetica,sans-Serif" font-style="italic" font-size="14.00">DataFrame</text>
</g>
<!-- parameters&#45;&gt;pull -->
<g id="edge13" class="edge">
<title>parameters&#45;&gt;pull</title>
<path fill="none" stroke="black" d="M877.23,-254.27C883.5,-256.19 889.89,-258.16 896.18,-260.09"/>
<polygon fill="black" stroke="black" points="895.36,-263.5 905.95,-263.09 897.42,-256.81 895.36,-263.5"/>
</g>
<!-- distances -->
<g id="node20" class="node">
<title>distances</title>
<path fill="#b4d8e4" stroke="black" d="M993,-228C993,-228 918,-228 918,-228 912,-228 906,-222 906,-216 906,-216 906,-176 906,-176 906,-170 912,-164 918,-164 918,-164 993,-164 993,-164 999,-164 1005,-170 1005,-176 1005,-176 1005,-216 1005,-216 1005,-222 999,-228 993,-228"/>
<text text-anchor="start" x="917.5" y="-206.8" font-family="Helvetica,sans-Serif" font-weight="bold" font-size="14.00">distances</text>
<text text-anchor="start" x="917" y="-178.8" font-family="Helvetica,sans-Serif" font-style="italic" font-size="14.00">DataFrame</text>
</g>
<!-- parameters&#45;&gt;distances -->
<g id="edge17" class="edge">
<title>parameters&#45;&gt;distances</title>
<path fill="none" stroke="black" d="M877.23,-219.73C883.5,-217.81 889.89,-215.84 896.18,-213.91"/>
<polygon fill="black" stroke="black" points="897.42,-217.19 905.95,-210.91 895.36,-210.5 897.42,-217.19"/>
</g>
<!-- read_us_hist -->
<g id="node19" class="node">
<title>read_us_hist</title>
<path fill="#b4d8e4" stroke="black" d="M374.5,-764C374.5,-764 279.5,-764 279.5,-764 273.5,-764 267.5,-758 267.5,-752 267.5,-752 267.5,-712 267.5,-712 267.5,-706 273.5,-700 279.5,-700 279.5,-700 374.5,-700 374.5,-700 380.5,-700 386.5,-706 386.5,-712 386.5,-712 386.5,-752 386.5,-752 386.5,-758 380.5,-764 374.5,-764"/>
<text text-anchor="start" x="278.5" y="-742.8" font-family="Helvetica,sans-Serif" font-weight="bold" font-size="14.00">read_us_hist</text>
<text text-anchor="start" x="288.5" y="-714.8" font-family="Helvetica,sans-Serif" font-style="italic" font-size="14.00">DataFrame</text>
</g>
<!-- distances&#45;&gt;mean_distances -->
<g id="edge3" class="edge">
<title>distances&#45;&gt;mean_distances</title>
<path fill="none" stroke="black" d="M1005.36,-196C1011.19,-196 1017.26,-196 1023.41,-196"/>
<polygon fill="black" stroke="black" points="1023.79,-199.5 1033.79,-196 1023.79,-192.5 1023.79,-199.5"/>
</g>
<!-- read_us_prof -->
<g id="node21" class="node">
<title>read_us_prof</title>
<path fill="#b4d8e4" stroke="black" d="M376,-846C376,-846 278,-846 278,-846 272,-846 266,-840 266,-834 266,-834 266,-794 266,-794 266,-788 272,-782 278,-782 278,-782 376,-782 376,-782 382,-782 388,-788 388,-794 388,-794 388,-834 388,-834 388,-840 382,-846 376,-846"/>
<text text-anchor="start" x="277" y="-824.8" font-family="Helvetica,sans-Serif" font-weight="bold" font-size="14.00">read_us_prof</text>
<text text-anchor="start" x="288.5" y="-796.8" font-family="Helvetica,sans-Serif" font-style="italic" font-size="14.00">DataFrame</text>
</g>
<!-- env_paths&#45;&gt;env_files -->
<g id="edge9" class="edge">
<title>env_paths&#45;&gt;env_files</title>
<path fill="none" stroke="black" d="M378.02,-278C417.53,-278 472.61,-278 513.29,-278"/>
<polygon fill="black" stroke="black" points="513.3,-281.5 523.3,-278 513.3,-274.5 513.3,-281.5"/>
</g>
<!-- _ix_to_resname_inputs -->
<g id="node23" class="node">
<title>_ix_to_resname_inputs</title>
<polygon fill="#ffffff" stroke="black" stroke-dasharray="5,2" points="115,-218.5 47,-218.5 47,-173.5 115,-173.5 115,-218.5"/>
<text text-anchor="start" x="62" y="-191.8" font-family="Helvetica,sans-Serif" font-size="14.00">ix</text>
<text text-anchor="start" x="81" y="-191.8" font-family="Helvetica,sans-Serif" font-size="14.00">int</text>
</g>
<!-- _ix_to_resname_inputs&#45;&gt;ix_to_resname -->
<g id="edge2" class="edge">
<title>_ix_to_resname_inputs&#45;&gt;ix_to_resname</title>
<path fill="none" stroke="black" d="M115.16,-196C149.56,-196 204.55,-196 249.75,-196"/>
<polygon fill="black" stroke="black" points="249.82,-199.5 259.82,-196 249.82,-192.5 249.82,-199.5"/>
</g>
<!-- _read_distances_inputs -->
<g id="node24" class="node">
<title>_read_distances_inputs</title>
<polygon fill="#ffffff" stroke="black" stroke-dasharray="5,2" points="122.5,-517 39.5,-517 39.5,-451 122.5,-451 122.5,-517"/>
<text text-anchor="start" x="58" y="-490.8" font-family="Helvetica,sans-Serif" font-size="14.00">job</text>
<text text-anchor="start" x="89" y="-490.8" font-family="Helvetica,sans-Serif" font-size="14.00">str</text>
<text text-anchor="start" x="55" y="-469.8" font-family="Helvetica,sans-Serif" font-size="14.00">cwd</text>
<text text-anchor="start" x="89" y="-469.8" font-family="Helvetica,sans-Serif" font-size="14.00">str</text>
</g>
<!-- _read_distances_inputs&#45;&gt;read_distances -->
<g id="edge4" class="edge">
<title>_read_distances_inputs&#45;&gt;read_distances</title>
<path fill="none" stroke="black" d="M122.57,-484C156.24,-484 205.15,-484 246.58,-484"/>
<polygon fill="black" stroke="black" points="246.66,-487.5 256.66,-484 246.66,-480.5 246.66,-487.5"/>
</g>
<!-- _read_xvg_inputs -->
<g id="node25" class="node">
<title>_read_xvg_inputs</title>
<polygon fill="#ffffff" stroke="black" stroke-dasharray="5,2" points="162,-601 0,-601 0,-535 162,-535 162,-601"/>
<text text-anchor="start" x="15" y="-574.8" font-family="Helvetica,sans-Serif" font-size="14.00">colnames</text>
<text text-anchor="start" x="88" y="-574.8" font-family="Helvetica,sans-Serif" font-size="14.00">Optional</text>
<text text-anchor="start" x="32.5" y="-553.8" font-family="Helvetica,sans-Serif" font-size="14.00">path</text>
<text text-anchor="start" x="108" y="-553.8" font-family="Helvetica,sans-Serif" font-size="14.00">str</text>
</g>
<!-- _read_xvg_inputs&#45;&gt;read_xvg -->
<g id="edge10" class="edge">
<title>_read_xvg_inputs&#45;&gt;read_xvg</title>
<path fill="none" stroke="black" d="M162.23,-568C196.43,-568 235.6,-568 267.06,-568"/>
<polygon fill="black" stroke="black" points="267.41,-571.5 277.41,-568 267.41,-564.5 267.41,-571.5"/>
</g>
<!-- _read_env_inputs -->
<g id="node26" class="node">
<title>_read_env_inputs</title>
<polygon fill="#ffffff" stroke="black" stroke-dasharray="5,2" points="124.5,-672.5 37.5,-672.5 37.5,-627.5 124.5,-627.5 124.5,-672.5"/>
<text text-anchor="start" x="53" y="-645.8" font-family="Helvetica,sans-Serif" font-size="14.00">path</text>
<text text-anchor="start" x="91" y="-645.8" font-family="Helvetica,sans-Serif" font-size="14.00">str</text>
</g>
<!-- _read_env_inputs&#45;&gt;read_env -->
<g id="edge11" class="edge">
<title>_read_env_inputs&#45;&gt;read_env</title>
<path fill="none" stroke="black" d="M124.5,-650C164.78,-650 225.54,-650 269.81,-650"/>
<polygon fill="black" stroke="black" points="269.84,-653.5 279.84,-650 269.84,-646.5 269.84,-653.5"/>
</g>
<!-- _read_us_hist_inputs -->
<g id="node27" class="node">
<title>_read_us_hist_inputs</title>
<polygon fill="#ffffff" stroke="black" stroke-dasharray="5,2" points="124.5,-754.5 37.5,-754.5 37.5,-709.5 124.5,-709.5 124.5,-754.5"/>
<text text-anchor="start" x="53" y="-727.8" font-family="Helvetica,sans-Serif" font-size="14.00">path</text>
<text text-anchor="start" x="91" y="-727.8" font-family="Helvetica,sans-Serif" font-size="14.00">str</text>
</g>
<!-- _read_us_hist_inputs&#45;&gt;read_us_hist -->
<g id="edge16" class="edge">
<title>_read_us_hist_inputs&#45;&gt;read_us_hist</title>
<path fill="none" stroke="black" d="M124.5,-732C161.03,-732 214.41,-732 257.05,-732"/>
<polygon fill="black" stroke="black" points="257.08,-735.5 267.08,-732 257.08,-728.5 257.08,-735.5"/>
</g>
<!-- _read_us_prof_inputs -->
<g id="node28" class="node">
<title>_read_us_prof_inputs</title>
<polygon fill="#ffffff" stroke="black" stroke-dasharray="5,2" points="124.5,-836.5 37.5,-836.5 37.5,-791.5 124.5,-791.5 124.5,-836.5"/>
<text text-anchor="start" x="53" y="-809.8" font-family="Helvetica,sans-Serif" font-size="14.00">path</text>
<text text-anchor="start" x="91" y="-809.8" font-family="Helvetica,sans-Serif" font-size="14.00">str</text>
</g>
<!-- _read_us_prof_inputs&#45;&gt;read_us_prof -->
<g id="edge18" class="edge">
<title>_read_us_prof_inputs&#45;&gt;read_us_prof</title>
<path fill="none" stroke="black" d="M124.5,-814C160.58,-814 213.08,-814 255.45,-814"/>
<polygon fill="black" stroke="black" points="255.7,-817.5 265.7,-814 255.7,-810.5 255.7,-817.5"/>
</g>
<!-- input -->
<g id="node29" class="node">
<title>input</title>
<polygon fill="#ffffff" stroke="black" stroke-dasharray="5,2" points="110.5,-946.5 51.5,-946.5 51.5,-909.5 110.5,-909.5 110.5,-946.5"/>
<text text-anchor="middle" x="81" y="-924.3" font-family="Helvetica,sans-Serif" font-size="14.00">input</text>
</g>
<!-- function -->
<g id="node30" class="node">
<title>function</title>
<path fill="#b4d8e4" stroke="black" d="M109,-891.5C109,-891.5 53,-891.5 53,-891.5 47,-891.5 41,-885.5 41,-879.5 41,-879.5 41,-866.5 41,-866.5 41,-860.5 47,-854.5 53,-854.5 53,-854.5 109,-854.5 109,-854.5 115,-854.5 121,-860.5 121,-866.5 121,-866.5 121,-879.5 121,-879.5 121,-885.5 115,-891.5 109,-891.5"/>
<text text-anchor="middle" x="81" y="-869.3" font-family="Helvetica,sans-Serif" font-size="14.00">function</text>
</g>
</g>
</svg>
